%TF.GenerationSoftware,KiCad,Pcbnew,(7.0.0)*%
%TF.CreationDate,2023-04-11T17:05:15-06:00*%
%TF.ProjectId,EmbeddedSystemsPhaseA,456d6265-6464-4656-9453-797374656d73,rev?*%
%TF.SameCoordinates,Original*%
%TF.FileFunction,Legend,Top*%
%TF.FilePolarity,Positive*%
%FSLAX46Y46*%
G04 Gerber Fmt 4.6, Leading zero omitted, Abs format (unit mm)*
G04 Created by KiCad (PCBNEW (7.0.0)) date 2023-04-11 17:05:15*
%MOMM*%
%LPD*%
G01*
G04 APERTURE LIST*
%ADD10C,0.200000*%
%ADD11C,0.150000*%
%ADD12C,0.120000*%
G04 APERTURE END LIST*
D10*
X148498095Y-87082380D02*
X148498095Y-86082380D01*
X148974285Y-87082380D02*
X148974285Y-86082380D01*
X148974285Y-86082380D02*
X149545713Y-87082380D01*
X149545713Y-87082380D02*
X149545713Y-86082380D01*
X150593332Y-86987142D02*
X150545713Y-87034761D01*
X150545713Y-87034761D02*
X150402856Y-87082380D01*
X150402856Y-87082380D02*
X150307618Y-87082380D01*
X150307618Y-87082380D02*
X150164761Y-87034761D01*
X150164761Y-87034761D02*
X150069523Y-86939523D01*
X150069523Y-86939523D02*
X150021904Y-86844285D01*
X150021904Y-86844285D02*
X149974285Y-86653809D01*
X149974285Y-86653809D02*
X149974285Y-86510952D01*
X149974285Y-86510952D02*
X150021904Y-86320476D01*
X150021904Y-86320476D02*
X150069523Y-86225238D01*
X150069523Y-86225238D02*
X150164761Y-86130000D01*
X150164761Y-86130000D02*
X150307618Y-86082380D01*
X150307618Y-86082380D02*
X150402856Y-86082380D01*
X150402856Y-86082380D02*
X150545713Y-86130000D01*
X150545713Y-86130000D02*
X150593332Y-86177619D01*
X151593332Y-87082380D02*
X151259999Y-86606190D01*
X151021904Y-87082380D02*
X151021904Y-86082380D01*
X151021904Y-86082380D02*
X151402856Y-86082380D01*
X151402856Y-86082380D02*
X151498094Y-86130000D01*
X151498094Y-86130000D02*
X151545713Y-86177619D01*
X151545713Y-86177619D02*
X151593332Y-86272857D01*
X151593332Y-86272857D02*
X151593332Y-86415714D01*
X151593332Y-86415714D02*
X151545713Y-86510952D01*
X151545713Y-86510952D02*
X151498094Y-86558571D01*
X151498094Y-86558571D02*
X151402856Y-86606190D01*
X151402856Y-86606190D02*
X151021904Y-86606190D01*
X152021904Y-86558571D02*
X152355237Y-86558571D01*
X152498094Y-87082380D02*
X152021904Y-87082380D01*
X152021904Y-87082380D02*
X152021904Y-86082380D01*
X152021904Y-86082380D02*
X152498094Y-86082380D01*
X152926666Y-87082380D02*
X152926666Y-86082380D01*
X152926666Y-86082380D02*
X153259999Y-86796666D01*
X153259999Y-86796666D02*
X153593332Y-86082380D01*
X153593332Y-86082380D02*
X153593332Y-87082380D01*
X154069523Y-86558571D02*
X154402856Y-86558571D01*
X154545713Y-87082380D02*
X154069523Y-87082380D01*
X154069523Y-87082380D02*
X154069523Y-86082380D01*
X154069523Y-86082380D02*
X154545713Y-86082380D01*
X154974285Y-87082380D02*
X154974285Y-86082380D01*
X154974285Y-86082380D02*
X155545713Y-87082380D01*
X155545713Y-87082380D02*
X155545713Y-86082380D01*
X155879047Y-86082380D02*
X156450475Y-86082380D01*
X156164761Y-87082380D02*
X156164761Y-86082380D01*
X142490238Y-78282376D02*
X142442619Y-78425233D01*
X142442619Y-78425233D02*
X142442619Y-78663328D01*
X142442619Y-78663328D02*
X142490238Y-78758566D01*
X142490238Y-78758566D02*
X142537857Y-78806185D01*
X142537857Y-78806185D02*
X142633095Y-78853804D01*
X142633095Y-78853804D02*
X142728333Y-78853804D01*
X142728333Y-78853804D02*
X142823571Y-78806185D01*
X142823571Y-78806185D02*
X142871190Y-78758566D01*
X142871190Y-78758566D02*
X142918809Y-78663328D01*
X142918809Y-78663328D02*
X142966428Y-78472852D01*
X142966428Y-78472852D02*
X143014047Y-78377614D01*
X143014047Y-78377614D02*
X143061666Y-78329995D01*
X143061666Y-78329995D02*
X143156904Y-78282376D01*
X143156904Y-78282376D02*
X143252142Y-78282376D01*
X143252142Y-78282376D02*
X143347380Y-78329995D01*
X143347380Y-78329995D02*
X143395000Y-78377614D01*
X143395000Y-78377614D02*
X143442619Y-78472852D01*
X143442619Y-78472852D02*
X143442619Y-78710947D01*
X143442619Y-78710947D02*
X143395000Y-78853804D01*
X143109285Y-79139519D02*
X143109285Y-79520471D01*
X143442619Y-79282376D02*
X142585476Y-79282376D01*
X142585476Y-79282376D02*
X142490238Y-79329995D01*
X142490238Y-79329995D02*
X142442619Y-79425233D01*
X142442619Y-79425233D02*
X142442619Y-79520471D01*
X142442619Y-80282376D02*
X142966428Y-80282376D01*
X142966428Y-80282376D02*
X143061666Y-80234757D01*
X143061666Y-80234757D02*
X143109285Y-80139519D01*
X143109285Y-80139519D02*
X143109285Y-79949043D01*
X143109285Y-79949043D02*
X143061666Y-79853805D01*
X142490238Y-80282376D02*
X142442619Y-80187138D01*
X142442619Y-80187138D02*
X142442619Y-79949043D01*
X142442619Y-79949043D02*
X142490238Y-79853805D01*
X142490238Y-79853805D02*
X142585476Y-79806186D01*
X142585476Y-79806186D02*
X142680714Y-79806186D01*
X142680714Y-79806186D02*
X142775952Y-79853805D01*
X142775952Y-79853805D02*
X142823571Y-79949043D01*
X142823571Y-79949043D02*
X142823571Y-80187138D01*
X142823571Y-80187138D02*
X142871190Y-80282376D01*
X142442619Y-80758567D02*
X143109285Y-80758567D01*
X142918809Y-80758567D02*
X143014047Y-80806186D01*
X143014047Y-80806186D02*
X143061666Y-80853805D01*
X143061666Y-80853805D02*
X143109285Y-80949043D01*
X143109285Y-80949043D02*
X143109285Y-81044281D01*
X143109285Y-81234758D02*
X143109285Y-81615710D01*
X143442619Y-81377615D02*
X142585476Y-81377615D01*
X142585476Y-81377615D02*
X142490238Y-81425234D01*
X142490238Y-81425234D02*
X142442619Y-81520472D01*
X142442619Y-81520472D02*
X142442619Y-81615710D01*
X143490238Y-82663329D02*
X142204523Y-81806187D01*
X142490238Y-82949044D02*
X142442619Y-83091901D01*
X142442619Y-83091901D02*
X142442619Y-83329996D01*
X142442619Y-83329996D02*
X142490238Y-83425234D01*
X142490238Y-83425234D02*
X142537857Y-83472853D01*
X142537857Y-83472853D02*
X142633095Y-83520472D01*
X142633095Y-83520472D02*
X142728333Y-83520472D01*
X142728333Y-83520472D02*
X142823571Y-83472853D01*
X142823571Y-83472853D02*
X142871190Y-83425234D01*
X142871190Y-83425234D02*
X142918809Y-83329996D01*
X142918809Y-83329996D02*
X142966428Y-83139520D01*
X142966428Y-83139520D02*
X143014047Y-83044282D01*
X143014047Y-83044282D02*
X143061666Y-82996663D01*
X143061666Y-82996663D02*
X143156904Y-82949044D01*
X143156904Y-82949044D02*
X143252142Y-82949044D01*
X143252142Y-82949044D02*
X143347380Y-82996663D01*
X143347380Y-82996663D02*
X143395000Y-83044282D01*
X143395000Y-83044282D02*
X143442619Y-83139520D01*
X143442619Y-83139520D02*
X143442619Y-83377615D01*
X143442619Y-83377615D02*
X143395000Y-83520472D01*
X143109285Y-83806187D02*
X143109285Y-84187139D01*
X143442619Y-83949044D02*
X142585476Y-83949044D01*
X142585476Y-83949044D02*
X142490238Y-83996663D01*
X142490238Y-83996663D02*
X142442619Y-84091901D01*
X142442619Y-84091901D02*
X142442619Y-84187139D01*
X142442619Y-84663330D02*
X142490238Y-84568092D01*
X142490238Y-84568092D02*
X142537857Y-84520473D01*
X142537857Y-84520473D02*
X142633095Y-84472854D01*
X142633095Y-84472854D02*
X142918809Y-84472854D01*
X142918809Y-84472854D02*
X143014047Y-84520473D01*
X143014047Y-84520473D02*
X143061666Y-84568092D01*
X143061666Y-84568092D02*
X143109285Y-84663330D01*
X143109285Y-84663330D02*
X143109285Y-84806187D01*
X143109285Y-84806187D02*
X143061666Y-84901425D01*
X143061666Y-84901425D02*
X143014047Y-84949044D01*
X143014047Y-84949044D02*
X142918809Y-84996663D01*
X142918809Y-84996663D02*
X142633095Y-84996663D01*
X142633095Y-84996663D02*
X142537857Y-84949044D01*
X142537857Y-84949044D02*
X142490238Y-84901425D01*
X142490238Y-84901425D02*
X142442619Y-84806187D01*
X142442619Y-84806187D02*
X142442619Y-84663330D01*
X143109285Y-85425235D02*
X142109285Y-85425235D01*
X143061666Y-85425235D02*
X143109285Y-85520473D01*
X143109285Y-85520473D02*
X143109285Y-85710949D01*
X143109285Y-85710949D02*
X143061666Y-85806187D01*
X143061666Y-85806187D02*
X143014047Y-85853806D01*
X143014047Y-85853806D02*
X142918809Y-85901425D01*
X142918809Y-85901425D02*
X142633095Y-85901425D01*
X142633095Y-85901425D02*
X142537857Y-85853806D01*
X142537857Y-85853806D02*
X142490238Y-85806187D01*
X142490238Y-85806187D02*
X142442619Y-85710949D01*
X142442619Y-85710949D02*
X142442619Y-85520473D01*
X142442619Y-85520473D02*
X142490238Y-85425235D01*
X138814285Y-94702380D02*
X138814285Y-93702380D01*
X138814285Y-93702380D02*
X139814285Y-94416666D01*
X139814285Y-94416666D02*
X140814285Y-93702380D01*
X140814285Y-93702380D02*
X140814285Y-94702380D01*
X143528571Y-94702380D02*
X143528571Y-94178571D01*
X143528571Y-94178571D02*
X143385713Y-94083333D01*
X143385713Y-94083333D02*
X143099999Y-94035714D01*
X143099999Y-94035714D02*
X142528571Y-94035714D01*
X142528571Y-94035714D02*
X142242856Y-94083333D01*
X143528571Y-94654761D02*
X143242856Y-94702380D01*
X143242856Y-94702380D02*
X142528571Y-94702380D01*
X142528571Y-94702380D02*
X142242856Y-94654761D01*
X142242856Y-94654761D02*
X142099999Y-94559523D01*
X142099999Y-94559523D02*
X142099999Y-94464285D01*
X142099999Y-94464285D02*
X142242856Y-94369047D01*
X142242856Y-94369047D02*
X142528571Y-94321428D01*
X142528571Y-94321428D02*
X143242856Y-94321428D01*
X143242856Y-94321428D02*
X143528571Y-94273809D01*
X144957142Y-94702380D02*
X144957142Y-94035714D01*
X144957142Y-94226190D02*
X145099999Y-94130952D01*
X145099999Y-94130952D02*
X145242857Y-94083333D01*
X145242857Y-94083333D02*
X145528571Y-94035714D01*
X145528571Y-94035714D02*
X145814285Y-94035714D01*
X148100000Y-94654761D02*
X147814285Y-94702380D01*
X147814285Y-94702380D02*
X147242857Y-94702380D01*
X147242857Y-94702380D02*
X146957142Y-94654761D01*
X146957142Y-94654761D02*
X146814285Y-94607142D01*
X146814285Y-94607142D02*
X146671428Y-94511904D01*
X146671428Y-94511904D02*
X146671428Y-94226190D01*
X146671428Y-94226190D02*
X146814285Y-94130952D01*
X146814285Y-94130952D02*
X146957142Y-94083333D01*
X146957142Y-94083333D02*
X147242857Y-94035714D01*
X147242857Y-94035714D02*
X147814285Y-94035714D01*
X147814285Y-94035714D02*
X148100000Y-94083333D01*
X149385714Y-94702380D02*
X149385714Y-93702380D01*
X150671429Y-94702380D02*
X150671429Y-94178571D01*
X150671429Y-94178571D02*
X150528571Y-94083333D01*
X150528571Y-94083333D02*
X150242857Y-94035714D01*
X150242857Y-94035714D02*
X149814286Y-94035714D01*
X149814286Y-94035714D02*
X149528571Y-94083333D01*
X149528571Y-94083333D02*
X149385714Y-94130952D01*
X153757143Y-93797619D02*
X153900000Y-93750000D01*
X153900000Y-93750000D02*
X154185715Y-93702380D01*
X154185715Y-93702380D02*
X154900000Y-93702380D01*
X154900000Y-93702380D02*
X155185715Y-93750000D01*
X155185715Y-93750000D02*
X155328572Y-93797619D01*
X155328572Y-93797619D02*
X155471429Y-93892857D01*
X155471429Y-93892857D02*
X155471429Y-93988095D01*
X155471429Y-93988095D02*
X155328572Y-94130952D01*
X155328572Y-94130952D02*
X153614286Y-94702380D01*
X153614286Y-94702380D02*
X155471429Y-94702380D01*
X157328572Y-93702380D02*
X157614286Y-93702380D01*
X157614286Y-93702380D02*
X157900000Y-93750000D01*
X157900000Y-93750000D02*
X158042858Y-93797619D01*
X158042858Y-93797619D02*
X158185715Y-93892857D01*
X158185715Y-93892857D02*
X158328572Y-94083333D01*
X158328572Y-94083333D02*
X158328572Y-94321428D01*
X158328572Y-94321428D02*
X158185715Y-94511904D01*
X158185715Y-94511904D02*
X158042858Y-94607142D01*
X158042858Y-94607142D02*
X157900000Y-94654761D01*
X157900000Y-94654761D02*
X157614286Y-94702380D01*
X157614286Y-94702380D02*
X157328572Y-94702380D01*
X157328572Y-94702380D02*
X157042858Y-94654761D01*
X157042858Y-94654761D02*
X156900000Y-94607142D01*
X156900000Y-94607142D02*
X156757143Y-94511904D01*
X156757143Y-94511904D02*
X156614286Y-94321428D01*
X156614286Y-94321428D02*
X156614286Y-94083333D01*
X156614286Y-94083333D02*
X156757143Y-93892857D01*
X156757143Y-93892857D02*
X156900000Y-93797619D01*
X156900000Y-93797619D02*
X157042858Y-93750000D01*
X157042858Y-93750000D02*
X157328572Y-93702380D01*
X159471429Y-93797619D02*
X159614286Y-93750000D01*
X159614286Y-93750000D02*
X159900001Y-93702380D01*
X159900001Y-93702380D02*
X160614286Y-93702380D01*
X160614286Y-93702380D02*
X160900001Y-93750000D01*
X160900001Y-93750000D02*
X161042858Y-93797619D01*
X161042858Y-93797619D02*
X161185715Y-93892857D01*
X161185715Y-93892857D02*
X161185715Y-93988095D01*
X161185715Y-93988095D02*
X161042858Y-94130952D01*
X161042858Y-94130952D02*
X159328572Y-94702380D01*
X159328572Y-94702380D02*
X161185715Y-94702380D01*
X162185715Y-93702380D02*
X164042858Y-93702380D01*
X164042858Y-93702380D02*
X163042858Y-94083333D01*
X163042858Y-94083333D02*
X163471429Y-94083333D01*
X163471429Y-94083333D02*
X163757144Y-94130952D01*
X163757144Y-94130952D02*
X163900001Y-94178571D01*
X163900001Y-94178571D02*
X164042858Y-94273809D01*
X164042858Y-94273809D02*
X164042858Y-94511904D01*
X164042858Y-94511904D02*
X163900001Y-94607142D01*
X163900001Y-94607142D02*
X163757144Y-94654761D01*
X163757144Y-94654761D02*
X163471429Y-94702380D01*
X163471429Y-94702380D02*
X162614286Y-94702380D01*
X162614286Y-94702380D02*
X162328572Y-94654761D01*
X162328572Y-94654761D02*
X162185715Y-94607142D01*
X102730476Y-87034761D02*
X102873333Y-87082380D01*
X102873333Y-87082380D02*
X103111428Y-87082380D01*
X103111428Y-87082380D02*
X103206666Y-87034761D01*
X103206666Y-87034761D02*
X103254285Y-86987142D01*
X103254285Y-86987142D02*
X103301904Y-86891904D01*
X103301904Y-86891904D02*
X103301904Y-86796666D01*
X103301904Y-86796666D02*
X103254285Y-86701428D01*
X103254285Y-86701428D02*
X103206666Y-86653809D01*
X103206666Y-86653809D02*
X103111428Y-86606190D01*
X103111428Y-86606190D02*
X102920952Y-86558571D01*
X102920952Y-86558571D02*
X102825714Y-86510952D01*
X102825714Y-86510952D02*
X102778095Y-86463333D01*
X102778095Y-86463333D02*
X102730476Y-86368095D01*
X102730476Y-86368095D02*
X102730476Y-86272857D01*
X102730476Y-86272857D02*
X102778095Y-86177619D01*
X102778095Y-86177619D02*
X102825714Y-86130000D01*
X102825714Y-86130000D02*
X102920952Y-86082380D01*
X102920952Y-86082380D02*
X103159047Y-86082380D01*
X103159047Y-86082380D02*
X103301904Y-86130000D01*
X103587619Y-86082380D02*
X104159047Y-86082380D01*
X103873333Y-87082380D02*
X103873333Y-86082380D01*
X104444762Y-86796666D02*
X104920952Y-86796666D01*
X104349524Y-87082380D02*
X104682857Y-86082380D01*
X104682857Y-86082380D02*
X105016190Y-87082380D01*
X105920952Y-87082380D02*
X105587619Y-86606190D01*
X105349524Y-87082380D02*
X105349524Y-86082380D01*
X105349524Y-86082380D02*
X105730476Y-86082380D01*
X105730476Y-86082380D02*
X105825714Y-86130000D01*
X105825714Y-86130000D02*
X105873333Y-86177619D01*
X105873333Y-86177619D02*
X105920952Y-86272857D01*
X105920952Y-86272857D02*
X105920952Y-86415714D01*
X105920952Y-86415714D02*
X105873333Y-86510952D01*
X105873333Y-86510952D02*
X105825714Y-86558571D01*
X105825714Y-86558571D02*
X105730476Y-86606190D01*
X105730476Y-86606190D02*
X105349524Y-86606190D01*
X106206667Y-86082380D02*
X106778095Y-86082380D01*
X106492381Y-87082380D02*
X106492381Y-86082380D01*
X107825714Y-86034761D02*
X106968572Y-87320476D01*
X108111429Y-87034761D02*
X108254286Y-87082380D01*
X108254286Y-87082380D02*
X108492381Y-87082380D01*
X108492381Y-87082380D02*
X108587619Y-87034761D01*
X108587619Y-87034761D02*
X108635238Y-86987142D01*
X108635238Y-86987142D02*
X108682857Y-86891904D01*
X108682857Y-86891904D02*
X108682857Y-86796666D01*
X108682857Y-86796666D02*
X108635238Y-86701428D01*
X108635238Y-86701428D02*
X108587619Y-86653809D01*
X108587619Y-86653809D02*
X108492381Y-86606190D01*
X108492381Y-86606190D02*
X108301905Y-86558571D01*
X108301905Y-86558571D02*
X108206667Y-86510952D01*
X108206667Y-86510952D02*
X108159048Y-86463333D01*
X108159048Y-86463333D02*
X108111429Y-86368095D01*
X108111429Y-86368095D02*
X108111429Y-86272857D01*
X108111429Y-86272857D02*
X108159048Y-86177619D01*
X108159048Y-86177619D02*
X108206667Y-86130000D01*
X108206667Y-86130000D02*
X108301905Y-86082380D01*
X108301905Y-86082380D02*
X108540000Y-86082380D01*
X108540000Y-86082380D02*
X108682857Y-86130000D01*
X108968572Y-86082380D02*
X109540000Y-86082380D01*
X109254286Y-87082380D02*
X109254286Y-86082380D01*
X110063810Y-86082380D02*
X110254286Y-86082380D01*
X110254286Y-86082380D02*
X110349524Y-86130000D01*
X110349524Y-86130000D02*
X110444762Y-86225238D01*
X110444762Y-86225238D02*
X110492381Y-86415714D01*
X110492381Y-86415714D02*
X110492381Y-86749047D01*
X110492381Y-86749047D02*
X110444762Y-86939523D01*
X110444762Y-86939523D02*
X110349524Y-87034761D01*
X110349524Y-87034761D02*
X110254286Y-87082380D01*
X110254286Y-87082380D02*
X110063810Y-87082380D01*
X110063810Y-87082380D02*
X109968572Y-87034761D01*
X109968572Y-87034761D02*
X109873334Y-86939523D01*
X109873334Y-86939523D02*
X109825715Y-86749047D01*
X109825715Y-86749047D02*
X109825715Y-86415714D01*
X109825715Y-86415714D02*
X109873334Y-86225238D01*
X109873334Y-86225238D02*
X109968572Y-86130000D01*
X109968572Y-86130000D02*
X110063810Y-86082380D01*
X110920953Y-87082380D02*
X110920953Y-86082380D01*
X110920953Y-86082380D02*
X111301905Y-86082380D01*
X111301905Y-86082380D02*
X111397143Y-86130000D01*
X111397143Y-86130000D02*
X111444762Y-86177619D01*
X111444762Y-86177619D02*
X111492381Y-86272857D01*
X111492381Y-86272857D02*
X111492381Y-86415714D01*
X111492381Y-86415714D02*
X111444762Y-86510952D01*
X111444762Y-86510952D02*
X111397143Y-86558571D01*
X111397143Y-86558571D02*
X111301905Y-86606190D01*
X111301905Y-86606190D02*
X110920953Y-86606190D01*
D11*
%TO.C,D2*%
X186891905Y-45607380D02*
X186891905Y-44607380D01*
X186891905Y-44607380D02*
X187130000Y-44607380D01*
X187130000Y-44607380D02*
X187272857Y-44655000D01*
X187272857Y-44655000D02*
X187368095Y-44750238D01*
X187368095Y-44750238D02*
X187415714Y-44845476D01*
X187415714Y-44845476D02*
X187463333Y-45035952D01*
X187463333Y-45035952D02*
X187463333Y-45178809D01*
X187463333Y-45178809D02*
X187415714Y-45369285D01*
X187415714Y-45369285D02*
X187368095Y-45464523D01*
X187368095Y-45464523D02*
X187272857Y-45559761D01*
X187272857Y-45559761D02*
X187130000Y-45607380D01*
X187130000Y-45607380D02*
X186891905Y-45607380D01*
X187844286Y-44702619D02*
X187891905Y-44655000D01*
X187891905Y-44655000D02*
X187987143Y-44607380D01*
X187987143Y-44607380D02*
X188225238Y-44607380D01*
X188225238Y-44607380D02*
X188320476Y-44655000D01*
X188320476Y-44655000D02*
X188368095Y-44702619D01*
X188368095Y-44702619D02*
X188415714Y-44797857D01*
X188415714Y-44797857D02*
X188415714Y-44893095D01*
X188415714Y-44893095D02*
X188368095Y-45035952D01*
X188368095Y-45035952D02*
X187796667Y-45607380D01*
X187796667Y-45607380D02*
X188415714Y-45607380D01*
%TO.C,U2*%
X82802095Y-93315380D02*
X82802095Y-94124904D01*
X82802095Y-94124904D02*
X82849714Y-94220142D01*
X82849714Y-94220142D02*
X82897333Y-94267761D01*
X82897333Y-94267761D02*
X82992571Y-94315380D01*
X82992571Y-94315380D02*
X83183047Y-94315380D01*
X83183047Y-94315380D02*
X83278285Y-94267761D01*
X83278285Y-94267761D02*
X83325904Y-94220142D01*
X83325904Y-94220142D02*
X83373523Y-94124904D01*
X83373523Y-94124904D02*
X83373523Y-93315380D01*
X83802095Y-93410619D02*
X83849714Y-93363000D01*
X83849714Y-93363000D02*
X83944952Y-93315380D01*
X83944952Y-93315380D02*
X84183047Y-93315380D01*
X84183047Y-93315380D02*
X84278285Y-93363000D01*
X84278285Y-93363000D02*
X84325904Y-93410619D01*
X84325904Y-93410619D02*
X84373523Y-93505857D01*
X84373523Y-93505857D02*
X84373523Y-93601095D01*
X84373523Y-93601095D02*
X84325904Y-93743952D01*
X84325904Y-93743952D02*
X83754476Y-94315380D01*
X83754476Y-94315380D02*
X84373523Y-94315380D01*
%TO.C,R8*%
X176033333Y-77337380D02*
X175700000Y-76861190D01*
X175461905Y-77337380D02*
X175461905Y-76337380D01*
X175461905Y-76337380D02*
X175842857Y-76337380D01*
X175842857Y-76337380D02*
X175938095Y-76385000D01*
X175938095Y-76385000D02*
X175985714Y-76432619D01*
X175985714Y-76432619D02*
X176033333Y-76527857D01*
X176033333Y-76527857D02*
X176033333Y-76670714D01*
X176033333Y-76670714D02*
X175985714Y-76765952D01*
X175985714Y-76765952D02*
X175938095Y-76813571D01*
X175938095Y-76813571D02*
X175842857Y-76861190D01*
X175842857Y-76861190D02*
X175461905Y-76861190D01*
X176604762Y-76765952D02*
X176509524Y-76718333D01*
X176509524Y-76718333D02*
X176461905Y-76670714D01*
X176461905Y-76670714D02*
X176414286Y-76575476D01*
X176414286Y-76575476D02*
X176414286Y-76527857D01*
X176414286Y-76527857D02*
X176461905Y-76432619D01*
X176461905Y-76432619D02*
X176509524Y-76385000D01*
X176509524Y-76385000D02*
X176604762Y-76337380D01*
X176604762Y-76337380D02*
X176795238Y-76337380D01*
X176795238Y-76337380D02*
X176890476Y-76385000D01*
X176890476Y-76385000D02*
X176938095Y-76432619D01*
X176938095Y-76432619D02*
X176985714Y-76527857D01*
X176985714Y-76527857D02*
X176985714Y-76575476D01*
X176985714Y-76575476D02*
X176938095Y-76670714D01*
X176938095Y-76670714D02*
X176890476Y-76718333D01*
X176890476Y-76718333D02*
X176795238Y-76765952D01*
X176795238Y-76765952D02*
X176604762Y-76765952D01*
X176604762Y-76765952D02*
X176509524Y-76813571D01*
X176509524Y-76813571D02*
X176461905Y-76861190D01*
X176461905Y-76861190D02*
X176414286Y-76956428D01*
X176414286Y-76956428D02*
X176414286Y-77146904D01*
X176414286Y-77146904D02*
X176461905Y-77242142D01*
X176461905Y-77242142D02*
X176509524Y-77289761D01*
X176509524Y-77289761D02*
X176604762Y-77337380D01*
X176604762Y-77337380D02*
X176795238Y-77337380D01*
X176795238Y-77337380D02*
X176890476Y-77289761D01*
X176890476Y-77289761D02*
X176938095Y-77242142D01*
X176938095Y-77242142D02*
X176985714Y-77146904D01*
X176985714Y-77146904D02*
X176985714Y-76956428D01*
X176985714Y-76956428D02*
X176938095Y-76861190D01*
X176938095Y-76861190D02*
X176890476Y-76813571D01*
X176890476Y-76813571D02*
X176795238Y-76765952D01*
%TO.C,R5*%
X196353333Y-72257380D02*
X196020000Y-71781190D01*
X195781905Y-72257380D02*
X195781905Y-71257380D01*
X195781905Y-71257380D02*
X196162857Y-71257380D01*
X196162857Y-71257380D02*
X196258095Y-71305000D01*
X196258095Y-71305000D02*
X196305714Y-71352619D01*
X196305714Y-71352619D02*
X196353333Y-71447857D01*
X196353333Y-71447857D02*
X196353333Y-71590714D01*
X196353333Y-71590714D02*
X196305714Y-71685952D01*
X196305714Y-71685952D02*
X196258095Y-71733571D01*
X196258095Y-71733571D02*
X196162857Y-71781190D01*
X196162857Y-71781190D02*
X195781905Y-71781190D01*
X197258095Y-71257380D02*
X196781905Y-71257380D01*
X196781905Y-71257380D02*
X196734286Y-71733571D01*
X196734286Y-71733571D02*
X196781905Y-71685952D01*
X196781905Y-71685952D02*
X196877143Y-71638333D01*
X196877143Y-71638333D02*
X197115238Y-71638333D01*
X197115238Y-71638333D02*
X197210476Y-71685952D01*
X197210476Y-71685952D02*
X197258095Y-71733571D01*
X197258095Y-71733571D02*
X197305714Y-71828809D01*
X197305714Y-71828809D02*
X197305714Y-72066904D01*
X197305714Y-72066904D02*
X197258095Y-72162142D01*
X197258095Y-72162142D02*
X197210476Y-72209761D01*
X197210476Y-72209761D02*
X197115238Y-72257380D01*
X197115238Y-72257380D02*
X196877143Y-72257380D01*
X196877143Y-72257380D02*
X196781905Y-72209761D01*
X196781905Y-72209761D02*
X196734286Y-72162142D01*
%TO.C,D1*%
X174191905Y-45607380D02*
X174191905Y-44607380D01*
X174191905Y-44607380D02*
X174430000Y-44607380D01*
X174430000Y-44607380D02*
X174572857Y-44655000D01*
X174572857Y-44655000D02*
X174668095Y-44750238D01*
X174668095Y-44750238D02*
X174715714Y-44845476D01*
X174715714Y-44845476D02*
X174763333Y-45035952D01*
X174763333Y-45035952D02*
X174763333Y-45178809D01*
X174763333Y-45178809D02*
X174715714Y-45369285D01*
X174715714Y-45369285D02*
X174668095Y-45464523D01*
X174668095Y-45464523D02*
X174572857Y-45559761D01*
X174572857Y-45559761D02*
X174430000Y-45607380D01*
X174430000Y-45607380D02*
X174191905Y-45607380D01*
X175715714Y-45607380D02*
X175144286Y-45607380D01*
X175430000Y-45607380D02*
X175430000Y-44607380D01*
X175430000Y-44607380D02*
X175334762Y-44750238D01*
X175334762Y-44750238D02*
X175239524Y-44845476D01*
X175239524Y-44845476D02*
X175144286Y-44893095D01*
%TO.C,R1*%
X137933333Y-90377380D02*
X137600000Y-89901190D01*
X137361905Y-90377380D02*
X137361905Y-89377380D01*
X137361905Y-89377380D02*
X137742857Y-89377380D01*
X137742857Y-89377380D02*
X137838095Y-89425000D01*
X137838095Y-89425000D02*
X137885714Y-89472619D01*
X137885714Y-89472619D02*
X137933333Y-89567857D01*
X137933333Y-89567857D02*
X137933333Y-89710714D01*
X137933333Y-89710714D02*
X137885714Y-89805952D01*
X137885714Y-89805952D02*
X137838095Y-89853571D01*
X137838095Y-89853571D02*
X137742857Y-89901190D01*
X137742857Y-89901190D02*
X137361905Y-89901190D01*
X138885714Y-90377380D02*
X138314286Y-90377380D01*
X138600000Y-90377380D02*
X138600000Y-89377380D01*
X138600000Y-89377380D02*
X138504762Y-89520238D01*
X138504762Y-89520238D02*
X138409524Y-89615476D01*
X138409524Y-89615476D02*
X138314286Y-89663095D01*
%TO.C,LS1*%
X307563142Y-37629380D02*
X307086952Y-37629380D01*
X307086952Y-37629380D02*
X307086952Y-36629380D01*
X307848857Y-37581761D02*
X307991714Y-37629380D01*
X307991714Y-37629380D02*
X308229809Y-37629380D01*
X308229809Y-37629380D02*
X308325047Y-37581761D01*
X308325047Y-37581761D02*
X308372666Y-37534142D01*
X308372666Y-37534142D02*
X308420285Y-37438904D01*
X308420285Y-37438904D02*
X308420285Y-37343666D01*
X308420285Y-37343666D02*
X308372666Y-37248428D01*
X308372666Y-37248428D02*
X308325047Y-37200809D01*
X308325047Y-37200809D02*
X308229809Y-37153190D01*
X308229809Y-37153190D02*
X308039333Y-37105571D01*
X308039333Y-37105571D02*
X307944095Y-37057952D01*
X307944095Y-37057952D02*
X307896476Y-37010333D01*
X307896476Y-37010333D02*
X307848857Y-36915095D01*
X307848857Y-36915095D02*
X307848857Y-36819857D01*
X307848857Y-36819857D02*
X307896476Y-36724619D01*
X307896476Y-36724619D02*
X307944095Y-36677000D01*
X307944095Y-36677000D02*
X308039333Y-36629380D01*
X308039333Y-36629380D02*
X308277428Y-36629380D01*
X308277428Y-36629380D02*
X308420285Y-36677000D01*
X309372666Y-37629380D02*
X308801238Y-37629380D01*
X309086952Y-37629380D02*
X309086952Y-36629380D01*
X309086952Y-36629380D02*
X308991714Y-36772238D01*
X308991714Y-36772238D02*
X308896476Y-36867476D01*
X308896476Y-36867476D02*
X308801238Y-36915095D01*
X202489048Y-51726428D02*
X203250953Y-51726428D01*
X202870000Y-52107380D02*
X202870000Y-51345476D01*
%TO.C,R2*%
X117613333Y-92917380D02*
X117280000Y-92441190D01*
X117041905Y-92917380D02*
X117041905Y-91917380D01*
X117041905Y-91917380D02*
X117422857Y-91917380D01*
X117422857Y-91917380D02*
X117518095Y-91965000D01*
X117518095Y-91965000D02*
X117565714Y-92012619D01*
X117565714Y-92012619D02*
X117613333Y-92107857D01*
X117613333Y-92107857D02*
X117613333Y-92250714D01*
X117613333Y-92250714D02*
X117565714Y-92345952D01*
X117565714Y-92345952D02*
X117518095Y-92393571D01*
X117518095Y-92393571D02*
X117422857Y-92441190D01*
X117422857Y-92441190D02*
X117041905Y-92441190D01*
X117994286Y-92012619D02*
X118041905Y-91965000D01*
X118041905Y-91965000D02*
X118137143Y-91917380D01*
X118137143Y-91917380D02*
X118375238Y-91917380D01*
X118375238Y-91917380D02*
X118470476Y-91965000D01*
X118470476Y-91965000D02*
X118518095Y-92012619D01*
X118518095Y-92012619D02*
X118565714Y-92107857D01*
X118565714Y-92107857D02*
X118565714Y-92203095D01*
X118565714Y-92203095D02*
X118518095Y-92345952D01*
X118518095Y-92345952D02*
X117946667Y-92917380D01*
X117946667Y-92917380D02*
X118565714Y-92917380D01*
%TO.C,STARTSTOP*%
X116622857Y-89699761D02*
X116765714Y-89747380D01*
X116765714Y-89747380D02*
X117003809Y-89747380D01*
X117003809Y-89747380D02*
X117099047Y-89699761D01*
X117099047Y-89699761D02*
X117146666Y-89652142D01*
X117146666Y-89652142D02*
X117194285Y-89556904D01*
X117194285Y-89556904D02*
X117194285Y-89461666D01*
X117194285Y-89461666D02*
X117146666Y-89366428D01*
X117146666Y-89366428D02*
X117099047Y-89318809D01*
X117099047Y-89318809D02*
X117003809Y-89271190D01*
X117003809Y-89271190D02*
X116813333Y-89223571D01*
X116813333Y-89223571D02*
X116718095Y-89175952D01*
X116718095Y-89175952D02*
X116670476Y-89128333D01*
X116670476Y-89128333D02*
X116622857Y-89033095D01*
X116622857Y-89033095D02*
X116622857Y-88937857D01*
X116622857Y-88937857D02*
X116670476Y-88842619D01*
X116670476Y-88842619D02*
X116718095Y-88795000D01*
X116718095Y-88795000D02*
X116813333Y-88747380D01*
X116813333Y-88747380D02*
X117051428Y-88747380D01*
X117051428Y-88747380D02*
X117194285Y-88795000D01*
X117480000Y-88747380D02*
X118051428Y-88747380D01*
X117765714Y-89747380D02*
X117765714Y-88747380D01*
X118337143Y-89461666D02*
X118813333Y-89461666D01*
X118241905Y-89747380D02*
X118575238Y-88747380D01*
X118575238Y-88747380D02*
X118908571Y-89747380D01*
X119813333Y-89747380D02*
X119480000Y-89271190D01*
X119241905Y-89747380D02*
X119241905Y-88747380D01*
X119241905Y-88747380D02*
X119622857Y-88747380D01*
X119622857Y-88747380D02*
X119718095Y-88795000D01*
X119718095Y-88795000D02*
X119765714Y-88842619D01*
X119765714Y-88842619D02*
X119813333Y-88937857D01*
X119813333Y-88937857D02*
X119813333Y-89080714D01*
X119813333Y-89080714D02*
X119765714Y-89175952D01*
X119765714Y-89175952D02*
X119718095Y-89223571D01*
X119718095Y-89223571D02*
X119622857Y-89271190D01*
X119622857Y-89271190D02*
X119241905Y-89271190D01*
X120099048Y-88747380D02*
X120670476Y-88747380D01*
X120384762Y-89747380D02*
X120384762Y-88747380D01*
X120956191Y-89699761D02*
X121099048Y-89747380D01*
X121099048Y-89747380D02*
X121337143Y-89747380D01*
X121337143Y-89747380D02*
X121432381Y-89699761D01*
X121432381Y-89699761D02*
X121480000Y-89652142D01*
X121480000Y-89652142D02*
X121527619Y-89556904D01*
X121527619Y-89556904D02*
X121527619Y-89461666D01*
X121527619Y-89461666D02*
X121480000Y-89366428D01*
X121480000Y-89366428D02*
X121432381Y-89318809D01*
X121432381Y-89318809D02*
X121337143Y-89271190D01*
X121337143Y-89271190D02*
X121146667Y-89223571D01*
X121146667Y-89223571D02*
X121051429Y-89175952D01*
X121051429Y-89175952D02*
X121003810Y-89128333D01*
X121003810Y-89128333D02*
X120956191Y-89033095D01*
X120956191Y-89033095D02*
X120956191Y-88937857D01*
X120956191Y-88937857D02*
X121003810Y-88842619D01*
X121003810Y-88842619D02*
X121051429Y-88795000D01*
X121051429Y-88795000D02*
X121146667Y-88747380D01*
X121146667Y-88747380D02*
X121384762Y-88747380D01*
X121384762Y-88747380D02*
X121527619Y-88795000D01*
X121813334Y-88747380D02*
X122384762Y-88747380D01*
X122099048Y-89747380D02*
X122099048Y-88747380D01*
X122908572Y-88747380D02*
X123099048Y-88747380D01*
X123099048Y-88747380D02*
X123194286Y-88795000D01*
X123194286Y-88795000D02*
X123289524Y-88890238D01*
X123289524Y-88890238D02*
X123337143Y-89080714D01*
X123337143Y-89080714D02*
X123337143Y-89414047D01*
X123337143Y-89414047D02*
X123289524Y-89604523D01*
X123289524Y-89604523D02*
X123194286Y-89699761D01*
X123194286Y-89699761D02*
X123099048Y-89747380D01*
X123099048Y-89747380D02*
X122908572Y-89747380D01*
X122908572Y-89747380D02*
X122813334Y-89699761D01*
X122813334Y-89699761D02*
X122718096Y-89604523D01*
X122718096Y-89604523D02*
X122670477Y-89414047D01*
X122670477Y-89414047D02*
X122670477Y-89080714D01*
X122670477Y-89080714D02*
X122718096Y-88890238D01*
X122718096Y-88890238D02*
X122813334Y-88795000D01*
X122813334Y-88795000D02*
X122908572Y-88747380D01*
X123765715Y-89747380D02*
X123765715Y-88747380D01*
X123765715Y-88747380D02*
X124146667Y-88747380D01*
X124146667Y-88747380D02*
X124241905Y-88795000D01*
X124241905Y-88795000D02*
X124289524Y-88842619D01*
X124289524Y-88842619D02*
X124337143Y-88937857D01*
X124337143Y-88937857D02*
X124337143Y-89080714D01*
X124337143Y-89080714D02*
X124289524Y-89175952D01*
X124289524Y-89175952D02*
X124241905Y-89223571D01*
X124241905Y-89223571D02*
X124146667Y-89271190D01*
X124146667Y-89271190D02*
X123765715Y-89271190D01*
%TO.C,INCREMENT*%
X134840238Y-89707380D02*
X134840238Y-88707380D01*
X135316428Y-89707380D02*
X135316428Y-88707380D01*
X135316428Y-88707380D02*
X135887856Y-89707380D01*
X135887856Y-89707380D02*
X135887856Y-88707380D01*
X136935475Y-89612142D02*
X136887856Y-89659761D01*
X136887856Y-89659761D02*
X136744999Y-89707380D01*
X136744999Y-89707380D02*
X136649761Y-89707380D01*
X136649761Y-89707380D02*
X136506904Y-89659761D01*
X136506904Y-89659761D02*
X136411666Y-89564523D01*
X136411666Y-89564523D02*
X136364047Y-89469285D01*
X136364047Y-89469285D02*
X136316428Y-89278809D01*
X136316428Y-89278809D02*
X136316428Y-89135952D01*
X136316428Y-89135952D02*
X136364047Y-88945476D01*
X136364047Y-88945476D02*
X136411666Y-88850238D01*
X136411666Y-88850238D02*
X136506904Y-88755000D01*
X136506904Y-88755000D02*
X136649761Y-88707380D01*
X136649761Y-88707380D02*
X136744999Y-88707380D01*
X136744999Y-88707380D02*
X136887856Y-88755000D01*
X136887856Y-88755000D02*
X136935475Y-88802619D01*
X137935475Y-89707380D02*
X137602142Y-89231190D01*
X137364047Y-89707380D02*
X137364047Y-88707380D01*
X137364047Y-88707380D02*
X137744999Y-88707380D01*
X137744999Y-88707380D02*
X137840237Y-88755000D01*
X137840237Y-88755000D02*
X137887856Y-88802619D01*
X137887856Y-88802619D02*
X137935475Y-88897857D01*
X137935475Y-88897857D02*
X137935475Y-89040714D01*
X137935475Y-89040714D02*
X137887856Y-89135952D01*
X137887856Y-89135952D02*
X137840237Y-89183571D01*
X137840237Y-89183571D02*
X137744999Y-89231190D01*
X137744999Y-89231190D02*
X137364047Y-89231190D01*
X138364047Y-89183571D02*
X138697380Y-89183571D01*
X138840237Y-89707380D02*
X138364047Y-89707380D01*
X138364047Y-89707380D02*
X138364047Y-88707380D01*
X138364047Y-88707380D02*
X138840237Y-88707380D01*
X139268809Y-89707380D02*
X139268809Y-88707380D01*
X139268809Y-88707380D02*
X139602142Y-89421666D01*
X139602142Y-89421666D02*
X139935475Y-88707380D01*
X139935475Y-88707380D02*
X139935475Y-89707380D01*
X140411666Y-89183571D02*
X140744999Y-89183571D01*
X140887856Y-89707380D02*
X140411666Y-89707380D01*
X140411666Y-89707380D02*
X140411666Y-88707380D01*
X140411666Y-88707380D02*
X140887856Y-88707380D01*
X141316428Y-89707380D02*
X141316428Y-88707380D01*
X141316428Y-88707380D02*
X141887856Y-89707380D01*
X141887856Y-89707380D02*
X141887856Y-88707380D01*
X142221190Y-88707380D02*
X142792618Y-88707380D01*
X142506904Y-89707380D02*
X142506904Y-88707380D01*
%TO.C,U1*%
X64563095Y-18629280D02*
X64563095Y-19438804D01*
X64563095Y-19438804D02*
X64610714Y-19534042D01*
X64610714Y-19534042D02*
X64658333Y-19581661D01*
X64658333Y-19581661D02*
X64753571Y-19629280D01*
X64753571Y-19629280D02*
X64944047Y-19629280D01*
X64944047Y-19629280D02*
X65039285Y-19581661D01*
X65039285Y-19581661D02*
X65086904Y-19534042D01*
X65086904Y-19534042D02*
X65134523Y-19438804D01*
X65134523Y-19438804D02*
X65134523Y-18629280D01*
X66134523Y-19629280D02*
X65563095Y-19629280D01*
X65848809Y-19629280D02*
X65848809Y-18629280D01*
X65848809Y-18629280D02*
X65753571Y-18772138D01*
X65753571Y-18772138D02*
X65658333Y-18867376D01*
X65658333Y-18867376D02*
X65563095Y-18914995D01*
%TO.C,R12*%
X175557142Y-97657380D02*
X175223809Y-97181190D01*
X174985714Y-97657380D02*
X174985714Y-96657380D01*
X174985714Y-96657380D02*
X175366666Y-96657380D01*
X175366666Y-96657380D02*
X175461904Y-96705000D01*
X175461904Y-96705000D02*
X175509523Y-96752619D01*
X175509523Y-96752619D02*
X175557142Y-96847857D01*
X175557142Y-96847857D02*
X175557142Y-96990714D01*
X175557142Y-96990714D02*
X175509523Y-97085952D01*
X175509523Y-97085952D02*
X175461904Y-97133571D01*
X175461904Y-97133571D02*
X175366666Y-97181190D01*
X175366666Y-97181190D02*
X174985714Y-97181190D01*
X176509523Y-97657380D02*
X175938095Y-97657380D01*
X176223809Y-97657380D02*
X176223809Y-96657380D01*
X176223809Y-96657380D02*
X176128571Y-96800238D01*
X176128571Y-96800238D02*
X176033333Y-96895476D01*
X176033333Y-96895476D02*
X175938095Y-96943095D01*
X176890476Y-96752619D02*
X176938095Y-96705000D01*
X176938095Y-96705000D02*
X177033333Y-96657380D01*
X177033333Y-96657380D02*
X177271428Y-96657380D01*
X177271428Y-96657380D02*
X177366666Y-96705000D01*
X177366666Y-96705000D02*
X177414285Y-96752619D01*
X177414285Y-96752619D02*
X177461904Y-96847857D01*
X177461904Y-96847857D02*
X177461904Y-96943095D01*
X177461904Y-96943095D02*
X177414285Y-97085952D01*
X177414285Y-97085952D02*
X176842857Y-97657380D01*
X176842857Y-97657380D02*
X177461904Y-97657380D01*
%TO.C,R10*%
X175557142Y-92577380D02*
X175223809Y-92101190D01*
X174985714Y-92577380D02*
X174985714Y-91577380D01*
X174985714Y-91577380D02*
X175366666Y-91577380D01*
X175366666Y-91577380D02*
X175461904Y-91625000D01*
X175461904Y-91625000D02*
X175509523Y-91672619D01*
X175509523Y-91672619D02*
X175557142Y-91767857D01*
X175557142Y-91767857D02*
X175557142Y-91910714D01*
X175557142Y-91910714D02*
X175509523Y-92005952D01*
X175509523Y-92005952D02*
X175461904Y-92053571D01*
X175461904Y-92053571D02*
X175366666Y-92101190D01*
X175366666Y-92101190D02*
X174985714Y-92101190D01*
X176509523Y-92577380D02*
X175938095Y-92577380D01*
X176223809Y-92577380D02*
X176223809Y-91577380D01*
X176223809Y-91577380D02*
X176128571Y-91720238D01*
X176128571Y-91720238D02*
X176033333Y-91815476D01*
X176033333Y-91815476D02*
X175938095Y-91863095D01*
X177128571Y-91577380D02*
X177223809Y-91577380D01*
X177223809Y-91577380D02*
X177319047Y-91625000D01*
X177319047Y-91625000D02*
X177366666Y-91672619D01*
X177366666Y-91672619D02*
X177414285Y-91767857D01*
X177414285Y-91767857D02*
X177461904Y-91958333D01*
X177461904Y-91958333D02*
X177461904Y-92196428D01*
X177461904Y-92196428D02*
X177414285Y-92386904D01*
X177414285Y-92386904D02*
X177366666Y-92482142D01*
X177366666Y-92482142D02*
X177319047Y-92529761D01*
X177319047Y-92529761D02*
X177223809Y-92577380D01*
X177223809Y-92577380D02*
X177128571Y-92577380D01*
X177128571Y-92577380D02*
X177033333Y-92529761D01*
X177033333Y-92529761D02*
X176985714Y-92482142D01*
X176985714Y-92482142D02*
X176938095Y-92386904D01*
X176938095Y-92386904D02*
X176890476Y-92196428D01*
X176890476Y-92196428D02*
X176890476Y-91958333D01*
X176890476Y-91958333D02*
X176938095Y-91767857D01*
X176938095Y-91767857D02*
X176985714Y-91672619D01*
X176985714Y-91672619D02*
X177033333Y-91625000D01*
X177033333Y-91625000D02*
X177128571Y-91577380D01*
%TO.C,R9*%
X176033333Y-82417380D02*
X175700000Y-81941190D01*
X175461905Y-82417380D02*
X175461905Y-81417380D01*
X175461905Y-81417380D02*
X175842857Y-81417380D01*
X175842857Y-81417380D02*
X175938095Y-81465000D01*
X175938095Y-81465000D02*
X175985714Y-81512619D01*
X175985714Y-81512619D02*
X176033333Y-81607857D01*
X176033333Y-81607857D02*
X176033333Y-81750714D01*
X176033333Y-81750714D02*
X175985714Y-81845952D01*
X175985714Y-81845952D02*
X175938095Y-81893571D01*
X175938095Y-81893571D02*
X175842857Y-81941190D01*
X175842857Y-81941190D02*
X175461905Y-81941190D01*
X176509524Y-82417380D02*
X176700000Y-82417380D01*
X176700000Y-82417380D02*
X176795238Y-82369761D01*
X176795238Y-82369761D02*
X176842857Y-82322142D01*
X176842857Y-82322142D02*
X176938095Y-82179285D01*
X176938095Y-82179285D02*
X176985714Y-81988809D01*
X176985714Y-81988809D02*
X176985714Y-81607857D01*
X176985714Y-81607857D02*
X176938095Y-81512619D01*
X176938095Y-81512619D02*
X176890476Y-81465000D01*
X176890476Y-81465000D02*
X176795238Y-81417380D01*
X176795238Y-81417380D02*
X176604762Y-81417380D01*
X176604762Y-81417380D02*
X176509524Y-81465000D01*
X176509524Y-81465000D02*
X176461905Y-81512619D01*
X176461905Y-81512619D02*
X176414286Y-81607857D01*
X176414286Y-81607857D02*
X176414286Y-81845952D01*
X176414286Y-81845952D02*
X176461905Y-81941190D01*
X176461905Y-81941190D02*
X176509524Y-81988809D01*
X176509524Y-81988809D02*
X176604762Y-82036428D01*
X176604762Y-82036428D02*
X176795238Y-82036428D01*
X176795238Y-82036428D02*
X176890476Y-81988809D01*
X176890476Y-81988809D02*
X176938095Y-81941190D01*
X176938095Y-81941190D02*
X176985714Y-81845952D01*
%TO.C,R6*%
X176033333Y-67177380D02*
X175700000Y-66701190D01*
X175461905Y-67177380D02*
X175461905Y-66177380D01*
X175461905Y-66177380D02*
X175842857Y-66177380D01*
X175842857Y-66177380D02*
X175938095Y-66225000D01*
X175938095Y-66225000D02*
X175985714Y-66272619D01*
X175985714Y-66272619D02*
X176033333Y-66367857D01*
X176033333Y-66367857D02*
X176033333Y-66510714D01*
X176033333Y-66510714D02*
X175985714Y-66605952D01*
X175985714Y-66605952D02*
X175938095Y-66653571D01*
X175938095Y-66653571D02*
X175842857Y-66701190D01*
X175842857Y-66701190D02*
X175461905Y-66701190D01*
X176890476Y-66177380D02*
X176700000Y-66177380D01*
X176700000Y-66177380D02*
X176604762Y-66225000D01*
X176604762Y-66225000D02*
X176557143Y-66272619D01*
X176557143Y-66272619D02*
X176461905Y-66415476D01*
X176461905Y-66415476D02*
X176414286Y-66605952D01*
X176414286Y-66605952D02*
X176414286Y-66986904D01*
X176414286Y-66986904D02*
X176461905Y-67082142D01*
X176461905Y-67082142D02*
X176509524Y-67129761D01*
X176509524Y-67129761D02*
X176604762Y-67177380D01*
X176604762Y-67177380D02*
X176795238Y-67177380D01*
X176795238Y-67177380D02*
X176890476Y-67129761D01*
X176890476Y-67129761D02*
X176938095Y-67082142D01*
X176938095Y-67082142D02*
X176985714Y-66986904D01*
X176985714Y-66986904D02*
X176985714Y-66748809D01*
X176985714Y-66748809D02*
X176938095Y-66653571D01*
X176938095Y-66653571D02*
X176890476Y-66605952D01*
X176890476Y-66605952D02*
X176795238Y-66558333D01*
X176795238Y-66558333D02*
X176604762Y-66558333D01*
X176604762Y-66558333D02*
X176509524Y-66605952D01*
X176509524Y-66605952D02*
X176461905Y-66653571D01*
X176461905Y-66653571D02*
X176414286Y-66748809D01*
%TO.C,R3*%
X166577380Y-49366666D02*
X166101190Y-49699999D01*
X166577380Y-49938094D02*
X165577380Y-49938094D01*
X165577380Y-49938094D02*
X165577380Y-49557142D01*
X165577380Y-49557142D02*
X165625000Y-49461904D01*
X165625000Y-49461904D02*
X165672619Y-49414285D01*
X165672619Y-49414285D02*
X165767857Y-49366666D01*
X165767857Y-49366666D02*
X165910714Y-49366666D01*
X165910714Y-49366666D02*
X166005952Y-49414285D01*
X166005952Y-49414285D02*
X166053571Y-49461904D01*
X166053571Y-49461904D02*
X166101190Y-49557142D01*
X166101190Y-49557142D02*
X166101190Y-49938094D01*
X165577380Y-49033332D02*
X165577380Y-48414285D01*
X165577380Y-48414285D02*
X165958333Y-48747618D01*
X165958333Y-48747618D02*
X165958333Y-48604761D01*
X165958333Y-48604761D02*
X166005952Y-48509523D01*
X166005952Y-48509523D02*
X166053571Y-48461904D01*
X166053571Y-48461904D02*
X166148809Y-48414285D01*
X166148809Y-48414285D02*
X166386904Y-48414285D01*
X166386904Y-48414285D02*
X166482142Y-48461904D01*
X166482142Y-48461904D02*
X166529761Y-48509523D01*
X166529761Y-48509523D02*
X166577380Y-48604761D01*
X166577380Y-48604761D02*
X166577380Y-48890475D01*
X166577380Y-48890475D02*
X166529761Y-48985713D01*
X166529761Y-48985713D02*
X166482142Y-49033332D01*
%TO.C,R7*%
X176033333Y-72257380D02*
X175700000Y-71781190D01*
X175461905Y-72257380D02*
X175461905Y-71257380D01*
X175461905Y-71257380D02*
X175842857Y-71257380D01*
X175842857Y-71257380D02*
X175938095Y-71305000D01*
X175938095Y-71305000D02*
X175985714Y-71352619D01*
X175985714Y-71352619D02*
X176033333Y-71447857D01*
X176033333Y-71447857D02*
X176033333Y-71590714D01*
X176033333Y-71590714D02*
X175985714Y-71685952D01*
X175985714Y-71685952D02*
X175938095Y-71733571D01*
X175938095Y-71733571D02*
X175842857Y-71781190D01*
X175842857Y-71781190D02*
X175461905Y-71781190D01*
X176366667Y-71257380D02*
X177033333Y-71257380D01*
X177033333Y-71257380D02*
X176604762Y-72257380D01*
%TO.C,R11*%
X175557142Y-87497380D02*
X175223809Y-87021190D01*
X174985714Y-87497380D02*
X174985714Y-86497380D01*
X174985714Y-86497380D02*
X175366666Y-86497380D01*
X175366666Y-86497380D02*
X175461904Y-86545000D01*
X175461904Y-86545000D02*
X175509523Y-86592619D01*
X175509523Y-86592619D02*
X175557142Y-86687857D01*
X175557142Y-86687857D02*
X175557142Y-86830714D01*
X175557142Y-86830714D02*
X175509523Y-86925952D01*
X175509523Y-86925952D02*
X175461904Y-86973571D01*
X175461904Y-86973571D02*
X175366666Y-87021190D01*
X175366666Y-87021190D02*
X174985714Y-87021190D01*
X176509523Y-87497380D02*
X175938095Y-87497380D01*
X176223809Y-87497380D02*
X176223809Y-86497380D01*
X176223809Y-86497380D02*
X176128571Y-86640238D01*
X176128571Y-86640238D02*
X176033333Y-86735476D01*
X176033333Y-86735476D02*
X175938095Y-86783095D01*
X177461904Y-87497380D02*
X176890476Y-87497380D01*
X177176190Y-87497380D02*
X177176190Y-86497380D01*
X177176190Y-86497380D02*
X177080952Y-86640238D01*
X177080952Y-86640238D02*
X176985714Y-86735476D01*
X176985714Y-86735476D02*
X176890476Y-86783095D01*
%TO.C,R4*%
X179277380Y-49366666D02*
X178801190Y-49699999D01*
X179277380Y-49938094D02*
X178277380Y-49938094D01*
X178277380Y-49938094D02*
X178277380Y-49557142D01*
X178277380Y-49557142D02*
X178325000Y-49461904D01*
X178325000Y-49461904D02*
X178372619Y-49414285D01*
X178372619Y-49414285D02*
X178467857Y-49366666D01*
X178467857Y-49366666D02*
X178610714Y-49366666D01*
X178610714Y-49366666D02*
X178705952Y-49414285D01*
X178705952Y-49414285D02*
X178753571Y-49461904D01*
X178753571Y-49461904D02*
X178801190Y-49557142D01*
X178801190Y-49557142D02*
X178801190Y-49938094D01*
X178610714Y-48509523D02*
X179277380Y-48509523D01*
X178229761Y-48747618D02*
X178944047Y-48985713D01*
X178944047Y-48985713D02*
X178944047Y-48366666D01*
D12*
%TO.C,J1*%
X129210000Y-98790000D02*
X147050000Y-98790000D01*
X129210000Y-98790000D02*
X129210000Y-96130000D01*
X147050000Y-98790000D02*
X147050000Y-96130000D01*
X126610000Y-97460000D02*
X126610000Y-96130000D01*
X126610000Y-96130000D02*
X127940000Y-96130000D01*
X129210000Y-96130000D02*
X147050000Y-96130000D01*
%TO.C,J3*%
X152070000Y-98790000D02*
X164830000Y-98790000D01*
X152070000Y-98790000D02*
X152070000Y-96130000D01*
X164830000Y-98790000D02*
X164830000Y-96130000D01*
X149470000Y-97460000D02*
X149470000Y-96130000D01*
X149470000Y-96130000D02*
X150800000Y-96130000D01*
X152070000Y-96130000D02*
X164830000Y-96130000D01*
%TO.C,J2*%
X120066000Y-50530000D02*
X142986000Y-50530000D01*
X120066000Y-50530000D02*
X120066000Y-47870000D01*
X142986000Y-50530000D02*
X142986000Y-47870000D01*
X117466000Y-49200000D02*
X117466000Y-47870000D01*
X117466000Y-47870000D02*
X118796000Y-47870000D01*
X120066000Y-47870000D02*
X142986000Y-47870000D01*
%TO.C,J4*%
X146990000Y-50530000D02*
X164830000Y-50530000D01*
X146990000Y-50530000D02*
X146990000Y-47870000D01*
X164830000Y-50530000D02*
X164830000Y-47870000D01*
X144390000Y-49200000D02*
X144390000Y-47870000D01*
X144390000Y-47870000D02*
X145720000Y-47870000D01*
X146990000Y-47870000D02*
X164830000Y-47870000D01*
%TO.C,D2*%
X185070000Y-47655000D02*
X185070000Y-50745000D01*
X190619999Y-49200462D02*
G75*
G03*
X185070001Y-47655170I-2989999J462D01*
G01*
X185070000Y-50744830D02*
G75*
G03*
X190620000Y-49199538I2560000J1544830D01*
G01*
X190130000Y-49200000D02*
G75*
G03*
X190130000Y-49200000I-2500000J0D01*
G01*
%TO.C,U2*%
X187460000Y-75750000D02*
X187460000Y-96310000D01*
X187460000Y-96310000D02*
X197960000Y-96310000D01*
X190460000Y-75810000D02*
X190460000Y-96250000D01*
X190460000Y-96250000D02*
X194960000Y-96250000D01*
X191710000Y-75810000D02*
X190460000Y-75810000D01*
X194960000Y-75810000D02*
X193710000Y-75810000D01*
X194960000Y-96250000D02*
X194960000Y-75810000D01*
X197960000Y-75750000D02*
X187460000Y-75750000D01*
X197960000Y-96310000D02*
X197960000Y-75750000D01*
X191710000Y-75810000D02*
G75*
G03*
X193710000Y-75810000I1000000J0D01*
G01*
%TO.C,R8*%
X180240000Y-74600000D02*
X179470000Y-74600000D01*
X179470000Y-75970000D02*
X179470000Y-73230000D01*
X179470000Y-73230000D02*
X172930000Y-73230000D01*
X172930000Y-75970000D02*
X179470000Y-75970000D01*
X172930000Y-73230000D02*
X172930000Y-75970000D01*
X172160000Y-74600000D02*
X172930000Y-74600000D01*
%TO.C,R5*%
X200560000Y-69520000D02*
X199790000Y-69520000D01*
X199790000Y-70890000D02*
X199790000Y-68150000D01*
X199790000Y-68150000D02*
X193250000Y-68150000D01*
X193250000Y-70890000D02*
X199790000Y-70890000D01*
X193250000Y-68150000D02*
X193250000Y-70890000D01*
X192480000Y-69520000D02*
X193250000Y-69520000D01*
%TO.C,D1*%
X172370000Y-47655000D02*
X172370000Y-50745000D01*
X177919999Y-49200462D02*
G75*
G03*
X172370001Y-47655170I-2989999J462D01*
G01*
X172370000Y-50744830D02*
G75*
G03*
X177920000Y-49199538I2560000J1544830D01*
G01*
X177430000Y-49200000D02*
G75*
G03*
X177430000Y-49200000I-2500000J0D01*
G01*
%TO.C,R1*%
X134060000Y-92380000D02*
X134830000Y-92380000D01*
X134830000Y-91010000D02*
X134830000Y-93750000D01*
X134830000Y-93750000D02*
X141370000Y-93750000D01*
X141370000Y-91010000D02*
X134830000Y-91010000D01*
X141370000Y-93750000D02*
X141370000Y-91010000D01*
X142140000Y-92380000D02*
X141370000Y-92380000D01*
%TO.C,LS1*%
X205160000Y-49200000D02*
G75*
G03*
X205160000Y-49200000I-6100000J0D01*
G01*
%TO.C,R2*%
X113740000Y-94920000D02*
X114510000Y-94920000D01*
X114510000Y-93550000D02*
X114510000Y-96290000D01*
X114510000Y-96290000D02*
X121050000Y-96290000D01*
X121050000Y-93550000D02*
X114510000Y-93550000D01*
X121050000Y-96290000D02*
X121050000Y-93550000D01*
X121820000Y-94920000D02*
X121050000Y-94920000D01*
%TO.C,STARTSTOP*%
X126460000Y-88370000D02*
X114160000Y-88370000D01*
X126460000Y-85650000D02*
X126460000Y-88370000D01*
X126460000Y-80650000D02*
X126460000Y-83790000D01*
X126460000Y-76070000D02*
X126460000Y-78790000D01*
X114160000Y-88370000D02*
X114160000Y-85650000D01*
X114160000Y-83790000D02*
X114160000Y-80650000D01*
X114160000Y-78790000D02*
X114160000Y-76070000D01*
X114160000Y-76070000D02*
X126460000Y-76070000D01*
X124789050Y-82180000D02*
G75*
G03*
X124789050Y-82180000I-4579050J0D01*
G01*
%TO.C,INCREMENT*%
X144725000Y-88330000D02*
X132425000Y-88330000D01*
X144725000Y-85610000D02*
X144725000Y-88330000D01*
X144725000Y-80610000D02*
X144725000Y-83750000D01*
X144725000Y-76030000D02*
X144725000Y-78750000D01*
X132425000Y-88330000D02*
X132425000Y-85610000D01*
X132425000Y-83750000D02*
X132425000Y-80610000D01*
X132425000Y-78750000D02*
X132425000Y-76030000D01*
X132425000Y-76030000D02*
X144725000Y-76030000D01*
X143054050Y-82140000D02*
G75*
G03*
X143054050Y-82140000I-4579050J0D01*
G01*
%TO.C,U1*%
X129480000Y-71900000D02*
X131480000Y-71900000D01*
X111560000Y-71520000D02*
X162100000Y-71520000D01*
X111560000Y-71520000D02*
X111560000Y-52280000D01*
X162100000Y-71520000D02*
X162100000Y-52280000D01*
X162100000Y-52280000D02*
X111560000Y-52280000D01*
%TO.C,R12*%
X180240000Y-94920000D02*
X179470000Y-94920000D01*
X179470000Y-96290000D02*
X179470000Y-93550000D01*
X179470000Y-93550000D02*
X172930000Y-93550000D01*
X172930000Y-96290000D02*
X179470000Y-96290000D01*
X172930000Y-93550000D02*
X172930000Y-96290000D01*
X172160000Y-94920000D02*
X172930000Y-94920000D01*
%TO.C,R10*%
X180240000Y-89840000D02*
X179470000Y-89840000D01*
X179470000Y-91210000D02*
X179470000Y-88470000D01*
X179470000Y-88470000D02*
X172930000Y-88470000D01*
X172930000Y-91210000D02*
X179470000Y-91210000D01*
X172930000Y-88470000D02*
X172930000Y-91210000D01*
X172160000Y-89840000D02*
X172930000Y-89840000D01*
%TO.C,R9*%
X180240000Y-79680000D02*
X179470000Y-79680000D01*
X179470000Y-81050000D02*
X179470000Y-78310000D01*
X179470000Y-78310000D02*
X172930000Y-78310000D01*
X172930000Y-81050000D02*
X179470000Y-81050000D01*
X172930000Y-78310000D02*
X172930000Y-81050000D01*
X172160000Y-79680000D02*
X172930000Y-79680000D01*
%TO.C,R6*%
X180240000Y-64440000D02*
X179470000Y-64440000D01*
X179470000Y-65810000D02*
X179470000Y-63070000D01*
X179470000Y-63070000D02*
X172930000Y-63070000D01*
X172930000Y-65810000D02*
X179470000Y-65810000D01*
X172930000Y-63070000D02*
X172930000Y-65810000D01*
X172160000Y-64440000D02*
X172930000Y-64440000D01*
%TO.C,R3*%
X168580000Y-53240000D02*
X168580000Y-52470000D01*
X167210000Y-52470000D02*
X169950000Y-52470000D01*
X169950000Y-52470000D02*
X169950000Y-45930000D01*
X167210000Y-45930000D02*
X167210000Y-52470000D01*
X169950000Y-45930000D02*
X167210000Y-45930000D01*
X168580000Y-45160000D02*
X168580000Y-45930000D01*
%TO.C,R7*%
X180240000Y-69520000D02*
X179470000Y-69520000D01*
X179470000Y-70890000D02*
X179470000Y-68150000D01*
X179470000Y-68150000D02*
X172930000Y-68150000D01*
X172930000Y-70890000D02*
X179470000Y-70890000D01*
X172930000Y-68150000D02*
X172930000Y-70890000D01*
X172160000Y-69520000D02*
X172930000Y-69520000D01*
%TO.C,R11*%
X180240000Y-84760000D02*
X179470000Y-84760000D01*
X179470000Y-86130000D02*
X179470000Y-83390000D01*
X179470000Y-83390000D02*
X172930000Y-83390000D01*
X172930000Y-86130000D02*
X179470000Y-86130000D01*
X172930000Y-83390000D02*
X172930000Y-86130000D01*
X172160000Y-84760000D02*
X172930000Y-84760000D01*
%TO.C,R4*%
X181280000Y-53240000D02*
X181280000Y-52470000D01*
X179910000Y-52470000D02*
X182650000Y-52470000D01*
X182650000Y-52470000D02*
X182650000Y-45930000D01*
X179910000Y-45930000D02*
X179910000Y-52470000D01*
X182650000Y-45930000D02*
X179910000Y-45930000D01*
X181280000Y-45160000D02*
X181280000Y-45930000D01*
%TD*%
M02*
