M48
; DRILL file {KiCad (7.0.0)} date Tue Apr 11 17:04:34 2023
; FORMAT={-:-/ absolute / inch / decimal}
; #@! TF.CreationDate,2023-04-11T17:04:34-06:00
; #@! TF.GenerationSoftware,Kicad,Pcbnew,(7.0.0)
; #@! TF.FileFunction,Plated,1,2,PTH
FMAT,2
INCH
; #@! TA.AperFunction,Plated,PTH,ViaDrill
T1C0.0118
; #@! TA.AperFunction,Plated,PTH,ComponentDrill
T2C0.0315
; #@! TA.AperFunction,Plated,PTH,ComponentDrill
T3C0.0354
; #@! TA.AperFunction,Plated,PTH,ComponentDrill
T4C0.0394
; #@! TA.AperFunction,Plated,PTH,ComponentDrill
T5C0.0512
%
G90
G05
T1
X4.837Y-3.8827
X5.7546Y-2.5949
X6.6366Y-3.5221
T2
X4.437Y-3.737
X4.837Y-3.737
X5.237Y-3.637
X5.637Y-3.637
X6.637Y-1.737
X6.637Y-2.137
X6.737Y-2.537
X6.737Y-2.737
X6.737Y-2.937
X6.737Y-3.137
X6.737Y-3.337
X6.737Y-3.537
X6.737Y-3.737
X7.137Y-1.737
X7.137Y-2.137
X7.137Y-2.537
X7.137Y-2.737
X7.137Y-2.937
X7.137Y-3.137
X7.137Y-3.337
X7.137Y-3.537
X7.137Y-3.737
X7.437Y-3.037
X7.437Y-3.137
X7.437Y-3.237
X7.437Y-3.337
X7.437Y-3.437
X7.437Y-3.537
X7.437Y-3.637
X7.437Y-3.737
X7.537Y-2.737
X7.737Y-3.037
X7.737Y-3.137
X7.737Y-3.237
X7.737Y-3.337
X7.737Y-3.437
X7.737Y-3.537
X7.737Y-3.637
X7.737Y-3.737
X7.937Y-2.737
T3
X6.837Y-1.937
X6.937Y-1.937
X7.337Y-1.937
X7.437Y-1.937
T4
X4.677Y-1.937
X4.777Y-1.937
X4.877Y-1.937
X4.977Y-1.937
X5.037Y-3.837
X5.077Y-1.937
X5.137Y-2.137
X5.137Y-2.737
X5.137Y-3.837
X5.177Y-1.937
X5.237Y-2.137
X5.237Y-2.737
X5.237Y-3.837
X5.277Y-1.937
X5.337Y-2.137
X5.337Y-2.737
X5.337Y-3.837
X5.377Y-1.937
X5.437Y-2.137
X5.437Y-2.737
X5.437Y-3.837
X5.477Y-1.937
X5.537Y-2.137
X5.537Y-2.737
X5.537Y-3.837
X5.577Y-1.937
X5.637Y-2.137
X5.637Y-2.737
X5.637Y-3.837
X5.737Y-1.937
X5.737Y-3.837
X5.837Y-1.937
X5.937Y-1.937
X5.937Y-3.837
X6.037Y-1.937
X6.037Y-3.837
X6.137Y-1.937
X6.137Y-3.837
X6.237Y-1.937
X6.237Y-3.837
X6.337Y-1.937
X6.337Y-3.837
X6.437Y-1.937
X6.437Y-3.837
X7.6874Y-1.937
X7.9866Y-1.937
T5
X4.4906Y-3.1386
X4.4906Y-3.3354
X4.9827Y-3.1386
X4.9827Y-3.3354
X5.2096Y-3.137
X5.2096Y-3.3339
X5.7018Y-3.137
X5.7018Y-3.3339
T0
M30
