%TF.GenerationSoftware,KiCad,Pcbnew,(7.0.0)*%
%TF.CreationDate,2023-04-20T13:17:43-06:00*%
%TF.ProjectId,Phase_B_ATMEGA_Considine_Final,50686173-655f-4425-9f41-544d4547415f,rev?*%
%TF.SameCoordinates,Original*%
%TF.FileFunction,Copper,L2,Bot*%
%TF.FilePolarity,Positive*%
%FSLAX46Y46*%
G04 Gerber Fmt 4.6, Leading zero omitted, Abs format (unit mm)*
G04 Created by KiCad (PCBNEW (7.0.0)) date 2023-04-20 13:17:43*
%MOMM*%
%LPD*%
G01*
G04 APERTURE LIST*
%TA.AperFunction,ComponentPad*%
%ADD10R,1.700000X1.700000*%
%TD*%
%TA.AperFunction,ComponentPad*%
%ADD11O,1.700000X1.700000*%
%TD*%
%TA.AperFunction,ComponentPad*%
%ADD12R,1.500000X1.500000*%
%TD*%
%TA.AperFunction,ComponentPad*%
%ADD13C,1.500000*%
%TD*%
%TA.AperFunction,ComponentPad*%
%ADD14R,2.000000X2.000000*%
%TD*%
%TA.AperFunction,ComponentPad*%
%ADD15C,2.000000*%
%TD*%
%TA.AperFunction,ViaPad*%
%ADD16C,0.600000*%
%TD*%
%TA.AperFunction,Conductor*%
%ADD17C,0.200000*%
%TD*%
G04 APERTURE END LIST*
D10*
%TO.P,J1,1,MISO*%
%TO.N,MISO*%
X169422499Y-107334999D03*
D11*
%TO.P,J1,2,VCC*%
%TO.N,+5V*%
X166882499Y-107334999D03*
%TO.P,J1,3,SCK*%
%TO.N,SCK*%
X169422499Y-109874999D03*
%TO.P,J1,4,MOSI*%
%TO.N,MOSI*%
X166882499Y-109874999D03*
%TO.P,J1,5,~{RST}*%
%TO.N,RST*%
X169422499Y-112414999D03*
%TO.P,J1,6,GND*%
%TO.N,GND*%
X166882499Y-112414999D03*
%TD*%
D12*
%TO.P,U1,1,e*%
%TO.N,Net-(U1-e)*%
X101599999Y-81279999D03*
D13*
%TO.P,U1,2,d*%
%TO.N,Net-(U1-d)*%
X101600000Y-83820000D03*
%TO.P,U1,3,DPX*%
%TO.N,Net-(U1-DPX)*%
X101600000Y-86360000D03*
%TO.P,U1,4,c*%
%TO.N,Net-(U1-c)*%
X101600000Y-88900000D03*
%TO.P,U1,5,g*%
%TO.N,Net-(U1-g)*%
X101600000Y-91440000D03*
%TO.P,U1,6,CA4*%
%TO.N,Dig4*%
X101600000Y-93980000D03*
%TO.P,U1,7,b*%
%TO.N,Net-(U1-b)*%
X116840000Y-93980000D03*
%TO.P,U1,8,CA3*%
%TO.N,Dig3*%
X116840000Y-91440000D03*
%TO.P,U1,9,CA2*%
%TO.N,Dig2*%
X116840000Y-88900000D03*
%TO.P,U1,10,f*%
%TO.N,Net-(U1-f)*%
X116840000Y-86360000D03*
%TO.P,U1,11,a*%
%TO.N,Net-(U1-a)*%
X116840000Y-83820000D03*
%TO.P,U1,12,CA1*%
%TO.N,Dig1*%
X116840000Y-81280000D03*
%TD*%
D14*
%TO.P,Buzzer,1,1*%
%TO.N,Buzzer*%
X139699999Y-67954999D03*
D15*
%TO.P,Buzzer,2,2*%
%TO.N,GND*%
X139700000Y-60355000D03*
%TD*%
D10*
%TO.P,J3,1,Pin_1*%
%TO.N,GND*%
X179582499Y-109874999D03*
D11*
%TO.P,J3,2,Pin_2*%
%TO.N,TX*%
X177042499Y-109874999D03*
%TO.P,J3,3,Pin_3*%
%TO.N,unconnected-(J3-Pin_3-Pad3)*%
X179582499Y-112414999D03*
%TO.P,J3,4,Pin_4*%
%TO.N,+3.3V*%
X177042499Y-112414999D03*
%TO.P,J3,5,Pin_5*%
%TO.N,Net-(J3-Pin_5)*%
X179582499Y-114954999D03*
%TO.P,J3,6,Pin_6*%
%TO.N,+3.3V*%
X177042499Y-114954999D03*
%TO.P,J3,7,Pin_7*%
%TO.N,RX*%
X179582499Y-117494999D03*
%TO.P,J3,8,Pin_8*%
%TO.N,+3.3V*%
X177042499Y-117494999D03*
%TD*%
D16*
%TO.N,GND*%
X170206589Y-92847026D03*
%TO.N,/UCAP*%
X154588380Y-98922284D03*
X147691233Y-100950856D03*
%TO.N,+5V*%
X156068181Y-101776190D03*
X156006171Y-104309969D03*
%TO.N,GND*%
X150867000Y-88202100D03*
X147583043Y-105819430D03*
X177464000Y-93154000D03*
X159311000Y-109511000D03*
X168236201Y-93159004D03*
X134257000Y-97216800D03*
X167048000Y-88912400D03*
X159430000Y-114378000D03*
X136530000Y-82662300D03*
X155999000Y-109266000D03*
X178973000Y-99031800D03*
X159126000Y-93056600D03*
X162577000Y-105722000D03*
X171189000Y-93254000D03*
X166562000Y-79237500D03*
X173093000Y-93197700D03*
X167110000Y-91180900D03*
X133272000Y-99872000D03*
X150674000Y-94681800D03*
X141500000Y-93658600D03*
X166853000Y-114890000D03*
X185798000Y-121486000D03*
X164196000Y-79217200D03*
X139695000Y-82691700D03*
X157421000Y-99233100D03*
X158311000Y-83274000D03*
X160650000Y-76705000D03*
X182387000Y-109448000D03*
X167048000Y-86766900D03*
X175155000Y-93276600D03*
X154219000Y-95643200D03*
X150893000Y-84248100D03*
X139700000Y-62693300D03*
X169184000Y-93152600D03*
X160282000Y-85585600D03*
X179548000Y-107666000D03*
%TO.N,XTAL2*%
X159007600Y-104387800D03*
X159385800Y-92035900D03*
%TO.N,/AREF*%
X139748800Y-99840800D03*
X147934700Y-94373500D03*
%TO.N,+3.3V*%
X161754300Y-82307700D03*
%TO.N,SCK*%
X159907300Y-100062200D03*
%TO.N,MOSI*%
X159500800Y-99038100D03*
%TO.N,TX*%
X162197400Y-89183400D03*
%TO.N,RX*%
X161958400Y-87931200D03*
%TO.N,Buzzer*%
X154591300Y-83675300D03*
%TO.N,Net-(U1-b)*%
X125703400Y-82498300D03*
%TO.N,Net-(U1-c)*%
X120597500Y-83219200D03*
%TO.N,Dig4*%
X153340000Y-84397900D03*
%TO.N,Dig3*%
X158983300Y-95261900D03*
%TO.N,Dig2*%
X149468000Y-80692900D03*
%TO.N,ST_CP*%
X154374100Y-84484400D03*
X145172000Y-94305000D03*
%TO.N,DS*%
X154359300Y-87009400D03*
X147394000Y-93005000D03*
%TD*%
D17*
%TO.N,RX*%
X163978300Y-89951100D02*
X161958400Y-87931200D01*
X163978300Y-90503700D02*
X163978300Y-89951100D01*
X178432400Y-104957800D02*
X163978300Y-90503700D01*
X178432400Y-115482400D02*
X178432400Y-104957800D01*
X179294900Y-116344900D02*
X178432400Y-115482400D01*
X179582500Y-116344900D02*
X179294900Y-116344900D01*
X179582500Y-117495000D02*
X179582500Y-116344900D01*
%TO.N,/UCAP*%
X152559808Y-100950856D02*
X154588380Y-98922284D01*
X147691233Y-100950856D02*
X152559808Y-100950856D01*
%TO.N,+5V*%
X156068181Y-104247959D02*
X156068181Y-101776190D01*
X156006171Y-104309969D02*
X156068181Y-104247959D01*
%TO.N,XTAL2*%
X159726200Y-96330300D02*
X159726200Y-92376300D01*
X159726200Y-92376300D02*
X159385800Y-92035900D01*
X158895500Y-97161000D02*
X159726200Y-96330300D01*
X158895500Y-104275700D02*
X158895500Y-97161000D01*
X159007600Y-104387800D02*
X158895500Y-104275700D01*
%TO.N,/AREF*%
X142467400Y-99840800D02*
X147934700Y-94373500D01*
X139748800Y-99840800D02*
X142467400Y-99840800D01*
%TO.N,+3.3V*%
X177042500Y-117495000D02*
X177042500Y-114955000D01*
X177042500Y-114955000D02*
X177042500Y-112415000D01*
X177042500Y-112415000D02*
X177042500Y-111264900D01*
X177042500Y-111264900D02*
X176755000Y-111264900D01*
X161352400Y-95862300D02*
X161352400Y-82709600D01*
X176755000Y-111264900D02*
X161352400Y-95862300D01*
X161352400Y-82709600D02*
X161754300Y-82307700D01*
%TO.N,SCK*%
X159907300Y-100062200D02*
X161238700Y-100062200D01*
X168032700Y-106856200D02*
X168032700Y-108148400D01*
X169422500Y-109875000D02*
X169422500Y-108724900D01*
X168032700Y-108148400D02*
X168609200Y-108724900D01*
X168609200Y-108724900D02*
X169422500Y-108724900D01*
X161238700Y-100062200D02*
X168032700Y-106856200D01*
%TO.N,MOSI*%
X159307200Y-99231700D02*
X159500800Y-99038100D01*
X159307200Y-101386300D02*
X159307200Y-99231700D01*
X166645800Y-108724900D02*
X159307200Y-101386300D01*
X166882500Y-108724900D02*
X166645800Y-108724900D01*
X166882500Y-109875000D02*
X166882500Y-108724900D01*
%TO.N,TX*%
X162197400Y-93879800D02*
X177042500Y-108724900D01*
X162197400Y-89183400D02*
X162197400Y-93879800D01*
X177042500Y-109875000D02*
X177042500Y-108724900D01*
%TO.N,Buzzer*%
X139700000Y-67955000D02*
X139700000Y-69255100D01*
X139700000Y-69255100D02*
X140171100Y-69255100D01*
X140171100Y-69255100D02*
X154591300Y-83675300D01*
%TO.N,Net-(U1-b)*%
X116840000Y-93980000D02*
X125703400Y-85116600D01*
X125703400Y-85116600D02*
X125703400Y-82498300D01*
%TO.N,Net-(U1-c)*%
X118868300Y-84948400D02*
X120597500Y-83219200D01*
X105551600Y-84948400D02*
X118868300Y-84948400D01*
X101600000Y-88900000D02*
X105551600Y-84948400D01*
%TO.N,Dig4*%
X150830200Y-81888100D02*
X153340000Y-84397900D01*
X101600000Y-93980000D02*
X105610200Y-89969800D01*
X125368200Y-81888100D02*
X150830200Y-81888100D01*
X105610200Y-89969800D02*
X117286500Y-89969800D01*
X117286500Y-89969800D02*
X125368200Y-81888100D01*
%TO.N,Dig3*%
X116840000Y-91440000D02*
X115746600Y-92533400D01*
X116327200Y-95034500D02*
X146213300Y-95034500D01*
X147504900Y-93742900D02*
X157464300Y-93742900D01*
X146213300Y-95034500D02*
X147504900Y-93742900D01*
X157464300Y-93742900D02*
X158983300Y-95261900D01*
X115746600Y-94453900D02*
X116327200Y-95034500D01*
X115746600Y-92533400D02*
X115746600Y-94453900D01*
%TO.N,Dig2*%
X116840000Y-88900000D02*
X125047100Y-80692900D01*
X125047100Y-80692900D02*
X149468000Y-80692900D01*
%TO.N,ST_CP*%
X153852000Y-85006500D02*
X154374100Y-84484400D01*
X145172000Y-94305000D02*
X145172000Y-93007600D01*
X145172000Y-93007600D02*
X153173100Y-85006500D01*
X153173100Y-85006500D02*
X153852000Y-85006500D01*
%TO.N,DS*%
X147394000Y-93005000D02*
X153389600Y-87009400D01*
X153389600Y-87009400D02*
X154359300Y-87009400D01*
%TD*%
%TA.AperFunction,Conductor*%
%TO.N,GND*%
G36*
X150577556Y-82498039D02*
G01*
X150617784Y-82524919D01*
X152509299Y-84416434D01*
X152533338Y-84450313D01*
X152544838Y-84490231D01*
X152553851Y-84570231D01*
X152553852Y-84570238D01*
X152554632Y-84577155D01*
X152556931Y-84583726D01*
X152556932Y-84583729D01*
X152580372Y-84650717D01*
X152584221Y-84719264D01*
X152551011Y-84779352D01*
X144780965Y-92549398D01*
X144768774Y-92560090D01*
X144750165Y-92574370D01*
X144750161Y-92574373D01*
X144743718Y-92579318D01*
X144738774Y-92585760D01*
X144738772Y-92585763D01*
X144685279Y-92655477D01*
X144685279Y-92655478D01*
X144674579Y-92669423D01*
X144654740Y-92695277D01*
X144647464Y-92704759D01*
X144644355Y-92712263D01*
X144644353Y-92712268D01*
X144590066Y-92843328D01*
X144590064Y-92843333D01*
X144586956Y-92850838D01*
X144585896Y-92858889D01*
X144585894Y-92858897D01*
X144569941Y-92980082D01*
X144566318Y-93007600D01*
X144567379Y-93015659D01*
X144570439Y-93038902D01*
X144571500Y-93055087D01*
X144571500Y-93723838D01*
X144564541Y-93764793D01*
X144545281Y-93799640D01*
X144542184Y-93802738D01*
X144538483Y-93808627D01*
X144538479Y-93808633D01*
X144449912Y-93949587D01*
X144449910Y-93949590D01*
X144446211Y-93955478D01*
X144443915Y-93962036D01*
X144443913Y-93962043D01*
X144388930Y-94119175D01*
X144388928Y-94119182D01*
X144386632Y-94125745D01*
X144366435Y-94305000D01*
X144367062Y-94310569D01*
X144350602Y-94372000D01*
X144305215Y-94417387D01*
X144243215Y-94434000D01*
X118174565Y-94434000D01*
X118119721Y-94421212D01*
X118076189Y-94385486D01*
X118052948Y-94334191D01*
X118054790Y-94277906D01*
X118059483Y-94260391D01*
X118076207Y-94197977D01*
X118095277Y-93980000D01*
X118076207Y-93762023D01*
X118073918Y-93753480D01*
X118059023Y-93697890D01*
X118059023Y-93633703D01*
X118091115Y-93578118D01*
X126094444Y-85574790D01*
X126106622Y-85564109D01*
X126131682Y-85544882D01*
X126216165Y-85434782D01*
X126227936Y-85419441D01*
X126288444Y-85273362D01*
X126309082Y-85116600D01*
X126304961Y-85085298D01*
X126303900Y-85069113D01*
X126303900Y-83079462D01*
X126310859Y-83038507D01*
X126330118Y-83003659D01*
X126333216Y-83000562D01*
X126429189Y-82847822D01*
X126488768Y-82677555D01*
X126497650Y-82598716D01*
X126518417Y-82542748D01*
X126562930Y-82502970D01*
X126620871Y-82488600D01*
X150530103Y-82488600D01*
X150577556Y-82498039D01*
G37*
%TD.AperFunction*%
%TA.AperFunction,Conductor*%
G36*
X195507500Y-53367113D02*
G01*
X195552887Y-53412500D01*
X195569500Y-53474500D01*
X195569500Y-124325500D01*
X195552887Y-124387500D01*
X195507500Y-124432887D01*
X195445500Y-124449500D01*
X96654500Y-124449500D01*
X96592500Y-124432887D01*
X96547113Y-124387500D01*
X96530500Y-124325500D01*
X96530500Y-119447765D01*
X102285788Y-119447765D01*
X102286282Y-119452262D01*
X102286283Y-119452267D01*
X102314917Y-119712506D01*
X102314918Y-119712513D01*
X102315414Y-119717018D01*
X102316559Y-119721398D01*
X102316561Y-119721408D01*
X102348830Y-119844838D01*
X102383928Y-119979088D01*
X102385693Y-119983242D01*
X102385696Y-119983250D01*
X102488099Y-120224223D01*
X102489870Y-120228390D01*
X102492226Y-120232251D01*
X102492229Y-120232256D01*
X102628618Y-120455737D01*
X102630982Y-120459610D01*
X102804255Y-120667820D01*
X102807630Y-120670844D01*
X102807631Y-120670845D01*
X102912330Y-120764656D01*
X103005998Y-120848582D01*
X103231910Y-120998044D01*
X103477176Y-121113020D01*
X103736569Y-121191060D01*
X104004561Y-121230500D01*
X104205369Y-121230500D01*
X104207631Y-121230500D01*
X104410156Y-121215677D01*
X104674553Y-121156780D01*
X104927558Y-121060014D01*
X105163777Y-120927441D01*
X105378177Y-120761888D01*
X105566186Y-120566881D01*
X105723799Y-120346579D01*
X105847656Y-120105675D01*
X105935118Y-119849305D01*
X105984319Y-119582933D01*
X105994212Y-119312235D01*
X105972393Y-119113935D01*
X153768169Y-119113935D01*
X153798635Y-119286711D01*
X153868123Y-119447804D01*
X153972890Y-119588530D01*
X154107286Y-119701302D01*
X154264067Y-119780040D01*
X154434779Y-119820500D01*
X154562611Y-119820500D01*
X154566209Y-119820500D01*
X154696755Y-119805241D01*
X154861617Y-119745237D01*
X155008196Y-119648830D01*
X155128592Y-119521218D01*
X155216312Y-119369281D01*
X155266630Y-119201210D01*
X155271713Y-119113935D01*
X158168169Y-119113935D01*
X158198635Y-119286711D01*
X158268123Y-119447804D01*
X158372890Y-119588530D01*
X158507286Y-119701302D01*
X158664067Y-119780040D01*
X158834779Y-119820500D01*
X158962611Y-119820500D01*
X158966209Y-119820500D01*
X159096755Y-119805241D01*
X159261617Y-119745237D01*
X159408196Y-119648830D01*
X159528592Y-119521218D01*
X159616312Y-119369281D01*
X159666630Y-119201210D01*
X159676831Y-119026065D01*
X159646365Y-118853289D01*
X159576877Y-118692196D01*
X159472110Y-118551470D01*
X159400247Y-118491170D01*
X159343245Y-118443339D01*
X159343244Y-118443338D01*
X159337714Y-118438698D01*
X159295406Y-118417450D01*
X159187383Y-118363199D01*
X159187380Y-118363198D01*
X159180933Y-118359960D01*
X159173907Y-118358294D01*
X159173905Y-118358294D01*
X159017249Y-118321165D01*
X159017243Y-118321164D01*
X159010221Y-118319500D01*
X158878791Y-118319500D01*
X158875225Y-118319916D01*
X158875221Y-118319917D01*
X158755415Y-118333920D01*
X158755407Y-118333921D01*
X158748245Y-118334759D01*
X158741467Y-118337225D01*
X158741458Y-118337228D01*
X158590174Y-118392291D01*
X158590171Y-118392292D01*
X158583383Y-118394763D01*
X158577350Y-118398730D01*
X158577342Y-118398735D01*
X158442840Y-118487199D01*
X158442834Y-118487203D01*
X158436804Y-118491170D01*
X158431851Y-118496419D01*
X158431846Y-118496424D01*
X158321365Y-118613527D01*
X158321361Y-118613531D01*
X158316408Y-118618782D01*
X158312799Y-118625032D01*
X158312796Y-118625037D01*
X158232299Y-118764463D01*
X158232296Y-118764468D01*
X158228688Y-118770719D01*
X158226617Y-118777634D01*
X158226617Y-118777636D01*
X158180441Y-118931869D01*
X158180439Y-118931877D01*
X158178370Y-118938790D01*
X158177950Y-118945996D01*
X158177949Y-118946004D01*
X158168588Y-119106725D01*
X158168588Y-119106733D01*
X158168169Y-119113935D01*
X155271713Y-119113935D01*
X155276831Y-119026065D01*
X155246365Y-118853289D01*
X155176877Y-118692196D01*
X155072110Y-118551470D01*
X155000247Y-118491170D01*
X154943245Y-118443339D01*
X154943244Y-118443338D01*
X154937714Y-118438698D01*
X154895406Y-118417450D01*
X154787383Y-118363199D01*
X154787380Y-118363198D01*
X154780933Y-118359960D01*
X154773907Y-118358294D01*
X154773905Y-118358294D01*
X154617249Y-118321165D01*
X154617243Y-118321164D01*
X154610221Y-118319500D01*
X154478791Y-118319500D01*
X154475225Y-118319916D01*
X154475221Y-118319917D01*
X154355415Y-118333920D01*
X154355407Y-118333921D01*
X154348245Y-118334759D01*
X154341467Y-118337225D01*
X154341458Y-118337228D01*
X154190174Y-118392291D01*
X154190171Y-118392292D01*
X154183383Y-118394763D01*
X154177350Y-118398730D01*
X154177342Y-118398735D01*
X154042840Y-118487199D01*
X154042834Y-118487203D01*
X154036804Y-118491170D01*
X154031851Y-118496419D01*
X154031846Y-118496424D01*
X153921365Y-118613527D01*
X153921361Y-118613531D01*
X153916408Y-118618782D01*
X153912799Y-118625032D01*
X153912796Y-118625037D01*
X153832299Y-118764463D01*
X153832296Y-118764468D01*
X153828688Y-118770719D01*
X153826617Y-118777634D01*
X153826617Y-118777636D01*
X153780441Y-118931869D01*
X153780439Y-118931877D01*
X153778370Y-118938790D01*
X153777950Y-118945996D01*
X153777949Y-118946004D01*
X153768588Y-119106725D01*
X153768588Y-119106733D01*
X153768169Y-119113935D01*
X105972393Y-119113935D01*
X105964586Y-119042982D01*
X105896072Y-118780912D01*
X105891740Y-118770719D01*
X105824941Y-118613527D01*
X105790130Y-118531610D01*
X105649018Y-118300390D01*
X105475745Y-118092180D01*
X105370759Y-117998112D01*
X105277382Y-117914446D01*
X105277378Y-117914442D01*
X105274002Y-117911418D01*
X105048090Y-117761956D01*
X105043996Y-117760036D01*
X105043991Y-117760034D01*
X104806929Y-117648904D01*
X104806925Y-117648902D01*
X104802824Y-117646980D01*
X104798477Y-117645672D01*
X104798474Y-117645671D01*
X104547772Y-117570246D01*
X104547771Y-117570245D01*
X104543431Y-117568940D01*
X104538957Y-117568281D01*
X104538950Y-117568280D01*
X104279913Y-117530158D01*
X104279907Y-117530157D01*
X104275439Y-117529500D01*
X104072369Y-117529500D01*
X104070120Y-117529664D01*
X104070109Y-117529665D01*
X103874363Y-117543992D01*
X103874359Y-117543992D01*
X103869844Y-117544323D01*
X103865426Y-117545307D01*
X103865420Y-117545308D01*
X103609877Y-117602232D01*
X103609861Y-117602236D01*
X103605447Y-117603220D01*
X103601216Y-117604838D01*
X103601210Y-117604840D01*
X103356673Y-117698367D01*
X103356663Y-117698371D01*
X103352442Y-117699986D01*
X103348494Y-117702201D01*
X103348489Y-117702204D01*
X103120176Y-117830340D01*
X103120171Y-117830343D01*
X103116223Y-117832559D01*
X103112639Y-117835325D01*
X103112635Y-117835329D01*
X102905407Y-117995343D01*
X102905394Y-117995354D01*
X102901823Y-117998112D01*
X102898685Y-118001366D01*
X102898678Y-118001373D01*
X102716958Y-118189857D01*
X102716952Y-118189864D01*
X102713814Y-118193119D01*
X102711189Y-118196787D01*
X102711179Y-118196800D01*
X102558834Y-118409740D01*
X102558830Y-118409745D01*
X102556201Y-118413421D01*
X102554132Y-118417444D01*
X102554129Y-118417450D01*
X102434416Y-118650293D01*
X102434411Y-118650304D01*
X102432344Y-118654325D01*
X102430884Y-118658602D01*
X102430879Y-118658616D01*
X102346348Y-118906395D01*
X102346344Y-118906407D01*
X102344882Y-118910695D01*
X102344057Y-118915159D01*
X102344057Y-118915161D01*
X102296504Y-119172606D01*
X102296502Y-119172619D01*
X102295681Y-119177067D01*
X102295515Y-119181593D01*
X102295515Y-119181599D01*
X102288428Y-119375536D01*
X102285788Y-119447765D01*
X96530500Y-119447765D01*
X96530500Y-112667551D01*
X165555188Y-112667551D01*
X165555556Y-112678780D01*
X165607668Y-112873263D01*
X165611356Y-112883397D01*
X165706613Y-113087676D01*
X165712001Y-113097008D01*
X165841284Y-113281643D01*
X165848221Y-113289909D01*
X166007590Y-113449278D01*
X166015856Y-113456215D01*
X166200491Y-113585498D01*
X166209823Y-113590886D01*
X166414102Y-113686143D01*
X166424236Y-113689831D01*
X166618719Y-113741943D01*
X166629948Y-113742311D01*
X166632500Y-113731369D01*
X166632500Y-112681326D01*
X166629049Y-112668450D01*
X166616174Y-112665000D01*
X165566131Y-112665000D01*
X165555188Y-112667551D01*
X96530500Y-112667551D01*
X96530500Y-104309969D01*
X155200606Y-104309969D01*
X155220803Y-104489224D01*
X155223099Y-104495788D01*
X155223101Y-104495793D01*
X155278084Y-104652925D01*
X155280382Y-104659491D01*
X155284083Y-104665381D01*
X155329286Y-104737322D01*
X155376355Y-104812231D01*
X155503909Y-104939785D01*
X155656649Y-105035758D01*
X155826916Y-105095337D01*
X156006171Y-105115534D01*
X156185426Y-105095337D01*
X156355693Y-105035758D01*
X156508433Y-104939785D01*
X156635987Y-104812231D01*
X156731960Y-104659491D01*
X156791539Y-104489224D01*
X156811736Y-104309969D01*
X156791539Y-104130714D01*
X156731960Y-103960447D01*
X156687686Y-103889986D01*
X156668681Y-103824015D01*
X156668681Y-102357352D01*
X156675640Y-102316397D01*
X156694899Y-102281549D01*
X156697997Y-102278452D01*
X156793970Y-102125712D01*
X156853549Y-101955445D01*
X156873746Y-101776190D01*
X156853549Y-101596935D01*
X156793970Y-101426668D01*
X156697997Y-101273928D01*
X156570443Y-101146374D01*
X156550202Y-101133656D01*
X156423593Y-101054102D01*
X156417703Y-101050401D01*
X156411140Y-101048104D01*
X156411137Y-101048103D01*
X156254005Y-100993120D01*
X156254000Y-100993118D01*
X156247436Y-100990822D01*
X156240516Y-100990042D01*
X156240515Y-100990042D01*
X156075104Y-100971405D01*
X156068181Y-100970625D01*
X156061258Y-100971405D01*
X155895846Y-100990042D01*
X155895843Y-100990042D01*
X155888926Y-100990822D01*
X155882363Y-100993118D01*
X155882356Y-100993120D01*
X155725224Y-101048103D01*
X155725217Y-101048105D01*
X155718659Y-101050401D01*
X155712771Y-101054100D01*
X155712768Y-101054102D01*
X155571819Y-101142666D01*
X155571814Y-101142669D01*
X155565919Y-101146374D01*
X155560994Y-101151298D01*
X155560990Y-101151302D01*
X155443293Y-101268999D01*
X155443289Y-101269003D01*
X155438365Y-101273928D01*
X155434660Y-101279823D01*
X155434657Y-101279828D01*
X155346093Y-101420777D01*
X155346091Y-101420780D01*
X155342392Y-101426668D01*
X155340096Y-101433226D01*
X155340094Y-101433233D01*
X155285111Y-101590365D01*
X155285109Y-101590372D01*
X155282813Y-101596935D01*
X155262616Y-101776190D01*
X155282813Y-101955445D01*
X155285109Y-101962009D01*
X155285111Y-101962014D01*
X155340094Y-102119146D01*
X155342392Y-102125712D01*
X155438365Y-102278452D01*
X155441462Y-102281549D01*
X155460722Y-102316397D01*
X155467681Y-102357352D01*
X155467681Y-103665019D01*
X155458242Y-103712472D01*
X155431362Y-103752700D01*
X155381283Y-103802778D01*
X155381279Y-103802782D01*
X155376355Y-103807707D01*
X155372650Y-103813602D01*
X155372647Y-103813607D01*
X155284083Y-103954556D01*
X155284081Y-103954559D01*
X155280382Y-103960447D01*
X155278086Y-103967005D01*
X155278084Y-103967012D01*
X155223101Y-104124144D01*
X155223099Y-104124151D01*
X155220803Y-104130714D01*
X155220023Y-104137631D01*
X155220023Y-104137634D01*
X155211254Y-104215465D01*
X155200606Y-104309969D01*
X96530500Y-104309969D01*
X96530500Y-100950856D01*
X146885668Y-100950856D01*
X146905865Y-101130111D01*
X146908161Y-101136675D01*
X146908163Y-101136680D01*
X146958253Y-101279828D01*
X146965444Y-101300378D01*
X147061417Y-101453118D01*
X147188971Y-101580672D01*
X147341711Y-101676645D01*
X147511978Y-101736224D01*
X147691233Y-101756421D01*
X147870488Y-101736224D01*
X148040755Y-101676645D01*
X148193495Y-101580672D01*
X148196592Y-101577574D01*
X148231440Y-101558315D01*
X148272395Y-101551356D01*
X152512321Y-101551356D01*
X152528506Y-101552417D01*
X152559808Y-101556538D01*
X152716570Y-101535900D01*
X152862649Y-101475392D01*
X152865311Y-101473349D01*
X152988090Y-101379138D01*
X153007318Y-101354078D01*
X153017997Y-101341900D01*
X154606916Y-99752981D01*
X154640793Y-99728945D01*
X154680710Y-99717445D01*
X154767635Y-99707652D01*
X154937902Y-99648073D01*
X155090642Y-99552100D01*
X155218196Y-99424546D01*
X155314169Y-99271806D01*
X155373748Y-99101539D01*
X155393945Y-98922284D01*
X155373748Y-98743029D01*
X155314169Y-98572762D01*
X155218196Y-98420022D01*
X155090642Y-98292468D01*
X154937902Y-98196495D01*
X154931339Y-98194198D01*
X154931336Y-98194197D01*
X154774204Y-98139214D01*
X154774199Y-98139212D01*
X154767635Y-98136916D01*
X154760715Y-98136136D01*
X154760714Y-98136136D01*
X154595303Y-98117499D01*
X154588380Y-98116719D01*
X154581457Y-98117499D01*
X154416045Y-98136136D01*
X154416042Y-98136136D01*
X154409125Y-98136916D01*
X154402562Y-98139212D01*
X154402555Y-98139214D01*
X154245423Y-98194197D01*
X154245416Y-98194199D01*
X154238858Y-98196495D01*
X154232970Y-98200194D01*
X154232967Y-98200196D01*
X154092018Y-98288760D01*
X154092013Y-98288763D01*
X154086118Y-98292468D01*
X154081193Y-98297392D01*
X154081189Y-98297396D01*
X153963492Y-98415093D01*
X153963488Y-98415097D01*
X153958564Y-98420022D01*
X153954859Y-98425917D01*
X153954856Y-98425922D01*
X153866292Y-98566871D01*
X153866290Y-98566874D01*
X153862591Y-98572762D01*
X153860295Y-98579320D01*
X153860293Y-98579327D01*
X153822065Y-98688578D01*
X153803012Y-98743029D01*
X153802232Y-98749948D01*
X153802232Y-98749950D01*
X153793218Y-98829951D01*
X153781718Y-98869869D01*
X153757679Y-98903748D01*
X152347392Y-100314037D01*
X152307164Y-100340917D01*
X152259711Y-100350356D01*
X148272395Y-100350356D01*
X148231440Y-100343397D01*
X148196592Y-100324137D01*
X148193495Y-100321040D01*
X148118677Y-100274029D01*
X148046645Y-100228768D01*
X148040755Y-100225067D01*
X148034192Y-100222770D01*
X148034189Y-100222769D01*
X147877057Y-100167786D01*
X147877052Y-100167784D01*
X147870488Y-100165488D01*
X147863568Y-100164708D01*
X147863567Y-100164708D01*
X147698156Y-100146071D01*
X147691233Y-100145291D01*
X147684310Y-100146071D01*
X147518898Y-100164708D01*
X147518895Y-100164708D01*
X147511978Y-100165488D01*
X147505415Y-100167784D01*
X147505408Y-100167786D01*
X147348276Y-100222769D01*
X147348269Y-100222771D01*
X147341711Y-100225067D01*
X147335823Y-100228766D01*
X147335820Y-100228768D01*
X147194871Y-100317332D01*
X147194866Y-100317335D01*
X147188971Y-100321040D01*
X147184046Y-100325964D01*
X147184042Y-100325968D01*
X147066345Y-100443665D01*
X147066341Y-100443669D01*
X147061417Y-100448594D01*
X147057712Y-100454489D01*
X147057709Y-100454494D01*
X146969145Y-100595443D01*
X146969143Y-100595446D01*
X146965444Y-100601334D01*
X146963148Y-100607892D01*
X146963146Y-100607899D01*
X146908163Y-100765031D01*
X146908161Y-100765038D01*
X146905865Y-100771601D01*
X146905085Y-100778518D01*
X146905085Y-100778521D01*
X146897218Y-100848347D01*
X146885668Y-100950856D01*
X96530500Y-100950856D01*
X96530500Y-93980000D01*
X100344723Y-93980000D01*
X100345195Y-93985395D01*
X100363320Y-94192578D01*
X100363321Y-94192585D01*
X100363793Y-94197977D01*
X100365192Y-94203199D01*
X100365194Y-94203209D01*
X100414036Y-94385486D01*
X100420425Y-94409330D01*
X100422709Y-94414229D01*
X100422712Y-94414236D01*
X100510611Y-94602736D01*
X100510614Y-94602742D01*
X100512898Y-94607639D01*
X100515997Y-94612066D01*
X100515999Y-94612068D01*
X100635296Y-94782442D01*
X100635299Y-94782446D01*
X100638402Y-94786877D01*
X100793123Y-94941598D01*
X100972361Y-95067102D01*
X100977261Y-95069387D01*
X100977263Y-95069388D01*
X101164223Y-95156569D01*
X101170670Y-95159575D01*
X101328522Y-95201871D01*
X101376790Y-95214805D01*
X101376791Y-95214805D01*
X101382023Y-95216207D01*
X101600000Y-95235277D01*
X101817977Y-95216207D01*
X102029330Y-95159575D01*
X102227639Y-95067102D01*
X102406877Y-94941598D01*
X102561598Y-94786877D01*
X102687102Y-94607639D01*
X102779575Y-94409330D01*
X102836207Y-94197977D01*
X102855277Y-93980000D01*
X102836207Y-93762023D01*
X102833918Y-93753480D01*
X102819023Y-93697890D01*
X102819023Y-93633703D01*
X102851115Y-93578118D01*
X105822615Y-90606619D01*
X105862844Y-90579739D01*
X105910297Y-90570300D01*
X115684190Y-90570300D01*
X115748518Y-90588291D01*
X115794179Y-90637043D01*
X115807925Y-90702410D01*
X115785765Y-90765423D01*
X115756006Y-90807922D01*
X115756001Y-90807929D01*
X115752898Y-90812362D01*
X115750610Y-90817268D01*
X115750608Y-90817272D01*
X115662712Y-91005763D01*
X115662707Y-91005774D01*
X115660425Y-91010670D01*
X115659025Y-91015892D01*
X115659024Y-91015897D01*
X115605194Y-91216790D01*
X115605191Y-91216802D01*
X115603793Y-91222023D01*
X115603321Y-91227412D01*
X115603320Y-91227421D01*
X115587690Y-91406084D01*
X115584723Y-91440000D01*
X115585195Y-91445395D01*
X115603320Y-91652578D01*
X115603793Y-91657977D01*
X115605192Y-91663201D01*
X115605193Y-91663202D01*
X115620976Y-91722107D01*
X115620976Y-91786294D01*
X115588882Y-91841881D01*
X115355565Y-92075198D01*
X115343374Y-92085890D01*
X115324765Y-92100170D01*
X115324761Y-92100173D01*
X115318318Y-92105118D01*
X115313374Y-92111560D01*
X115313372Y-92111563D01*
X115245946Y-92199435D01*
X115227011Y-92224111D01*
X115227008Y-92224114D01*
X115222064Y-92230559D01*
X115218955Y-92238062D01*
X115218954Y-92238066D01*
X115164666Y-92369128D01*
X115164664Y-92369133D01*
X115161556Y-92376638D01*
X115160496Y-92384689D01*
X115160494Y-92384697D01*
X115144955Y-92502738D01*
X115140918Y-92533400D01*
X115141979Y-92541459D01*
X115145039Y-92564702D01*
X115146100Y-92580887D01*
X115146100Y-94406413D01*
X115145038Y-94422598D01*
X115140918Y-94453900D01*
X115141979Y-94461959D01*
X115146100Y-94493261D01*
X115160494Y-94602602D01*
X115160495Y-94602608D01*
X115161556Y-94610662D01*
X115164665Y-94618168D01*
X115164666Y-94618171D01*
X115191759Y-94683579D01*
X115222064Y-94756741D01*
X115318318Y-94882182D01*
X115324764Y-94887128D01*
X115343369Y-94901404D01*
X115355564Y-94912099D01*
X115868999Y-95425534D01*
X115879689Y-95437722D01*
X115898918Y-95462782D01*
X116024359Y-95559036D01*
X116170438Y-95619544D01*
X116327200Y-95640182D01*
X116335259Y-95639121D01*
X116358502Y-95636061D01*
X116374687Y-95635000D01*
X145524603Y-95635000D01*
X145580898Y-95648515D01*
X145624921Y-95686115D01*
X145647076Y-95739602D01*
X145642534Y-95797318D01*
X145612284Y-95846681D01*
X142254984Y-99203981D01*
X142214756Y-99230861D01*
X142167303Y-99240300D01*
X140329962Y-99240300D01*
X140289007Y-99233341D01*
X140254159Y-99214081D01*
X140251062Y-99210984D01*
X140098322Y-99115011D01*
X140091759Y-99112714D01*
X140091756Y-99112713D01*
X139934624Y-99057730D01*
X139934619Y-99057728D01*
X139928055Y-99055432D01*
X139921135Y-99054652D01*
X139921134Y-99054652D01*
X139755723Y-99036015D01*
X139748800Y-99035235D01*
X139741877Y-99036015D01*
X139576465Y-99054652D01*
X139576462Y-99054652D01*
X139569545Y-99055432D01*
X139562982Y-99057728D01*
X139562975Y-99057730D01*
X139405843Y-99112713D01*
X139405836Y-99112715D01*
X139399278Y-99115011D01*
X139393390Y-99118710D01*
X139393387Y-99118712D01*
X139252438Y-99207276D01*
X139252433Y-99207279D01*
X139246538Y-99210984D01*
X139241613Y-99215908D01*
X139241609Y-99215912D01*
X139123912Y-99333609D01*
X139123908Y-99333613D01*
X139118984Y-99338538D01*
X139115279Y-99344433D01*
X139115276Y-99344438D01*
X139026712Y-99485387D01*
X139026710Y-99485390D01*
X139023011Y-99491278D01*
X139020715Y-99497836D01*
X139020713Y-99497843D01*
X138965730Y-99654975D01*
X138965728Y-99654982D01*
X138963432Y-99661545D01*
X138962652Y-99668462D01*
X138962652Y-99668465D01*
X138956586Y-99722303D01*
X138943235Y-99840800D01*
X138963432Y-100020055D01*
X138965728Y-100026619D01*
X138965730Y-100026624D01*
X139014048Y-100164708D01*
X139023011Y-100190322D01*
X139118984Y-100343062D01*
X139246538Y-100470616D01*
X139399278Y-100566589D01*
X139569545Y-100626168D01*
X139748800Y-100646365D01*
X139928055Y-100626168D01*
X140098322Y-100566589D01*
X140251062Y-100470616D01*
X140254159Y-100467518D01*
X140289007Y-100448259D01*
X140329962Y-100441300D01*
X142419913Y-100441300D01*
X142436098Y-100442361D01*
X142467400Y-100446482D01*
X142624162Y-100425844D01*
X142770241Y-100365336D01*
X142799269Y-100343062D01*
X142895682Y-100269082D01*
X142914910Y-100244022D01*
X142925589Y-100231844D01*
X147953236Y-95204197D01*
X147987113Y-95180161D01*
X148027030Y-95168661D01*
X148113955Y-95158868D01*
X148284222Y-95099289D01*
X148436962Y-95003316D01*
X148564516Y-94875762D01*
X148660489Y-94723022D01*
X148720068Y-94552755D01*
X148731249Y-94453515D01*
X148752015Y-94397549D01*
X148796528Y-94357770D01*
X148854469Y-94343400D01*
X157164203Y-94343400D01*
X157211656Y-94352839D01*
X157251884Y-94379719D01*
X158152599Y-95280434D01*
X158176638Y-95314313D01*
X158188138Y-95354231D01*
X158197932Y-95441155D01*
X158200231Y-95447725D01*
X158240288Y-95562203D01*
X158257511Y-95611422D01*
X158353484Y-95764162D01*
X158481038Y-95891716D01*
X158633778Y-95987689D01*
X158804045Y-96047268D01*
X158868082Y-96054483D01*
X158931511Y-96080756D01*
X158971240Y-96136748D01*
X158975090Y-96205296D01*
X158941880Y-96265384D01*
X158504465Y-96702798D01*
X158492274Y-96713490D01*
X158473665Y-96727770D01*
X158473661Y-96727773D01*
X158467218Y-96732718D01*
X158462274Y-96739160D01*
X158462272Y-96739163D01*
X158443050Y-96764215D01*
X158375911Y-96851711D01*
X158375908Y-96851714D01*
X158370964Y-96858159D01*
X158367855Y-96865663D01*
X158367853Y-96865668D01*
X158313566Y-96996728D01*
X158313564Y-96996733D01*
X158310456Y-97004238D01*
X158309396Y-97012289D01*
X158309394Y-97012297D01*
X158291202Y-97150482D01*
X158289818Y-97161000D01*
X158290879Y-97169059D01*
X158293939Y-97192302D01*
X158295000Y-97208487D01*
X158295000Y-103984385D01*
X158283205Y-104036059D01*
X158281811Y-104038278D01*
X158279513Y-104044843D01*
X158279512Y-104044847D01*
X158224530Y-104201975D01*
X158224528Y-104201982D01*
X158222232Y-104208545D01*
X158202035Y-104387800D01*
X158202815Y-104394723D01*
X158218002Y-104529518D01*
X158222232Y-104567055D01*
X158224528Y-104573619D01*
X158224530Y-104573624D01*
X158279513Y-104730756D01*
X158281811Y-104737322D01*
X158377784Y-104890062D01*
X158505338Y-105017616D01*
X158658078Y-105113589D01*
X158828345Y-105173168D01*
X159007600Y-105193365D01*
X159186855Y-105173168D01*
X159357122Y-105113589D01*
X159509862Y-105017616D01*
X159637416Y-104890062D01*
X159733389Y-104737322D01*
X159792968Y-104567055D01*
X159813165Y-104387800D01*
X159792968Y-104208545D01*
X159733389Y-104038278D01*
X159637416Y-103885538D01*
X159532319Y-103780441D01*
X159505439Y-103740213D01*
X159496000Y-103692760D01*
X159496000Y-102723697D01*
X159509515Y-102667402D01*
X159547115Y-102623379D01*
X159600602Y-102601224D01*
X159658318Y-102605766D01*
X159707681Y-102636016D01*
X165871952Y-108800287D01*
X165904045Y-108855873D01*
X165904047Y-108920059D01*
X165871955Y-108975646D01*
X165847839Y-108999763D01*
X165847828Y-108999775D01*
X165844005Y-109003599D01*
X165840903Y-109008028D01*
X165840898Y-109008035D01*
X165711573Y-109192731D01*
X165711568Y-109192738D01*
X165708465Y-109197171D01*
X165706177Y-109202077D01*
X165706175Y-109202081D01*
X165610886Y-109406427D01*
X165610883Y-109406432D01*
X165608597Y-109411337D01*
X165607198Y-109416557D01*
X165607194Y-109416569D01*
X165548837Y-109634365D01*
X165548835Y-109634371D01*
X165547437Y-109639592D01*
X165526841Y-109875000D01*
X165547437Y-110110408D01*
X165548836Y-110115630D01*
X165548837Y-110115634D01*
X165607194Y-110333430D01*
X165607197Y-110333438D01*
X165608597Y-110338663D01*
X165610885Y-110343570D01*
X165610886Y-110343572D01*
X165706178Y-110547927D01*
X165706181Y-110547933D01*
X165708465Y-110552830D01*
X165711564Y-110557257D01*
X165711566Y-110557259D01*
X165840899Y-110741966D01*
X165840902Y-110741970D01*
X165844005Y-110746401D01*
X166011099Y-110913495D01*
X166015531Y-110916598D01*
X166015533Y-110916600D01*
X166197095Y-111043731D01*
X166235960Y-111088049D01*
X166249971Y-111145306D01*
X166235960Y-111202563D01*
X166197095Y-111246881D01*
X166015852Y-111373788D01*
X166007592Y-111380719D01*
X165848219Y-111540092D01*
X165841284Y-111548357D01*
X165712008Y-111732982D01*
X165706610Y-111742332D01*
X165611356Y-111946602D01*
X165607668Y-111956736D01*
X165555556Y-112151219D01*
X165555188Y-112162448D01*
X165566131Y-112165000D01*
X167008500Y-112165000D01*
X167070500Y-112181613D01*
X167115887Y-112227000D01*
X167132500Y-112289000D01*
X167132500Y-113731369D01*
X167135051Y-113742311D01*
X167146280Y-113741943D01*
X167340763Y-113689831D01*
X167350897Y-113686143D01*
X167555176Y-113590886D01*
X167564508Y-113585498D01*
X167749143Y-113456215D01*
X167757409Y-113449278D01*
X167916778Y-113289909D01*
X167923719Y-113281638D01*
X168050619Y-113100406D01*
X168094937Y-113061540D01*
X168152194Y-113047529D01*
X168209451Y-113061540D01*
X168253769Y-113100405D01*
X168380899Y-113281966D01*
X168380902Y-113281970D01*
X168384005Y-113286401D01*
X168551099Y-113453495D01*
X168744670Y-113589035D01*
X168958837Y-113688903D01*
X169187092Y-113750063D01*
X169422500Y-113770659D01*
X169657908Y-113750063D01*
X169886163Y-113688903D01*
X170100330Y-113589035D01*
X170293901Y-113453495D01*
X170460995Y-113286401D01*
X170596535Y-113092830D01*
X170696403Y-112878663D01*
X170757563Y-112650408D01*
X170778159Y-112415000D01*
X170757563Y-112179592D01*
X170696403Y-111951337D01*
X170596535Y-111737171D01*
X170460995Y-111543599D01*
X170293901Y-111376505D01*
X170289468Y-111373401D01*
X170289461Y-111373395D01*
X170108342Y-111246575D01*
X170069476Y-111202257D01*
X170055465Y-111145000D01*
X170069476Y-111087743D01*
X170108342Y-111043425D01*
X170289461Y-110916604D01*
X170289461Y-110916603D01*
X170293901Y-110913495D01*
X170460995Y-110746401D01*
X170596535Y-110552830D01*
X170696403Y-110338663D01*
X170757563Y-110110408D01*
X170778159Y-109875000D01*
X170757563Y-109639592D01*
X170696403Y-109411337D01*
X170596535Y-109197171D01*
X170460995Y-109003599D01*
X170339069Y-108881673D01*
X170307773Y-108828927D01*
X170305584Y-108767634D01*
X170333037Y-108712789D01*
X170383416Y-108677810D01*
X170514831Y-108628796D01*
X170630046Y-108542546D01*
X170716296Y-108427331D01*
X170766591Y-108292483D01*
X170773000Y-108232873D01*
X170772999Y-106437128D01*
X170772995Y-106437091D01*
X170783885Y-106379666D01*
X170820609Y-106333252D01*
X170874663Y-106309147D01*
X170933733Y-106312842D01*
X170984361Y-106343496D01*
X176006552Y-111365687D01*
X176038642Y-111421259D01*
X176038654Y-111485430D01*
X176010225Y-111534707D01*
X176011315Y-111535621D01*
X176007830Y-111539773D01*
X176004005Y-111543599D01*
X176000903Y-111548028D01*
X176000898Y-111548035D01*
X175871573Y-111732731D01*
X175871568Y-111732738D01*
X175868465Y-111737171D01*
X175866177Y-111742077D01*
X175866175Y-111742081D01*
X175770886Y-111946427D01*
X175770883Y-111946432D01*
X175768597Y-111951337D01*
X175767198Y-111956557D01*
X175767194Y-111956569D01*
X175708837Y-112174365D01*
X175708835Y-112174371D01*
X175707437Y-112179592D01*
X175686841Y-112415000D01*
X175707437Y-112650408D01*
X175708836Y-112655630D01*
X175708837Y-112655634D01*
X175767194Y-112873430D01*
X175767197Y-112873438D01*
X175768597Y-112878663D01*
X175770885Y-112883570D01*
X175770886Y-112883572D01*
X175866178Y-113087927D01*
X175866181Y-113087933D01*
X175868465Y-113092830D01*
X175871564Y-113097257D01*
X175871566Y-113097259D01*
X176000899Y-113281966D01*
X176000902Y-113281970D01*
X176004005Y-113286401D01*
X176171099Y-113453495D01*
X176175532Y-113456599D01*
X176175538Y-113456604D01*
X176356658Y-113583425D01*
X176395524Y-113627743D01*
X176409535Y-113685000D01*
X176395524Y-113742257D01*
X176356660Y-113786574D01*
X176171099Y-113916505D01*
X176167275Y-113920328D01*
X176167269Y-113920334D01*
X176007834Y-114079769D01*
X176007828Y-114079775D01*
X176004005Y-114083599D01*
X176000902Y-114088029D01*
X176000899Y-114088034D01*
X175871573Y-114272731D01*
X175871568Y-114272738D01*
X175868465Y-114277171D01*
X175866177Y-114282077D01*
X175866175Y-114282081D01*
X175770886Y-114486427D01*
X175770883Y-114486432D01*
X175768597Y-114491337D01*
X175767198Y-114496557D01*
X175767194Y-114496569D01*
X175708837Y-114714365D01*
X175708835Y-114714371D01*
X175707437Y-114719592D01*
X175686841Y-114955000D01*
X175707437Y-115190408D01*
X175708836Y-115195630D01*
X175708837Y-115195634D01*
X175767194Y-115413430D01*
X175767197Y-115413438D01*
X175768597Y-115418663D01*
X175770885Y-115423570D01*
X175770886Y-115423572D01*
X175866178Y-115627927D01*
X175866181Y-115627933D01*
X175868465Y-115632830D01*
X175871564Y-115637257D01*
X175871566Y-115637259D01*
X176000899Y-115821966D01*
X176000902Y-115821970D01*
X176004005Y-115826401D01*
X176171099Y-115993495D01*
X176175532Y-115996599D01*
X176175538Y-115996604D01*
X176356658Y-116123425D01*
X176395524Y-116167743D01*
X176409535Y-116225000D01*
X176395524Y-116282257D01*
X176356659Y-116326575D01*
X176175541Y-116453395D01*
X176171099Y-116456505D01*
X176167275Y-116460328D01*
X176167269Y-116460334D01*
X176007834Y-116619769D01*
X176007828Y-116619775D01*
X176004005Y-116623599D01*
X176000902Y-116628029D01*
X176000899Y-116628034D01*
X175871573Y-116812731D01*
X175871568Y-116812738D01*
X175868465Y-116817171D01*
X175866177Y-116822077D01*
X175866175Y-116822081D01*
X175770886Y-117026427D01*
X175770883Y-117026432D01*
X175768597Y-117031337D01*
X175767198Y-117036557D01*
X175767194Y-117036569D01*
X175708837Y-117254365D01*
X175708835Y-117254371D01*
X175707437Y-117259592D01*
X175686841Y-117495000D01*
X175687313Y-117500395D01*
X175704633Y-117698367D01*
X175707437Y-117730408D01*
X175708836Y-117735630D01*
X175708837Y-117735634D01*
X175767194Y-117953430D01*
X175767197Y-117953438D01*
X175768597Y-117958663D01*
X175770885Y-117963570D01*
X175770886Y-117963572D01*
X175866178Y-118167927D01*
X175866181Y-118167933D01*
X175868465Y-118172830D01*
X175871564Y-118177257D01*
X175871566Y-118177259D01*
X176000899Y-118361966D01*
X176000902Y-118361970D01*
X176004005Y-118366401D01*
X176171099Y-118533495D01*
X176364670Y-118669035D01*
X176578837Y-118768903D01*
X176807092Y-118830063D01*
X177042500Y-118850659D01*
X177277908Y-118830063D01*
X177506163Y-118768903D01*
X177720330Y-118669035D01*
X177913901Y-118533495D01*
X178080995Y-118366401D01*
X178103739Y-118333920D01*
X178210925Y-118180842D01*
X178255243Y-118141976D01*
X178312500Y-118127965D01*
X178369757Y-118141976D01*
X178414075Y-118180842D01*
X178540895Y-118361961D01*
X178540901Y-118361968D01*
X178544005Y-118366401D01*
X178711099Y-118533495D01*
X178904670Y-118669035D01*
X179118837Y-118768903D01*
X179347092Y-118830063D01*
X179582500Y-118850659D01*
X179817908Y-118830063D01*
X180046163Y-118768903D01*
X180260330Y-118669035D01*
X180453901Y-118533495D01*
X180620995Y-118366401D01*
X180756535Y-118172830D01*
X180856403Y-117958663D01*
X180917563Y-117730408D01*
X180938159Y-117495000D01*
X180917563Y-117259592D01*
X180856403Y-117031337D01*
X180756535Y-116817171D01*
X180620995Y-116623599D01*
X180453901Y-116456505D01*
X180449468Y-116453401D01*
X180449461Y-116453395D01*
X180268342Y-116326575D01*
X180229476Y-116282257D01*
X180215465Y-116225000D01*
X180229476Y-116167743D01*
X180268342Y-116123425D01*
X180449461Y-115996604D01*
X180449461Y-115996603D01*
X180453901Y-115993495D01*
X180620995Y-115826401D01*
X180756535Y-115632830D01*
X180856403Y-115418663D01*
X180917563Y-115190408D01*
X180938159Y-114955000D01*
X180917563Y-114719592D01*
X180856403Y-114491337D01*
X180756535Y-114277171D01*
X180620995Y-114083599D01*
X180453901Y-113916505D01*
X180449470Y-113913402D01*
X180449466Y-113913399D01*
X180268341Y-113786574D01*
X180229476Y-113742256D01*
X180215465Y-113684999D01*
X180229476Y-113627742D01*
X180268339Y-113583426D01*
X180453901Y-113453495D01*
X180620995Y-113286401D01*
X180756535Y-113092830D01*
X180856403Y-112878663D01*
X180917563Y-112650408D01*
X180938159Y-112415000D01*
X180917563Y-112179592D01*
X180856403Y-111951337D01*
X180756535Y-111737171D01*
X180620995Y-111543599D01*
X180498681Y-111421285D01*
X180467385Y-111368539D01*
X180465196Y-111307246D01*
X180492649Y-111252401D01*
X180543029Y-111217422D01*
X180666277Y-111171452D01*
X180681689Y-111163037D01*
X180782592Y-111087501D01*
X180795001Y-111075092D01*
X180870537Y-110974189D01*
X180878952Y-110958777D01*
X180923388Y-110839641D01*
X180926926Y-110824667D01*
X180932146Y-110776114D01*
X180932500Y-110769518D01*
X180932500Y-110141326D01*
X180929049Y-110128450D01*
X180916174Y-110125000D01*
X179456500Y-110125000D01*
X179394500Y-110108387D01*
X179349113Y-110063000D01*
X179332500Y-110001000D01*
X179332500Y-109608674D01*
X179832500Y-109608674D01*
X179835950Y-109621549D01*
X179848826Y-109625000D01*
X180916174Y-109625000D01*
X180929049Y-109621549D01*
X180932500Y-109608674D01*
X180932500Y-108980482D01*
X180932146Y-108973885D01*
X180926926Y-108925332D01*
X180923388Y-108910358D01*
X180878952Y-108791222D01*
X180870537Y-108775810D01*
X180795001Y-108674907D01*
X180782592Y-108662498D01*
X180681689Y-108586962D01*
X180666277Y-108578547D01*
X180547141Y-108534111D01*
X180532167Y-108530573D01*
X180483614Y-108525353D01*
X180477018Y-108525000D01*
X179848826Y-108525000D01*
X179835950Y-108528450D01*
X179832500Y-108541326D01*
X179832500Y-109608674D01*
X179332500Y-109608674D01*
X179332500Y-108541326D01*
X179329049Y-108528450D01*
X179316174Y-108525000D01*
X179156900Y-108525000D01*
X179094900Y-108508387D01*
X179049513Y-108463000D01*
X179032900Y-108401000D01*
X179032900Y-105005287D01*
X179033961Y-104989102D01*
X179037021Y-104965859D01*
X179038082Y-104957800D01*
X179017444Y-104801038D01*
X178956936Y-104654959D01*
X178949098Y-104644744D01*
X178860682Y-104529518D01*
X178835622Y-104510289D01*
X178823434Y-104499599D01*
X164615119Y-90291284D01*
X164588239Y-90251056D01*
X164578800Y-90203603D01*
X164578800Y-89998587D01*
X164579861Y-89982402D01*
X164582921Y-89959159D01*
X164583982Y-89951100D01*
X164563344Y-89794338D01*
X164502836Y-89648259D01*
X164479564Y-89617930D01*
X164406582Y-89522818D01*
X164381522Y-89503589D01*
X164369334Y-89492899D01*
X163844200Y-88967765D01*
X186105788Y-88967765D01*
X186106282Y-88972262D01*
X186106283Y-88972267D01*
X186134917Y-89232506D01*
X186134918Y-89232513D01*
X186135414Y-89237018D01*
X186136559Y-89241398D01*
X186136561Y-89241408D01*
X186191150Y-89450211D01*
X186203928Y-89499088D01*
X186205693Y-89503242D01*
X186205696Y-89503250D01*
X186270509Y-89655766D01*
X186309870Y-89748390D01*
X186312226Y-89752251D01*
X186312229Y-89752256D01*
X186438501Y-89959159D01*
X186450982Y-89979610D01*
X186534173Y-90079575D01*
X186581302Y-90136207D01*
X186624255Y-90187820D01*
X186627630Y-90190844D01*
X186627631Y-90190845D01*
X186808493Y-90352898D01*
X186825998Y-90368582D01*
X187051910Y-90518044D01*
X187297176Y-90633020D01*
X187556569Y-90711060D01*
X187824561Y-90750500D01*
X188025369Y-90750500D01*
X188027631Y-90750500D01*
X188230156Y-90735677D01*
X188494553Y-90676780D01*
X188747558Y-90580014D01*
X188983777Y-90447441D01*
X189198177Y-90281888D01*
X189386186Y-90086881D01*
X189543799Y-89866579D01*
X189667656Y-89625675D01*
X189755118Y-89369305D01*
X189804319Y-89102933D01*
X189814212Y-88832235D01*
X189784586Y-88562982D01*
X189716072Y-88300912D01*
X189610130Y-88051610D01*
X189469018Y-87820390D01*
X189295745Y-87612180D01*
X189255128Y-87575787D01*
X189097382Y-87434446D01*
X189097378Y-87434442D01*
X189094002Y-87431418D01*
X188868090Y-87281956D01*
X188863996Y-87280036D01*
X188863991Y-87280034D01*
X188626929Y-87168904D01*
X188626925Y-87168902D01*
X188622824Y-87166980D01*
X188618477Y-87165672D01*
X188618474Y-87165671D01*
X188367772Y-87090246D01*
X188367771Y-87090245D01*
X188363431Y-87088940D01*
X188358957Y-87088281D01*
X188358950Y-87088280D01*
X188099913Y-87050158D01*
X188099907Y-87050157D01*
X188095439Y-87049500D01*
X187892369Y-87049500D01*
X187890120Y-87049664D01*
X187890109Y-87049665D01*
X187694363Y-87063992D01*
X187694359Y-87063992D01*
X187689844Y-87064323D01*
X187685426Y-87065307D01*
X187685420Y-87065308D01*
X187429877Y-87122232D01*
X187429861Y-87122236D01*
X187425447Y-87123220D01*
X187421216Y-87124838D01*
X187421210Y-87124840D01*
X187176673Y-87218367D01*
X187176663Y-87218371D01*
X187172442Y-87219986D01*
X187168494Y-87222201D01*
X187168489Y-87222204D01*
X186940176Y-87350340D01*
X186940171Y-87350343D01*
X186936223Y-87352559D01*
X186932639Y-87355325D01*
X186932635Y-87355329D01*
X186725407Y-87515343D01*
X186725394Y-87515354D01*
X186721823Y-87518112D01*
X186718685Y-87521366D01*
X186718678Y-87521373D01*
X186536958Y-87709857D01*
X186536952Y-87709864D01*
X186533814Y-87713119D01*
X186531189Y-87716787D01*
X186531179Y-87716800D01*
X186378834Y-87929740D01*
X186378830Y-87929745D01*
X186376201Y-87933421D01*
X186374132Y-87937444D01*
X186374129Y-87937450D01*
X186254416Y-88170293D01*
X186254411Y-88170304D01*
X186252344Y-88174325D01*
X186250884Y-88178602D01*
X186250879Y-88178616D01*
X186166348Y-88426395D01*
X186166344Y-88426407D01*
X186164882Y-88430695D01*
X186164057Y-88435159D01*
X186164057Y-88435161D01*
X186116504Y-88692606D01*
X186116502Y-88692619D01*
X186115681Y-88697067D01*
X186115515Y-88701593D01*
X186115515Y-88701599D01*
X186108265Y-88900000D01*
X186105788Y-88967765D01*
X163844200Y-88967765D01*
X162789100Y-87912665D01*
X162765061Y-87878785D01*
X162753561Y-87838867D01*
X162743768Y-87751945D01*
X162684189Y-87581678D01*
X162588216Y-87428938D01*
X162460662Y-87301384D01*
X162307922Y-87205411D01*
X162301359Y-87203114D01*
X162301356Y-87203113D01*
X162144224Y-87148130D01*
X162144219Y-87148128D01*
X162137655Y-87145832D01*
X162130737Y-87145052D01*
X162130735Y-87145052D01*
X162063016Y-87137422D01*
X162007048Y-87116655D01*
X161967270Y-87072143D01*
X161952900Y-87014202D01*
X161952900Y-83174282D01*
X161963246Y-83124695D01*
X161992559Y-83083383D01*
X162035946Y-83057240D01*
X162065593Y-83046866D01*
X162103822Y-83033489D01*
X162256562Y-82937516D01*
X162384116Y-82809962D01*
X162480089Y-82657222D01*
X162539668Y-82486955D01*
X162559865Y-82307700D01*
X162539668Y-82128445D01*
X162480089Y-81958178D01*
X162384116Y-81805438D01*
X162256562Y-81677884D01*
X162103822Y-81581911D01*
X162097259Y-81579614D01*
X162097256Y-81579613D01*
X161940124Y-81524630D01*
X161940119Y-81524628D01*
X161933555Y-81522332D01*
X161926635Y-81521552D01*
X161926634Y-81521552D01*
X161761223Y-81502915D01*
X161754300Y-81502135D01*
X161747377Y-81502915D01*
X161581965Y-81521552D01*
X161581962Y-81521552D01*
X161575045Y-81522332D01*
X161568482Y-81524628D01*
X161568475Y-81524630D01*
X161411343Y-81579613D01*
X161411336Y-81579615D01*
X161404778Y-81581911D01*
X161398890Y-81585610D01*
X161398887Y-81585612D01*
X161257938Y-81674176D01*
X161257933Y-81674179D01*
X161252038Y-81677884D01*
X161247113Y-81682808D01*
X161247109Y-81682812D01*
X161129412Y-81800509D01*
X161129408Y-81800513D01*
X161124484Y-81805438D01*
X161120779Y-81811333D01*
X161120776Y-81811338D01*
X161032212Y-81952287D01*
X161032210Y-81952290D01*
X161028511Y-81958178D01*
X161026215Y-81964736D01*
X161026213Y-81964743D01*
X160971231Y-82121874D01*
X160968932Y-82128445D01*
X160968152Y-82135362D01*
X160968152Y-82135365D01*
X160959877Y-82208801D01*
X160948379Y-82248712D01*
X160926595Y-82279416D01*
X160924118Y-82281318D01*
X160919177Y-82287756D01*
X160919174Y-82287760D01*
X160877953Y-82341481D01*
X160877953Y-82341482D01*
X160832811Y-82400311D01*
X160832808Y-82400314D01*
X160827864Y-82406759D01*
X160824755Y-82414263D01*
X160824753Y-82414268D01*
X160770466Y-82545328D01*
X160770464Y-82545333D01*
X160767356Y-82552838D01*
X160766296Y-82560889D01*
X160766294Y-82560897D01*
X160752934Y-82662382D01*
X160746718Y-82709600D01*
X160747779Y-82717659D01*
X160750839Y-82740902D01*
X160751900Y-82757087D01*
X160751900Y-95814813D01*
X160750838Y-95830998D01*
X160746718Y-95862300D01*
X160747779Y-95870359D01*
X160751900Y-95901661D01*
X160766294Y-96011002D01*
X160766295Y-96011008D01*
X160767356Y-96019062D01*
X160770465Y-96026568D01*
X160770466Y-96026571D01*
X160816103Y-96136748D01*
X160827864Y-96165141D01*
X160924118Y-96290582D01*
X160930564Y-96295528D01*
X160949169Y-96309804D01*
X160961364Y-96320499D01*
X170414003Y-105773138D01*
X170444657Y-105823767D01*
X170448352Y-105882837D01*
X170424246Y-105936891D01*
X170377832Y-105973614D01*
X170320406Y-105984503D01*
X170320373Y-105984500D01*
X170317052Y-105984500D01*
X168527939Y-105984500D01*
X168527920Y-105984500D01*
X168524628Y-105984501D01*
X168521350Y-105984853D01*
X168521338Y-105984854D01*
X168472731Y-105990079D01*
X168472725Y-105990080D01*
X168465017Y-105990909D01*
X168457752Y-105993618D01*
X168457746Y-105993620D01*
X168338480Y-106038104D01*
X168338478Y-106038104D01*
X168330169Y-106041204D01*
X168323072Y-106046516D01*
X168323064Y-106046521D01*
X168265645Y-106089505D01*
X168211898Y-106112521D01*
X168153579Y-106108350D01*
X168103654Y-106077919D01*
X161696899Y-99671164D01*
X161686204Y-99658969D01*
X161671928Y-99640364D01*
X161666982Y-99633918D01*
X161541541Y-99537664D01*
X161445405Y-99497843D01*
X161402971Y-99480266D01*
X161402968Y-99480265D01*
X161395462Y-99477156D01*
X161387408Y-99476095D01*
X161387402Y-99476094D01*
X161278061Y-99461700D01*
X161246759Y-99457579D01*
X161238700Y-99456518D01*
X161230641Y-99457579D01*
X161207398Y-99460639D01*
X161191213Y-99461700D01*
X160488462Y-99461700D01*
X160447507Y-99454741D01*
X160412659Y-99435481D01*
X160409562Y-99432384D01*
X160330456Y-99382678D01*
X160291435Y-99343656D01*
X160273209Y-99291567D01*
X160279387Y-99236732D01*
X160286168Y-99217355D01*
X160306365Y-99038100D01*
X160286168Y-98858845D01*
X160226589Y-98688578D01*
X160130616Y-98535838D01*
X160003062Y-98408284D01*
X159850322Y-98312311D01*
X159843759Y-98310014D01*
X159843756Y-98310013D01*
X159686624Y-98255030D01*
X159686619Y-98255028D01*
X159680055Y-98252732D01*
X159673137Y-98251952D01*
X159673135Y-98251952D01*
X159606116Y-98244401D01*
X159550148Y-98223634D01*
X159510370Y-98179122D01*
X159496000Y-98121181D01*
X159496000Y-97461097D01*
X159505439Y-97413644D01*
X159532319Y-97373416D01*
X159564070Y-97341663D01*
X160117244Y-96788489D01*
X160129422Y-96777810D01*
X160154482Y-96758582D01*
X160250736Y-96633141D01*
X160311244Y-96487062D01*
X160326700Y-96369661D01*
X160331882Y-96330300D01*
X160327761Y-96298998D01*
X160326700Y-96282813D01*
X160326700Y-92423787D01*
X160327761Y-92407602D01*
X160330821Y-92384359D01*
X160331882Y-92376300D01*
X160311244Y-92219538D01*
X160250736Y-92073459D01*
X160221916Y-92035900D01*
X160207090Y-92016579D01*
X160182246Y-91954975D01*
X160171168Y-91856645D01*
X160111589Y-91686378D01*
X160015616Y-91533638D01*
X159888062Y-91406084D01*
X159735322Y-91310111D01*
X159728759Y-91307814D01*
X159728756Y-91307813D01*
X159571624Y-91252830D01*
X159571619Y-91252828D01*
X159565055Y-91250532D01*
X159558135Y-91249752D01*
X159558134Y-91249752D01*
X159392723Y-91231115D01*
X159385800Y-91230335D01*
X159378877Y-91231115D01*
X159213465Y-91249752D01*
X159213462Y-91249752D01*
X159206545Y-91250532D01*
X159199982Y-91252828D01*
X159199975Y-91252830D01*
X159042843Y-91307813D01*
X159042836Y-91307815D01*
X159036278Y-91310111D01*
X159030390Y-91313810D01*
X159030387Y-91313812D01*
X158889438Y-91402376D01*
X158889433Y-91402379D01*
X158883538Y-91406084D01*
X158878613Y-91411008D01*
X158878609Y-91411012D01*
X158760912Y-91528709D01*
X158760908Y-91528713D01*
X158755984Y-91533638D01*
X158752279Y-91539533D01*
X158752276Y-91539538D01*
X158663712Y-91680487D01*
X158663710Y-91680490D01*
X158660011Y-91686378D01*
X158657715Y-91692936D01*
X158657713Y-91692943D01*
X158602730Y-91850075D01*
X158602728Y-91850082D01*
X158600432Y-91856645D01*
X158599652Y-91863562D01*
X158599652Y-91863565D01*
X158598450Y-91874236D01*
X158580235Y-92035900D01*
X158581015Y-92042823D01*
X158599285Y-92204980D01*
X158600432Y-92215155D01*
X158602728Y-92221719D01*
X158602730Y-92221724D01*
X158656819Y-92376300D01*
X158660011Y-92385422D01*
X158663712Y-92391312D01*
X158749034Y-92527102D01*
X158755984Y-92538162D01*
X158883538Y-92665716D01*
X159036278Y-92761689D01*
X159042847Y-92763987D01*
X159049125Y-92767011D01*
X159048823Y-92767637D01*
X159086041Y-92790063D01*
X159115354Y-92831375D01*
X159125700Y-92880962D01*
X159125700Y-94255703D01*
X159112185Y-94311998D01*
X159074585Y-94356021D01*
X159021098Y-94378176D01*
X158963382Y-94373634D01*
X158914019Y-94343384D01*
X157922499Y-93351864D01*
X157911804Y-93339669D01*
X157897528Y-93321064D01*
X157892582Y-93314618D01*
X157767141Y-93218364D01*
X157668627Y-93177558D01*
X157628571Y-93160966D01*
X157628568Y-93160965D01*
X157621062Y-93157856D01*
X157613008Y-93156795D01*
X157613002Y-93156794D01*
X157503661Y-93142400D01*
X157472359Y-93138279D01*
X157464300Y-93137218D01*
X157456241Y-93138279D01*
X157432998Y-93141339D01*
X157416813Y-93142400D01*
X148405196Y-93142400D01*
X148348901Y-93128885D01*
X148304878Y-93091285D01*
X148282723Y-93037798D01*
X148287265Y-92980082D01*
X148317515Y-92930719D01*
X150956951Y-90291284D01*
X153602015Y-87646219D01*
X153642244Y-87619339D01*
X153689697Y-87609900D01*
X153778138Y-87609900D01*
X153819093Y-87616859D01*
X153853940Y-87636118D01*
X153857038Y-87639216D01*
X154009778Y-87735189D01*
X154180045Y-87794768D01*
X154359300Y-87814965D01*
X154538555Y-87794768D01*
X154708822Y-87735189D01*
X154861562Y-87639216D01*
X154989116Y-87511662D01*
X155085089Y-87358922D01*
X155144668Y-87188655D01*
X155164865Y-87009400D01*
X155144668Y-86830145D01*
X155085089Y-86659878D01*
X154989116Y-86507138D01*
X154861562Y-86379584D01*
X154838980Y-86365395D01*
X154714712Y-86287312D01*
X154708822Y-86283611D01*
X154702259Y-86281314D01*
X154702256Y-86281313D01*
X154545124Y-86226330D01*
X154545119Y-86226328D01*
X154538555Y-86224032D01*
X154531635Y-86223252D01*
X154531634Y-86223252D01*
X154366223Y-86204615D01*
X154359300Y-86203835D01*
X154352377Y-86204615D01*
X154186965Y-86223252D01*
X154186962Y-86223252D01*
X154180045Y-86224032D01*
X154173482Y-86226328D01*
X154173475Y-86226330D01*
X154016343Y-86281313D01*
X154016336Y-86281315D01*
X154009778Y-86283611D01*
X154003890Y-86287310D01*
X154003887Y-86287312D01*
X153862933Y-86375879D01*
X153862927Y-86375883D01*
X153857038Y-86379584D01*
X153853940Y-86382681D01*
X153819093Y-86401941D01*
X153778138Y-86408900D01*
X153437087Y-86408900D01*
X153420902Y-86407839D01*
X153397659Y-86404779D01*
X153389600Y-86403718D01*
X153381541Y-86404779D01*
X153350239Y-86408900D01*
X153240897Y-86423294D01*
X153240889Y-86423296D01*
X153232838Y-86424356D01*
X153225333Y-86427464D01*
X153225328Y-86427466D01*
X153094266Y-86481754D01*
X153094262Y-86481755D01*
X153086759Y-86484864D01*
X153080314Y-86489808D01*
X153080311Y-86489811D01*
X152967763Y-86576172D01*
X152967760Y-86576174D01*
X152961318Y-86581118D01*
X152956373Y-86587561D01*
X152956370Y-86587565D01*
X152942090Y-86606174D01*
X152931398Y-86618365D01*
X147375464Y-92174299D01*
X147341585Y-92198338D01*
X147301667Y-92209838D01*
X147221666Y-92218852D01*
X147221664Y-92218852D01*
X147214745Y-92219632D01*
X147208183Y-92221927D01*
X147208170Y-92221931D01*
X147103707Y-92258485D01*
X147037879Y-92262923D01*
X146979094Y-92232970D01*
X146943992Y-92177105D01*
X146942512Y-92111145D01*
X146975070Y-92053764D01*
X153385515Y-85643319D01*
X153425744Y-85616439D01*
X153473197Y-85607000D01*
X153804513Y-85607000D01*
X153820698Y-85608061D01*
X153852000Y-85612182D01*
X154008762Y-85591544D01*
X154154841Y-85531036D01*
X154177843Y-85513386D01*
X154280282Y-85434782D01*
X154299510Y-85409722D01*
X154310189Y-85397544D01*
X154392636Y-85315097D01*
X154426513Y-85291061D01*
X154466430Y-85279561D01*
X154553355Y-85269768D01*
X154723622Y-85210189D01*
X154876362Y-85114216D01*
X155003916Y-84986662D01*
X155099889Y-84833922D01*
X155159468Y-84663655D01*
X155179665Y-84484400D01*
X155159477Y-84305225D01*
X155165656Y-84250387D01*
X155195015Y-84203661D01*
X155221116Y-84177562D01*
X155317089Y-84024822D01*
X155376668Y-83854555D01*
X155396865Y-83675300D01*
X155376668Y-83496045D01*
X155317089Y-83325778D01*
X155221116Y-83173038D01*
X155093562Y-83045484D01*
X155078129Y-83035787D01*
X154946712Y-82953212D01*
X154940822Y-82949511D01*
X154934259Y-82947214D01*
X154934256Y-82947213D01*
X154777125Y-82892231D01*
X154770555Y-82889932D01*
X154763633Y-82889152D01*
X154683631Y-82880138D01*
X154643713Y-82868638D01*
X154609834Y-82844599D01*
X141142185Y-69376950D01*
X141111753Y-69327023D01*
X141107584Y-69268702D01*
X141130603Y-69214954D01*
X141138480Y-69204432D01*
X141138481Y-69204431D01*
X141143796Y-69197331D01*
X141194091Y-69062483D01*
X141200500Y-69002873D01*
X141200499Y-66907128D01*
X141194091Y-66847517D01*
X141143796Y-66712669D01*
X141057546Y-66597454D01*
X140942331Y-66511204D01*
X140807483Y-66460909D01*
X140799770Y-66460079D01*
X140799767Y-66460079D01*
X140751180Y-66454855D01*
X140751169Y-66454854D01*
X140747873Y-66454500D01*
X140744550Y-66454500D01*
X138655439Y-66454500D01*
X138655420Y-66454500D01*
X138652128Y-66454501D01*
X138648850Y-66454853D01*
X138648838Y-66454854D01*
X138600231Y-66460079D01*
X138600225Y-66460080D01*
X138592517Y-66460909D01*
X138585252Y-66463618D01*
X138585246Y-66463620D01*
X138465980Y-66508104D01*
X138465978Y-66508104D01*
X138457669Y-66511204D01*
X138450572Y-66516516D01*
X138450568Y-66516519D01*
X138349550Y-66592141D01*
X138349546Y-66592144D01*
X138342454Y-66597454D01*
X138337144Y-66604546D01*
X138337141Y-66604550D01*
X138261519Y-66705568D01*
X138261516Y-66705572D01*
X138256204Y-66712669D01*
X138253104Y-66720978D01*
X138253104Y-66720980D01*
X138208620Y-66840247D01*
X138208619Y-66840250D01*
X138205909Y-66847517D01*
X138205079Y-66855227D01*
X138205079Y-66855232D01*
X138199855Y-66903819D01*
X138199854Y-66903831D01*
X138199500Y-66907127D01*
X138199500Y-66910448D01*
X138199500Y-66910449D01*
X138199500Y-68999560D01*
X138199500Y-68999578D01*
X138199501Y-69002872D01*
X138199853Y-69006150D01*
X138199854Y-69006161D01*
X138205079Y-69054768D01*
X138205080Y-69054773D01*
X138205909Y-69062483D01*
X138208619Y-69069749D01*
X138208620Y-69069753D01*
X138242217Y-69159831D01*
X138256204Y-69197331D01*
X138342454Y-69312546D01*
X138457669Y-69398796D01*
X138592517Y-69449091D01*
X138652127Y-69455500D01*
X139050176Y-69455499D01*
X139097627Y-69464937D01*
X139137855Y-69491816D01*
X139164736Y-69532043D01*
X139172354Y-69550433D01*
X139175464Y-69557941D01*
X139271718Y-69683382D01*
X139397159Y-69779636D01*
X139543238Y-69840144D01*
X139700000Y-69860782D01*
X139708059Y-69859721D01*
X139731302Y-69856661D01*
X139747487Y-69855600D01*
X139871003Y-69855600D01*
X139918456Y-69865039D01*
X139958684Y-69891919D01*
X149767706Y-79700941D01*
X149799556Y-79755632D01*
X149800267Y-79818918D01*
X149769654Y-79874312D01*
X149715691Y-79907382D01*
X149652876Y-79909499D01*
X149647255Y-79907532D01*
X149640335Y-79906752D01*
X149640334Y-79906752D01*
X149474923Y-79888115D01*
X149468000Y-79887335D01*
X149461077Y-79888115D01*
X149295665Y-79906752D01*
X149295662Y-79906752D01*
X149288745Y-79907532D01*
X149282182Y-79909828D01*
X149282175Y-79909830D01*
X149125043Y-79964813D01*
X149125036Y-79964815D01*
X149118478Y-79967111D01*
X149112590Y-79970810D01*
X149112587Y-79970812D01*
X148971633Y-80059379D01*
X148971627Y-80059383D01*
X148965738Y-80063084D01*
X148962640Y-80066181D01*
X148927793Y-80085441D01*
X148886838Y-80092400D01*
X125094587Y-80092400D01*
X125078402Y-80091339D01*
X125055159Y-80088279D01*
X125047100Y-80087218D01*
X125039041Y-80088279D01*
X124905839Y-80105815D01*
X124905838Y-80105815D01*
X124890337Y-80107856D01*
X124890338Y-80107856D01*
X124876224Y-80113701D01*
X124876224Y-80113702D01*
X124751766Y-80165254D01*
X124751762Y-80165255D01*
X124744259Y-80168364D01*
X124737814Y-80173308D01*
X124737811Y-80173311D01*
X124625263Y-80259672D01*
X124625260Y-80259674D01*
X124618818Y-80264618D01*
X124613873Y-80271061D01*
X124613870Y-80271065D01*
X124599590Y-80289674D01*
X124588898Y-80301865D01*
X121612325Y-83278438D01*
X121552236Y-83311648D01*
X121483689Y-83307798D01*
X121427697Y-83268069D01*
X121401424Y-83204640D01*
X121382868Y-83039945D01*
X121323289Y-82869678D01*
X121227316Y-82716938D01*
X121099762Y-82589384D01*
X121041599Y-82552838D01*
X120952912Y-82497112D01*
X120947022Y-82493411D01*
X120940459Y-82491114D01*
X120940456Y-82491113D01*
X120783324Y-82436130D01*
X120783319Y-82436128D01*
X120776755Y-82433832D01*
X120769835Y-82433052D01*
X120769834Y-82433052D01*
X120604423Y-82414415D01*
X120597500Y-82413635D01*
X120590577Y-82414415D01*
X120425165Y-82433052D01*
X120425162Y-82433052D01*
X120418245Y-82433832D01*
X120411682Y-82436128D01*
X120411675Y-82436130D01*
X120254543Y-82491113D01*
X120254536Y-82491115D01*
X120247978Y-82493411D01*
X120242090Y-82497110D01*
X120242087Y-82497112D01*
X120101138Y-82585676D01*
X120101133Y-82585679D01*
X120095238Y-82589384D01*
X120090313Y-82594308D01*
X120090309Y-82594312D01*
X119972612Y-82712009D01*
X119972608Y-82712013D01*
X119967684Y-82716938D01*
X119963979Y-82722833D01*
X119963976Y-82722838D01*
X119875412Y-82863787D01*
X119875410Y-82863790D01*
X119871711Y-82869678D01*
X119869415Y-82876236D01*
X119869413Y-82876243D01*
X119814431Y-83033374D01*
X119812132Y-83039945D01*
X119811352Y-83046864D01*
X119811352Y-83046866D01*
X119802338Y-83126867D01*
X119790838Y-83166785D01*
X119766799Y-83200664D01*
X118655884Y-84311581D01*
X118615656Y-84338461D01*
X118568203Y-84347900D01*
X118154764Y-84347900D01*
X118099920Y-84335112D01*
X118056388Y-84299387D01*
X118033147Y-84248091D01*
X118034989Y-84191807D01*
X118074804Y-84043212D01*
X118074805Y-84043209D01*
X118076207Y-84037977D01*
X118095277Y-83820000D01*
X118076207Y-83602023D01*
X118019575Y-83390670D01*
X117927102Y-83192362D01*
X117801598Y-83013123D01*
X117646877Y-82858402D01*
X117642446Y-82855299D01*
X117642442Y-82855296D01*
X117472068Y-82735999D01*
X117472066Y-82735997D01*
X117467639Y-82732898D01*
X117462739Y-82730613D01*
X117462732Y-82730609D01*
X117316417Y-82662382D01*
X117264241Y-82616625D01*
X117244821Y-82550000D01*
X117264241Y-82483375D01*
X117316417Y-82437618D01*
X117412405Y-82392858D01*
X117467639Y-82367102D01*
X117646877Y-82241598D01*
X117801598Y-82086877D01*
X117927102Y-81907639D01*
X118019575Y-81709330D01*
X118076207Y-81497977D01*
X118095277Y-81280000D01*
X118076207Y-81062023D01*
X118072533Y-81048313D01*
X118027092Y-80878724D01*
X118019575Y-80850670D01*
X117927102Y-80652362D01*
X117801598Y-80473123D01*
X117646877Y-80318402D01*
X117642446Y-80315299D01*
X117642442Y-80315296D01*
X117472068Y-80195999D01*
X117472066Y-80195997D01*
X117467639Y-80192898D01*
X117462742Y-80190614D01*
X117462736Y-80190611D01*
X117274236Y-80102712D01*
X117274229Y-80102709D01*
X117269330Y-80100425D01*
X117264103Y-80099024D01*
X117264102Y-80099024D01*
X117063209Y-80045194D01*
X117063199Y-80045192D01*
X117057977Y-80043793D01*
X117052585Y-80043321D01*
X117052578Y-80043320D01*
X116845395Y-80025195D01*
X116840000Y-80024723D01*
X116834605Y-80025195D01*
X116627421Y-80043320D01*
X116627412Y-80043321D01*
X116622023Y-80043793D01*
X116616802Y-80045191D01*
X116616790Y-80045194D01*
X116415897Y-80099024D01*
X116415892Y-80099025D01*
X116410670Y-80100425D01*
X116405774Y-80102707D01*
X116405763Y-80102712D01*
X116217272Y-80190608D01*
X116217268Y-80190610D01*
X116212362Y-80192898D01*
X116207929Y-80196001D01*
X116207922Y-80196006D01*
X116037558Y-80315296D01*
X116037553Y-80315299D01*
X116033123Y-80318402D01*
X116029299Y-80322225D01*
X116029293Y-80322231D01*
X115882231Y-80469293D01*
X115882225Y-80469299D01*
X115878402Y-80473123D01*
X115875299Y-80477553D01*
X115875296Y-80477558D01*
X115756006Y-80647922D01*
X115756001Y-80647929D01*
X115752898Y-80652362D01*
X115750610Y-80657268D01*
X115750608Y-80657272D01*
X115662712Y-80845763D01*
X115662707Y-80845774D01*
X115660425Y-80850670D01*
X115659025Y-80855892D01*
X115659024Y-80855897D01*
X115605194Y-81056790D01*
X115605191Y-81056802D01*
X115603793Y-81062023D01*
X115603321Y-81067412D01*
X115603320Y-81067421D01*
X115592447Y-81191709D01*
X115584723Y-81280000D01*
X115585195Y-81285395D01*
X115603320Y-81492578D01*
X115603321Y-81492585D01*
X115603793Y-81497977D01*
X115605192Y-81503199D01*
X115605194Y-81503209D01*
X115659024Y-81704102D01*
X115660425Y-81709330D01*
X115662709Y-81714229D01*
X115662712Y-81714236D01*
X115750611Y-81902736D01*
X115750614Y-81902742D01*
X115752898Y-81907639D01*
X115755997Y-81912066D01*
X115755999Y-81912068D01*
X115875296Y-82082442D01*
X115875299Y-82082446D01*
X115878402Y-82086877D01*
X116033123Y-82241598D01*
X116037555Y-82244701D01*
X116037557Y-82244703D01*
X116099049Y-82287760D01*
X116212361Y-82367102D01*
X116217261Y-82369387D01*
X116217263Y-82369388D01*
X116363583Y-82437618D01*
X116415759Y-82483375D01*
X116435178Y-82550000D01*
X116415759Y-82616625D01*
X116363583Y-82662382D01*
X116217272Y-82730608D01*
X116217268Y-82730610D01*
X116212362Y-82732898D01*
X116207929Y-82736001D01*
X116207922Y-82736006D01*
X116037558Y-82855296D01*
X116037553Y-82855299D01*
X116033123Y-82858402D01*
X116029299Y-82862225D01*
X116029293Y-82862231D01*
X115882231Y-83009293D01*
X115882225Y-83009299D01*
X115878402Y-83013123D01*
X115875299Y-83017553D01*
X115875296Y-83017558D01*
X115756006Y-83187922D01*
X115756001Y-83187929D01*
X115752898Y-83192362D01*
X115750610Y-83197268D01*
X115750608Y-83197272D01*
X115662712Y-83385763D01*
X115662707Y-83385774D01*
X115660425Y-83390670D01*
X115659025Y-83395892D01*
X115659024Y-83395897D01*
X115605194Y-83596790D01*
X115605191Y-83596802D01*
X115603793Y-83602023D01*
X115603321Y-83607412D01*
X115603320Y-83607421D01*
X115585467Y-83811487D01*
X115584723Y-83820000D01*
X115585195Y-83825395D01*
X115603320Y-84032578D01*
X115603321Y-84032585D01*
X115603793Y-84037977D01*
X115605193Y-84043204D01*
X115605195Y-84043212D01*
X115645011Y-84191807D01*
X115646853Y-84248091D01*
X115623612Y-84299387D01*
X115580080Y-84335112D01*
X115525236Y-84347900D01*
X105599087Y-84347900D01*
X105582902Y-84346839D01*
X105559659Y-84343779D01*
X105551600Y-84342718D01*
X105543541Y-84343779D01*
X105512239Y-84347900D01*
X105402897Y-84362294D01*
X105402889Y-84362296D01*
X105394838Y-84363356D01*
X105387333Y-84366464D01*
X105387328Y-84366466D01*
X105256266Y-84420754D01*
X105256262Y-84420755D01*
X105248759Y-84423864D01*
X105242314Y-84428808D01*
X105242311Y-84428811D01*
X105129764Y-84515171D01*
X105129760Y-84515174D01*
X105123318Y-84520118D01*
X105118374Y-84526560D01*
X105118371Y-84526564D01*
X105104094Y-84545171D01*
X105093400Y-84557364D01*
X103054426Y-86596338D01*
X103002999Y-86627239D01*
X102943085Y-86630379D01*
X102888709Y-86605023D01*
X102852602Y-86557108D01*
X102843217Y-86497850D01*
X102854805Y-86365395D01*
X102855277Y-86360000D01*
X102836207Y-86142023D01*
X102779575Y-85930670D01*
X102687102Y-85732362D01*
X102561598Y-85553123D01*
X102406877Y-85398402D01*
X102402446Y-85395299D01*
X102402442Y-85395296D01*
X102232068Y-85275999D01*
X102232066Y-85275997D01*
X102227639Y-85272898D01*
X102222739Y-85270613D01*
X102222732Y-85270609D01*
X102076417Y-85202382D01*
X102024241Y-85156625D01*
X102004821Y-85090000D01*
X102024241Y-85023375D01*
X102076417Y-84977618D01*
X102222732Y-84909390D01*
X102222730Y-84909390D01*
X102227639Y-84907102D01*
X102406877Y-84781598D01*
X102561598Y-84626877D01*
X102687102Y-84447639D01*
X102779575Y-84249330D01*
X102836207Y-84037977D01*
X102855277Y-83820000D01*
X102836207Y-83602023D01*
X102779575Y-83390670D01*
X102687102Y-83192362D01*
X102561598Y-83013123D01*
X102406877Y-82858402D01*
X102402444Y-82855298D01*
X102402437Y-82855292D01*
X102260738Y-82756074D01*
X102220411Y-82708857D01*
X102208031Y-82648009D01*
X102226703Y-82588789D01*
X102271745Y-82546046D01*
X102331860Y-82530499D01*
X102397872Y-82530499D01*
X102457483Y-82524091D01*
X102592331Y-82473796D01*
X102707546Y-82387546D01*
X102793796Y-82272331D01*
X102844091Y-82137483D01*
X102850500Y-82077873D01*
X102850499Y-80482128D01*
X102844091Y-80422517D01*
X102793796Y-80287669D01*
X102707546Y-80172454D01*
X102592331Y-80086204D01*
X102520409Y-80059379D01*
X102464752Y-80038620D01*
X102464750Y-80038619D01*
X102457483Y-80035909D01*
X102449770Y-80035079D01*
X102449767Y-80035079D01*
X102401180Y-80029855D01*
X102401169Y-80029854D01*
X102397873Y-80029500D01*
X102394550Y-80029500D01*
X100805439Y-80029500D01*
X100805420Y-80029500D01*
X100802128Y-80029501D01*
X100798850Y-80029853D01*
X100798838Y-80029854D01*
X100750231Y-80035079D01*
X100750225Y-80035080D01*
X100742517Y-80035909D01*
X100735252Y-80038618D01*
X100735246Y-80038620D01*
X100615980Y-80083104D01*
X100615978Y-80083104D01*
X100607669Y-80086204D01*
X100600572Y-80091516D01*
X100600568Y-80091519D01*
X100499550Y-80167141D01*
X100499546Y-80167144D01*
X100492454Y-80172454D01*
X100487144Y-80179546D01*
X100487141Y-80179550D01*
X100411519Y-80280568D01*
X100411516Y-80280572D01*
X100406204Y-80287669D01*
X100403104Y-80295978D01*
X100403104Y-80295980D01*
X100358620Y-80415247D01*
X100358619Y-80415250D01*
X100355909Y-80422517D01*
X100355079Y-80430227D01*
X100355079Y-80430232D01*
X100349855Y-80478819D01*
X100349854Y-80478831D01*
X100349500Y-80482127D01*
X100349500Y-80485448D01*
X100349500Y-80485449D01*
X100349500Y-82074560D01*
X100349500Y-82074578D01*
X100349501Y-82077872D01*
X100349853Y-82081150D01*
X100349854Y-82081161D01*
X100355079Y-82129768D01*
X100355080Y-82129773D01*
X100355909Y-82137483D01*
X100358619Y-82144749D01*
X100358620Y-82144753D01*
X100382509Y-82208801D01*
X100406204Y-82272331D01*
X100411518Y-82279430D01*
X100411519Y-82279431D01*
X100477149Y-82367102D01*
X100492454Y-82387546D01*
X100607669Y-82473796D01*
X100742517Y-82524091D01*
X100802127Y-82530500D01*
X100868139Y-82530499D01*
X100928253Y-82546045D01*
X100973295Y-82588788D01*
X100991968Y-82648008D01*
X100979589Y-82708856D01*
X100939262Y-82756074D01*
X100797559Y-82855296D01*
X100793123Y-82858402D01*
X100789299Y-82862225D01*
X100789293Y-82862231D01*
X100642231Y-83009293D01*
X100642225Y-83009299D01*
X100638402Y-83013123D01*
X100635299Y-83017553D01*
X100635296Y-83017558D01*
X100516006Y-83187922D01*
X100516001Y-83187929D01*
X100512898Y-83192362D01*
X100510610Y-83197268D01*
X100510608Y-83197272D01*
X100422712Y-83385763D01*
X100422707Y-83385774D01*
X100420425Y-83390670D01*
X100419025Y-83395892D01*
X100419024Y-83395897D01*
X100365194Y-83596790D01*
X100365191Y-83596802D01*
X100363793Y-83602023D01*
X100363321Y-83607412D01*
X100363320Y-83607421D01*
X100345467Y-83811487D01*
X100344723Y-83820000D01*
X100345195Y-83825395D01*
X100363320Y-84032578D01*
X100363321Y-84032585D01*
X100363793Y-84037977D01*
X100365192Y-84043199D01*
X100365194Y-84043209D01*
X100419024Y-84244102D01*
X100420425Y-84249330D01*
X100422709Y-84254229D01*
X100422712Y-84254236D01*
X100510611Y-84442736D01*
X100510614Y-84442742D01*
X100512898Y-84447639D01*
X100515997Y-84452066D01*
X100515999Y-84452068D01*
X100635296Y-84622442D01*
X100635299Y-84622446D01*
X100638402Y-84626877D01*
X100793123Y-84781598D01*
X100972361Y-84907102D01*
X100977261Y-84909387D01*
X100977263Y-84909388D01*
X101123583Y-84977618D01*
X101175759Y-85023375D01*
X101195178Y-85090000D01*
X101175759Y-85156625D01*
X101123583Y-85202382D01*
X100977272Y-85270608D01*
X100977268Y-85270610D01*
X100972362Y-85272898D01*
X100967929Y-85276001D01*
X100967922Y-85276006D01*
X100797558Y-85395296D01*
X100797553Y-85395299D01*
X100793123Y-85398402D01*
X100789299Y-85402225D01*
X100789293Y-85402231D01*
X100642231Y-85549293D01*
X100642225Y-85549299D01*
X100638402Y-85553123D01*
X100635299Y-85557553D01*
X100635296Y-85557558D01*
X100516006Y-85727922D01*
X100516001Y-85727929D01*
X100512898Y-85732362D01*
X100510610Y-85737268D01*
X100510608Y-85737272D01*
X100422712Y-85925763D01*
X100422707Y-85925774D01*
X100420425Y-85930670D01*
X100419025Y-85935892D01*
X100419024Y-85935897D01*
X100365194Y-86136790D01*
X100365191Y-86136802D01*
X100363793Y-86142023D01*
X100363321Y-86147412D01*
X100363320Y-86147421D01*
X100356618Y-86224032D01*
X100344723Y-86360000D01*
X100345195Y-86365395D01*
X100363320Y-86572578D01*
X100363321Y-86572585D01*
X100363793Y-86577977D01*
X100365192Y-86583199D01*
X100365194Y-86583209D01*
X100385738Y-86659878D01*
X100420425Y-86789330D01*
X100422709Y-86794229D01*
X100422712Y-86794236D01*
X100510611Y-86982736D01*
X100510614Y-86982742D01*
X100512898Y-86987639D01*
X100515997Y-86992066D01*
X100515999Y-86992068D01*
X100635296Y-87162442D01*
X100635299Y-87162446D01*
X100638402Y-87166877D01*
X100793123Y-87321598D01*
X100797555Y-87324701D01*
X100797557Y-87324703D01*
X100837050Y-87352356D01*
X100972361Y-87447102D01*
X100977261Y-87449387D01*
X100977263Y-87449388D01*
X101123583Y-87517618D01*
X101175759Y-87563375D01*
X101195178Y-87630000D01*
X101175759Y-87696625D01*
X101123583Y-87742382D01*
X100977272Y-87810608D01*
X100977268Y-87810610D01*
X100972362Y-87812898D01*
X100967929Y-87816001D01*
X100967922Y-87816006D01*
X100797558Y-87935296D01*
X100797553Y-87935299D01*
X100793123Y-87938402D01*
X100789299Y-87942225D01*
X100789293Y-87942231D01*
X100642231Y-88089293D01*
X100642225Y-88089299D01*
X100638402Y-88093123D01*
X100635299Y-88097553D01*
X100635296Y-88097558D01*
X100516006Y-88267922D01*
X100516001Y-88267929D01*
X100512898Y-88272362D01*
X100510610Y-88277268D01*
X100510608Y-88277272D01*
X100422712Y-88465763D01*
X100422707Y-88465774D01*
X100420425Y-88470670D01*
X100419025Y-88475892D01*
X100419024Y-88475897D01*
X100365194Y-88676790D01*
X100365191Y-88676802D01*
X100363793Y-88682023D01*
X100363321Y-88687412D01*
X100363320Y-88687421D01*
X100350255Y-88836762D01*
X100344723Y-88900000D01*
X100345195Y-88905395D01*
X100363320Y-89112578D01*
X100363321Y-89112585D01*
X100363793Y-89117977D01*
X100365192Y-89123199D01*
X100365194Y-89123209D01*
X100419024Y-89324102D01*
X100420425Y-89329330D01*
X100422709Y-89334229D01*
X100422712Y-89334236D01*
X100510611Y-89522736D01*
X100510614Y-89522742D01*
X100512898Y-89527639D01*
X100515997Y-89532066D01*
X100515999Y-89532068D01*
X100635296Y-89702442D01*
X100635299Y-89702446D01*
X100638402Y-89706877D01*
X100793123Y-89861598D01*
X100797555Y-89864701D01*
X100797557Y-89864703D01*
X100909435Y-89943041D01*
X100972361Y-89987102D01*
X100977261Y-89989387D01*
X100977263Y-89989388D01*
X101123583Y-90057618D01*
X101175759Y-90103375D01*
X101195178Y-90170000D01*
X101175759Y-90236625D01*
X101123583Y-90282382D01*
X100977272Y-90350608D01*
X100977268Y-90350610D01*
X100972362Y-90352898D01*
X100967929Y-90356001D01*
X100967922Y-90356006D01*
X100797558Y-90475296D01*
X100797553Y-90475299D01*
X100793123Y-90478402D01*
X100789299Y-90482225D01*
X100789293Y-90482231D01*
X100642231Y-90629293D01*
X100642225Y-90629299D01*
X100638402Y-90633123D01*
X100635299Y-90637553D01*
X100635296Y-90637558D01*
X100516006Y-90807922D01*
X100516001Y-90807929D01*
X100512898Y-90812362D01*
X100510610Y-90817268D01*
X100510608Y-90817272D01*
X100422712Y-91005763D01*
X100422707Y-91005774D01*
X100420425Y-91010670D01*
X100419025Y-91015892D01*
X100419024Y-91015897D01*
X100365194Y-91216790D01*
X100365191Y-91216802D01*
X100363793Y-91222023D01*
X100363321Y-91227412D01*
X100363320Y-91227421D01*
X100347690Y-91406084D01*
X100344723Y-91440000D01*
X100345195Y-91445395D01*
X100363320Y-91652578D01*
X100363321Y-91652585D01*
X100363793Y-91657977D01*
X100365192Y-91663199D01*
X100365194Y-91663209D01*
X100417026Y-91856645D01*
X100420425Y-91869330D01*
X100422709Y-91874229D01*
X100422712Y-91874236D01*
X100510611Y-92062736D01*
X100510614Y-92062742D01*
X100512898Y-92067639D01*
X100515997Y-92072066D01*
X100515999Y-92072068D01*
X100635296Y-92242442D01*
X100635299Y-92242446D01*
X100638402Y-92246877D01*
X100793123Y-92401598D01*
X100797555Y-92404701D01*
X100797557Y-92404703D01*
X100813207Y-92415661D01*
X100972361Y-92527102D01*
X100977261Y-92529387D01*
X100977263Y-92529388D01*
X101123583Y-92597618D01*
X101175759Y-92643375D01*
X101195178Y-92710000D01*
X101175759Y-92776625D01*
X101123583Y-92822382D01*
X100977272Y-92890608D01*
X100977268Y-92890610D01*
X100972362Y-92892898D01*
X100967929Y-92896001D01*
X100967922Y-92896006D01*
X100797558Y-93015296D01*
X100797553Y-93015299D01*
X100793123Y-93018402D01*
X100789299Y-93022225D01*
X100789293Y-93022231D01*
X100642231Y-93169293D01*
X100642225Y-93169299D01*
X100638402Y-93173123D01*
X100635299Y-93177553D01*
X100635296Y-93177558D01*
X100516006Y-93347922D01*
X100516001Y-93347929D01*
X100512898Y-93352362D01*
X100510610Y-93357268D01*
X100510608Y-93357272D01*
X100422712Y-93545763D01*
X100422707Y-93545774D01*
X100420425Y-93550670D01*
X100419025Y-93555892D01*
X100419024Y-93555897D01*
X100365194Y-93756790D01*
X100365191Y-93756802D01*
X100363793Y-93762023D01*
X100363321Y-93767412D01*
X100363320Y-93767421D01*
X100359715Y-93808633D01*
X100344723Y-93980000D01*
X96530500Y-93980000D01*
X96530500Y-61578248D01*
X138835749Y-61578248D01*
X138843855Y-61589439D01*
X138872717Y-61611903D01*
X138881279Y-61617496D01*
X139090885Y-61730929D01*
X139100239Y-61735032D01*
X139325656Y-61812417D01*
X139335568Y-61814928D01*
X139570643Y-61854155D01*
X139580839Y-61855000D01*
X139819161Y-61855000D01*
X139829356Y-61854155D01*
X140064431Y-61814928D01*
X140074343Y-61812417D01*
X140299760Y-61735032D01*
X140309114Y-61730929D01*
X140518723Y-61617495D01*
X140527281Y-61611903D01*
X140556146Y-61589437D01*
X140564250Y-61578250D01*
X140557589Y-61566142D01*
X139711542Y-60720095D01*
X139700000Y-60713431D01*
X139688457Y-60720095D01*
X138842408Y-61566143D01*
X138835749Y-61578248D01*
X96530500Y-61578248D01*
X96530500Y-60360117D01*
X138195283Y-60360117D01*
X138214962Y-60597618D01*
X138216646Y-60607712D01*
X138275153Y-60838747D01*
X138278472Y-60848414D01*
X138374208Y-61066673D01*
X138379070Y-61075656D01*
X138468999Y-61213304D01*
X138476963Y-61221024D01*
X138486345Y-61215100D01*
X139334904Y-60366542D01*
X139341567Y-60355000D01*
X140058431Y-60355000D01*
X140065095Y-60366542D01*
X140913653Y-61215100D01*
X140923034Y-61221024D01*
X140931002Y-61213299D01*
X141020924Y-61075664D01*
X141025792Y-61066669D01*
X141121527Y-60848414D01*
X141124846Y-60838747D01*
X141183353Y-60607712D01*
X141185037Y-60597618D01*
X141204717Y-60360117D01*
X141204717Y-60349883D01*
X141185037Y-60112381D01*
X141183353Y-60102287D01*
X141124846Y-59871252D01*
X141121527Y-59861585D01*
X141025792Y-59643330D01*
X141020924Y-59634335D01*
X140931002Y-59496699D01*
X140923034Y-59488974D01*
X140913653Y-59494898D01*
X140065095Y-60343457D01*
X140058431Y-60355000D01*
X139341567Y-60355000D01*
X139341568Y-60354999D01*
X139334904Y-60343457D01*
X138486345Y-59494898D01*
X138476964Y-59488974D01*
X138468997Y-59496699D01*
X138379072Y-59634338D01*
X138374207Y-59643328D01*
X138278472Y-59861585D01*
X138275153Y-59871252D01*
X138216646Y-60102287D01*
X138214962Y-60112381D01*
X138195283Y-60349883D01*
X138195283Y-60360117D01*
X96530500Y-60360117D01*
X96530500Y-58487765D01*
X102285788Y-58487765D01*
X102286282Y-58492262D01*
X102286283Y-58492267D01*
X102314917Y-58752506D01*
X102314918Y-58752513D01*
X102315414Y-58757018D01*
X102316559Y-58761398D01*
X102316561Y-58761408D01*
X102352162Y-58897582D01*
X102383928Y-59019088D01*
X102385693Y-59023242D01*
X102385696Y-59023250D01*
X102488099Y-59264223D01*
X102489870Y-59268390D01*
X102492226Y-59272251D01*
X102492229Y-59272256D01*
X102624491Y-59488974D01*
X102630982Y-59499610D01*
X102804255Y-59707820D01*
X102807630Y-59710844D01*
X102807631Y-59710845D01*
X102986656Y-59871252D01*
X103005998Y-59888582D01*
X103231910Y-60038044D01*
X103477176Y-60153020D01*
X103736569Y-60231060D01*
X104004561Y-60270500D01*
X104205369Y-60270500D01*
X104207631Y-60270500D01*
X104410156Y-60255677D01*
X104674553Y-60196780D01*
X104927558Y-60100014D01*
X105163777Y-59967441D01*
X105378177Y-59801888D01*
X105566186Y-59606881D01*
X105723799Y-59386579D01*
X105847656Y-59145675D01*
X105852407Y-59131749D01*
X138835748Y-59131749D01*
X138842408Y-59143855D01*
X139688457Y-59989904D01*
X139700000Y-59996568D01*
X139711542Y-59989904D01*
X140557590Y-59143855D01*
X140564250Y-59131749D01*
X140556143Y-59120559D01*
X140527286Y-59098099D01*
X140518719Y-59092503D01*
X140309114Y-58979070D01*
X140299760Y-58974967D01*
X140074343Y-58897582D01*
X140064431Y-58895071D01*
X139829356Y-58855844D01*
X139819161Y-58855000D01*
X139580839Y-58855000D01*
X139570643Y-58855844D01*
X139335568Y-58895071D01*
X139325656Y-58897582D01*
X139100239Y-58974967D01*
X139090885Y-58979070D01*
X138881276Y-59092504D01*
X138872717Y-59098096D01*
X138843854Y-59120560D01*
X138835748Y-59131749D01*
X105852407Y-59131749D01*
X105935118Y-58889305D01*
X105984319Y-58622933D01*
X105994212Y-58352235D01*
X105964586Y-58082982D01*
X105896072Y-57820912D01*
X105790130Y-57571610D01*
X105649018Y-57340390D01*
X105475745Y-57132180D01*
X105370759Y-57038112D01*
X105277382Y-56954446D01*
X105277378Y-56954442D01*
X105274002Y-56951418D01*
X105048090Y-56801956D01*
X105043996Y-56800036D01*
X105043991Y-56800034D01*
X104806929Y-56688904D01*
X104806925Y-56688902D01*
X104802824Y-56686980D01*
X104798477Y-56685672D01*
X104798474Y-56685671D01*
X104547772Y-56610246D01*
X104547771Y-56610245D01*
X104543431Y-56608940D01*
X104538957Y-56608281D01*
X104538950Y-56608280D01*
X104279913Y-56570158D01*
X104279907Y-56570157D01*
X104275439Y-56569500D01*
X104072369Y-56569500D01*
X104070120Y-56569664D01*
X104070109Y-56569665D01*
X103874363Y-56583992D01*
X103874359Y-56583992D01*
X103869844Y-56584323D01*
X103865426Y-56585307D01*
X103865420Y-56585308D01*
X103609877Y-56642232D01*
X103609861Y-56642236D01*
X103605447Y-56643220D01*
X103601216Y-56644838D01*
X103601210Y-56644840D01*
X103356673Y-56738367D01*
X103356663Y-56738371D01*
X103352442Y-56739986D01*
X103348494Y-56742201D01*
X103348489Y-56742204D01*
X103120176Y-56870340D01*
X103120171Y-56870343D01*
X103116223Y-56872559D01*
X103112639Y-56875325D01*
X103112635Y-56875329D01*
X102905407Y-57035343D01*
X102905394Y-57035354D01*
X102901823Y-57038112D01*
X102898685Y-57041366D01*
X102898678Y-57041373D01*
X102716958Y-57229857D01*
X102716952Y-57229864D01*
X102713814Y-57233119D01*
X102711189Y-57236787D01*
X102711179Y-57236800D01*
X102558834Y-57449740D01*
X102558830Y-57449745D01*
X102556201Y-57453421D01*
X102554132Y-57457444D01*
X102554129Y-57457450D01*
X102434416Y-57690293D01*
X102434411Y-57690304D01*
X102432344Y-57694325D01*
X102430884Y-57698602D01*
X102430879Y-57698616D01*
X102346348Y-57946395D01*
X102346344Y-57946407D01*
X102344882Y-57950695D01*
X102344057Y-57955159D01*
X102344057Y-57955161D01*
X102296504Y-58212606D01*
X102296502Y-58212619D01*
X102295681Y-58217067D01*
X102295515Y-58221593D01*
X102295515Y-58221599D01*
X102290576Y-58356762D01*
X102285788Y-58487765D01*
X96530500Y-58487765D01*
X96530500Y-53474500D01*
X96547113Y-53412500D01*
X96592500Y-53367113D01*
X96654500Y-53350500D01*
X195445500Y-53350500D01*
X195507500Y-53367113D01*
G37*
%TD.AperFunction*%
%TD*%
M02*
