%TF.GenerationSoftware,KiCad,Pcbnew,(7.0.0)*%
%TF.CreationDate,2023-04-20T13:17:43-06:00*%
%TF.ProjectId,Phase_B_ATMEGA_Considine_Final,50686173-655f-4425-9f41-544d4547415f,rev?*%
%TF.SameCoordinates,Original*%
%TF.FileFunction,Legend,Top*%
%TF.FilePolarity,Positive*%
%FSLAX46Y46*%
G04 Gerber Fmt 4.6, Leading zero omitted, Abs format (unit mm)*
G04 Created by KiCad (PCBNEW (7.0.0)) date 2023-04-20 13:17:43*
%MOMM*%
%LPD*%
G01*
G04 APERTURE LIST*
%ADD10C,0.100000*%
%ADD11C,0.150000*%
%ADD12C,0.125000*%
%ADD13C,0.254000*%
%ADD14C,0.120000*%
%ADD15C,0.200000*%
%ADD16C,0.127000*%
G04 APERTURE END LIST*
D10*
X149508541Y-103075173D02*
X149556160Y-103122792D01*
X149556160Y-103122792D02*
X149603779Y-103265649D01*
X149603779Y-103265649D02*
X149603779Y-103360887D01*
X149603779Y-103360887D02*
X149556160Y-103503744D01*
X149556160Y-103503744D02*
X149460922Y-103598982D01*
X149460922Y-103598982D02*
X149365684Y-103646601D01*
X149365684Y-103646601D02*
X149175208Y-103694220D01*
X149175208Y-103694220D02*
X149032351Y-103694220D01*
X149032351Y-103694220D02*
X148841875Y-103646601D01*
X148841875Y-103646601D02*
X148746637Y-103598982D01*
X148746637Y-103598982D02*
X148651399Y-103503744D01*
X148651399Y-103503744D02*
X148603779Y-103360887D01*
X148603779Y-103360887D02*
X148603779Y-103265649D01*
X148603779Y-103265649D02*
X148651399Y-103122792D01*
X148651399Y-103122792D02*
X148699018Y-103075173D01*
X149603779Y-102598982D02*
X149603779Y-102408506D01*
X149603779Y-102408506D02*
X149556160Y-102313268D01*
X149556160Y-102313268D02*
X149508541Y-102265649D01*
X149508541Y-102265649D02*
X149365684Y-102170411D01*
X149365684Y-102170411D02*
X149175208Y-102122792D01*
X149175208Y-102122792D02*
X148794256Y-102122792D01*
X148794256Y-102122792D02*
X148699018Y-102170411D01*
X148699018Y-102170411D02*
X148651399Y-102218030D01*
X148651399Y-102218030D02*
X148603779Y-102313268D01*
X148603779Y-102313268D02*
X148603779Y-102503744D01*
X148603779Y-102503744D02*
X148651399Y-102598982D01*
X148651399Y-102598982D02*
X148699018Y-102646601D01*
X148699018Y-102646601D02*
X148794256Y-102694220D01*
X148794256Y-102694220D02*
X149032351Y-102694220D01*
X149032351Y-102694220D02*
X149127589Y-102646601D01*
X149127589Y-102646601D02*
X149175208Y-102598982D01*
X149175208Y-102598982D02*
X149222827Y-102503744D01*
X149222827Y-102503744D02*
X149222827Y-102313268D01*
X149222827Y-102313268D02*
X149175208Y-102218030D01*
X149175208Y-102218030D02*
X149127589Y-102170411D01*
X149127589Y-102170411D02*
X149032351Y-102122792D01*
D11*
%TO.C,R3*%
X134430597Y-75580489D02*
X134097264Y-75104299D01*
X133859169Y-75580489D02*
X133859169Y-74580489D01*
X133859169Y-74580489D02*
X134240121Y-74580489D01*
X134240121Y-74580489D02*
X134335359Y-74628109D01*
X134335359Y-74628109D02*
X134382978Y-74675728D01*
X134382978Y-74675728D02*
X134430597Y-74770966D01*
X134430597Y-74770966D02*
X134430597Y-74913823D01*
X134430597Y-74913823D02*
X134382978Y-75009061D01*
X134382978Y-75009061D02*
X134335359Y-75056680D01*
X134335359Y-75056680D02*
X134240121Y-75104299D01*
X134240121Y-75104299D02*
X133859169Y-75104299D01*
X134763931Y-74580489D02*
X135382978Y-74580489D01*
X135382978Y-74580489D02*
X135049645Y-74961442D01*
X135049645Y-74961442D02*
X135192502Y-74961442D01*
X135192502Y-74961442D02*
X135287740Y-75009061D01*
X135287740Y-75009061D02*
X135335359Y-75056680D01*
X135335359Y-75056680D02*
X135382978Y-75151918D01*
X135382978Y-75151918D02*
X135382978Y-75390013D01*
X135382978Y-75390013D02*
X135335359Y-75485251D01*
X135335359Y-75485251D02*
X135287740Y-75532870D01*
X135287740Y-75532870D02*
X135192502Y-75580489D01*
X135192502Y-75580489D02*
X134906788Y-75580489D01*
X134906788Y-75580489D02*
X134811550Y-75532870D01*
X134811550Y-75532870D02*
X134763931Y-75485251D01*
%TO.C,J1*%
X167819166Y-103932380D02*
X167819166Y-104646666D01*
X167819166Y-104646666D02*
X167771547Y-104789523D01*
X167771547Y-104789523D02*
X167676309Y-104884761D01*
X167676309Y-104884761D02*
X167533452Y-104932380D01*
X167533452Y-104932380D02*
X167438214Y-104932380D01*
X168819166Y-104932380D02*
X168247738Y-104932380D01*
X168533452Y-104932380D02*
X168533452Y-103932380D01*
X168533452Y-103932380D02*
X168438214Y-104075238D01*
X168438214Y-104075238D02*
X168342976Y-104170476D01*
X168342976Y-104170476D02*
X168247738Y-104218095D01*
D12*
%TO.C,C13*%
X175278246Y-98114524D02*
X175302055Y-98138333D01*
X175302055Y-98138333D02*
X175325865Y-98209762D01*
X175325865Y-98209762D02*
X175325865Y-98257381D01*
X175325865Y-98257381D02*
X175302055Y-98328809D01*
X175302055Y-98328809D02*
X175254436Y-98376428D01*
X175254436Y-98376428D02*
X175206817Y-98400238D01*
X175206817Y-98400238D02*
X175111579Y-98424047D01*
X175111579Y-98424047D02*
X175040151Y-98424047D01*
X175040151Y-98424047D02*
X174944913Y-98400238D01*
X174944913Y-98400238D02*
X174897294Y-98376428D01*
X174897294Y-98376428D02*
X174849675Y-98328809D01*
X174849675Y-98328809D02*
X174825865Y-98257381D01*
X174825865Y-98257381D02*
X174825865Y-98209762D01*
X174825865Y-98209762D02*
X174849675Y-98138333D01*
X174849675Y-98138333D02*
X174873484Y-98114524D01*
X175325865Y-97638333D02*
X175325865Y-97924047D01*
X175325865Y-97781190D02*
X174825865Y-97781190D01*
X174825865Y-97781190D02*
X174897294Y-97828809D01*
X174897294Y-97828809D02*
X174944913Y-97876428D01*
X174944913Y-97876428D02*
X174968722Y-97924047D01*
X174825865Y-97471667D02*
X174825865Y-97162143D01*
X174825865Y-97162143D02*
X175016341Y-97328810D01*
X175016341Y-97328810D02*
X175016341Y-97257381D01*
X175016341Y-97257381D02*
X175040151Y-97209762D01*
X175040151Y-97209762D02*
X175063960Y-97185953D01*
X175063960Y-97185953D02*
X175111579Y-97162143D01*
X175111579Y-97162143D02*
X175230627Y-97162143D01*
X175230627Y-97162143D02*
X175278246Y-97185953D01*
X175278246Y-97185953D02*
X175302055Y-97209762D01*
X175302055Y-97209762D02*
X175325865Y-97257381D01*
X175325865Y-97257381D02*
X175325865Y-97400238D01*
X175325865Y-97400238D02*
X175302055Y-97447857D01*
X175302055Y-97447857D02*
X175278246Y-97471667D01*
D11*
%TO.C,C5*%
X167200526Y-98019770D02*
X167152907Y-98067389D01*
X167152907Y-98067389D02*
X167010050Y-98115008D01*
X167010050Y-98115008D02*
X166914812Y-98115008D01*
X166914812Y-98115008D02*
X166771955Y-98067389D01*
X166771955Y-98067389D02*
X166676717Y-97972151D01*
X166676717Y-97972151D02*
X166629098Y-97876913D01*
X166629098Y-97876913D02*
X166581479Y-97686437D01*
X166581479Y-97686437D02*
X166581479Y-97543580D01*
X166581479Y-97543580D02*
X166629098Y-97353104D01*
X166629098Y-97353104D02*
X166676717Y-97257866D01*
X166676717Y-97257866D02*
X166771955Y-97162628D01*
X166771955Y-97162628D02*
X166914812Y-97115008D01*
X166914812Y-97115008D02*
X167010050Y-97115008D01*
X167010050Y-97115008D02*
X167152907Y-97162628D01*
X167152907Y-97162628D02*
X167200526Y-97210247D01*
X168105288Y-97115008D02*
X167629098Y-97115008D01*
X167629098Y-97115008D02*
X167581479Y-97591199D01*
X167581479Y-97591199D02*
X167629098Y-97543580D01*
X167629098Y-97543580D02*
X167724336Y-97495961D01*
X167724336Y-97495961D02*
X167962431Y-97495961D01*
X167962431Y-97495961D02*
X168057669Y-97543580D01*
X168057669Y-97543580D02*
X168105288Y-97591199D01*
X168105288Y-97591199D02*
X168152907Y-97686437D01*
X168152907Y-97686437D02*
X168152907Y-97924532D01*
X168152907Y-97924532D02*
X168105288Y-98019770D01*
X168105288Y-98019770D02*
X168057669Y-98067389D01*
X168057669Y-98067389D02*
X167962431Y-98115008D01*
X167962431Y-98115008D02*
X167724336Y-98115008D01*
X167724336Y-98115008D02*
X167629098Y-98067389D01*
X167629098Y-98067389D02*
X167581479Y-98019770D01*
%TO.C,R17*%
X177472542Y-120437880D02*
X177139209Y-119961690D01*
X176901114Y-120437880D02*
X176901114Y-119437880D01*
X176901114Y-119437880D02*
X177282066Y-119437880D01*
X177282066Y-119437880D02*
X177377304Y-119485500D01*
X177377304Y-119485500D02*
X177424923Y-119533119D01*
X177424923Y-119533119D02*
X177472542Y-119628357D01*
X177472542Y-119628357D02*
X177472542Y-119771214D01*
X177472542Y-119771214D02*
X177424923Y-119866452D01*
X177424923Y-119866452D02*
X177377304Y-119914071D01*
X177377304Y-119914071D02*
X177282066Y-119961690D01*
X177282066Y-119961690D02*
X176901114Y-119961690D01*
X178424923Y-120437880D02*
X177853495Y-120437880D01*
X178139209Y-120437880D02*
X178139209Y-119437880D01*
X178139209Y-119437880D02*
X178043971Y-119580738D01*
X178043971Y-119580738D02*
X177948733Y-119675976D01*
X177948733Y-119675976D02*
X177853495Y-119723595D01*
X178758257Y-119437880D02*
X179424923Y-119437880D01*
X179424923Y-119437880D02*
X178996352Y-120437880D01*
%TO.C,R1*%
X163505862Y-85672852D02*
X163172529Y-85196662D01*
X162934434Y-85672852D02*
X162934434Y-84672852D01*
X162934434Y-84672852D02*
X163315386Y-84672852D01*
X163315386Y-84672852D02*
X163410624Y-84720472D01*
X163410624Y-84720472D02*
X163458243Y-84768091D01*
X163458243Y-84768091D02*
X163505862Y-84863329D01*
X163505862Y-84863329D02*
X163505862Y-85006186D01*
X163505862Y-85006186D02*
X163458243Y-85101424D01*
X163458243Y-85101424D02*
X163410624Y-85149043D01*
X163410624Y-85149043D02*
X163315386Y-85196662D01*
X163315386Y-85196662D02*
X162934434Y-85196662D01*
X164458243Y-85672852D02*
X163886815Y-85672852D01*
X164172529Y-85672852D02*
X164172529Y-84672852D01*
X164172529Y-84672852D02*
X164077291Y-84815710D01*
X164077291Y-84815710D02*
X163982053Y-84910948D01*
X163982053Y-84910948D02*
X163886815Y-84958567D01*
%TO.C,MicroUSB*%
X164086816Y-122542822D02*
X163086816Y-122542822D01*
X163086816Y-122542822D02*
X163801102Y-122209489D01*
X163801102Y-122209489D02*
X163086816Y-121876156D01*
X163086816Y-121876156D02*
X164086816Y-121876156D01*
X164086816Y-121399965D02*
X163420150Y-121399965D01*
X163086816Y-121399965D02*
X163134436Y-121447584D01*
X163134436Y-121447584D02*
X163182055Y-121399965D01*
X163182055Y-121399965D02*
X163134436Y-121352346D01*
X163134436Y-121352346D02*
X163086816Y-121399965D01*
X163086816Y-121399965D02*
X163182055Y-121399965D01*
X164039197Y-120495204D02*
X164086816Y-120590442D01*
X164086816Y-120590442D02*
X164086816Y-120780918D01*
X164086816Y-120780918D02*
X164039197Y-120876156D01*
X164039197Y-120876156D02*
X163991578Y-120923775D01*
X163991578Y-120923775D02*
X163896340Y-120971394D01*
X163896340Y-120971394D02*
X163610626Y-120971394D01*
X163610626Y-120971394D02*
X163515388Y-120923775D01*
X163515388Y-120923775D02*
X163467769Y-120876156D01*
X163467769Y-120876156D02*
X163420150Y-120780918D01*
X163420150Y-120780918D02*
X163420150Y-120590442D01*
X163420150Y-120590442D02*
X163467769Y-120495204D01*
X164086816Y-120066632D02*
X163420150Y-120066632D01*
X163610626Y-120066632D02*
X163515388Y-120019013D01*
X163515388Y-120019013D02*
X163467769Y-119971394D01*
X163467769Y-119971394D02*
X163420150Y-119876156D01*
X163420150Y-119876156D02*
X163420150Y-119780918D01*
X164086816Y-119304727D02*
X164039197Y-119399965D01*
X164039197Y-119399965D02*
X163991578Y-119447584D01*
X163991578Y-119447584D02*
X163896340Y-119495203D01*
X163896340Y-119495203D02*
X163610626Y-119495203D01*
X163610626Y-119495203D02*
X163515388Y-119447584D01*
X163515388Y-119447584D02*
X163467769Y-119399965D01*
X163467769Y-119399965D02*
X163420150Y-119304727D01*
X163420150Y-119304727D02*
X163420150Y-119161870D01*
X163420150Y-119161870D02*
X163467769Y-119066632D01*
X163467769Y-119066632D02*
X163515388Y-119019013D01*
X163515388Y-119019013D02*
X163610626Y-118971394D01*
X163610626Y-118971394D02*
X163896340Y-118971394D01*
X163896340Y-118971394D02*
X163991578Y-119019013D01*
X163991578Y-119019013D02*
X164039197Y-119066632D01*
X164039197Y-119066632D02*
X164086816Y-119161870D01*
X164086816Y-119161870D02*
X164086816Y-119304727D01*
X163086816Y-118542822D02*
X163896340Y-118542822D01*
X163896340Y-118542822D02*
X163991578Y-118495203D01*
X163991578Y-118495203D02*
X164039197Y-118447584D01*
X164039197Y-118447584D02*
X164086816Y-118352346D01*
X164086816Y-118352346D02*
X164086816Y-118161870D01*
X164086816Y-118161870D02*
X164039197Y-118066632D01*
X164039197Y-118066632D02*
X163991578Y-118019013D01*
X163991578Y-118019013D02*
X163896340Y-117971394D01*
X163896340Y-117971394D02*
X163086816Y-117971394D01*
X164039197Y-117542822D02*
X164086816Y-117399965D01*
X164086816Y-117399965D02*
X164086816Y-117161870D01*
X164086816Y-117161870D02*
X164039197Y-117066632D01*
X164039197Y-117066632D02*
X163991578Y-117019013D01*
X163991578Y-117019013D02*
X163896340Y-116971394D01*
X163896340Y-116971394D02*
X163801102Y-116971394D01*
X163801102Y-116971394D02*
X163705864Y-117019013D01*
X163705864Y-117019013D02*
X163658245Y-117066632D01*
X163658245Y-117066632D02*
X163610626Y-117161870D01*
X163610626Y-117161870D02*
X163563007Y-117352346D01*
X163563007Y-117352346D02*
X163515388Y-117447584D01*
X163515388Y-117447584D02*
X163467769Y-117495203D01*
X163467769Y-117495203D02*
X163372531Y-117542822D01*
X163372531Y-117542822D02*
X163277293Y-117542822D01*
X163277293Y-117542822D02*
X163182055Y-117495203D01*
X163182055Y-117495203D02*
X163134436Y-117447584D01*
X163134436Y-117447584D02*
X163086816Y-117352346D01*
X163086816Y-117352346D02*
X163086816Y-117114251D01*
X163086816Y-117114251D02*
X163134436Y-116971394D01*
X163563007Y-116209489D02*
X163610626Y-116066632D01*
X163610626Y-116066632D02*
X163658245Y-116019013D01*
X163658245Y-116019013D02*
X163753483Y-115971394D01*
X163753483Y-115971394D02*
X163896340Y-115971394D01*
X163896340Y-115971394D02*
X163991578Y-116019013D01*
X163991578Y-116019013D02*
X164039197Y-116066632D01*
X164039197Y-116066632D02*
X164086816Y-116161870D01*
X164086816Y-116161870D02*
X164086816Y-116542822D01*
X164086816Y-116542822D02*
X163086816Y-116542822D01*
X163086816Y-116542822D02*
X163086816Y-116209489D01*
X163086816Y-116209489D02*
X163134436Y-116114251D01*
X163134436Y-116114251D02*
X163182055Y-116066632D01*
X163182055Y-116066632D02*
X163277293Y-116019013D01*
X163277293Y-116019013D02*
X163372531Y-116019013D01*
X163372531Y-116019013D02*
X163467769Y-116066632D01*
X163467769Y-116066632D02*
X163515388Y-116114251D01*
X163515388Y-116114251D02*
X163563007Y-116209489D01*
X163563007Y-116209489D02*
X163563007Y-116542822D01*
%TO.C,U5*%
X157702868Y-79501903D02*
X158512392Y-79501903D01*
X158512392Y-79501903D02*
X158607630Y-79454284D01*
X158607630Y-79454284D02*
X158655249Y-79406665D01*
X158655249Y-79406665D02*
X158702868Y-79311427D01*
X158702868Y-79311427D02*
X158702868Y-79120951D01*
X158702868Y-79120951D02*
X158655249Y-79025713D01*
X158655249Y-79025713D02*
X158607630Y-78978094D01*
X158607630Y-78978094D02*
X158512392Y-78930475D01*
X158512392Y-78930475D02*
X157702868Y-78930475D01*
X157702868Y-77978094D02*
X157702868Y-78454284D01*
X157702868Y-78454284D02*
X158179059Y-78501903D01*
X158179059Y-78501903D02*
X158131440Y-78454284D01*
X158131440Y-78454284D02*
X158083821Y-78359046D01*
X158083821Y-78359046D02*
X158083821Y-78120951D01*
X158083821Y-78120951D02*
X158131440Y-78025713D01*
X158131440Y-78025713D02*
X158179059Y-77978094D01*
X158179059Y-77978094D02*
X158274297Y-77930475D01*
X158274297Y-77930475D02*
X158512392Y-77930475D01*
X158512392Y-77930475D02*
X158607630Y-77978094D01*
X158607630Y-77978094D02*
X158655249Y-78025713D01*
X158655249Y-78025713D02*
X158702868Y-78120951D01*
X158702868Y-78120951D02*
X158702868Y-78359046D01*
X158702868Y-78359046D02*
X158655249Y-78454284D01*
X158655249Y-78454284D02*
X158607630Y-78501903D01*
%TO.C,R6*%
X121337043Y-81773319D02*
X121003710Y-81297129D01*
X120765615Y-81773319D02*
X120765615Y-80773319D01*
X120765615Y-80773319D02*
X121146567Y-80773319D01*
X121146567Y-80773319D02*
X121241805Y-80820939D01*
X121241805Y-80820939D02*
X121289424Y-80868558D01*
X121289424Y-80868558D02*
X121337043Y-80963796D01*
X121337043Y-80963796D02*
X121337043Y-81106653D01*
X121337043Y-81106653D02*
X121289424Y-81201891D01*
X121289424Y-81201891D02*
X121241805Y-81249510D01*
X121241805Y-81249510D02*
X121146567Y-81297129D01*
X121146567Y-81297129D02*
X120765615Y-81297129D01*
X122194186Y-80773319D02*
X122003710Y-80773319D01*
X122003710Y-80773319D02*
X121908472Y-80820939D01*
X121908472Y-80820939D02*
X121860853Y-80868558D01*
X121860853Y-80868558D02*
X121765615Y-81011415D01*
X121765615Y-81011415D02*
X121717996Y-81201891D01*
X121717996Y-81201891D02*
X121717996Y-81582843D01*
X121717996Y-81582843D02*
X121765615Y-81678081D01*
X121765615Y-81678081D02*
X121813234Y-81725700D01*
X121813234Y-81725700D02*
X121908472Y-81773319D01*
X121908472Y-81773319D02*
X122098948Y-81773319D01*
X122098948Y-81773319D02*
X122194186Y-81725700D01*
X122194186Y-81725700D02*
X122241805Y-81678081D01*
X122241805Y-81678081D02*
X122289424Y-81582843D01*
X122289424Y-81582843D02*
X122289424Y-81344748D01*
X122289424Y-81344748D02*
X122241805Y-81249510D01*
X122241805Y-81249510D02*
X122194186Y-81201891D01*
X122194186Y-81201891D02*
X122098948Y-81154272D01*
X122098948Y-81154272D02*
X121908472Y-81154272D01*
X121908472Y-81154272D02*
X121813234Y-81201891D01*
X121813234Y-81201891D02*
X121765615Y-81249510D01*
X121765615Y-81249510D02*
X121717996Y-81344748D01*
%TO.C,F1*%
X148381971Y-107913933D02*
X148381971Y-108247266D01*
X148905780Y-108247266D02*
X147905780Y-108247266D01*
X147905780Y-108247266D02*
X147905780Y-107771076D01*
X148905780Y-106866314D02*
X148905780Y-107437742D01*
X148905780Y-107152028D02*
X147905780Y-107152028D01*
X147905780Y-107152028D02*
X148048638Y-107247266D01*
X148048638Y-107247266D02*
X148143876Y-107342504D01*
X148143876Y-107342504D02*
X148191495Y-107437742D01*
%TO.C,MPU*%
X147857380Y-92797142D02*
X146857380Y-92797142D01*
X146857380Y-92797142D02*
X147571666Y-92463809D01*
X147571666Y-92463809D02*
X146857380Y-92130476D01*
X146857380Y-92130476D02*
X147857380Y-92130476D01*
X147857380Y-91654285D02*
X146857380Y-91654285D01*
X146857380Y-91654285D02*
X146857380Y-91273333D01*
X146857380Y-91273333D02*
X146905000Y-91178095D01*
X146905000Y-91178095D02*
X146952619Y-91130476D01*
X146952619Y-91130476D02*
X147047857Y-91082857D01*
X147047857Y-91082857D02*
X147190714Y-91082857D01*
X147190714Y-91082857D02*
X147285952Y-91130476D01*
X147285952Y-91130476D02*
X147333571Y-91178095D01*
X147333571Y-91178095D02*
X147381190Y-91273333D01*
X147381190Y-91273333D02*
X147381190Y-91654285D01*
X146857380Y-90654285D02*
X147666904Y-90654285D01*
X147666904Y-90654285D02*
X147762142Y-90606666D01*
X147762142Y-90606666D02*
X147809761Y-90559047D01*
X147809761Y-90559047D02*
X147857380Y-90463809D01*
X147857380Y-90463809D02*
X147857380Y-90273333D01*
X147857380Y-90273333D02*
X147809761Y-90178095D01*
X147809761Y-90178095D02*
X147762142Y-90130476D01*
X147762142Y-90130476D02*
X147666904Y-90082857D01*
X147666904Y-90082857D02*
X146857380Y-90082857D01*
%TO.C,D1*%
X134046770Y-81733787D02*
X134046770Y-80733787D01*
X134046770Y-80733787D02*
X134284865Y-80733787D01*
X134284865Y-80733787D02*
X134427722Y-80781407D01*
X134427722Y-80781407D02*
X134522960Y-80876645D01*
X134522960Y-80876645D02*
X134570579Y-80971883D01*
X134570579Y-80971883D02*
X134618198Y-81162359D01*
X134618198Y-81162359D02*
X134618198Y-81305216D01*
X134618198Y-81305216D02*
X134570579Y-81495692D01*
X134570579Y-81495692D02*
X134522960Y-81590930D01*
X134522960Y-81590930D02*
X134427722Y-81686168D01*
X134427722Y-81686168D02*
X134284865Y-81733787D01*
X134284865Y-81733787D02*
X134046770Y-81733787D01*
X135570579Y-81733787D02*
X134999151Y-81733787D01*
X135284865Y-81733787D02*
X135284865Y-80733787D01*
X135284865Y-80733787D02*
X135189627Y-80876645D01*
X135189627Y-80876645D02*
X135094389Y-80971883D01*
X135094389Y-80971883D02*
X134999151Y-81019502D01*
%TO.C,C3*%
X168246284Y-91654288D02*
X168198665Y-91701907D01*
X168198665Y-91701907D02*
X168055808Y-91749526D01*
X168055808Y-91749526D02*
X167960570Y-91749526D01*
X167960570Y-91749526D02*
X167817713Y-91701907D01*
X167817713Y-91701907D02*
X167722475Y-91606669D01*
X167722475Y-91606669D02*
X167674856Y-91511431D01*
X167674856Y-91511431D02*
X167627237Y-91320955D01*
X167627237Y-91320955D02*
X167627237Y-91178098D01*
X167627237Y-91178098D02*
X167674856Y-90987622D01*
X167674856Y-90987622D02*
X167722475Y-90892384D01*
X167722475Y-90892384D02*
X167817713Y-90797146D01*
X167817713Y-90797146D02*
X167960570Y-90749526D01*
X167960570Y-90749526D02*
X168055808Y-90749526D01*
X168055808Y-90749526D02*
X168198665Y-90797146D01*
X168198665Y-90797146D02*
X168246284Y-90844765D01*
X168579618Y-90749526D02*
X169198665Y-90749526D01*
X169198665Y-90749526D02*
X168865332Y-91130479D01*
X168865332Y-91130479D02*
X169008189Y-91130479D01*
X169008189Y-91130479D02*
X169103427Y-91178098D01*
X169103427Y-91178098D02*
X169151046Y-91225717D01*
X169151046Y-91225717D02*
X169198665Y-91320955D01*
X169198665Y-91320955D02*
X169198665Y-91559050D01*
X169198665Y-91559050D02*
X169151046Y-91654288D01*
X169151046Y-91654288D02*
X169103427Y-91701907D01*
X169103427Y-91701907D02*
X169008189Y-91749526D01*
X169008189Y-91749526D02*
X168722475Y-91749526D01*
X168722475Y-91749526D02*
X168627237Y-91701907D01*
X168627237Y-91701907D02*
X168579618Y-91654288D01*
%TO.C,U1*%
X100438095Y-60337380D02*
X100438095Y-61146904D01*
X100438095Y-61146904D02*
X100485714Y-61242142D01*
X100485714Y-61242142D02*
X100533333Y-61289761D01*
X100533333Y-61289761D02*
X100628571Y-61337380D01*
X100628571Y-61337380D02*
X100819047Y-61337380D01*
X100819047Y-61337380D02*
X100914285Y-61289761D01*
X100914285Y-61289761D02*
X100961904Y-61242142D01*
X100961904Y-61242142D02*
X101009523Y-61146904D01*
X101009523Y-61146904D02*
X101009523Y-60337380D01*
X102009523Y-61337380D02*
X101438095Y-61337380D01*
X101723809Y-61337380D02*
X101723809Y-60337380D01*
X101723809Y-60337380D02*
X101628571Y-60480238D01*
X101628571Y-60480238D02*
X101533333Y-60575476D01*
X101533333Y-60575476D02*
X101438095Y-60623095D01*
%TO.C,C15*%
X162633972Y-83679751D02*
X162586353Y-83727370D01*
X162586353Y-83727370D02*
X162443496Y-83774989D01*
X162443496Y-83774989D02*
X162348258Y-83774989D01*
X162348258Y-83774989D02*
X162205401Y-83727370D01*
X162205401Y-83727370D02*
X162110163Y-83632132D01*
X162110163Y-83632132D02*
X162062544Y-83536894D01*
X162062544Y-83536894D02*
X162014925Y-83346418D01*
X162014925Y-83346418D02*
X162014925Y-83203561D01*
X162014925Y-83203561D02*
X162062544Y-83013085D01*
X162062544Y-83013085D02*
X162110163Y-82917847D01*
X162110163Y-82917847D02*
X162205401Y-82822609D01*
X162205401Y-82822609D02*
X162348258Y-82774989D01*
X162348258Y-82774989D02*
X162443496Y-82774989D01*
X162443496Y-82774989D02*
X162586353Y-82822609D01*
X162586353Y-82822609D02*
X162633972Y-82870228D01*
X163586353Y-83774989D02*
X163014925Y-83774989D01*
X163300639Y-83774989D02*
X163300639Y-82774989D01*
X163300639Y-82774989D02*
X163205401Y-82917847D01*
X163205401Y-82917847D02*
X163110163Y-83013085D01*
X163110163Y-83013085D02*
X163014925Y-83060704D01*
X164491115Y-82774989D02*
X164014925Y-82774989D01*
X164014925Y-82774989D02*
X163967306Y-83251180D01*
X163967306Y-83251180D02*
X164014925Y-83203561D01*
X164014925Y-83203561D02*
X164110163Y-83155942D01*
X164110163Y-83155942D02*
X164348258Y-83155942D01*
X164348258Y-83155942D02*
X164443496Y-83203561D01*
X164443496Y-83203561D02*
X164491115Y-83251180D01*
X164491115Y-83251180D02*
X164538734Y-83346418D01*
X164538734Y-83346418D02*
X164538734Y-83584513D01*
X164538734Y-83584513D02*
X164491115Y-83679751D01*
X164491115Y-83679751D02*
X164443496Y-83727370D01*
X164443496Y-83727370D02*
X164348258Y-83774989D01*
X164348258Y-83774989D02*
X164110163Y-83774989D01*
X164110163Y-83774989D02*
X164014925Y-83727370D01*
X164014925Y-83727370D02*
X163967306Y-83679751D01*
%TO.C,U2*%
X136398095Y-89897380D02*
X136398095Y-90706904D01*
X136398095Y-90706904D02*
X136445714Y-90802142D01*
X136445714Y-90802142D02*
X136493333Y-90849761D01*
X136493333Y-90849761D02*
X136588571Y-90897380D01*
X136588571Y-90897380D02*
X136779047Y-90897380D01*
X136779047Y-90897380D02*
X136874285Y-90849761D01*
X136874285Y-90849761D02*
X136921904Y-90802142D01*
X136921904Y-90802142D02*
X136969523Y-90706904D01*
X136969523Y-90706904D02*
X136969523Y-89897380D01*
X137398095Y-89992619D02*
X137445714Y-89945000D01*
X137445714Y-89945000D02*
X137540952Y-89897380D01*
X137540952Y-89897380D02*
X137779047Y-89897380D01*
X137779047Y-89897380D02*
X137874285Y-89945000D01*
X137874285Y-89945000D02*
X137921904Y-89992619D01*
X137921904Y-89992619D02*
X137969523Y-90087857D01*
X137969523Y-90087857D02*
X137969523Y-90183095D01*
X137969523Y-90183095D02*
X137921904Y-90325952D01*
X137921904Y-90325952D02*
X137350476Y-90897380D01*
X137350476Y-90897380D02*
X137969523Y-90897380D01*
D13*
%TO.C,Increment*%
X185886573Y-68539523D02*
X184616573Y-68539523D01*
X185039907Y-67934761D02*
X185886573Y-67934761D01*
X185160859Y-67934761D02*
X185100383Y-67874284D01*
X185100383Y-67874284D02*
X185039907Y-67753332D01*
X185039907Y-67753332D02*
X185039907Y-67571903D01*
X185039907Y-67571903D02*
X185100383Y-67450951D01*
X185100383Y-67450951D02*
X185221335Y-67390475D01*
X185221335Y-67390475D02*
X185886573Y-67390475D01*
X185826097Y-66241427D02*
X185886573Y-66362379D01*
X185886573Y-66362379D02*
X185886573Y-66604284D01*
X185886573Y-66604284D02*
X185826097Y-66725236D01*
X185826097Y-66725236D02*
X185765621Y-66785713D01*
X185765621Y-66785713D02*
X185644669Y-66846189D01*
X185644669Y-66846189D02*
X185281811Y-66846189D01*
X185281811Y-66846189D02*
X185160859Y-66785713D01*
X185160859Y-66785713D02*
X185100383Y-66725236D01*
X185100383Y-66725236D02*
X185039907Y-66604284D01*
X185039907Y-66604284D02*
X185039907Y-66362379D01*
X185039907Y-66362379D02*
X185100383Y-66241427D01*
X185886573Y-65697142D02*
X185039907Y-65697142D01*
X185281811Y-65697142D02*
X185160859Y-65636665D01*
X185160859Y-65636665D02*
X185100383Y-65576189D01*
X185100383Y-65576189D02*
X185039907Y-65455237D01*
X185039907Y-65455237D02*
X185039907Y-65334284D01*
X185826097Y-64427142D02*
X185886573Y-64548094D01*
X185886573Y-64548094D02*
X185886573Y-64789999D01*
X185886573Y-64789999D02*
X185826097Y-64910952D01*
X185826097Y-64910952D02*
X185705145Y-64971428D01*
X185705145Y-64971428D02*
X185221335Y-64971428D01*
X185221335Y-64971428D02*
X185100383Y-64910952D01*
X185100383Y-64910952D02*
X185039907Y-64789999D01*
X185039907Y-64789999D02*
X185039907Y-64548094D01*
X185039907Y-64548094D02*
X185100383Y-64427142D01*
X185100383Y-64427142D02*
X185221335Y-64366666D01*
X185221335Y-64366666D02*
X185342288Y-64366666D01*
X185342288Y-64366666D02*
X185463240Y-64971428D01*
X185886573Y-63822381D02*
X185039907Y-63822381D01*
X185160859Y-63822381D02*
X185100383Y-63761904D01*
X185100383Y-63761904D02*
X185039907Y-63640952D01*
X185039907Y-63640952D02*
X185039907Y-63459523D01*
X185039907Y-63459523D02*
X185100383Y-63338571D01*
X185100383Y-63338571D02*
X185221335Y-63278095D01*
X185221335Y-63278095D02*
X185886573Y-63278095D01*
X185221335Y-63278095D02*
X185100383Y-63217619D01*
X185100383Y-63217619D02*
X185039907Y-63096666D01*
X185039907Y-63096666D02*
X185039907Y-62915238D01*
X185039907Y-62915238D02*
X185100383Y-62794285D01*
X185100383Y-62794285D02*
X185221335Y-62733809D01*
X185221335Y-62733809D02*
X185886573Y-62733809D01*
X185826097Y-61645238D02*
X185886573Y-61766190D01*
X185886573Y-61766190D02*
X185886573Y-62008095D01*
X185886573Y-62008095D02*
X185826097Y-62129048D01*
X185826097Y-62129048D02*
X185705145Y-62189524D01*
X185705145Y-62189524D02*
X185221335Y-62189524D01*
X185221335Y-62189524D02*
X185100383Y-62129048D01*
X185100383Y-62129048D02*
X185039907Y-62008095D01*
X185039907Y-62008095D02*
X185039907Y-61766190D01*
X185039907Y-61766190D02*
X185100383Y-61645238D01*
X185100383Y-61645238D02*
X185221335Y-61584762D01*
X185221335Y-61584762D02*
X185342288Y-61584762D01*
X185342288Y-61584762D02*
X185463240Y-62189524D01*
X185039907Y-61040477D02*
X185886573Y-61040477D01*
X185160859Y-61040477D02*
X185100383Y-60980000D01*
X185100383Y-60980000D02*
X185039907Y-60859048D01*
X185039907Y-60859048D02*
X185039907Y-60677619D01*
X185039907Y-60677619D02*
X185100383Y-60556667D01*
X185100383Y-60556667D02*
X185221335Y-60496191D01*
X185221335Y-60496191D02*
X185886573Y-60496191D01*
X185039907Y-60072857D02*
X185039907Y-59589048D01*
X184616573Y-59891429D02*
X185705145Y-59891429D01*
X185705145Y-59891429D02*
X185826097Y-59830952D01*
X185826097Y-59830952D02*
X185886573Y-59710000D01*
X185886573Y-59710000D02*
X185886573Y-59589048D01*
D11*
%TO.C,C1*%
X170974348Y-91813425D02*
X170926729Y-91861044D01*
X170926729Y-91861044D02*
X170783872Y-91908663D01*
X170783872Y-91908663D02*
X170688634Y-91908663D01*
X170688634Y-91908663D02*
X170545777Y-91861044D01*
X170545777Y-91861044D02*
X170450539Y-91765806D01*
X170450539Y-91765806D02*
X170402920Y-91670568D01*
X170402920Y-91670568D02*
X170355301Y-91480092D01*
X170355301Y-91480092D02*
X170355301Y-91337235D01*
X170355301Y-91337235D02*
X170402920Y-91146759D01*
X170402920Y-91146759D02*
X170450539Y-91051521D01*
X170450539Y-91051521D02*
X170545777Y-90956283D01*
X170545777Y-90956283D02*
X170688634Y-90908663D01*
X170688634Y-90908663D02*
X170783872Y-90908663D01*
X170783872Y-90908663D02*
X170926729Y-90956283D01*
X170926729Y-90956283D02*
X170974348Y-91003902D01*
X171926729Y-91908663D02*
X171355301Y-91908663D01*
X171641015Y-91908663D02*
X171641015Y-90908663D01*
X171641015Y-90908663D02*
X171545777Y-91051521D01*
X171545777Y-91051521D02*
X171450539Y-91146759D01*
X171450539Y-91146759D02*
X171355301Y-91194378D01*
%TO.C,R16*%
X171252142Y-100537380D02*
X170918809Y-100061190D01*
X170680714Y-100537380D02*
X170680714Y-99537380D01*
X170680714Y-99537380D02*
X171061666Y-99537380D01*
X171061666Y-99537380D02*
X171156904Y-99585000D01*
X171156904Y-99585000D02*
X171204523Y-99632619D01*
X171204523Y-99632619D02*
X171252142Y-99727857D01*
X171252142Y-99727857D02*
X171252142Y-99870714D01*
X171252142Y-99870714D02*
X171204523Y-99965952D01*
X171204523Y-99965952D02*
X171156904Y-100013571D01*
X171156904Y-100013571D02*
X171061666Y-100061190D01*
X171061666Y-100061190D02*
X170680714Y-100061190D01*
X172204523Y-100537380D02*
X171633095Y-100537380D01*
X171918809Y-100537380D02*
X171918809Y-99537380D01*
X171918809Y-99537380D02*
X171823571Y-99680238D01*
X171823571Y-99680238D02*
X171728333Y-99775476D01*
X171728333Y-99775476D02*
X171633095Y-99823095D01*
X173061666Y-99537380D02*
X172871190Y-99537380D01*
X172871190Y-99537380D02*
X172775952Y-99585000D01*
X172775952Y-99585000D02*
X172728333Y-99632619D01*
X172728333Y-99632619D02*
X172633095Y-99775476D01*
X172633095Y-99775476D02*
X172585476Y-99965952D01*
X172585476Y-99965952D02*
X172585476Y-100346904D01*
X172585476Y-100346904D02*
X172633095Y-100442142D01*
X172633095Y-100442142D02*
X172680714Y-100489761D01*
X172680714Y-100489761D02*
X172775952Y-100537380D01*
X172775952Y-100537380D02*
X172966428Y-100537380D01*
X172966428Y-100537380D02*
X173061666Y-100489761D01*
X173061666Y-100489761D02*
X173109285Y-100442142D01*
X173109285Y-100442142D02*
X173156904Y-100346904D01*
X173156904Y-100346904D02*
X173156904Y-100108809D01*
X173156904Y-100108809D02*
X173109285Y-100013571D01*
X173109285Y-100013571D02*
X173061666Y-99965952D01*
X173061666Y-99965952D02*
X172966428Y-99918333D01*
X172966428Y-99918333D02*
X172775952Y-99918333D01*
X172775952Y-99918333D02*
X172680714Y-99965952D01*
X172680714Y-99965952D02*
X172633095Y-100013571D01*
X172633095Y-100013571D02*
X172585476Y-100108809D01*
%TO.C,MOUNT*%
X185674286Y-85067380D02*
X185674286Y-84067380D01*
X185674286Y-84067380D02*
X186007619Y-84781666D01*
X186007619Y-84781666D02*
X186340952Y-84067380D01*
X186340952Y-84067380D02*
X186340952Y-85067380D01*
X187007619Y-84067380D02*
X187198095Y-84067380D01*
X187198095Y-84067380D02*
X187293333Y-84115000D01*
X187293333Y-84115000D02*
X187388571Y-84210238D01*
X187388571Y-84210238D02*
X187436190Y-84400714D01*
X187436190Y-84400714D02*
X187436190Y-84734047D01*
X187436190Y-84734047D02*
X187388571Y-84924523D01*
X187388571Y-84924523D02*
X187293333Y-85019761D01*
X187293333Y-85019761D02*
X187198095Y-85067380D01*
X187198095Y-85067380D02*
X187007619Y-85067380D01*
X187007619Y-85067380D02*
X186912381Y-85019761D01*
X186912381Y-85019761D02*
X186817143Y-84924523D01*
X186817143Y-84924523D02*
X186769524Y-84734047D01*
X186769524Y-84734047D02*
X186769524Y-84400714D01*
X186769524Y-84400714D02*
X186817143Y-84210238D01*
X186817143Y-84210238D02*
X186912381Y-84115000D01*
X186912381Y-84115000D02*
X187007619Y-84067380D01*
X187864762Y-84067380D02*
X187864762Y-84876904D01*
X187864762Y-84876904D02*
X187912381Y-84972142D01*
X187912381Y-84972142D02*
X187960000Y-85019761D01*
X187960000Y-85019761D02*
X188055238Y-85067380D01*
X188055238Y-85067380D02*
X188245714Y-85067380D01*
X188245714Y-85067380D02*
X188340952Y-85019761D01*
X188340952Y-85019761D02*
X188388571Y-84972142D01*
X188388571Y-84972142D02*
X188436190Y-84876904D01*
X188436190Y-84876904D02*
X188436190Y-84067380D01*
X188912381Y-85067380D02*
X188912381Y-84067380D01*
X188912381Y-84067380D02*
X189483809Y-85067380D01*
X189483809Y-85067380D02*
X189483809Y-84067380D01*
X189817143Y-84067380D02*
X190388571Y-84067380D01*
X190102857Y-85067380D02*
X190102857Y-84067380D01*
X101854286Y-54587380D02*
X101854286Y-53587380D01*
X101854286Y-53587380D02*
X102187619Y-54301666D01*
X102187619Y-54301666D02*
X102520952Y-53587380D01*
X102520952Y-53587380D02*
X102520952Y-54587380D01*
X103187619Y-53587380D02*
X103378095Y-53587380D01*
X103378095Y-53587380D02*
X103473333Y-53635000D01*
X103473333Y-53635000D02*
X103568571Y-53730238D01*
X103568571Y-53730238D02*
X103616190Y-53920714D01*
X103616190Y-53920714D02*
X103616190Y-54254047D01*
X103616190Y-54254047D02*
X103568571Y-54444523D01*
X103568571Y-54444523D02*
X103473333Y-54539761D01*
X103473333Y-54539761D02*
X103378095Y-54587380D01*
X103378095Y-54587380D02*
X103187619Y-54587380D01*
X103187619Y-54587380D02*
X103092381Y-54539761D01*
X103092381Y-54539761D02*
X102997143Y-54444523D01*
X102997143Y-54444523D02*
X102949524Y-54254047D01*
X102949524Y-54254047D02*
X102949524Y-53920714D01*
X102949524Y-53920714D02*
X102997143Y-53730238D01*
X102997143Y-53730238D02*
X103092381Y-53635000D01*
X103092381Y-53635000D02*
X103187619Y-53587380D01*
X104044762Y-53587380D02*
X104044762Y-54396904D01*
X104044762Y-54396904D02*
X104092381Y-54492142D01*
X104092381Y-54492142D02*
X104140000Y-54539761D01*
X104140000Y-54539761D02*
X104235238Y-54587380D01*
X104235238Y-54587380D02*
X104425714Y-54587380D01*
X104425714Y-54587380D02*
X104520952Y-54539761D01*
X104520952Y-54539761D02*
X104568571Y-54492142D01*
X104568571Y-54492142D02*
X104616190Y-54396904D01*
X104616190Y-54396904D02*
X104616190Y-53587380D01*
X105092381Y-54587380D02*
X105092381Y-53587380D01*
X105092381Y-53587380D02*
X105663809Y-54587380D01*
X105663809Y-54587380D02*
X105663809Y-53587380D01*
X105997143Y-53587380D02*
X106568571Y-53587380D01*
X106282857Y-54587380D02*
X106282857Y-53587380D01*
X101854286Y-115547380D02*
X101854286Y-114547380D01*
X101854286Y-114547380D02*
X102187619Y-115261666D01*
X102187619Y-115261666D02*
X102520952Y-114547380D01*
X102520952Y-114547380D02*
X102520952Y-115547380D01*
X103187619Y-114547380D02*
X103378095Y-114547380D01*
X103378095Y-114547380D02*
X103473333Y-114595000D01*
X103473333Y-114595000D02*
X103568571Y-114690238D01*
X103568571Y-114690238D02*
X103616190Y-114880714D01*
X103616190Y-114880714D02*
X103616190Y-115214047D01*
X103616190Y-115214047D02*
X103568571Y-115404523D01*
X103568571Y-115404523D02*
X103473333Y-115499761D01*
X103473333Y-115499761D02*
X103378095Y-115547380D01*
X103378095Y-115547380D02*
X103187619Y-115547380D01*
X103187619Y-115547380D02*
X103092381Y-115499761D01*
X103092381Y-115499761D02*
X102997143Y-115404523D01*
X102997143Y-115404523D02*
X102949524Y-115214047D01*
X102949524Y-115214047D02*
X102949524Y-114880714D01*
X102949524Y-114880714D02*
X102997143Y-114690238D01*
X102997143Y-114690238D02*
X103092381Y-114595000D01*
X103092381Y-114595000D02*
X103187619Y-114547380D01*
X104044762Y-114547380D02*
X104044762Y-115356904D01*
X104044762Y-115356904D02*
X104092381Y-115452142D01*
X104092381Y-115452142D02*
X104140000Y-115499761D01*
X104140000Y-115499761D02*
X104235238Y-115547380D01*
X104235238Y-115547380D02*
X104425714Y-115547380D01*
X104425714Y-115547380D02*
X104520952Y-115499761D01*
X104520952Y-115499761D02*
X104568571Y-115452142D01*
X104568571Y-115452142D02*
X104616190Y-115356904D01*
X104616190Y-115356904D02*
X104616190Y-114547380D01*
X105092381Y-115547380D02*
X105092381Y-114547380D01*
X105092381Y-114547380D02*
X105663809Y-115547380D01*
X105663809Y-115547380D02*
X105663809Y-114547380D01*
X105997143Y-114547380D02*
X106568571Y-114547380D01*
X106282857Y-115547380D02*
X106282857Y-114547380D01*
%TO.C,C12*%
X134549942Y-101542942D02*
X134502323Y-101590561D01*
X134502323Y-101590561D02*
X134359466Y-101638180D01*
X134359466Y-101638180D02*
X134264228Y-101638180D01*
X134264228Y-101638180D02*
X134121371Y-101590561D01*
X134121371Y-101590561D02*
X134026133Y-101495323D01*
X134026133Y-101495323D02*
X133978514Y-101400085D01*
X133978514Y-101400085D02*
X133930895Y-101209609D01*
X133930895Y-101209609D02*
X133930895Y-101066752D01*
X133930895Y-101066752D02*
X133978514Y-100876276D01*
X133978514Y-100876276D02*
X134026133Y-100781038D01*
X134026133Y-100781038D02*
X134121371Y-100685800D01*
X134121371Y-100685800D02*
X134264228Y-100638180D01*
X134264228Y-100638180D02*
X134359466Y-100638180D01*
X134359466Y-100638180D02*
X134502323Y-100685800D01*
X134502323Y-100685800D02*
X134549942Y-100733419D01*
X135502323Y-101638180D02*
X134930895Y-101638180D01*
X135216609Y-101638180D02*
X135216609Y-100638180D01*
X135216609Y-100638180D02*
X135121371Y-100781038D01*
X135121371Y-100781038D02*
X135026133Y-100876276D01*
X135026133Y-100876276D02*
X134930895Y-100923895D01*
X135883276Y-100733419D02*
X135930895Y-100685800D01*
X135930895Y-100685800D02*
X136026133Y-100638180D01*
X136026133Y-100638180D02*
X136264228Y-100638180D01*
X136264228Y-100638180D02*
X136359466Y-100685800D01*
X136359466Y-100685800D02*
X136407085Y-100733419D01*
X136407085Y-100733419D02*
X136454704Y-100828657D01*
X136454704Y-100828657D02*
X136454704Y-100923895D01*
X136454704Y-100923895D02*
X136407085Y-101066752D01*
X136407085Y-101066752D02*
X135835657Y-101638180D01*
X135835657Y-101638180D02*
X136454704Y-101638180D01*
%TO.C,C8*%
X174762957Y-91736206D02*
X174715338Y-91783825D01*
X174715338Y-91783825D02*
X174572481Y-91831444D01*
X174572481Y-91831444D02*
X174477243Y-91831444D01*
X174477243Y-91831444D02*
X174334386Y-91783825D01*
X174334386Y-91783825D02*
X174239148Y-91688587D01*
X174239148Y-91688587D02*
X174191529Y-91593349D01*
X174191529Y-91593349D02*
X174143910Y-91402873D01*
X174143910Y-91402873D02*
X174143910Y-91260016D01*
X174143910Y-91260016D02*
X174191529Y-91069540D01*
X174191529Y-91069540D02*
X174239148Y-90974302D01*
X174239148Y-90974302D02*
X174334386Y-90879064D01*
X174334386Y-90879064D02*
X174477243Y-90831444D01*
X174477243Y-90831444D02*
X174572481Y-90831444D01*
X174572481Y-90831444D02*
X174715338Y-90879064D01*
X174715338Y-90879064D02*
X174762957Y-90926683D01*
X175334386Y-91260016D02*
X175239148Y-91212397D01*
X175239148Y-91212397D02*
X175191529Y-91164778D01*
X175191529Y-91164778D02*
X175143910Y-91069540D01*
X175143910Y-91069540D02*
X175143910Y-91021921D01*
X175143910Y-91021921D02*
X175191529Y-90926683D01*
X175191529Y-90926683D02*
X175239148Y-90879064D01*
X175239148Y-90879064D02*
X175334386Y-90831444D01*
X175334386Y-90831444D02*
X175524862Y-90831444D01*
X175524862Y-90831444D02*
X175620100Y-90879064D01*
X175620100Y-90879064D02*
X175667719Y-90926683D01*
X175667719Y-90926683D02*
X175715338Y-91021921D01*
X175715338Y-91021921D02*
X175715338Y-91069540D01*
X175715338Y-91069540D02*
X175667719Y-91164778D01*
X175667719Y-91164778D02*
X175620100Y-91212397D01*
X175620100Y-91212397D02*
X175524862Y-91260016D01*
X175524862Y-91260016D02*
X175334386Y-91260016D01*
X175334386Y-91260016D02*
X175239148Y-91307635D01*
X175239148Y-91307635D02*
X175191529Y-91355254D01*
X175191529Y-91355254D02*
X175143910Y-91450492D01*
X175143910Y-91450492D02*
X175143910Y-91640968D01*
X175143910Y-91640968D02*
X175191529Y-91736206D01*
X175191529Y-91736206D02*
X175239148Y-91783825D01*
X175239148Y-91783825D02*
X175334386Y-91831444D01*
X175334386Y-91831444D02*
X175524862Y-91831444D01*
X175524862Y-91831444D02*
X175620100Y-91783825D01*
X175620100Y-91783825D02*
X175667719Y-91736206D01*
X175667719Y-91736206D02*
X175715338Y-91640968D01*
X175715338Y-91640968D02*
X175715338Y-91450492D01*
X175715338Y-91450492D02*
X175667719Y-91355254D01*
X175667719Y-91355254D02*
X175620100Y-91307635D01*
X175620100Y-91307635D02*
X175524862Y-91260016D01*
%TO.C,R11*%
X120632641Y-97426090D02*
X120299308Y-96949900D01*
X120061213Y-97426090D02*
X120061213Y-96426090D01*
X120061213Y-96426090D02*
X120442165Y-96426090D01*
X120442165Y-96426090D02*
X120537403Y-96473710D01*
X120537403Y-96473710D02*
X120585022Y-96521329D01*
X120585022Y-96521329D02*
X120632641Y-96616567D01*
X120632641Y-96616567D02*
X120632641Y-96759424D01*
X120632641Y-96759424D02*
X120585022Y-96854662D01*
X120585022Y-96854662D02*
X120537403Y-96902281D01*
X120537403Y-96902281D02*
X120442165Y-96949900D01*
X120442165Y-96949900D02*
X120061213Y-96949900D01*
X121585022Y-97426090D02*
X121013594Y-97426090D01*
X121299308Y-97426090D02*
X121299308Y-96426090D01*
X121299308Y-96426090D02*
X121204070Y-96568948D01*
X121204070Y-96568948D02*
X121108832Y-96664186D01*
X121108832Y-96664186D02*
X121013594Y-96711805D01*
X122537403Y-97426090D02*
X121965975Y-97426090D01*
X122251689Y-97426090D02*
X122251689Y-96426090D01*
X122251689Y-96426090D02*
X122156451Y-96568948D01*
X122156451Y-96568948D02*
X122061213Y-96664186D01*
X122061213Y-96664186D02*
X121965975Y-96711805D01*
%TO.C,R12*%
X120546707Y-100433759D02*
X120213374Y-99957569D01*
X119975279Y-100433759D02*
X119975279Y-99433759D01*
X119975279Y-99433759D02*
X120356231Y-99433759D01*
X120356231Y-99433759D02*
X120451469Y-99481379D01*
X120451469Y-99481379D02*
X120499088Y-99528998D01*
X120499088Y-99528998D02*
X120546707Y-99624236D01*
X120546707Y-99624236D02*
X120546707Y-99767093D01*
X120546707Y-99767093D02*
X120499088Y-99862331D01*
X120499088Y-99862331D02*
X120451469Y-99909950D01*
X120451469Y-99909950D02*
X120356231Y-99957569D01*
X120356231Y-99957569D02*
X119975279Y-99957569D01*
X121499088Y-100433759D02*
X120927660Y-100433759D01*
X121213374Y-100433759D02*
X121213374Y-99433759D01*
X121213374Y-99433759D02*
X121118136Y-99576617D01*
X121118136Y-99576617D02*
X121022898Y-99671855D01*
X121022898Y-99671855D02*
X120927660Y-99719474D01*
X121880041Y-99528998D02*
X121927660Y-99481379D01*
X121927660Y-99481379D02*
X122022898Y-99433759D01*
X122022898Y-99433759D02*
X122260993Y-99433759D01*
X122260993Y-99433759D02*
X122356231Y-99481379D01*
X122356231Y-99481379D02*
X122403850Y-99528998D01*
X122403850Y-99528998D02*
X122451469Y-99624236D01*
X122451469Y-99624236D02*
X122451469Y-99719474D01*
X122451469Y-99719474D02*
X122403850Y-99862331D01*
X122403850Y-99862331D02*
X121832422Y-100433759D01*
X121832422Y-100433759D02*
X122451469Y-100433759D01*
%TO.C,Buzzer*%
X132343571Y-66083571D02*
X132391190Y-65940714D01*
X132391190Y-65940714D02*
X132438809Y-65893095D01*
X132438809Y-65893095D02*
X132534047Y-65845476D01*
X132534047Y-65845476D02*
X132676904Y-65845476D01*
X132676904Y-65845476D02*
X132772142Y-65893095D01*
X132772142Y-65893095D02*
X132819761Y-65940714D01*
X132819761Y-65940714D02*
X132867380Y-66035952D01*
X132867380Y-66035952D02*
X132867380Y-66416904D01*
X132867380Y-66416904D02*
X131867380Y-66416904D01*
X131867380Y-66416904D02*
X131867380Y-66083571D01*
X131867380Y-66083571D02*
X131915000Y-65988333D01*
X131915000Y-65988333D02*
X131962619Y-65940714D01*
X131962619Y-65940714D02*
X132057857Y-65893095D01*
X132057857Y-65893095D02*
X132153095Y-65893095D01*
X132153095Y-65893095D02*
X132248333Y-65940714D01*
X132248333Y-65940714D02*
X132295952Y-65988333D01*
X132295952Y-65988333D02*
X132343571Y-66083571D01*
X132343571Y-66083571D02*
X132343571Y-66416904D01*
X132200714Y-64988333D02*
X132867380Y-64988333D01*
X132200714Y-65416904D02*
X132724523Y-65416904D01*
X132724523Y-65416904D02*
X132819761Y-65369285D01*
X132819761Y-65369285D02*
X132867380Y-65274047D01*
X132867380Y-65274047D02*
X132867380Y-65131190D01*
X132867380Y-65131190D02*
X132819761Y-65035952D01*
X132819761Y-65035952D02*
X132772142Y-64988333D01*
X132200714Y-64607380D02*
X132200714Y-64083571D01*
X132200714Y-64083571D02*
X132867380Y-64607380D01*
X132867380Y-64607380D02*
X132867380Y-64083571D01*
X132200714Y-63797856D02*
X132200714Y-63274047D01*
X132200714Y-63274047D02*
X132867380Y-63797856D01*
X132867380Y-63797856D02*
X132867380Y-63274047D01*
X132819761Y-62512142D02*
X132867380Y-62607380D01*
X132867380Y-62607380D02*
X132867380Y-62797856D01*
X132867380Y-62797856D02*
X132819761Y-62893094D01*
X132819761Y-62893094D02*
X132724523Y-62940713D01*
X132724523Y-62940713D02*
X132343571Y-62940713D01*
X132343571Y-62940713D02*
X132248333Y-62893094D01*
X132248333Y-62893094D02*
X132200714Y-62797856D01*
X132200714Y-62797856D02*
X132200714Y-62607380D01*
X132200714Y-62607380D02*
X132248333Y-62512142D01*
X132248333Y-62512142D02*
X132343571Y-62464523D01*
X132343571Y-62464523D02*
X132438809Y-62464523D01*
X132438809Y-62464523D02*
X132534047Y-62940713D01*
X132867380Y-62035951D02*
X132200714Y-62035951D01*
X132391190Y-62035951D02*
X132295952Y-61988332D01*
X132295952Y-61988332D02*
X132248333Y-61940713D01*
X132248333Y-61940713D02*
X132200714Y-61845475D01*
X132200714Y-61845475D02*
X132200714Y-61750237D01*
X137146428Y-68345951D02*
X137146428Y-67584047D01*
X137527380Y-67964999D02*
X136765476Y-67964999D01*
%TO.C,R13*%
X163859868Y-96841912D02*
X163526535Y-96365722D01*
X163288440Y-96841912D02*
X163288440Y-95841912D01*
X163288440Y-95841912D02*
X163669392Y-95841912D01*
X163669392Y-95841912D02*
X163764630Y-95889532D01*
X163764630Y-95889532D02*
X163812249Y-95937151D01*
X163812249Y-95937151D02*
X163859868Y-96032389D01*
X163859868Y-96032389D02*
X163859868Y-96175246D01*
X163859868Y-96175246D02*
X163812249Y-96270484D01*
X163812249Y-96270484D02*
X163764630Y-96318103D01*
X163764630Y-96318103D02*
X163669392Y-96365722D01*
X163669392Y-96365722D02*
X163288440Y-96365722D01*
X164812249Y-96841912D02*
X164240821Y-96841912D01*
X164526535Y-96841912D02*
X164526535Y-95841912D01*
X164526535Y-95841912D02*
X164431297Y-95984770D01*
X164431297Y-95984770D02*
X164336059Y-96080008D01*
X164336059Y-96080008D02*
X164240821Y-96127627D01*
X165145583Y-95841912D02*
X165764630Y-95841912D01*
X165764630Y-95841912D02*
X165431297Y-96222865D01*
X165431297Y-96222865D02*
X165574154Y-96222865D01*
X165574154Y-96222865D02*
X165669392Y-96270484D01*
X165669392Y-96270484D02*
X165717011Y-96318103D01*
X165717011Y-96318103D02*
X165764630Y-96413341D01*
X165764630Y-96413341D02*
X165764630Y-96651436D01*
X165764630Y-96651436D02*
X165717011Y-96746674D01*
X165717011Y-96746674D02*
X165669392Y-96794293D01*
X165669392Y-96794293D02*
X165574154Y-96841912D01*
X165574154Y-96841912D02*
X165288440Y-96841912D01*
X165288440Y-96841912D02*
X165193202Y-96794293D01*
X165193202Y-96794293D02*
X165145583Y-96746674D01*
%TO.C,D2*%
X141138071Y-81808828D02*
X141138071Y-80808828D01*
X141138071Y-80808828D02*
X141376166Y-80808828D01*
X141376166Y-80808828D02*
X141519023Y-80856448D01*
X141519023Y-80856448D02*
X141614261Y-80951686D01*
X141614261Y-80951686D02*
X141661880Y-81046924D01*
X141661880Y-81046924D02*
X141709499Y-81237400D01*
X141709499Y-81237400D02*
X141709499Y-81380257D01*
X141709499Y-81380257D02*
X141661880Y-81570733D01*
X141661880Y-81570733D02*
X141614261Y-81665971D01*
X141614261Y-81665971D02*
X141519023Y-81761209D01*
X141519023Y-81761209D02*
X141376166Y-81808828D01*
X141376166Y-81808828D02*
X141138071Y-81808828D01*
X142090452Y-80904067D02*
X142138071Y-80856448D01*
X142138071Y-80856448D02*
X142233309Y-80808828D01*
X142233309Y-80808828D02*
X142471404Y-80808828D01*
X142471404Y-80808828D02*
X142566642Y-80856448D01*
X142566642Y-80856448D02*
X142614261Y-80904067D01*
X142614261Y-80904067D02*
X142661880Y-80999305D01*
X142661880Y-80999305D02*
X142661880Y-81094543D01*
X142661880Y-81094543D02*
X142614261Y-81237400D01*
X142614261Y-81237400D02*
X142042833Y-81808828D01*
X142042833Y-81808828D02*
X142661880Y-81808828D01*
%TO.C,R14*%
X159377142Y-113471187D02*
X159043809Y-112994997D01*
X158805714Y-113471187D02*
X158805714Y-112471187D01*
X158805714Y-112471187D02*
X159186666Y-112471187D01*
X159186666Y-112471187D02*
X159281904Y-112518807D01*
X159281904Y-112518807D02*
X159329523Y-112566426D01*
X159329523Y-112566426D02*
X159377142Y-112661664D01*
X159377142Y-112661664D02*
X159377142Y-112804521D01*
X159377142Y-112804521D02*
X159329523Y-112899759D01*
X159329523Y-112899759D02*
X159281904Y-112947378D01*
X159281904Y-112947378D02*
X159186666Y-112994997D01*
X159186666Y-112994997D02*
X158805714Y-112994997D01*
X160329523Y-113471187D02*
X159758095Y-113471187D01*
X160043809Y-113471187D02*
X160043809Y-112471187D01*
X160043809Y-112471187D02*
X159948571Y-112614045D01*
X159948571Y-112614045D02*
X159853333Y-112709283D01*
X159853333Y-112709283D02*
X159758095Y-112756902D01*
X161186666Y-112804521D02*
X161186666Y-113471187D01*
X160948571Y-112423568D02*
X160710476Y-113137854D01*
X160710476Y-113137854D02*
X161329523Y-113137854D01*
%TO.C,R2*%
X168146735Y-89458682D02*
X167813402Y-88982492D01*
X167575307Y-89458682D02*
X167575307Y-88458682D01*
X167575307Y-88458682D02*
X167956259Y-88458682D01*
X167956259Y-88458682D02*
X168051497Y-88506302D01*
X168051497Y-88506302D02*
X168099116Y-88553921D01*
X168099116Y-88553921D02*
X168146735Y-88649159D01*
X168146735Y-88649159D02*
X168146735Y-88792016D01*
X168146735Y-88792016D02*
X168099116Y-88887254D01*
X168099116Y-88887254D02*
X168051497Y-88934873D01*
X168051497Y-88934873D02*
X167956259Y-88982492D01*
X167956259Y-88982492D02*
X167575307Y-88982492D01*
X168527688Y-88553921D02*
X168575307Y-88506302D01*
X168575307Y-88506302D02*
X168670545Y-88458682D01*
X168670545Y-88458682D02*
X168908640Y-88458682D01*
X168908640Y-88458682D02*
X169003878Y-88506302D01*
X169003878Y-88506302D02*
X169051497Y-88553921D01*
X169051497Y-88553921D02*
X169099116Y-88649159D01*
X169099116Y-88649159D02*
X169099116Y-88744397D01*
X169099116Y-88744397D02*
X169051497Y-88887254D01*
X169051497Y-88887254D02*
X168480069Y-89458682D01*
X168480069Y-89458682D02*
X169099116Y-89458682D01*
%TO.C,C6*%
X173527406Y-98073431D02*
X173575025Y-98121050D01*
X173575025Y-98121050D02*
X173622644Y-98263907D01*
X173622644Y-98263907D02*
X173622644Y-98359145D01*
X173622644Y-98359145D02*
X173575025Y-98502002D01*
X173575025Y-98502002D02*
X173479787Y-98597240D01*
X173479787Y-98597240D02*
X173384549Y-98644859D01*
X173384549Y-98644859D02*
X173194073Y-98692478D01*
X173194073Y-98692478D02*
X173051216Y-98692478D01*
X173051216Y-98692478D02*
X172860740Y-98644859D01*
X172860740Y-98644859D02*
X172765502Y-98597240D01*
X172765502Y-98597240D02*
X172670264Y-98502002D01*
X172670264Y-98502002D02*
X172622644Y-98359145D01*
X172622644Y-98359145D02*
X172622644Y-98263907D01*
X172622644Y-98263907D02*
X172670264Y-98121050D01*
X172670264Y-98121050D02*
X172717883Y-98073431D01*
X172622644Y-97216288D02*
X172622644Y-97406764D01*
X172622644Y-97406764D02*
X172670264Y-97502002D01*
X172670264Y-97502002D02*
X172717883Y-97549621D01*
X172717883Y-97549621D02*
X172860740Y-97644859D01*
X172860740Y-97644859D02*
X173051216Y-97692478D01*
X173051216Y-97692478D02*
X173432168Y-97692478D01*
X173432168Y-97692478D02*
X173527406Y-97644859D01*
X173527406Y-97644859D02*
X173575025Y-97597240D01*
X173575025Y-97597240D02*
X173622644Y-97502002D01*
X173622644Y-97502002D02*
X173622644Y-97311526D01*
X173622644Y-97311526D02*
X173575025Y-97216288D01*
X173575025Y-97216288D02*
X173527406Y-97168669D01*
X173527406Y-97168669D02*
X173432168Y-97121050D01*
X173432168Y-97121050D02*
X173194073Y-97121050D01*
X173194073Y-97121050D02*
X173098835Y-97168669D01*
X173098835Y-97168669D02*
X173051216Y-97216288D01*
X173051216Y-97216288D02*
X173003597Y-97311526D01*
X173003597Y-97311526D02*
X173003597Y-97502002D01*
X173003597Y-97502002D02*
X173051216Y-97597240D01*
X173051216Y-97597240D02*
X173098835Y-97644859D01*
X173098835Y-97644859D02*
X173194073Y-97692478D01*
%TO.C,C14*%
X183134842Y-120342642D02*
X183087223Y-120390261D01*
X183087223Y-120390261D02*
X182944366Y-120437880D01*
X182944366Y-120437880D02*
X182849128Y-120437880D01*
X182849128Y-120437880D02*
X182706271Y-120390261D01*
X182706271Y-120390261D02*
X182611033Y-120295023D01*
X182611033Y-120295023D02*
X182563414Y-120199785D01*
X182563414Y-120199785D02*
X182515795Y-120009309D01*
X182515795Y-120009309D02*
X182515795Y-119866452D01*
X182515795Y-119866452D02*
X182563414Y-119675976D01*
X182563414Y-119675976D02*
X182611033Y-119580738D01*
X182611033Y-119580738D02*
X182706271Y-119485500D01*
X182706271Y-119485500D02*
X182849128Y-119437880D01*
X182849128Y-119437880D02*
X182944366Y-119437880D01*
X182944366Y-119437880D02*
X183087223Y-119485500D01*
X183087223Y-119485500D02*
X183134842Y-119533119D01*
X184087223Y-120437880D02*
X183515795Y-120437880D01*
X183801509Y-120437880D02*
X183801509Y-119437880D01*
X183801509Y-119437880D02*
X183706271Y-119580738D01*
X183706271Y-119580738D02*
X183611033Y-119675976D01*
X183611033Y-119675976D02*
X183515795Y-119723595D01*
X184944366Y-119771214D02*
X184944366Y-120437880D01*
X184706271Y-119390261D02*
X184468176Y-120104547D01*
X184468176Y-120104547D02*
X185087223Y-120104547D01*
%TO.C,Y1*%
X160424261Y-110289428D02*
X160900451Y-110289428D01*
X159900451Y-110622761D02*
X160424261Y-110289428D01*
X160424261Y-110289428D02*
X159900451Y-109956095D01*
X160900451Y-109098952D02*
X160900451Y-109670380D01*
X160900451Y-109384666D02*
X159900451Y-109384666D01*
X159900451Y-109384666D02*
X160043309Y-109479904D01*
X160043309Y-109479904D02*
X160138547Y-109575142D01*
X160138547Y-109575142D02*
X160186166Y-109670380D01*
%TO.C,R5*%
X121469020Y-78869821D02*
X121135687Y-78393631D01*
X120897592Y-78869821D02*
X120897592Y-77869821D01*
X120897592Y-77869821D02*
X121278544Y-77869821D01*
X121278544Y-77869821D02*
X121373782Y-77917441D01*
X121373782Y-77917441D02*
X121421401Y-77965060D01*
X121421401Y-77965060D02*
X121469020Y-78060298D01*
X121469020Y-78060298D02*
X121469020Y-78203155D01*
X121469020Y-78203155D02*
X121421401Y-78298393D01*
X121421401Y-78298393D02*
X121373782Y-78346012D01*
X121373782Y-78346012D02*
X121278544Y-78393631D01*
X121278544Y-78393631D02*
X120897592Y-78393631D01*
X122373782Y-77869821D02*
X121897592Y-77869821D01*
X121897592Y-77869821D02*
X121849973Y-78346012D01*
X121849973Y-78346012D02*
X121897592Y-78298393D01*
X121897592Y-78298393D02*
X121992830Y-78250774D01*
X121992830Y-78250774D02*
X122230925Y-78250774D01*
X122230925Y-78250774D02*
X122326163Y-78298393D01*
X122326163Y-78298393D02*
X122373782Y-78346012D01*
X122373782Y-78346012D02*
X122421401Y-78441250D01*
X122421401Y-78441250D02*
X122421401Y-78679345D01*
X122421401Y-78679345D02*
X122373782Y-78774583D01*
X122373782Y-78774583D02*
X122326163Y-78822202D01*
X122326163Y-78822202D02*
X122230925Y-78869821D01*
X122230925Y-78869821D02*
X121992830Y-78869821D01*
X121992830Y-78869821D02*
X121897592Y-78822202D01*
X121897592Y-78822202D02*
X121849973Y-78774583D01*
%TO.C,R4*%
X141784539Y-75580489D02*
X141451206Y-75104299D01*
X141213111Y-75580489D02*
X141213111Y-74580489D01*
X141213111Y-74580489D02*
X141594063Y-74580489D01*
X141594063Y-74580489D02*
X141689301Y-74628109D01*
X141689301Y-74628109D02*
X141736920Y-74675728D01*
X141736920Y-74675728D02*
X141784539Y-74770966D01*
X141784539Y-74770966D02*
X141784539Y-74913823D01*
X141784539Y-74913823D02*
X141736920Y-75009061D01*
X141736920Y-75009061D02*
X141689301Y-75056680D01*
X141689301Y-75056680D02*
X141594063Y-75104299D01*
X141594063Y-75104299D02*
X141213111Y-75104299D01*
X142641682Y-74913823D02*
X142641682Y-75580489D01*
X142403587Y-74532870D02*
X142165492Y-75247156D01*
X142165492Y-75247156D02*
X142784539Y-75247156D01*
%TO.C,R10*%
X120632641Y-94375454D02*
X120299308Y-93899264D01*
X120061213Y-94375454D02*
X120061213Y-93375454D01*
X120061213Y-93375454D02*
X120442165Y-93375454D01*
X120442165Y-93375454D02*
X120537403Y-93423074D01*
X120537403Y-93423074D02*
X120585022Y-93470693D01*
X120585022Y-93470693D02*
X120632641Y-93565931D01*
X120632641Y-93565931D02*
X120632641Y-93708788D01*
X120632641Y-93708788D02*
X120585022Y-93804026D01*
X120585022Y-93804026D02*
X120537403Y-93851645D01*
X120537403Y-93851645D02*
X120442165Y-93899264D01*
X120442165Y-93899264D02*
X120061213Y-93899264D01*
X121585022Y-94375454D02*
X121013594Y-94375454D01*
X121299308Y-94375454D02*
X121299308Y-93375454D01*
X121299308Y-93375454D02*
X121204070Y-93518312D01*
X121204070Y-93518312D02*
X121108832Y-93613550D01*
X121108832Y-93613550D02*
X121013594Y-93661169D01*
X122204070Y-93375454D02*
X122299308Y-93375454D01*
X122299308Y-93375454D02*
X122394546Y-93423074D01*
X122394546Y-93423074D02*
X122442165Y-93470693D01*
X122442165Y-93470693D02*
X122489784Y-93565931D01*
X122489784Y-93565931D02*
X122537403Y-93756407D01*
X122537403Y-93756407D02*
X122537403Y-93994502D01*
X122537403Y-93994502D02*
X122489784Y-94184978D01*
X122489784Y-94184978D02*
X122442165Y-94280216D01*
X122442165Y-94280216D02*
X122394546Y-94327835D01*
X122394546Y-94327835D02*
X122299308Y-94375454D01*
X122299308Y-94375454D02*
X122204070Y-94375454D01*
X122204070Y-94375454D02*
X122108832Y-94327835D01*
X122108832Y-94327835D02*
X122061213Y-94280216D01*
X122061213Y-94280216D02*
X122013594Y-94184978D01*
X122013594Y-94184978D02*
X121965975Y-93994502D01*
X121965975Y-93994502D02*
X121965975Y-93756407D01*
X121965975Y-93756407D02*
X122013594Y-93565931D01*
X122013594Y-93565931D02*
X122061213Y-93470693D01*
X122061213Y-93470693D02*
X122108832Y-93423074D01*
X122108832Y-93423074D02*
X122204070Y-93375454D01*
D12*
%TO.C,C2*%
X162214207Y-93245991D02*
X162190398Y-93269800D01*
X162190398Y-93269800D02*
X162118969Y-93293610D01*
X162118969Y-93293610D02*
X162071350Y-93293610D01*
X162071350Y-93293610D02*
X161999922Y-93269800D01*
X161999922Y-93269800D02*
X161952303Y-93222181D01*
X161952303Y-93222181D02*
X161928493Y-93174562D01*
X161928493Y-93174562D02*
X161904684Y-93079324D01*
X161904684Y-93079324D02*
X161904684Y-93007896D01*
X161904684Y-93007896D02*
X161928493Y-92912658D01*
X161928493Y-92912658D02*
X161952303Y-92865039D01*
X161952303Y-92865039D02*
X161999922Y-92817420D01*
X161999922Y-92817420D02*
X162071350Y-92793610D01*
X162071350Y-92793610D02*
X162118969Y-92793610D01*
X162118969Y-92793610D02*
X162190398Y-92817420D01*
X162190398Y-92817420D02*
X162214207Y-92841229D01*
X162404684Y-92841229D02*
X162428493Y-92817420D01*
X162428493Y-92817420D02*
X162476112Y-92793610D01*
X162476112Y-92793610D02*
X162595160Y-92793610D01*
X162595160Y-92793610D02*
X162642779Y-92817420D01*
X162642779Y-92817420D02*
X162666588Y-92841229D01*
X162666588Y-92841229D02*
X162690398Y-92888848D01*
X162690398Y-92888848D02*
X162690398Y-92936467D01*
X162690398Y-92936467D02*
X162666588Y-93007896D01*
X162666588Y-93007896D02*
X162380874Y-93293610D01*
X162380874Y-93293610D02*
X162690398Y-93293610D01*
D11*
%TO.C,RST*%
X182518734Y-102735085D02*
X182042544Y-103068418D01*
X182518734Y-103306513D02*
X181518734Y-103306513D01*
X181518734Y-103306513D02*
X181518734Y-102925561D01*
X181518734Y-102925561D02*
X181566354Y-102830323D01*
X181566354Y-102830323D02*
X181613973Y-102782704D01*
X181613973Y-102782704D02*
X181709211Y-102735085D01*
X181709211Y-102735085D02*
X181852068Y-102735085D01*
X181852068Y-102735085D02*
X181947306Y-102782704D01*
X181947306Y-102782704D02*
X181994925Y-102830323D01*
X181994925Y-102830323D02*
X182042544Y-102925561D01*
X182042544Y-102925561D02*
X182042544Y-103306513D01*
X182471115Y-102354132D02*
X182518734Y-102211275D01*
X182518734Y-102211275D02*
X182518734Y-101973180D01*
X182518734Y-101973180D02*
X182471115Y-101877942D01*
X182471115Y-101877942D02*
X182423496Y-101830323D01*
X182423496Y-101830323D02*
X182328258Y-101782704D01*
X182328258Y-101782704D02*
X182233020Y-101782704D01*
X182233020Y-101782704D02*
X182137782Y-101830323D01*
X182137782Y-101830323D02*
X182090163Y-101877942D01*
X182090163Y-101877942D02*
X182042544Y-101973180D01*
X182042544Y-101973180D02*
X181994925Y-102163656D01*
X181994925Y-102163656D02*
X181947306Y-102258894D01*
X181947306Y-102258894D02*
X181899687Y-102306513D01*
X181899687Y-102306513D02*
X181804449Y-102354132D01*
X181804449Y-102354132D02*
X181709211Y-102354132D01*
X181709211Y-102354132D02*
X181613973Y-102306513D01*
X181613973Y-102306513D02*
X181566354Y-102258894D01*
X181566354Y-102258894D02*
X181518734Y-102163656D01*
X181518734Y-102163656D02*
X181518734Y-101925561D01*
X181518734Y-101925561D02*
X181566354Y-101782704D01*
X181518734Y-101496989D02*
X181518734Y-100925561D01*
X182518734Y-101211275D02*
X181518734Y-101211275D01*
%TO.C,C11*%
X164435839Y-75042812D02*
X164471553Y-75078526D01*
X164471553Y-75078526D02*
X164507267Y-75185669D01*
X164507267Y-75185669D02*
X164507267Y-75257097D01*
X164507267Y-75257097D02*
X164471553Y-75364240D01*
X164471553Y-75364240D02*
X164400124Y-75435669D01*
X164400124Y-75435669D02*
X164328696Y-75471383D01*
X164328696Y-75471383D02*
X164185839Y-75507097D01*
X164185839Y-75507097D02*
X164078696Y-75507097D01*
X164078696Y-75507097D02*
X163935839Y-75471383D01*
X163935839Y-75471383D02*
X163864410Y-75435669D01*
X163864410Y-75435669D02*
X163792982Y-75364240D01*
X163792982Y-75364240D02*
X163757267Y-75257097D01*
X163757267Y-75257097D02*
X163757267Y-75185669D01*
X163757267Y-75185669D02*
X163792982Y-75078526D01*
X163792982Y-75078526D02*
X163828696Y-75042812D01*
X164507267Y-74328526D02*
X164507267Y-74757097D01*
X164507267Y-74542812D02*
X163757267Y-74542812D01*
X163757267Y-74542812D02*
X163864410Y-74614240D01*
X163864410Y-74614240D02*
X163935839Y-74685669D01*
X163935839Y-74685669D02*
X163971553Y-74757097D01*
X164507267Y-73614240D02*
X164507267Y-74042811D01*
X164507267Y-73828526D02*
X163757267Y-73828526D01*
X163757267Y-73828526D02*
X163864410Y-73899954D01*
X163864410Y-73899954D02*
X163935839Y-73971383D01*
X163935839Y-73971383D02*
X163971553Y-74042811D01*
%TO.C,C4*%
X169223840Y-98178907D02*
X169176221Y-98226526D01*
X169176221Y-98226526D02*
X169033364Y-98274145D01*
X169033364Y-98274145D02*
X168938126Y-98274145D01*
X168938126Y-98274145D02*
X168795269Y-98226526D01*
X168795269Y-98226526D02*
X168700031Y-98131288D01*
X168700031Y-98131288D02*
X168652412Y-98036050D01*
X168652412Y-98036050D02*
X168604793Y-97845574D01*
X168604793Y-97845574D02*
X168604793Y-97702717D01*
X168604793Y-97702717D02*
X168652412Y-97512241D01*
X168652412Y-97512241D02*
X168700031Y-97417003D01*
X168700031Y-97417003D02*
X168795269Y-97321765D01*
X168795269Y-97321765D02*
X168938126Y-97274145D01*
X168938126Y-97274145D02*
X169033364Y-97274145D01*
X169033364Y-97274145D02*
X169176221Y-97321765D01*
X169176221Y-97321765D02*
X169223840Y-97369384D01*
X170080983Y-97607479D02*
X170080983Y-98274145D01*
X169842888Y-97226526D02*
X169604793Y-97940812D01*
X169604793Y-97940812D02*
X170223840Y-97940812D01*
%TO.C,C10*%
X154904586Y-101737587D02*
X154952205Y-101785206D01*
X154952205Y-101785206D02*
X154999824Y-101928063D01*
X154999824Y-101928063D02*
X154999824Y-102023301D01*
X154999824Y-102023301D02*
X154952205Y-102166158D01*
X154952205Y-102166158D02*
X154856967Y-102261396D01*
X154856967Y-102261396D02*
X154761729Y-102309015D01*
X154761729Y-102309015D02*
X154571253Y-102356634D01*
X154571253Y-102356634D02*
X154428396Y-102356634D01*
X154428396Y-102356634D02*
X154237920Y-102309015D01*
X154237920Y-102309015D02*
X154142682Y-102261396D01*
X154142682Y-102261396D02*
X154047444Y-102166158D01*
X154047444Y-102166158D02*
X153999824Y-102023301D01*
X153999824Y-102023301D02*
X153999824Y-101928063D01*
X153999824Y-101928063D02*
X154047444Y-101785206D01*
X154047444Y-101785206D02*
X154095063Y-101737587D01*
X154999824Y-100785206D02*
X154999824Y-101356634D01*
X154999824Y-101070920D02*
X153999824Y-101070920D01*
X153999824Y-101070920D02*
X154142682Y-101166158D01*
X154142682Y-101166158D02*
X154237920Y-101261396D01*
X154237920Y-101261396D02*
X154285539Y-101356634D01*
X153999824Y-100166158D02*
X153999824Y-100070920D01*
X153999824Y-100070920D02*
X154047444Y-99975682D01*
X154047444Y-99975682D02*
X154095063Y-99928063D01*
X154095063Y-99928063D02*
X154190301Y-99880444D01*
X154190301Y-99880444D02*
X154380777Y-99832825D01*
X154380777Y-99832825D02*
X154618872Y-99832825D01*
X154618872Y-99832825D02*
X154809348Y-99880444D01*
X154809348Y-99880444D02*
X154904586Y-99928063D01*
X154904586Y-99928063D02*
X154952205Y-99975682D01*
X154952205Y-99975682D02*
X154999824Y-100070920D01*
X154999824Y-100070920D02*
X154999824Y-100166158D01*
X154999824Y-100166158D02*
X154952205Y-100261396D01*
X154952205Y-100261396D02*
X154904586Y-100309015D01*
X154904586Y-100309015D02*
X154809348Y-100356634D01*
X154809348Y-100356634D02*
X154618872Y-100404253D01*
X154618872Y-100404253D02*
X154380777Y-100404253D01*
X154380777Y-100404253D02*
X154190301Y-100356634D01*
X154190301Y-100356634D02*
X154095063Y-100309015D01*
X154095063Y-100309015D02*
X154047444Y-100261396D01*
X154047444Y-100261396D02*
X153999824Y-100166158D01*
%TO.C,U4*%
X156847380Y-104564188D02*
X157656904Y-104564188D01*
X157656904Y-104564188D02*
X157752142Y-104516569D01*
X157752142Y-104516569D02*
X157799761Y-104468950D01*
X157799761Y-104468950D02*
X157847380Y-104373712D01*
X157847380Y-104373712D02*
X157847380Y-104183236D01*
X157847380Y-104183236D02*
X157799761Y-104087998D01*
X157799761Y-104087998D02*
X157752142Y-104040379D01*
X157752142Y-104040379D02*
X157656904Y-103992760D01*
X157656904Y-103992760D02*
X156847380Y-103992760D01*
X157180714Y-103087998D02*
X157847380Y-103087998D01*
X156799761Y-103326093D02*
X157514047Y-103564188D01*
X157514047Y-103564188D02*
X157514047Y-102945141D01*
%TO.C,R9*%
X121581466Y-89863949D02*
X121248133Y-89387759D01*
X121010038Y-89863949D02*
X121010038Y-88863949D01*
X121010038Y-88863949D02*
X121390990Y-88863949D01*
X121390990Y-88863949D02*
X121486228Y-88911569D01*
X121486228Y-88911569D02*
X121533847Y-88959188D01*
X121533847Y-88959188D02*
X121581466Y-89054426D01*
X121581466Y-89054426D02*
X121581466Y-89197283D01*
X121581466Y-89197283D02*
X121533847Y-89292521D01*
X121533847Y-89292521D02*
X121486228Y-89340140D01*
X121486228Y-89340140D02*
X121390990Y-89387759D01*
X121390990Y-89387759D02*
X121010038Y-89387759D01*
X122057657Y-89863949D02*
X122248133Y-89863949D01*
X122248133Y-89863949D02*
X122343371Y-89816330D01*
X122343371Y-89816330D02*
X122390990Y-89768711D01*
X122390990Y-89768711D02*
X122486228Y-89625854D01*
X122486228Y-89625854D02*
X122533847Y-89435378D01*
X122533847Y-89435378D02*
X122533847Y-89054426D01*
X122533847Y-89054426D02*
X122486228Y-88959188D01*
X122486228Y-88959188D02*
X122438609Y-88911569D01*
X122438609Y-88911569D02*
X122343371Y-88863949D01*
X122343371Y-88863949D02*
X122152895Y-88863949D01*
X122152895Y-88863949D02*
X122057657Y-88911569D01*
X122057657Y-88911569D02*
X122010038Y-88959188D01*
X122010038Y-88959188D02*
X121962419Y-89054426D01*
X121962419Y-89054426D02*
X121962419Y-89292521D01*
X121962419Y-89292521D02*
X122010038Y-89387759D01*
X122010038Y-89387759D02*
X122057657Y-89435378D01*
X122057657Y-89435378D02*
X122152895Y-89482997D01*
X122152895Y-89482997D02*
X122343371Y-89482997D01*
X122343371Y-89482997D02*
X122438609Y-89435378D01*
X122438609Y-89435378D02*
X122486228Y-89387759D01*
X122486228Y-89387759D02*
X122533847Y-89292521D01*
%TO.C,R7*%
X121495416Y-84597631D02*
X121162083Y-84121441D01*
X120923988Y-84597631D02*
X120923988Y-83597631D01*
X120923988Y-83597631D02*
X121304940Y-83597631D01*
X121304940Y-83597631D02*
X121400178Y-83645251D01*
X121400178Y-83645251D02*
X121447797Y-83692870D01*
X121447797Y-83692870D02*
X121495416Y-83788108D01*
X121495416Y-83788108D02*
X121495416Y-83930965D01*
X121495416Y-83930965D02*
X121447797Y-84026203D01*
X121447797Y-84026203D02*
X121400178Y-84073822D01*
X121400178Y-84073822D02*
X121304940Y-84121441D01*
X121304940Y-84121441D02*
X120923988Y-84121441D01*
X121828750Y-83597631D02*
X122495416Y-83597631D01*
X122495416Y-83597631D02*
X122066845Y-84597631D01*
%TO.C,C7*%
X166853335Y-74908063D02*
X166900954Y-74955682D01*
X166900954Y-74955682D02*
X166948573Y-75098539D01*
X166948573Y-75098539D02*
X166948573Y-75193777D01*
X166948573Y-75193777D02*
X166900954Y-75336634D01*
X166900954Y-75336634D02*
X166805716Y-75431872D01*
X166805716Y-75431872D02*
X166710478Y-75479491D01*
X166710478Y-75479491D02*
X166520002Y-75527110D01*
X166520002Y-75527110D02*
X166377145Y-75527110D01*
X166377145Y-75527110D02*
X166186669Y-75479491D01*
X166186669Y-75479491D02*
X166091431Y-75431872D01*
X166091431Y-75431872D02*
X165996193Y-75336634D01*
X165996193Y-75336634D02*
X165948573Y-75193777D01*
X165948573Y-75193777D02*
X165948573Y-75098539D01*
X165948573Y-75098539D02*
X165996193Y-74955682D01*
X165996193Y-74955682D02*
X166043812Y-74908063D01*
X165948573Y-74574729D02*
X165948573Y-73908063D01*
X165948573Y-73908063D02*
X166948573Y-74336634D01*
%TO.C,R8*%
X121495416Y-86234149D02*
X121162083Y-85757959D01*
X120923988Y-86234149D02*
X120923988Y-85234149D01*
X120923988Y-85234149D02*
X121304940Y-85234149D01*
X121304940Y-85234149D02*
X121400178Y-85281769D01*
X121400178Y-85281769D02*
X121447797Y-85329388D01*
X121447797Y-85329388D02*
X121495416Y-85424626D01*
X121495416Y-85424626D02*
X121495416Y-85567483D01*
X121495416Y-85567483D02*
X121447797Y-85662721D01*
X121447797Y-85662721D02*
X121400178Y-85710340D01*
X121400178Y-85710340D02*
X121304940Y-85757959D01*
X121304940Y-85757959D02*
X120923988Y-85757959D01*
X122066845Y-85662721D02*
X121971607Y-85615102D01*
X121971607Y-85615102D02*
X121923988Y-85567483D01*
X121923988Y-85567483D02*
X121876369Y-85472245D01*
X121876369Y-85472245D02*
X121876369Y-85424626D01*
X121876369Y-85424626D02*
X121923988Y-85329388D01*
X121923988Y-85329388D02*
X121971607Y-85281769D01*
X121971607Y-85281769D02*
X122066845Y-85234149D01*
X122066845Y-85234149D02*
X122257321Y-85234149D01*
X122257321Y-85234149D02*
X122352559Y-85281769D01*
X122352559Y-85281769D02*
X122400178Y-85329388D01*
X122400178Y-85329388D02*
X122447797Y-85424626D01*
X122447797Y-85424626D02*
X122447797Y-85472245D01*
X122447797Y-85472245D02*
X122400178Y-85567483D01*
X122400178Y-85567483D02*
X122352559Y-85615102D01*
X122352559Y-85615102D02*
X122257321Y-85662721D01*
X122257321Y-85662721D02*
X122066845Y-85662721D01*
X122066845Y-85662721D02*
X121971607Y-85710340D01*
X121971607Y-85710340D02*
X121923988Y-85757959D01*
X121923988Y-85757959D02*
X121876369Y-85853197D01*
X121876369Y-85853197D02*
X121876369Y-86043673D01*
X121876369Y-86043673D02*
X121923988Y-86138911D01*
X121923988Y-86138911D02*
X121971607Y-86186530D01*
X121971607Y-86186530D02*
X122066845Y-86234149D01*
X122066845Y-86234149D02*
X122257321Y-86234149D01*
X122257321Y-86234149D02*
X122352559Y-86186530D01*
X122352559Y-86186530D02*
X122400178Y-86138911D01*
X122400178Y-86138911D02*
X122447797Y-86043673D01*
X122447797Y-86043673D02*
X122447797Y-85853197D01*
X122447797Y-85853197D02*
X122400178Y-85757959D01*
X122400178Y-85757959D02*
X122352559Y-85710340D01*
X122352559Y-85710340D02*
X122257321Y-85662721D01*
%TO.C,J3*%
X177979166Y-106472380D02*
X177979166Y-107186666D01*
X177979166Y-107186666D02*
X177931547Y-107329523D01*
X177931547Y-107329523D02*
X177836309Y-107424761D01*
X177836309Y-107424761D02*
X177693452Y-107472380D01*
X177693452Y-107472380D02*
X177598214Y-107472380D01*
X178360119Y-106472380D02*
X178979166Y-106472380D01*
X178979166Y-106472380D02*
X178645833Y-106853333D01*
X178645833Y-106853333D02*
X178788690Y-106853333D01*
X178788690Y-106853333D02*
X178883928Y-106900952D01*
X178883928Y-106900952D02*
X178931547Y-106948571D01*
X178931547Y-106948571D02*
X178979166Y-107043809D01*
X178979166Y-107043809D02*
X178979166Y-107281904D01*
X178979166Y-107281904D02*
X178931547Y-107377142D01*
X178931547Y-107377142D02*
X178883928Y-107424761D01*
X178883928Y-107424761D02*
X178788690Y-107472380D01*
X178788690Y-107472380D02*
X178502976Y-107472380D01*
X178502976Y-107472380D02*
X178407738Y-107424761D01*
X178407738Y-107424761D02*
X178360119Y-107377142D01*
%TO.C,D3*%
X183741505Y-108157280D02*
X183741505Y-107157280D01*
X183741505Y-107157280D02*
X183979600Y-107157280D01*
X183979600Y-107157280D02*
X184122457Y-107204900D01*
X184122457Y-107204900D02*
X184217695Y-107300138D01*
X184217695Y-107300138D02*
X184265314Y-107395376D01*
X184265314Y-107395376D02*
X184312933Y-107585852D01*
X184312933Y-107585852D02*
X184312933Y-107728709D01*
X184312933Y-107728709D02*
X184265314Y-107919185D01*
X184265314Y-107919185D02*
X184217695Y-108014423D01*
X184217695Y-108014423D02*
X184122457Y-108109661D01*
X184122457Y-108109661D02*
X183979600Y-108157280D01*
X183979600Y-108157280D02*
X183741505Y-108157280D01*
X184646267Y-107157280D02*
X185265314Y-107157280D01*
X185265314Y-107157280D02*
X184931981Y-107538233D01*
X184931981Y-107538233D02*
X185074838Y-107538233D01*
X185074838Y-107538233D02*
X185170076Y-107585852D01*
X185170076Y-107585852D02*
X185217695Y-107633471D01*
X185217695Y-107633471D02*
X185265314Y-107728709D01*
X185265314Y-107728709D02*
X185265314Y-107966804D01*
X185265314Y-107966804D02*
X185217695Y-108062042D01*
X185217695Y-108062042D02*
X185170076Y-108109661D01*
X185170076Y-108109661D02*
X185074838Y-108157280D01*
X185074838Y-108157280D02*
X184789124Y-108157280D01*
X184789124Y-108157280D02*
X184693886Y-108109661D01*
X184693886Y-108109661D02*
X184646267Y-108062042D01*
%TO.C,R15*%
X154687966Y-112747900D02*
X154211776Y-113081233D01*
X154687966Y-113319328D02*
X153687966Y-113319328D01*
X153687966Y-113319328D02*
X153687966Y-112938376D01*
X153687966Y-112938376D02*
X153735586Y-112843138D01*
X153735586Y-112843138D02*
X153783205Y-112795519D01*
X153783205Y-112795519D02*
X153878443Y-112747900D01*
X153878443Y-112747900D02*
X154021300Y-112747900D01*
X154021300Y-112747900D02*
X154116538Y-112795519D01*
X154116538Y-112795519D02*
X154164157Y-112843138D01*
X154164157Y-112843138D02*
X154211776Y-112938376D01*
X154211776Y-112938376D02*
X154211776Y-113319328D01*
X154687966Y-111795519D02*
X154687966Y-112366947D01*
X154687966Y-112081233D02*
X153687966Y-112081233D01*
X153687966Y-112081233D02*
X153830824Y-112176471D01*
X153830824Y-112176471D02*
X153926062Y-112271709D01*
X153926062Y-112271709D02*
X153973681Y-112366947D01*
X153687966Y-110890757D02*
X153687966Y-111366947D01*
X153687966Y-111366947D02*
X154164157Y-111414566D01*
X154164157Y-111414566D02*
X154116538Y-111366947D01*
X154116538Y-111366947D02*
X154068919Y-111271709D01*
X154068919Y-111271709D02*
X154068919Y-111033614D01*
X154068919Y-111033614D02*
X154116538Y-110938376D01*
X154116538Y-110938376D02*
X154164157Y-110890757D01*
X154164157Y-110890757D02*
X154259395Y-110843138D01*
X154259395Y-110843138D02*
X154497490Y-110843138D01*
X154497490Y-110843138D02*
X154592728Y-110890757D01*
X154592728Y-110890757D02*
X154640347Y-110938376D01*
X154640347Y-110938376D02*
X154687966Y-111033614D01*
X154687966Y-111033614D02*
X154687966Y-111271709D01*
X154687966Y-111271709D02*
X154640347Y-111366947D01*
X154640347Y-111366947D02*
X154592728Y-111414566D01*
D13*
%TO.C,Start/Stop*%
X150266097Y-68993095D02*
X150326573Y-68811666D01*
X150326573Y-68811666D02*
X150326573Y-68509285D01*
X150326573Y-68509285D02*
X150266097Y-68388333D01*
X150266097Y-68388333D02*
X150205621Y-68327857D01*
X150205621Y-68327857D02*
X150084669Y-68267380D01*
X150084669Y-68267380D02*
X149963716Y-68267380D01*
X149963716Y-68267380D02*
X149842764Y-68327857D01*
X149842764Y-68327857D02*
X149782288Y-68388333D01*
X149782288Y-68388333D02*
X149721811Y-68509285D01*
X149721811Y-68509285D02*
X149661335Y-68751190D01*
X149661335Y-68751190D02*
X149600859Y-68872142D01*
X149600859Y-68872142D02*
X149540383Y-68932619D01*
X149540383Y-68932619D02*
X149419430Y-68993095D01*
X149419430Y-68993095D02*
X149298478Y-68993095D01*
X149298478Y-68993095D02*
X149177526Y-68932619D01*
X149177526Y-68932619D02*
X149117050Y-68872142D01*
X149117050Y-68872142D02*
X149056573Y-68751190D01*
X149056573Y-68751190D02*
X149056573Y-68448809D01*
X149056573Y-68448809D02*
X149117050Y-68267380D01*
X149479907Y-67904523D02*
X149479907Y-67420714D01*
X149056573Y-67723095D02*
X150145145Y-67723095D01*
X150145145Y-67723095D02*
X150266097Y-67662618D01*
X150266097Y-67662618D02*
X150326573Y-67541666D01*
X150326573Y-67541666D02*
X150326573Y-67420714D01*
X150326573Y-66453095D02*
X149661335Y-66453095D01*
X149661335Y-66453095D02*
X149540383Y-66513571D01*
X149540383Y-66513571D02*
X149479907Y-66634523D01*
X149479907Y-66634523D02*
X149479907Y-66876428D01*
X149479907Y-66876428D02*
X149540383Y-66997381D01*
X150266097Y-66453095D02*
X150326573Y-66574047D01*
X150326573Y-66574047D02*
X150326573Y-66876428D01*
X150326573Y-66876428D02*
X150266097Y-66997381D01*
X150266097Y-66997381D02*
X150145145Y-67057857D01*
X150145145Y-67057857D02*
X150024192Y-67057857D01*
X150024192Y-67057857D02*
X149903240Y-66997381D01*
X149903240Y-66997381D02*
X149842764Y-66876428D01*
X149842764Y-66876428D02*
X149842764Y-66574047D01*
X149842764Y-66574047D02*
X149782288Y-66453095D01*
X150326573Y-65848333D02*
X149479907Y-65848333D01*
X149721811Y-65848333D02*
X149600859Y-65787856D01*
X149600859Y-65787856D02*
X149540383Y-65727380D01*
X149540383Y-65727380D02*
X149479907Y-65606428D01*
X149479907Y-65606428D02*
X149479907Y-65485475D01*
X149479907Y-65243571D02*
X149479907Y-64759762D01*
X149056573Y-65062143D02*
X150145145Y-65062143D01*
X150145145Y-65062143D02*
X150266097Y-65001666D01*
X150266097Y-65001666D02*
X150326573Y-64880714D01*
X150326573Y-64880714D02*
X150326573Y-64759762D01*
X148996097Y-63429286D02*
X150628954Y-64517857D01*
X150266097Y-63066429D02*
X150326573Y-62885000D01*
X150326573Y-62885000D02*
X150326573Y-62582619D01*
X150326573Y-62582619D02*
X150266097Y-62461667D01*
X150266097Y-62461667D02*
X150205621Y-62401191D01*
X150205621Y-62401191D02*
X150084669Y-62340714D01*
X150084669Y-62340714D02*
X149963716Y-62340714D01*
X149963716Y-62340714D02*
X149842764Y-62401191D01*
X149842764Y-62401191D02*
X149782288Y-62461667D01*
X149782288Y-62461667D02*
X149721811Y-62582619D01*
X149721811Y-62582619D02*
X149661335Y-62824524D01*
X149661335Y-62824524D02*
X149600859Y-62945476D01*
X149600859Y-62945476D02*
X149540383Y-63005953D01*
X149540383Y-63005953D02*
X149419430Y-63066429D01*
X149419430Y-63066429D02*
X149298478Y-63066429D01*
X149298478Y-63066429D02*
X149177526Y-63005953D01*
X149177526Y-63005953D02*
X149117050Y-62945476D01*
X149117050Y-62945476D02*
X149056573Y-62824524D01*
X149056573Y-62824524D02*
X149056573Y-62522143D01*
X149056573Y-62522143D02*
X149117050Y-62340714D01*
X149479907Y-61977857D02*
X149479907Y-61494048D01*
X149056573Y-61796429D02*
X150145145Y-61796429D01*
X150145145Y-61796429D02*
X150266097Y-61735952D01*
X150266097Y-61735952D02*
X150326573Y-61615000D01*
X150326573Y-61615000D02*
X150326573Y-61494048D01*
X150326573Y-60889286D02*
X150266097Y-61010238D01*
X150266097Y-61010238D02*
X150205621Y-61070715D01*
X150205621Y-61070715D02*
X150084669Y-61131191D01*
X150084669Y-61131191D02*
X149721811Y-61131191D01*
X149721811Y-61131191D02*
X149600859Y-61070715D01*
X149600859Y-61070715D02*
X149540383Y-61010238D01*
X149540383Y-61010238D02*
X149479907Y-60889286D01*
X149479907Y-60889286D02*
X149479907Y-60707857D01*
X149479907Y-60707857D02*
X149540383Y-60586905D01*
X149540383Y-60586905D02*
X149600859Y-60526429D01*
X149600859Y-60526429D02*
X149721811Y-60465953D01*
X149721811Y-60465953D02*
X150084669Y-60465953D01*
X150084669Y-60465953D02*
X150205621Y-60526429D01*
X150205621Y-60526429D02*
X150266097Y-60586905D01*
X150266097Y-60586905D02*
X150326573Y-60707857D01*
X150326573Y-60707857D02*
X150326573Y-60889286D01*
X149479907Y-59921667D02*
X150749907Y-59921667D01*
X149540383Y-59921667D02*
X149479907Y-59800714D01*
X149479907Y-59800714D02*
X149479907Y-59558809D01*
X149479907Y-59558809D02*
X149540383Y-59437857D01*
X149540383Y-59437857D02*
X149600859Y-59377381D01*
X149600859Y-59377381D02*
X149721811Y-59316905D01*
X149721811Y-59316905D02*
X150084669Y-59316905D01*
X150084669Y-59316905D02*
X150205621Y-59377381D01*
X150205621Y-59377381D02*
X150266097Y-59437857D01*
X150266097Y-59437857D02*
X150326573Y-59558809D01*
X150326573Y-59558809D02*
X150326573Y-59800714D01*
X150326573Y-59800714D02*
X150266097Y-59921667D01*
D14*
%TO.C,R3*%
X136015000Y-76179564D02*
X136015000Y-75725436D01*
X137485000Y-76179564D02*
X137485000Y-75725436D01*
%TO.C,J1*%
X165552500Y-106005000D02*
X165552500Y-113745000D01*
X165552500Y-106005000D02*
X168152500Y-106005000D01*
X165552500Y-113745000D02*
X170752500Y-113745000D01*
X168152500Y-106005000D02*
X168152500Y-108605000D01*
X168152500Y-108605000D02*
X170752500Y-108605000D01*
X169422500Y-106005000D02*
X170752500Y-106005000D01*
X170752500Y-106005000D02*
X170752500Y-107335000D01*
X170752500Y-108605000D02*
X170752500Y-113745000D01*
%TO.C,C13*%
X174598300Y-95498480D02*
X174598300Y-95217320D01*
X175618300Y-95498480D02*
X175618300Y-95217320D01*
%TO.C,C5*%
X166858100Y-95454480D02*
X166858100Y-95173320D01*
X167878100Y-95454480D02*
X167878100Y-95173320D01*
%TO.C,R17*%
X177878142Y-120978000D02*
X178352658Y-120978000D01*
X177878142Y-122023000D02*
X178352658Y-122023000D01*
%TO.C,R1*%
X164436736Y-86127800D02*
X164890864Y-86127800D01*
X164436736Y-87597800D02*
X164890864Y-87597800D01*
%TO.C,MicroUSB*%
X152812500Y-120810000D02*
X152812500Y-117580000D01*
X152812500Y-124980000D02*
X152812500Y-123030000D01*
X153532500Y-115660000D02*
X154612500Y-115660000D01*
X154612500Y-115660000D02*
X154612500Y-115230000D01*
X158832500Y-115660000D02*
X159912500Y-115660000D01*
X160632500Y-120810000D02*
X160632500Y-117580000D01*
X160632500Y-124980000D02*
X152812500Y-124980000D01*
X160632500Y-124980000D02*
X160632500Y-123030000D01*
%TO.C,U5*%
X162243100Y-79229500D02*
X162243100Y-77429500D01*
X162243100Y-79229500D02*
X162243100Y-80029500D01*
X159123100Y-79229500D02*
X159123100Y-78429500D01*
X159123100Y-79229500D02*
X159123100Y-80029500D01*
%TO.C,R6*%
X124232936Y-80545000D02*
X124687064Y-80545000D01*
X124232936Y-82015000D02*
X124687064Y-82015000D01*
%TO.C,F1*%
X149478400Y-108966852D02*
X149478400Y-106194348D01*
X152898400Y-108966852D02*
X152898400Y-106194348D01*
D11*
%TO.C,MPU*%
X149765000Y-96615000D02*
X150340000Y-96615000D01*
X149765000Y-96615000D02*
X149765000Y-95940000D01*
X150340000Y-96615000D02*
X150340000Y-97890000D01*
X160115000Y-96615000D02*
X159440000Y-96615000D01*
X160115000Y-96615000D02*
X160115000Y-95940000D01*
X149765000Y-86265000D02*
X149765000Y-86940000D01*
X149765000Y-86265000D02*
X150440000Y-86265000D01*
X160115000Y-86265000D02*
X160115000Y-86940000D01*
X160115000Y-86265000D02*
X159440000Y-86265000D01*
D14*
%TO.C,D1*%
X135700000Y-82027500D02*
X137620000Y-82027500D01*
X137620000Y-82027500D02*
X137620000Y-79342500D01*
X135700000Y-79342500D02*
X135700000Y-82027500D01*
%TO.C,C3*%
X164473720Y-92409800D02*
X164754880Y-92409800D01*
X164473720Y-93429800D02*
X164754880Y-93429800D01*
%TO.C,U1*%
X99220000Y-80280000D02*
X99220000Y-82280000D01*
X99600000Y-62360000D02*
X99600000Y-112900000D01*
X99600000Y-62360000D02*
X118840000Y-62360000D01*
X99600000Y-112900000D02*
X118840000Y-112900000D01*
X118840000Y-112900000D02*
X118840000Y-62360000D01*
%TO.C,C15*%
X160481780Y-83809800D02*
X160200620Y-83809800D01*
X160481780Y-82789800D02*
X160200620Y-82789800D01*
%TO.C,U2*%
X137160000Y-91245000D02*
X133560000Y-91245000D01*
X137160000Y-91245000D02*
X139360000Y-91245000D01*
X137160000Y-96715000D02*
X134960000Y-96715000D01*
X137160000Y-96715000D02*
X139360000Y-96715000D01*
D10*
%TO.C,Increment*%
X174442500Y-72755000D02*
X174442500Y-72755000D01*
X174542500Y-72755000D02*
X174542500Y-72755000D01*
D15*
X171042500Y-70155000D02*
X171042500Y-58155000D01*
X173442500Y-70155000D02*
X171042500Y-70155000D01*
X173442500Y-70155000D02*
X173442500Y-70155000D01*
X175642500Y-70155000D02*
X178442500Y-70155000D01*
X180642500Y-70155000D02*
X183042500Y-70155000D01*
X183042500Y-70155000D02*
X183042500Y-58155000D01*
X171042500Y-58155000D02*
X173442500Y-58155000D01*
X175642500Y-58155000D02*
X178442500Y-58155000D01*
X183042500Y-58155000D02*
X180642500Y-58155000D01*
D10*
X174542500Y-72755000D02*
G75*
G03*
X174442500Y-72755000I-50000J0D01*
G01*
X174442500Y-72755000D02*
G75*
G03*
X174542500Y-72755000I50000J0D01*
G01*
D14*
%TO.C,C1*%
X170731100Y-95498480D02*
X170731100Y-95217320D01*
X171751100Y-95498480D02*
X171751100Y-95217320D01*
%TO.C,R16*%
X171657742Y-101077500D02*
X172132258Y-101077500D01*
X171657742Y-102122500D02*
X172132258Y-102122500D01*
%TO.C,C12*%
X135333380Y-100350800D02*
X135052220Y-100350800D01*
X135333380Y-99330800D02*
X135052220Y-99330800D01*
%TO.C,C8*%
X176670100Y-95720452D02*
X176670100Y-95197948D01*
X178140100Y-95720452D02*
X178140100Y-95197948D01*
%TO.C,R11*%
X124232936Y-96195000D02*
X124687064Y-96195000D01*
X124232936Y-97665000D02*
X124687064Y-97665000D01*
%TO.C,R12*%
X124232936Y-99145000D02*
X124687064Y-99145000D01*
X124232936Y-100615000D02*
X124687064Y-100615000D01*
%TO.C,Buzzer*%
X145800000Y-64155000D02*
G75*
G03*
X145800000Y-64155000I-6100000J0D01*
G01*
%TO.C,R13*%
X164858258Y-95249700D02*
X164383742Y-95249700D01*
X164858258Y-94204700D02*
X164383742Y-94204700D01*
%TO.C,D2*%
X138740000Y-82027500D02*
X140660000Y-82027500D01*
X140660000Y-82027500D02*
X140660000Y-79342500D01*
X138740000Y-79342500D02*
X138740000Y-82027500D01*
%TO.C,R14*%
X156823614Y-113341065D02*
X156823614Y-112866549D01*
X157868614Y-113341065D02*
X157868614Y-112866549D01*
%TO.C,R2*%
X164440336Y-88255300D02*
X164894464Y-88255300D01*
X164440336Y-89725300D02*
X164894464Y-89725300D01*
%TO.C,C6*%
X172632200Y-95498480D02*
X172632200Y-95217320D01*
X173652200Y-95498480D02*
X173652200Y-95217320D01*
%TO.C,C14*%
X183637120Y-120990500D02*
X183918280Y-120990500D01*
X183637120Y-122010500D02*
X183918280Y-122010500D01*
%TO.C,Y1*%
X158517000Y-108817600D02*
X161817000Y-108817600D01*
X161817000Y-108817600D02*
X161817000Y-104817600D01*
%TO.C,R5*%
X124232936Y-77595000D02*
X124687064Y-77595000D01*
X124232936Y-79065000D02*
X124687064Y-79065000D01*
%TO.C,R4*%
X138965000Y-76179564D02*
X138965000Y-75725436D01*
X140435000Y-76179564D02*
X140435000Y-75725436D01*
%TO.C,R10*%
X124232936Y-93245000D02*
X124687064Y-93245000D01*
X124232936Y-94715000D02*
X124687064Y-94715000D01*
%TO.C,C2*%
X164752480Y-91704000D02*
X164471320Y-91704000D01*
X164752480Y-90684000D02*
X164471320Y-90684000D01*
%TO.C,C9*%
X147145170Y-102865531D02*
X147145170Y-103146691D01*
X148165170Y-102865531D02*
X148165170Y-103146691D01*
D16*
%TO.C,RST*%
X179490000Y-99660000D02*
X177490000Y-99660000D01*
X176690000Y-99960000D02*
X176090000Y-100560000D01*
X180890000Y-100560000D02*
X180290000Y-99960000D01*
X176090000Y-100560000D02*
X176090000Y-103560000D01*
X180890000Y-103560000D02*
X180890000Y-100560000D01*
X180890000Y-103560000D02*
X180290000Y-104160000D01*
X176090000Y-103560000D02*
X176690000Y-104160000D01*
X179490000Y-104460000D02*
X177490000Y-104460000D01*
D15*
X180490000Y-97660000D02*
G75*
G03*
X180490000Y-97660000I-100000J0D01*
G01*
D14*
%TO.C,C11*%
X164727200Y-77084920D02*
X164727200Y-77366080D01*
X163707200Y-77084920D02*
X163707200Y-77366080D01*
%TO.C,C4*%
X168797100Y-95475080D02*
X168797100Y-95193920D01*
X169817100Y-95475080D02*
X169817100Y-95193920D01*
%TO.C,C10*%
X155592800Y-100045280D02*
X155592800Y-99764120D01*
X156612800Y-100045280D02*
X156612800Y-99764120D01*
%TO.C,U4*%
X154456800Y-106776900D02*
X154456800Y-108576900D01*
X154456800Y-106776900D02*
X154456800Y-105976900D01*
X157576800Y-106776900D02*
X157576800Y-107576900D01*
X157576800Y-106776900D02*
X157576800Y-105976900D01*
%TO.C,R9*%
X124232936Y-90295000D02*
X124687064Y-90295000D01*
X124232936Y-91765000D02*
X124687064Y-91765000D01*
%TO.C,R7*%
X124232936Y-83495000D02*
X124687064Y-83495000D01*
X124232936Y-84965000D02*
X124687064Y-84965000D01*
%TO.C,C7*%
X167047800Y-77071120D02*
X167047800Y-77352280D01*
X166027800Y-77071120D02*
X166027800Y-77352280D01*
%TO.C,R8*%
X124232936Y-86445000D02*
X124687064Y-86445000D01*
X124232936Y-87915000D02*
X124687064Y-87915000D01*
%TO.C,J3*%
X175712500Y-108545000D02*
X175712500Y-118825000D01*
X175712500Y-108545000D02*
X178312500Y-108545000D01*
X175712500Y-118825000D02*
X180912500Y-118825000D01*
X178312500Y-108545000D02*
X178312500Y-111145000D01*
X178312500Y-111145000D02*
X180912500Y-111145000D01*
X179582500Y-108545000D02*
X180912500Y-108545000D01*
X180912500Y-108545000D02*
X180912500Y-109875000D01*
X180912500Y-111145000D02*
X180912500Y-118825000D01*
%TO.C,D3*%
X182794600Y-108479900D02*
X182794600Y-110399900D01*
X182794600Y-110399900D02*
X185479600Y-110399900D01*
X185479600Y-108479900D02*
X182794600Y-108479900D01*
%TO.C,R15*%
X155183513Y-113314430D02*
X155183513Y-112839914D01*
X156228513Y-113314430D02*
X156228513Y-112839914D01*
D10*
%TO.C,Start/Stop*%
X156662500Y-72755000D02*
G75*
G03*
X156762500Y-72755000I50000J0D01*
G01*
X156762500Y-72755000D02*
G75*
G03*
X156662500Y-72755000I-50000J0D01*
G01*
D15*
X165262500Y-58155000D02*
X162862500Y-58155000D01*
X157862500Y-58155000D02*
X160662500Y-58155000D01*
X153262500Y-58155000D02*
X155662500Y-58155000D01*
X165262500Y-70155000D02*
X165262500Y-58155000D01*
X162862500Y-70155000D02*
X165262500Y-70155000D01*
X157862500Y-70155000D02*
X160662500Y-70155000D01*
X155662500Y-70155000D02*
X155662500Y-70155000D01*
X155662500Y-70155000D02*
X153262500Y-70155000D01*
X153262500Y-70155000D02*
X153262500Y-58155000D01*
D10*
X156762500Y-72755000D02*
X156762500Y-72755000D01*
X156662500Y-72755000D02*
X156662500Y-72755000D01*
%TD*%
M02*
