%TF.GenerationSoftware,KiCad,Pcbnew,(7.0.0)*%
%TF.CreationDate,2023-04-11T17:05:15-06:00*%
%TF.ProjectId,EmbeddedSystemsPhaseA,456d6265-6464-4656-9453-797374656d73,rev?*%
%TF.SameCoordinates,Original*%
%TF.FileFunction,Copper,L1,Top*%
%TF.FilePolarity,Positive*%
%FSLAX46Y46*%
G04 Gerber Fmt 4.6, Leading zero omitted, Abs format (unit mm)*
G04 Created by KiCad (PCBNEW (7.0.0)) date 2023-04-11 17:05:15*
%MOMM*%
%LPD*%
G01*
G04 APERTURE LIST*
%TA.AperFunction,ComponentPad*%
%ADD10R,1.700000X1.700000*%
%TD*%
%TA.AperFunction,ComponentPad*%
%ADD11O,1.700000X1.700000*%
%TD*%
%TA.AperFunction,ComponentPad*%
%ADD12R,1.800000X1.800000*%
%TD*%
%TA.AperFunction,ComponentPad*%
%ADD13C,1.800000*%
%TD*%
%TA.AperFunction,ComponentPad*%
%ADD14R,2.400000X1.600000*%
%TD*%
%TA.AperFunction,ComponentPad*%
%ADD15O,2.400000X1.600000*%
%TD*%
%TA.AperFunction,ComponentPad*%
%ADD16C,1.600000*%
%TD*%
%TA.AperFunction,ComponentPad*%
%ADD17O,1.600000X1.600000*%
%TD*%
%TA.AperFunction,ComponentPad*%
%ADD18R,2.000000X2.000000*%
%TD*%
%TA.AperFunction,ComponentPad*%
%ADD19C,2.000000*%
%TD*%
%TA.AperFunction,ComponentPad*%
%ADD20O,3.048000X1.850000*%
%TD*%
%TA.AperFunction,ComponentPad*%
%ADD21R,1.500000X1.500000*%
%TD*%
%TA.AperFunction,ComponentPad*%
%ADD22C,1.500000*%
%TD*%
%TA.AperFunction,ViaPad*%
%ADD23C,0.600000*%
%TD*%
%TA.AperFunction,Conductor*%
%ADD24C,0.200000*%
%TD*%
G04 APERTURE END LIST*
D10*
%TO.P,J1,1,Pin_1*%
%TO.N,unconnected-(J1-Pin_1-Pad1)*%
X127939999Y-97459999D03*
D11*
%TO.P,J1,2,Pin_2*%
%TO.N,/IOREF*%
X130479999Y-97459999D03*
%TO.P,J1,3,Pin_3*%
%TO.N,/~{RESET}*%
X133019999Y-97459999D03*
%TO.P,J1,4,Pin_4*%
%TO.N,+3V3*%
X135559999Y-97459999D03*
%TO.P,J1,5,Pin_5*%
%TO.N,+5V*%
X138099999Y-97459999D03*
%TO.P,J1,6,Pin_6*%
%TO.N,GND*%
X140639999Y-97459999D03*
%TO.P,J1,7,Pin_7*%
X143179999Y-97459999D03*
%TO.P,J1,8,Pin_8*%
%TO.N,VCC*%
X145719999Y-97459999D03*
%TD*%
D10*
%TO.P,J3,1,Pin_1*%
%TO.N,/A0*%
X150799999Y-97459999D03*
D11*
%TO.P,J3,2,Pin_2*%
%TO.N,/A1*%
X153339999Y-97459999D03*
%TO.P,J3,3,Pin_3*%
%TO.N,/A2*%
X155879999Y-97459999D03*
%TO.P,J3,4,Pin_4*%
%TO.N,/A3*%
X158419999Y-97459999D03*
%TO.P,J3,5,Pin_5*%
%TO.N,/SDA{slash}A4*%
X160959999Y-97459999D03*
%TO.P,J3,6,Pin_6*%
%TO.N,/SCL{slash}A5*%
X163499999Y-97459999D03*
%TD*%
D10*
%TO.P,J2,1,Pin_1*%
%TO.N,unconnected-(J2-Pin_1-Pad1)*%
X118795999Y-49199999D03*
D11*
%TO.P,J2,2,Pin_2*%
%TO.N,unconnected-(J2-Pin_2-Pad2)*%
X121335999Y-49199999D03*
%TO.P,J2,3,Pin_3*%
%TO.N,unconnected-(J2-Pin_3-Pad3)*%
X123875999Y-49199999D03*
%TO.P,J2,4,Pin_4*%
%TO.N,GND*%
X126415999Y-49199999D03*
%TO.P,J2,5,Pin_5*%
%TO.N,Dig1*%
X128955999Y-49199999D03*
%TO.P,J2,6,Pin_6*%
%TO.N,Dig2*%
X131495999Y-49199999D03*
%TO.P,J2,7,Pin_7*%
%TO.N,Dig3*%
X134035999Y-49199999D03*
%TO.P,J2,8,Pin_8*%
%TO.N,Dig4*%
X136575999Y-49199999D03*
%TO.P,J2,9,Pin_9*%
%TO.N,DS*%
X139115999Y-49199999D03*
%TO.P,J2,10,Pin_10*%
%TO.N,ST_CP*%
X141655999Y-49199999D03*
%TD*%
D10*
%TO.P,J4,1,Pin_1*%
%TO.N,SH_CP*%
X145719999Y-49199999D03*
D11*
%TO.P,J4,2,Pin_2*%
%TO.N,Buzzer*%
X148259999Y-49199999D03*
%TO.P,J4,3,Pin_3*%
%TO.N,RED_LED*%
X150799999Y-49199999D03*
%TO.P,J4,4,Pin_4*%
%TO.N,GREEN_LED*%
X153339999Y-49199999D03*
%TO.P,J4,5,Pin_5*%
%TO.N,Button_2*%
X155879999Y-49199999D03*
%TO.P,J4,6,Pin_6*%
%TO.N,Button_1*%
X158419999Y-49199999D03*
%TO.P,J4,7,Pin_7*%
%TO.N,/TX{slash}1*%
X160959999Y-49199999D03*
%TO.P,J4,8,Pin_8*%
%TO.N,/RX{slash}0*%
X163499999Y-49199999D03*
%TD*%
D12*
%TO.P,D2,1,K*%
%TO.N,GND*%
X186359999Y-49199999D03*
D13*
%TO.P,D2,2,A*%
%TO.N,Net-(D2-A)*%
X188900000Y-49200000D03*
%TD*%
D14*
%TO.P,U2,1,QB*%
%TO.N,b*%
X188899999Y-77139999D03*
D15*
%TO.P,U2,2,QC*%
%TO.N,c*%
X188899999Y-79679999D03*
%TO.P,U2,3,QD*%
%TO.N,d*%
X188899999Y-82219999D03*
%TO.P,U2,4,QE*%
%TO.N,e*%
X188899999Y-84759999D03*
%TO.P,U2,5,QF*%
%TO.N,f*%
X188899999Y-87299999D03*
%TO.P,U2,6,QG*%
%TO.N,g*%
X188899999Y-89839999D03*
%TO.P,U2,7,QH*%
%TO.N,dp*%
X188899999Y-92379999D03*
%TO.P,U2,8,GND*%
%TO.N,GND*%
X188899999Y-94919999D03*
%TO.P,U2,9,QH'*%
%TO.N,unconnected-(U2-QH'-Pad9)*%
X196519999Y-94919999D03*
%TO.P,U2,10,~{SRCLR}*%
%TO.N,+5V*%
X196519999Y-92379999D03*
%TO.P,U2,11,SRCLK*%
%TO.N,SH_CP*%
X196519999Y-89839999D03*
%TO.P,U2,12,RCLK*%
%TO.N,ST_CP*%
X196519999Y-87299999D03*
%TO.P,U2,13,~{OE}*%
%TO.N,GND*%
X196519999Y-84759999D03*
%TO.P,U2,14,SER*%
%TO.N,DS*%
X196519999Y-82219999D03*
%TO.P,U2,15,QA*%
%TO.N,a*%
X196519999Y-79679999D03*
%TO.P,U2,16,VCC*%
%TO.N,+5V*%
X196519999Y-77139999D03*
%TD*%
D16*
%TO.P,R8,1*%
%TO.N,d*%
X181280000Y-74600000D03*
D17*
%TO.P,R8,2*%
%TO.N,Net-(U1-d)*%
X171119999Y-74599999D03*
%TD*%
D16*
%TO.P,R5,1*%
%TO.N,a*%
X201600000Y-69520000D03*
D17*
%TO.P,R5,2*%
%TO.N,Net-(U1-a)*%
X191439999Y-69519999D03*
%TD*%
D12*
%TO.P,D1,1,K*%
%TO.N,GND*%
X173659999Y-49199999D03*
D13*
%TO.P,D1,2,A*%
%TO.N,Net-(D1-A)*%
X176200000Y-49200000D03*
%TD*%
D16*
%TO.P,R1,1*%
%TO.N,Button_1*%
X133020000Y-92380000D03*
D17*
%TO.P,R1,2*%
%TO.N,GND*%
X143179999Y-92379999D03*
%TD*%
D18*
%TO.P,LS1,1,1*%
%TO.N,Buzzer*%
X202859999Y-49199999D03*
D19*
%TO.P,LS1,2,2*%
%TO.N,GND*%
X195260000Y-49200000D03*
%TD*%
D16*
%TO.P,R2,1*%
%TO.N,Button_2*%
X112700000Y-94920000D03*
D17*
%TO.P,R2,2*%
%TO.N,GND*%
X122859999Y-94919999D03*
%TD*%
D20*
%TO.P,STARTSTOP,1,1*%
%TO.N,+5V*%
X126559999Y-84719999D03*
X114059999Y-84719999D03*
%TO.P,STARTSTOP,2,2*%
%TO.N,Button_1*%
X126559999Y-79719999D03*
X114059999Y-79719999D03*
%TD*%
%TO.P,INCREMENT,1,1*%
%TO.N,+5V*%
X144824999Y-84679999D03*
X132324999Y-84679999D03*
%TO.P,INCREMENT,2,2*%
%TO.N,Button_2*%
X144824999Y-79679999D03*
X132324999Y-79679999D03*
%TD*%
D21*
%TO.P,U1,1,e*%
%TO.N,Net-(U1-e)*%
X130479999Y-69519999D03*
D22*
%TO.P,U1,2,d*%
%TO.N,Net-(U1-d)*%
X133020000Y-69520000D03*
%TO.P,U1,3,DPX*%
%TO.N,Net-(U1-DPX)*%
X135560000Y-69520000D03*
%TO.P,U1,4,c*%
%TO.N,Net-(U1-c)*%
X138100000Y-69520000D03*
%TO.P,U1,5,g*%
%TO.N,Net-(U1-g)*%
X140640000Y-69520000D03*
%TO.P,U1,6,CA4*%
%TO.N,Dig4*%
X143180000Y-69520000D03*
%TO.P,U1,7,b*%
%TO.N,Net-(U1-b)*%
X143180000Y-54280000D03*
%TO.P,U1,8,CA3*%
%TO.N,Dig3*%
X140640000Y-54280000D03*
%TO.P,U1,9,CA2*%
%TO.N,Dig2*%
X138100000Y-54280000D03*
%TO.P,U1,10,f*%
%TO.N,Net-(U1-f)*%
X135560000Y-54280000D03*
%TO.P,U1,11,a*%
%TO.N,Net-(U1-a)*%
X133020000Y-54280000D03*
%TO.P,U1,12,CA1*%
%TO.N,Dig1*%
X130480000Y-54280000D03*
%TD*%
D16*
%TO.P,R12,1*%
%TO.N,dp*%
X181280000Y-94920000D03*
D17*
%TO.P,R12,2*%
%TO.N,Net-(U1-DPX)*%
X171119999Y-94919999D03*
%TD*%
D16*
%TO.P,R10,1*%
%TO.N,f*%
X181280000Y-89840000D03*
D17*
%TO.P,R10,2*%
%TO.N,Net-(U1-f)*%
X171119999Y-89839999D03*
%TD*%
D16*
%TO.P,R9,1*%
%TO.N,e*%
X181280000Y-79680000D03*
D17*
%TO.P,R9,2*%
%TO.N,Net-(U1-e)*%
X171119999Y-79679999D03*
%TD*%
D16*
%TO.P,R6,1*%
%TO.N,b*%
X181280000Y-64440000D03*
D17*
%TO.P,R6,2*%
%TO.N,Net-(U1-b)*%
X171119999Y-64439999D03*
%TD*%
D16*
%TO.P,R3,1*%
%TO.N,RED_LED*%
X168580000Y-54280000D03*
D17*
%TO.P,R3,2*%
%TO.N,Net-(D1-A)*%
X168579999Y-44119999D03*
%TD*%
D16*
%TO.P,R7,1*%
%TO.N,c*%
X181280000Y-69520000D03*
D17*
%TO.P,R7,2*%
%TO.N,Net-(U1-c)*%
X171119999Y-69519999D03*
%TD*%
D16*
%TO.P,R11,1*%
%TO.N,g*%
X181280000Y-84760000D03*
D17*
%TO.P,R11,2*%
%TO.N,Net-(U1-g)*%
X171119999Y-84759999D03*
%TD*%
D16*
%TO.P,R4,1*%
%TO.N,GREEN_LED*%
X181280000Y-54280000D03*
D17*
%TO.P,R4,2*%
%TO.N,Net-(D2-A)*%
X181279999Y-44119999D03*
%TD*%
D23*
%TO.N,Dig4*%
X146165900Y-65909300D03*
%TO.N,Button_2*%
X122860000Y-98620800D03*
X168569000Y-89460800D03*
%TD*%
D24*
%TO.N,+5V*%
X126560000Y-84720000D02*
X114060000Y-84720000D01*
X132916900Y-85271900D02*
X128936000Y-85271900D01*
X196520000Y-92380000D02*
X195019900Y-92380000D01*
X195019900Y-77140000D02*
X195019900Y-92380000D01*
X144233100Y-85271900D02*
X138100000Y-85271900D01*
X138100000Y-94895000D02*
X168136500Y-94895000D01*
X144233100Y-85271900D02*
X144825000Y-84680000D01*
X191357900Y-96042000D02*
X195019900Y-92380000D01*
X138100000Y-97460000D02*
X138100000Y-94895000D01*
X128384000Y-84720000D02*
X126560000Y-84720000D01*
X196520000Y-77140000D02*
X195019900Y-77140000D01*
X138100000Y-94895000D02*
X138100000Y-85271900D01*
X138100000Y-85271900D02*
X132916900Y-85271900D01*
X128936000Y-85271900D02*
X128384000Y-84720000D01*
X169283500Y-96042000D02*
X191357900Y-96042000D01*
X132916900Y-85271900D02*
X132325000Y-84680000D01*
X144825000Y-85271900D02*
X144233100Y-85271900D01*
X168136500Y-94895000D02*
X169283500Y-96042000D01*
%TO.N,Net-(D1-A)*%
X168580000Y-44120000D02*
X171120000Y-44120000D01*
X171120000Y-44120000D02*
X176200000Y-49200000D01*
%TO.N,Net-(D2-A)*%
X183820000Y-44120000D02*
X188900000Y-49200000D01*
X181280000Y-44120000D02*
X183820000Y-44120000D01*
%TO.N,Dig1*%
X128956000Y-50216000D02*
X128956000Y-49200000D01*
X130480000Y-51740000D02*
X128956000Y-50216000D01*
X130480000Y-54280000D02*
X130480000Y-51740000D01*
%TO.N,Dig2*%
X138100000Y-54280000D02*
X137487800Y-54280000D01*
X137487800Y-54280000D02*
X132646100Y-49438300D01*
X132646100Y-49438300D02*
X132646100Y-49200000D01*
X131496000Y-49200000D02*
X132646100Y-49200000D01*
%TO.N,Dig3*%
X135186100Y-49438300D02*
X135186100Y-49200000D01*
X134036000Y-49200000D02*
X135186100Y-49200000D01*
X140640000Y-54280000D02*
X140027800Y-54280000D01*
X140027800Y-54280000D02*
X135186100Y-49438300D01*
%TO.N,Dig4*%
X141910000Y-61653400D02*
X141910000Y-53991000D01*
X137726100Y-49807100D02*
X137726100Y-49200000D01*
X136576000Y-49200000D02*
X137726100Y-49200000D01*
X141910000Y-53991000D02*
X137726100Y-49807100D01*
X146165900Y-65909300D02*
X141910000Y-61653400D01*
%TO.N,DS*%
X139584925Y-49200000D02*
X139116000Y-49200000D01*
X144230000Y-54764314D02*
X144230000Y-53845075D01*
X169138100Y-61500000D02*
X150965686Y-61500000D01*
X198020100Y-82220000D02*
X202748400Y-77491700D01*
X170977900Y-63339800D02*
X169138100Y-61500000D01*
X196987600Y-63339800D02*
X170977900Y-63339800D01*
X196520000Y-82220000D02*
X198020100Y-82220000D01*
X202748400Y-69100600D02*
X196987600Y-63339800D01*
X150965686Y-61500000D02*
X144230000Y-54764314D01*
X202748400Y-77491700D02*
X202748400Y-69100600D01*
X144230000Y-53845075D02*
X139584925Y-49200000D01*
%TO.N,ST_CP*%
X165746800Y-57079600D02*
X161726400Y-61100000D01*
X161726400Y-61100000D02*
X151131372Y-61100000D01*
X196520000Y-87300000D02*
X198020100Y-87300000D01*
X141656000Y-50705389D02*
X141656000Y-49200000D01*
X151131372Y-61100000D02*
X144630000Y-54598628D01*
X144630000Y-54598628D02*
X144630000Y-53679389D01*
X203177600Y-82142500D02*
X203177600Y-68936600D01*
X198020100Y-87300000D02*
X203177600Y-82142500D01*
X203177600Y-68936600D02*
X191320600Y-57079600D01*
X144630000Y-53679389D02*
X141656000Y-50705389D01*
X191320600Y-57079600D02*
X165746800Y-57079600D01*
%TO.N,SH_CP*%
X145720000Y-49200000D02*
X148260000Y-46660000D01*
X157164800Y-50484800D02*
X181280000Y-50484800D01*
X148260000Y-46660000D02*
X154966346Y-46660000D01*
X157164800Y-48858454D02*
X157164800Y-50484800D01*
X196435200Y-53024800D02*
X201560000Y-47900000D01*
X183820000Y-53024800D02*
X196435200Y-53024800D01*
X204160000Y-47900000D02*
X204160000Y-82200000D01*
X154966346Y-46660000D02*
X157164800Y-48858454D01*
X204160000Y-82200000D02*
X196520000Y-89840000D01*
X201560000Y-47900000D02*
X204160000Y-47900000D01*
X181280000Y-50484800D02*
X183820000Y-53024800D01*
%TO.N,Buzzer*%
X145720000Y-51740000D02*
X148260000Y-51740000D01*
X145030000Y-54432942D02*
X145030000Y-53513703D01*
X202860000Y-49200000D02*
X201559900Y-49200000D01*
X144488149Y-52971851D02*
X145720000Y-51740000D01*
X195375400Y-55384500D02*
X175095500Y-55384500D01*
X173800400Y-56679600D02*
X165581114Y-56679600D01*
X161560714Y-60700000D02*
X151297058Y-60700000D01*
X151297058Y-60700000D02*
X145030000Y-54432942D01*
X175095500Y-55384500D02*
X173800400Y-56679600D01*
X145030000Y-53513703D02*
X144488149Y-52971851D01*
X201559900Y-49200000D02*
X195375400Y-55384500D01*
X148260000Y-49200000D02*
X148260000Y-51740000D01*
X165581114Y-56679600D02*
X161560714Y-60700000D01*
%TO.N,RED_LED*%
X165415429Y-56279600D02*
X166580400Y-56279600D01*
X166580400Y-56279600D02*
X168580000Y-54280000D01*
X145720000Y-54280000D02*
X145581372Y-54418628D01*
X145581372Y-54418628D02*
X151462744Y-60300000D01*
X151462744Y-60300000D02*
X161395028Y-60300000D01*
X150800000Y-54280000D02*
X145720000Y-54280000D01*
X150800000Y-49200000D02*
X150800000Y-54280000D01*
X161395028Y-60300000D02*
X165415429Y-56279600D01*
%TO.N,GREEN_LED*%
X181280000Y-54280000D02*
X177884800Y-50884800D01*
X163500000Y-56820000D02*
X153340000Y-56820000D01*
X169435200Y-50884800D02*
X163500000Y-56820000D01*
X153340000Y-49200000D02*
X153340000Y-56820000D01*
X177884800Y-50884800D02*
X169435200Y-50884800D01*
%TO.N,Button_2*%
X154730000Y-48050000D02*
X147783654Y-48050000D01*
X146870000Y-48963654D02*
X146870000Y-50350000D01*
X144233100Y-80271900D02*
X144825000Y-79680000D01*
X132916900Y-80271900D02*
X132325000Y-79680000D01*
X155838000Y-89460800D02*
X146649000Y-80271900D01*
X144233100Y-80271900D02*
X132916900Y-80271900D01*
X114550500Y-96770400D02*
X112700000Y-94920000D01*
X114550500Y-88418000D02*
X114550500Y-96770400D01*
X116401000Y-98620800D02*
X114550500Y-96770400D01*
X132916900Y-80271900D02*
X132325000Y-80271900D01*
X111758600Y-64982200D02*
X111758600Y-85626100D01*
X155880000Y-49200000D02*
X154730000Y-48050000D01*
X122860000Y-98620800D02*
X116401000Y-98620800D01*
X141609646Y-47527300D02*
X126462354Y-47527300D01*
X126462354Y-47527300D02*
X125266000Y-48723654D01*
X146870000Y-50350000D02*
X144432346Y-50350000D01*
X147783654Y-48050000D02*
X146870000Y-48963654D01*
X125266000Y-51474800D02*
X111758600Y-64982200D01*
X144432346Y-50350000D02*
X141609646Y-47527300D01*
X125266000Y-48723654D02*
X125266000Y-51474800D01*
X146649000Y-80271900D02*
X144233100Y-80271900D01*
X168569000Y-89460800D02*
X155838000Y-89460800D01*
X111758600Y-85626100D02*
X114550500Y-88418000D01*
%TO.N,Button_1*%
X127686000Y-62154000D02*
X127686000Y-48838900D01*
X114060000Y-79720000D02*
X115200000Y-79720000D01*
X119335600Y-92380000D02*
X133020000Y-92380000D01*
X114098000Y-79757700D02*
X114060000Y-79720000D01*
X121832000Y-79720000D02*
X121809000Y-79697500D01*
X115200000Y-79720000D02*
X115240000Y-79680000D01*
X115535900Y-79757700D02*
X112203200Y-83090400D01*
X195664365Y-93480000D02*
X189144365Y-100000000D01*
X124196000Y-79720000D02*
X121832000Y-79720000D01*
X183285686Y-43020000D02*
X186925686Y-46660000D01*
X204140000Y-46660000D02*
X204560000Y-47080000D01*
X158420000Y-49200000D02*
X164600000Y-43020000D01*
X197375635Y-93480000D02*
X195664365Y-93480000D01*
X204560000Y-86295635D02*
X197375635Y-93480000D01*
X204560000Y-47080000D02*
X204560000Y-86295635D01*
X127686000Y-48838900D02*
X128522500Y-48002400D01*
X124196000Y-79720000D02*
X125400000Y-78516000D01*
X186925686Y-46660000D02*
X204140000Y-46660000D01*
X189144365Y-100000000D02*
X133933654Y-100000000D01*
X121809000Y-79697300D02*
X121806000Y-79694200D01*
X115535900Y-79757700D02*
X114098000Y-79757700D01*
X125400000Y-78516000D02*
X125400000Y-64440000D01*
X125400000Y-64440000D02*
X127686000Y-62154000D01*
X164600000Y-43020000D02*
X183285686Y-43020000D01*
X131870000Y-97936346D02*
X131870000Y-93530000D01*
X112203200Y-83090400D02*
X112203200Y-85247600D01*
X121806000Y-79694200D02*
X121742000Y-79757700D01*
X131870000Y-93530000D02*
X133020000Y-92380000D01*
X112203200Y-85247600D02*
X119335600Y-92380000D01*
X121809000Y-79697500D02*
X121809000Y-79697300D01*
X126560000Y-79720000D02*
X124196000Y-79720000D01*
X133933654Y-100000000D02*
X131870000Y-97936346D01*
X121742000Y-79757700D02*
X115535900Y-79757700D01*
%TO.N,a*%
X201600000Y-76100100D02*
X198020100Y-79680000D01*
X201600000Y-69520000D02*
X201600000Y-76100100D01*
X196520000Y-79680000D02*
X198020100Y-79680000D01*
%TO.N,Net-(U1-a)*%
X146375700Y-67635700D02*
X188455600Y-67635700D01*
X191440000Y-69520000D02*
X190339900Y-69520000D01*
X188455600Y-67635700D02*
X190339900Y-69520000D01*
X133020000Y-54280000D02*
X146375700Y-67635700D01*
%TO.N,b*%
X192573300Y-74966800D02*
X192573300Y-69037200D01*
X188900000Y-77140000D02*
X190400100Y-77140000D01*
X187976100Y-64440000D02*
X181280000Y-64440000D01*
X192573300Y-69037200D02*
X187976100Y-64440000D01*
X190400100Y-77140000D02*
X192573300Y-74966800D01*
%TO.N,Net-(U1-b)*%
X143180000Y-54280000D02*
X150800000Y-61900000D01*
X150800000Y-61900000D02*
X167479900Y-61900000D01*
X170019900Y-64440000D02*
X171120000Y-64440000D01*
X167479900Y-61900000D02*
X170019900Y-64440000D01*
%TO.N,c*%
X181280000Y-69520000D02*
X187399900Y-75639900D01*
X187399900Y-75639900D02*
X187399900Y-79680000D01*
X188900000Y-79680000D02*
X187399900Y-79680000D01*
%TO.N,Net-(U1-c)*%
X142020000Y-69361000D02*
X141084600Y-68425600D01*
X168888100Y-70651800D02*
X142785600Y-70651800D01*
X139194400Y-68425600D02*
X138100000Y-69520000D01*
X171120000Y-69520000D02*
X170019900Y-69520000D01*
X141084600Y-68425600D02*
X139194400Y-68425600D01*
X142020000Y-69886200D02*
X142020000Y-69361000D01*
X142785600Y-70651800D02*
X142020000Y-69886200D01*
X170019900Y-69520000D02*
X168888100Y-70651800D01*
%TO.N,d*%
X188900000Y-82220000D02*
X187399900Y-82220000D01*
X187399900Y-80719900D02*
X187399900Y-82220000D01*
X181280000Y-74600000D02*
X187399900Y-80719900D01*
%TO.N,Net-(U1-d)*%
X141649200Y-74600000D02*
X138604600Y-71555400D01*
X135055400Y-71555400D02*
X133020000Y-69520000D01*
X171120000Y-74600000D02*
X141649200Y-74600000D01*
X138604600Y-71555400D02*
X135055400Y-71555400D01*
%TO.N,e*%
X181280000Y-79680000D02*
X186360000Y-84760000D01*
X186360000Y-84760000D02*
X188900000Y-84760000D01*
%TO.N,Net-(U1-e)*%
X130480000Y-69520000D02*
X131530100Y-69520000D01*
X168455300Y-78115400D02*
X170019900Y-79680000D01*
X131530100Y-69520000D02*
X140125500Y-78115400D01*
X140125500Y-78115400D02*
X168455300Y-78115400D01*
X171120000Y-79680000D02*
X170019900Y-79680000D01*
%TO.N,f*%
X184859900Y-89840000D02*
X187399900Y-87300000D01*
X181280000Y-89840000D02*
X184859900Y-89840000D01*
X188900000Y-87300000D02*
X187399900Y-87300000D01*
%TO.N,Net-(U1-f)*%
X134504700Y-53224700D02*
X132550000Y-53224700D01*
X131930400Y-54684700D02*
X145332000Y-68086300D01*
X145332000Y-68086300D02*
X171272200Y-68086300D01*
X131930400Y-53844300D02*
X131930400Y-54684700D01*
X172692500Y-69506600D02*
X172692500Y-87167400D01*
X171120000Y-89840000D02*
X171120000Y-88739900D01*
X135560000Y-54280000D02*
X134504700Y-53224700D01*
X171272200Y-68086300D02*
X172692500Y-69506600D01*
X132550000Y-53224700D02*
X131930400Y-53844300D01*
X172692500Y-87167400D02*
X171120000Y-88739900D01*
%TO.N,g*%
X190400100Y-86774400D02*
X189785800Y-86160100D01*
X182680100Y-86160100D02*
X181280000Y-84760000D01*
X189785800Y-86160100D02*
X182680100Y-86160100D01*
X190400100Y-89840000D02*
X190400100Y-86774400D01*
X188900000Y-89840000D02*
X190400100Y-89840000D01*
%TO.N,Net-(U1-g)*%
X169399300Y-71279300D02*
X172225000Y-74105000D01*
X172225000Y-74105000D02*
X172225000Y-82554900D01*
X171120000Y-84760000D02*
X171120000Y-83659900D01*
X140640000Y-69520000D02*
X142399300Y-71279300D01*
X172225000Y-82554900D02*
X171120000Y-83659900D01*
X142399300Y-71279300D02*
X169399300Y-71279300D01*
%TO.N,dp*%
X184859900Y-94920000D02*
X187399900Y-92380000D01*
X188900000Y-92380000D02*
X187399900Y-92380000D01*
X181280000Y-94920000D02*
X184859900Y-94920000D01*
%TO.N,Net-(U1-DPX)*%
X131218588Y-80905000D02*
X128086000Y-77772412D01*
X171120000Y-94920000D02*
X170020000Y-93820000D01*
X144405000Y-80905000D02*
X131218588Y-80905000D01*
X157320000Y-93820000D02*
X144405000Y-80905000D01*
X130920000Y-66980000D02*
X133020000Y-66980000D01*
X128086000Y-69814000D02*
X130920000Y-66980000D01*
X133020000Y-66980000D02*
X135560000Y-69520000D01*
X170020000Y-93820000D02*
X157320000Y-93820000D01*
X128086000Y-77772412D02*
X128086000Y-69814000D01*
%TD*%
M02*
