%TF.GenerationSoftware,KiCad,Pcbnew,(7.0.0)*%
%TF.CreationDate,2023-04-11T17:04:37-06:00*%
%TF.ProjectId,EmbeddedSystemsPhaseA,456d6265-6464-4656-9453-797374656d73,rev?*%
%TF.SameCoordinates,Original*%
%TF.FileFunction,Drillmap*%
%TF.FilePolarity,Positive*%
%FSLAX45Y45*%
G04 Gerber Fmt 4.5, Leading zero omitted, Abs format (unit mm)*
G04 Created by KiCad (PCBNEW (7.0.0)) date 2023-04-11 17:04:37*
%MOMM*%
%LPD*%
G01*
G04 APERTURE LIST*
%ADD10C,0.050000*%
%ADD11C,0.200000*%
%ADD12C,0.030000*%
%ADD13C,0.080000*%
%ADD14C,0.090000*%
%ADD15C,0.100000*%
%ADD16C,0.130000*%
G04 APERTURE END LIST*
D10*
X10254000Y-4158000D02*
G75*
G03*
X10000000Y-4412000I0J-254000D01*
G01*
X10000000Y-4412000D02*
X10000000Y-10000000D01*
X20668000Y-4412000D02*
X20668000Y-10000000D01*
X20414000Y-10254000D02*
G75*
G03*
X20668000Y-10000000I0J254000D01*
G01*
X10000000Y-10000000D02*
G75*
G03*
X10254000Y-10254000I254000J0D01*
G01*
X20668000Y-4412000D02*
G75*
G03*
X20414000Y-4158000I-254000J0D01*
G01*
X10254000Y-4158000D02*
X20414000Y-4158000D01*
X10254000Y-10254000D02*
X20414000Y-10254000D01*
D11*
D12*
X12271000Y-9847080D02*
X12301000Y-9877080D01*
X12301000Y-9847080D02*
X12271000Y-9877080D01*
X14601590Y-6575930D02*
X14631590Y-6605930D01*
X14631590Y-6575930D02*
X14601590Y-6605930D01*
X16841900Y-8931080D02*
X16871900Y-8961080D01*
X16871900Y-8931080D02*
X16841900Y-8961080D01*
D13*
X11310000Y-9492000D02*
G75*
G03*
X11310000Y-9492000I-40000J0D01*
G01*
X12326000Y-9492000D02*
G75*
G03*
X12326000Y-9492000I-40000J0D01*
G01*
X13342000Y-9238000D02*
G75*
G03*
X13342000Y-9238000I-40000J0D01*
G01*
X14358000Y-9238000D02*
G75*
G03*
X14358000Y-9238000I-40000J0D01*
G01*
X16898000Y-4412000D02*
G75*
G03*
X16898000Y-4412000I-40000J0D01*
G01*
X16898000Y-5428000D02*
G75*
G03*
X16898000Y-5428000I-40000J0D01*
G01*
X17152000Y-6444000D02*
G75*
G03*
X17152000Y-6444000I-40000J0D01*
G01*
X17152000Y-6952000D02*
G75*
G03*
X17152000Y-6952000I-40000J0D01*
G01*
X17152000Y-7460000D02*
G75*
G03*
X17152000Y-7460000I-40000J0D01*
G01*
X17152000Y-7968000D02*
G75*
G03*
X17152000Y-7968000I-40000J0D01*
G01*
X17152000Y-8476000D02*
G75*
G03*
X17152000Y-8476000I-40000J0D01*
G01*
X17152000Y-8984000D02*
G75*
G03*
X17152000Y-8984000I-40000J0D01*
G01*
X17152000Y-9492000D02*
G75*
G03*
X17152000Y-9492000I-40000J0D01*
G01*
X18168000Y-4412000D02*
G75*
G03*
X18168000Y-4412000I-40000J0D01*
G01*
X18168000Y-5428000D02*
G75*
G03*
X18168000Y-5428000I-40000J0D01*
G01*
X18168000Y-6444000D02*
G75*
G03*
X18168000Y-6444000I-40000J0D01*
G01*
X18168000Y-6952000D02*
G75*
G03*
X18168000Y-6952000I-40000J0D01*
G01*
X18168000Y-7460000D02*
G75*
G03*
X18168000Y-7460000I-40000J0D01*
G01*
X18168000Y-7968000D02*
G75*
G03*
X18168000Y-7968000I-40000J0D01*
G01*
X18168000Y-8476000D02*
G75*
G03*
X18168000Y-8476000I-40000J0D01*
G01*
X18168000Y-8984000D02*
G75*
G03*
X18168000Y-8984000I-40000J0D01*
G01*
X18168000Y-9492000D02*
G75*
G03*
X18168000Y-9492000I-40000J0D01*
G01*
X18930000Y-7714000D02*
G75*
G03*
X18930000Y-7714000I-40000J0D01*
G01*
X18930000Y-7968000D02*
G75*
G03*
X18930000Y-7968000I-40000J0D01*
G01*
X18930000Y-8222000D02*
G75*
G03*
X18930000Y-8222000I-40000J0D01*
G01*
X18930000Y-8476000D02*
G75*
G03*
X18930000Y-8476000I-40000J0D01*
G01*
X18930000Y-8730000D02*
G75*
G03*
X18930000Y-8730000I-40000J0D01*
G01*
X18930000Y-8984000D02*
G75*
G03*
X18930000Y-8984000I-40000J0D01*
G01*
X18930000Y-9238000D02*
G75*
G03*
X18930000Y-9238000I-40000J0D01*
G01*
X18930000Y-9492000D02*
G75*
G03*
X18930000Y-9492000I-40000J0D01*
G01*
X19184000Y-6952000D02*
G75*
G03*
X19184000Y-6952000I-40000J0D01*
G01*
X19692000Y-7714000D02*
G75*
G03*
X19692000Y-7714000I-40000J0D01*
G01*
X19692000Y-7968000D02*
G75*
G03*
X19692000Y-7968000I-40000J0D01*
G01*
X19692000Y-8222000D02*
G75*
G03*
X19692000Y-8222000I-40000J0D01*
G01*
X19692000Y-8476000D02*
G75*
G03*
X19692000Y-8476000I-40000J0D01*
G01*
X19692000Y-8730000D02*
G75*
G03*
X19692000Y-8730000I-40000J0D01*
G01*
X19692000Y-8984000D02*
G75*
G03*
X19692000Y-8984000I-40000J0D01*
G01*
X19692000Y-9238000D02*
G75*
G03*
X19692000Y-9238000I-40000J0D01*
G01*
X19692000Y-9492000D02*
G75*
G03*
X19692000Y-9492000I-40000J0D01*
G01*
X20200000Y-6952000D02*
G75*
G03*
X20200000Y-6952000I-40000J0D01*
G01*
D14*
X17366000Y-4875000D02*
X17366000Y-4965000D01*
X17321000Y-4920000D02*
X17411000Y-4920000D01*
X17620000Y-4875000D02*
X17620000Y-4965000D01*
X17575000Y-4920000D02*
X17665000Y-4920000D01*
X18636000Y-4875000D02*
X18636000Y-4965000D01*
X18591000Y-4920000D02*
X18681000Y-4920000D01*
X18890000Y-4875000D02*
X18890000Y-4965000D01*
X18845000Y-4920000D02*
X18935000Y-4920000D01*
D15*
X11914956Y-4955356D02*
X11914956Y-4884644D01*
X11844244Y-4884644D01*
X11844244Y-4955356D01*
X11914956Y-4955356D01*
X12168956Y-4955356D02*
X12168956Y-4884644D01*
X12098244Y-4884644D01*
X12098244Y-4955356D01*
X12168956Y-4955356D01*
X12422956Y-4955356D02*
X12422956Y-4884644D01*
X12352244Y-4884644D01*
X12352244Y-4955356D01*
X12422956Y-4955356D01*
X12676956Y-4955356D02*
X12676956Y-4884644D01*
X12606244Y-4884644D01*
X12606244Y-4955356D01*
X12676956Y-4955356D01*
X12829356Y-9781356D02*
X12829356Y-9710644D01*
X12758644Y-9710644D01*
X12758644Y-9781356D01*
X12829356Y-9781356D01*
X12930956Y-4955356D02*
X12930956Y-4884644D01*
X12860244Y-4884644D01*
X12860244Y-4955356D01*
X12930956Y-4955356D01*
X13083356Y-5463356D02*
X13083356Y-5392644D01*
X13012644Y-5392644D01*
X13012644Y-5463356D01*
X13083356Y-5463356D01*
X13083356Y-6987356D02*
X13083356Y-6916644D01*
X13012644Y-6916644D01*
X13012644Y-6987356D01*
X13083356Y-6987356D01*
X13083356Y-9781356D02*
X13083356Y-9710644D01*
X13012644Y-9710644D01*
X13012644Y-9781356D01*
X13083356Y-9781356D01*
X13184956Y-4955356D02*
X13184956Y-4884644D01*
X13114244Y-4884644D01*
X13114244Y-4955356D01*
X13184956Y-4955356D01*
X13337356Y-5463356D02*
X13337356Y-5392644D01*
X13266644Y-5392644D01*
X13266644Y-5463356D01*
X13337356Y-5463356D01*
X13337356Y-6987356D02*
X13337356Y-6916644D01*
X13266644Y-6916644D01*
X13266644Y-6987356D01*
X13337356Y-6987356D01*
X13337356Y-9781356D02*
X13337356Y-9710644D01*
X13266644Y-9710644D01*
X13266644Y-9781356D01*
X13337356Y-9781356D01*
X13438956Y-4955356D02*
X13438956Y-4884644D01*
X13368244Y-4884644D01*
X13368244Y-4955356D01*
X13438956Y-4955356D01*
X13591356Y-5463356D02*
X13591356Y-5392644D01*
X13520644Y-5392644D01*
X13520644Y-5463356D01*
X13591356Y-5463356D01*
X13591356Y-6987356D02*
X13591356Y-6916644D01*
X13520644Y-6916644D01*
X13520644Y-6987356D01*
X13591356Y-6987356D01*
X13591356Y-9781356D02*
X13591356Y-9710644D01*
X13520644Y-9710644D01*
X13520644Y-9781356D01*
X13591356Y-9781356D01*
X13692956Y-4955356D02*
X13692956Y-4884644D01*
X13622244Y-4884644D01*
X13622244Y-4955356D01*
X13692956Y-4955356D01*
X13845356Y-5463356D02*
X13845356Y-5392644D01*
X13774644Y-5392644D01*
X13774644Y-5463356D01*
X13845356Y-5463356D01*
X13845356Y-6987356D02*
X13845356Y-6916644D01*
X13774644Y-6916644D01*
X13774644Y-6987356D01*
X13845356Y-6987356D01*
X13845356Y-9781356D02*
X13845356Y-9710644D01*
X13774644Y-9710644D01*
X13774644Y-9781356D01*
X13845356Y-9781356D01*
X13946956Y-4955356D02*
X13946956Y-4884644D01*
X13876244Y-4884644D01*
X13876244Y-4955356D01*
X13946956Y-4955356D01*
X14099356Y-5463356D02*
X14099356Y-5392644D01*
X14028644Y-5392644D01*
X14028644Y-5463356D01*
X14099356Y-5463356D01*
X14099356Y-6987356D02*
X14099356Y-6916644D01*
X14028644Y-6916644D01*
X14028644Y-6987356D01*
X14099356Y-6987356D01*
X14099356Y-9781356D02*
X14099356Y-9710644D01*
X14028644Y-9710644D01*
X14028644Y-9781356D01*
X14099356Y-9781356D01*
X14200956Y-4955356D02*
X14200956Y-4884644D01*
X14130244Y-4884644D01*
X14130244Y-4955356D01*
X14200956Y-4955356D01*
X14353356Y-5463356D02*
X14353356Y-5392644D01*
X14282644Y-5392644D01*
X14282644Y-5463356D01*
X14353356Y-5463356D01*
X14353356Y-6987356D02*
X14353356Y-6916644D01*
X14282644Y-6916644D01*
X14282644Y-6987356D01*
X14353356Y-6987356D01*
X14353356Y-9781356D02*
X14353356Y-9710644D01*
X14282644Y-9710644D01*
X14282644Y-9781356D01*
X14353356Y-9781356D01*
X14607356Y-4955356D02*
X14607356Y-4884644D01*
X14536644Y-4884644D01*
X14536644Y-4955356D01*
X14607356Y-4955356D01*
X14607356Y-9781356D02*
X14607356Y-9710644D01*
X14536644Y-9710644D01*
X14536644Y-9781356D01*
X14607356Y-9781356D01*
X14861356Y-4955356D02*
X14861356Y-4884644D01*
X14790644Y-4884644D01*
X14790644Y-4955356D01*
X14861356Y-4955356D01*
X15115356Y-4955356D02*
X15115356Y-4884644D01*
X15044644Y-4884644D01*
X15044644Y-4955356D01*
X15115356Y-4955356D01*
X15115356Y-9781356D02*
X15115356Y-9710644D01*
X15044644Y-9710644D01*
X15044644Y-9781356D01*
X15115356Y-9781356D01*
X15369356Y-4955356D02*
X15369356Y-4884644D01*
X15298644Y-4884644D01*
X15298644Y-4955356D01*
X15369356Y-4955356D01*
X15369356Y-9781356D02*
X15369356Y-9710644D01*
X15298644Y-9710644D01*
X15298644Y-9781356D01*
X15369356Y-9781356D01*
X15623356Y-4955356D02*
X15623356Y-4884644D01*
X15552644Y-4884644D01*
X15552644Y-4955356D01*
X15623356Y-4955356D01*
X15623356Y-9781356D02*
X15623356Y-9710644D01*
X15552644Y-9710644D01*
X15552644Y-9781356D01*
X15623356Y-9781356D01*
X15877356Y-4955356D02*
X15877356Y-4884644D01*
X15806644Y-4884644D01*
X15806644Y-4955356D01*
X15877356Y-4955356D01*
X15877356Y-9781356D02*
X15877356Y-9710644D01*
X15806644Y-9710644D01*
X15806644Y-9781356D01*
X15877356Y-9781356D01*
X16131356Y-4955356D02*
X16131356Y-4884644D01*
X16060644Y-4884644D01*
X16060644Y-4955356D01*
X16131356Y-4955356D01*
X16131356Y-9781356D02*
X16131356Y-9710644D01*
X16060644Y-9710644D01*
X16060644Y-9781356D01*
X16131356Y-9781356D01*
X16385356Y-4955356D02*
X16385356Y-4884644D01*
X16314644Y-4884644D01*
X16314644Y-4955356D01*
X16385356Y-4955356D01*
X16385356Y-9781356D02*
X16385356Y-9710644D01*
X16314644Y-9710644D01*
X16314644Y-9781356D01*
X16385356Y-9781356D01*
X19561356Y-4955356D02*
X19561356Y-4884644D01*
X19490644Y-4884644D01*
X19490644Y-4955356D01*
X19561356Y-4955356D01*
X20321356Y-4955356D02*
X20321356Y-4884644D01*
X20250644Y-4884644D01*
X20250644Y-4955356D01*
X20321356Y-4955356D01*
D16*
X11406000Y-8037000D02*
X11471000Y-7972000D01*
X11406000Y-7907000D01*
X11341000Y-7972000D01*
X11406000Y-8037000D01*
X11406000Y-8537000D02*
X11471000Y-8472000D01*
X11406000Y-8407000D01*
X11341000Y-8472000D01*
X11406000Y-8537000D01*
X12656000Y-8037000D02*
X12721000Y-7972000D01*
X12656000Y-7907000D01*
X12591000Y-7972000D01*
X12656000Y-8037000D01*
X12656000Y-8537000D02*
X12721000Y-8472000D01*
X12656000Y-8407000D01*
X12591000Y-8472000D01*
X12656000Y-8537000D01*
X13232500Y-8033000D02*
X13297500Y-7968000D01*
X13232500Y-7903000D01*
X13167500Y-7968000D01*
X13232500Y-8033000D01*
X13232500Y-8533000D02*
X13297500Y-8468000D01*
X13232500Y-8403000D01*
X13167500Y-8468000D01*
X13232500Y-8533000D01*
X14482500Y-8033000D02*
X14547500Y-7968000D01*
X14482500Y-7903000D01*
X14417500Y-7968000D01*
X14482500Y-8033000D01*
X14482500Y-8533000D02*
X14547500Y-8468000D01*
X14482500Y-8403000D01*
X14417500Y-8468000D01*
X14482500Y-8533000D01*
D11*
X10245119Y-10549976D02*
X10245119Y-10349976D01*
X10245119Y-10349976D02*
X10292738Y-10349976D01*
X10292738Y-10349976D02*
X10321309Y-10359500D01*
X10321309Y-10359500D02*
X10340357Y-10378548D01*
X10340357Y-10378548D02*
X10349881Y-10397595D01*
X10349881Y-10397595D02*
X10359405Y-10435690D01*
X10359405Y-10435690D02*
X10359405Y-10464262D01*
X10359405Y-10464262D02*
X10349881Y-10502357D01*
X10349881Y-10502357D02*
X10340357Y-10521405D01*
X10340357Y-10521405D02*
X10321309Y-10540452D01*
X10321309Y-10540452D02*
X10292738Y-10549976D01*
X10292738Y-10549976D02*
X10245119Y-10549976D01*
X10445119Y-10549976D02*
X10445119Y-10416643D01*
X10445119Y-10454738D02*
X10454643Y-10435690D01*
X10454643Y-10435690D02*
X10464167Y-10426167D01*
X10464167Y-10426167D02*
X10483214Y-10416643D01*
X10483214Y-10416643D02*
X10502262Y-10416643D01*
X10568928Y-10549976D02*
X10568928Y-10416643D01*
X10568928Y-10349976D02*
X10559405Y-10359500D01*
X10559405Y-10359500D02*
X10568928Y-10369024D01*
X10568928Y-10369024D02*
X10578452Y-10359500D01*
X10578452Y-10359500D02*
X10568928Y-10349976D01*
X10568928Y-10349976D02*
X10568928Y-10369024D01*
X10692738Y-10549976D02*
X10673690Y-10540452D01*
X10673690Y-10540452D02*
X10664167Y-10521405D01*
X10664167Y-10521405D02*
X10664167Y-10349976D01*
X10797500Y-10549976D02*
X10778452Y-10540452D01*
X10778452Y-10540452D02*
X10768928Y-10521405D01*
X10768928Y-10521405D02*
X10768928Y-10349976D01*
X10993690Y-10549976D02*
X10993690Y-10349976D01*
X10993690Y-10349976D02*
X11060357Y-10492833D01*
X11060357Y-10492833D02*
X11127024Y-10349976D01*
X11127024Y-10349976D02*
X11127024Y-10549976D01*
X11307976Y-10549976D02*
X11307976Y-10445214D01*
X11307976Y-10445214D02*
X11298452Y-10426167D01*
X11298452Y-10426167D02*
X11279405Y-10416643D01*
X11279405Y-10416643D02*
X11241309Y-10416643D01*
X11241309Y-10416643D02*
X11222262Y-10426167D01*
X11307976Y-10540452D02*
X11288928Y-10549976D01*
X11288928Y-10549976D02*
X11241309Y-10549976D01*
X11241309Y-10549976D02*
X11222262Y-10540452D01*
X11222262Y-10540452D02*
X11212738Y-10521405D01*
X11212738Y-10521405D02*
X11212738Y-10502357D01*
X11212738Y-10502357D02*
X11222262Y-10483310D01*
X11222262Y-10483310D02*
X11241309Y-10473786D01*
X11241309Y-10473786D02*
X11288928Y-10473786D01*
X11288928Y-10473786D02*
X11307976Y-10464262D01*
X11403214Y-10416643D02*
X11403214Y-10616643D01*
X11403214Y-10426167D02*
X11422262Y-10416643D01*
X11422262Y-10416643D02*
X11460357Y-10416643D01*
X11460357Y-10416643D02*
X11479405Y-10426167D01*
X11479405Y-10426167D02*
X11488928Y-10435690D01*
X11488928Y-10435690D02*
X11498452Y-10454738D01*
X11498452Y-10454738D02*
X11498452Y-10511881D01*
X11498452Y-10511881D02*
X11488928Y-10530929D01*
X11488928Y-10530929D02*
X11479405Y-10540452D01*
X11479405Y-10540452D02*
X11460357Y-10549976D01*
X11460357Y-10549976D02*
X11422262Y-10549976D01*
X11422262Y-10549976D02*
X11403214Y-10540452D01*
X11584166Y-10530929D02*
X11593690Y-10540452D01*
X11593690Y-10540452D02*
X11584166Y-10549976D01*
X11584166Y-10549976D02*
X11574643Y-10540452D01*
X11574643Y-10540452D02*
X11584166Y-10530929D01*
X11584166Y-10530929D02*
X11584166Y-10549976D01*
X11584166Y-10426167D02*
X11593690Y-10435690D01*
X11593690Y-10435690D02*
X11584166Y-10445214D01*
X11584166Y-10445214D02*
X11574643Y-10435690D01*
X11574643Y-10435690D02*
X11584166Y-10426167D01*
X11584166Y-10426167D02*
X11584166Y-10445214D01*
D12*
X9967500Y-10881500D02*
X9997500Y-10911500D01*
X9997500Y-10881500D02*
X9967500Y-10911500D01*
D11*
X10283214Y-10769976D02*
X10302262Y-10769976D01*
X10302262Y-10769976D02*
X10321309Y-10779500D01*
X10321309Y-10779500D02*
X10330833Y-10789024D01*
X10330833Y-10789024D02*
X10340357Y-10808071D01*
X10340357Y-10808071D02*
X10349881Y-10846167D01*
X10349881Y-10846167D02*
X10349881Y-10893786D01*
X10349881Y-10893786D02*
X10340357Y-10931881D01*
X10340357Y-10931881D02*
X10330833Y-10950929D01*
X10330833Y-10950929D02*
X10321309Y-10960452D01*
X10321309Y-10960452D02*
X10302262Y-10969976D01*
X10302262Y-10969976D02*
X10283214Y-10969976D01*
X10283214Y-10969976D02*
X10264167Y-10960452D01*
X10264167Y-10960452D02*
X10254643Y-10950929D01*
X10254643Y-10950929D02*
X10245119Y-10931881D01*
X10245119Y-10931881D02*
X10235595Y-10893786D01*
X10235595Y-10893786D02*
X10235595Y-10846167D01*
X10235595Y-10846167D02*
X10245119Y-10808071D01*
X10245119Y-10808071D02*
X10254643Y-10789024D01*
X10254643Y-10789024D02*
X10264167Y-10779500D01*
X10264167Y-10779500D02*
X10283214Y-10769976D01*
X10435595Y-10950929D02*
X10445119Y-10960452D01*
X10445119Y-10960452D02*
X10435595Y-10969976D01*
X10435595Y-10969976D02*
X10426071Y-10960452D01*
X10426071Y-10960452D02*
X10435595Y-10950929D01*
X10435595Y-10950929D02*
X10435595Y-10969976D01*
X10511786Y-10769976D02*
X10635595Y-10769976D01*
X10635595Y-10769976D02*
X10568928Y-10846167D01*
X10568928Y-10846167D02*
X10597500Y-10846167D01*
X10597500Y-10846167D02*
X10616548Y-10855690D01*
X10616548Y-10855690D02*
X10626071Y-10865214D01*
X10626071Y-10865214D02*
X10635595Y-10884262D01*
X10635595Y-10884262D02*
X10635595Y-10931881D01*
X10635595Y-10931881D02*
X10626071Y-10950929D01*
X10626071Y-10950929D02*
X10616548Y-10960452D01*
X10616548Y-10960452D02*
X10597500Y-10969976D01*
X10597500Y-10969976D02*
X10540357Y-10969976D01*
X10540357Y-10969976D02*
X10521309Y-10960452D01*
X10521309Y-10960452D02*
X10511786Y-10950929D01*
X10759405Y-10769976D02*
X10778452Y-10769976D01*
X10778452Y-10769976D02*
X10797500Y-10779500D01*
X10797500Y-10779500D02*
X10807024Y-10789024D01*
X10807024Y-10789024D02*
X10816548Y-10808071D01*
X10816548Y-10808071D02*
X10826071Y-10846167D01*
X10826071Y-10846167D02*
X10826071Y-10893786D01*
X10826071Y-10893786D02*
X10816548Y-10931881D01*
X10816548Y-10931881D02*
X10807024Y-10950929D01*
X10807024Y-10950929D02*
X10797500Y-10960452D01*
X10797500Y-10960452D02*
X10778452Y-10969976D01*
X10778452Y-10969976D02*
X10759405Y-10969976D01*
X10759405Y-10969976D02*
X10740357Y-10960452D01*
X10740357Y-10960452D02*
X10730833Y-10950929D01*
X10730833Y-10950929D02*
X10721309Y-10931881D01*
X10721309Y-10931881D02*
X10711786Y-10893786D01*
X10711786Y-10893786D02*
X10711786Y-10846167D01*
X10711786Y-10846167D02*
X10721309Y-10808071D01*
X10721309Y-10808071D02*
X10730833Y-10789024D01*
X10730833Y-10789024D02*
X10740357Y-10779500D01*
X10740357Y-10779500D02*
X10759405Y-10769976D01*
X10949881Y-10769976D02*
X10968929Y-10769976D01*
X10968929Y-10769976D02*
X10987976Y-10779500D01*
X10987976Y-10779500D02*
X10997500Y-10789024D01*
X10997500Y-10789024D02*
X11007024Y-10808071D01*
X11007024Y-10808071D02*
X11016548Y-10846167D01*
X11016548Y-10846167D02*
X11016548Y-10893786D01*
X11016548Y-10893786D02*
X11007024Y-10931881D01*
X11007024Y-10931881D02*
X10997500Y-10950929D01*
X10997500Y-10950929D02*
X10987976Y-10960452D01*
X10987976Y-10960452D02*
X10968929Y-10969976D01*
X10968929Y-10969976D02*
X10949881Y-10969976D01*
X10949881Y-10969976D02*
X10930833Y-10960452D01*
X10930833Y-10960452D02*
X10921309Y-10950929D01*
X10921309Y-10950929D02*
X10911786Y-10931881D01*
X10911786Y-10931881D02*
X10902262Y-10893786D01*
X10902262Y-10893786D02*
X10902262Y-10846167D01*
X10902262Y-10846167D02*
X10911786Y-10808071D01*
X10911786Y-10808071D02*
X10921309Y-10789024D01*
X10921309Y-10789024D02*
X10930833Y-10779500D01*
X10930833Y-10779500D02*
X10949881Y-10769976D01*
X11102262Y-10969976D02*
X11102262Y-10836643D01*
X11102262Y-10855690D02*
X11111786Y-10846167D01*
X11111786Y-10846167D02*
X11130833Y-10836643D01*
X11130833Y-10836643D02*
X11159405Y-10836643D01*
X11159405Y-10836643D02*
X11178452Y-10846167D01*
X11178452Y-10846167D02*
X11187976Y-10865214D01*
X11187976Y-10865214D02*
X11187976Y-10969976D01*
X11187976Y-10865214D02*
X11197500Y-10846167D01*
X11197500Y-10846167D02*
X11216547Y-10836643D01*
X11216547Y-10836643D02*
X11245119Y-10836643D01*
X11245119Y-10836643D02*
X11264167Y-10846167D01*
X11264167Y-10846167D02*
X11273690Y-10865214D01*
X11273690Y-10865214D02*
X11273690Y-10969976D01*
X11368928Y-10969976D02*
X11368928Y-10836643D01*
X11368928Y-10855690D02*
X11378452Y-10846167D01*
X11378452Y-10846167D02*
X11397500Y-10836643D01*
X11397500Y-10836643D02*
X11426071Y-10836643D01*
X11426071Y-10836643D02*
X11445119Y-10846167D01*
X11445119Y-10846167D02*
X11454643Y-10865214D01*
X11454643Y-10865214D02*
X11454643Y-10969976D01*
X11454643Y-10865214D02*
X11464167Y-10846167D01*
X11464167Y-10846167D02*
X11483214Y-10836643D01*
X11483214Y-10836643D02*
X11511786Y-10836643D01*
X11511786Y-10836643D02*
X11530833Y-10846167D01*
X11530833Y-10846167D02*
X11540357Y-10865214D01*
X11540357Y-10865214D02*
X11540357Y-10969976D01*
X11898452Y-10760452D02*
X11727024Y-11017595D01*
X12123214Y-10769976D02*
X12142262Y-10769976D01*
X12142262Y-10769976D02*
X12161309Y-10779500D01*
X12161309Y-10779500D02*
X12170833Y-10789024D01*
X12170833Y-10789024D02*
X12180357Y-10808071D01*
X12180357Y-10808071D02*
X12189881Y-10846167D01*
X12189881Y-10846167D02*
X12189881Y-10893786D01*
X12189881Y-10893786D02*
X12180357Y-10931881D01*
X12180357Y-10931881D02*
X12170833Y-10950929D01*
X12170833Y-10950929D02*
X12161309Y-10960452D01*
X12161309Y-10960452D02*
X12142262Y-10969976D01*
X12142262Y-10969976D02*
X12123214Y-10969976D01*
X12123214Y-10969976D02*
X12104167Y-10960452D01*
X12104167Y-10960452D02*
X12094643Y-10950929D01*
X12094643Y-10950929D02*
X12085119Y-10931881D01*
X12085119Y-10931881D02*
X12075595Y-10893786D01*
X12075595Y-10893786D02*
X12075595Y-10846167D01*
X12075595Y-10846167D02*
X12085119Y-10808071D01*
X12085119Y-10808071D02*
X12094643Y-10789024D01*
X12094643Y-10789024D02*
X12104167Y-10779500D01*
X12104167Y-10779500D02*
X12123214Y-10769976D01*
X12275595Y-10950929D02*
X12285119Y-10960452D01*
X12285119Y-10960452D02*
X12275595Y-10969976D01*
X12275595Y-10969976D02*
X12266071Y-10960452D01*
X12266071Y-10960452D02*
X12275595Y-10950929D01*
X12275595Y-10950929D02*
X12275595Y-10969976D01*
X12408928Y-10769976D02*
X12427976Y-10769976D01*
X12427976Y-10769976D02*
X12447024Y-10779500D01*
X12447024Y-10779500D02*
X12456548Y-10789024D01*
X12456548Y-10789024D02*
X12466071Y-10808071D01*
X12466071Y-10808071D02*
X12475595Y-10846167D01*
X12475595Y-10846167D02*
X12475595Y-10893786D01*
X12475595Y-10893786D02*
X12466071Y-10931881D01*
X12466071Y-10931881D02*
X12456548Y-10950929D01*
X12456548Y-10950929D02*
X12447024Y-10960452D01*
X12447024Y-10960452D02*
X12427976Y-10969976D01*
X12427976Y-10969976D02*
X12408928Y-10969976D01*
X12408928Y-10969976D02*
X12389881Y-10960452D01*
X12389881Y-10960452D02*
X12380357Y-10950929D01*
X12380357Y-10950929D02*
X12370833Y-10931881D01*
X12370833Y-10931881D02*
X12361309Y-10893786D01*
X12361309Y-10893786D02*
X12361309Y-10846167D01*
X12361309Y-10846167D02*
X12370833Y-10808071D01*
X12370833Y-10808071D02*
X12380357Y-10789024D01*
X12380357Y-10789024D02*
X12389881Y-10779500D01*
X12389881Y-10779500D02*
X12408928Y-10769976D01*
X12666071Y-10969976D02*
X12551786Y-10969976D01*
X12608928Y-10969976D02*
X12608928Y-10769976D01*
X12608928Y-10769976D02*
X12589881Y-10798548D01*
X12589881Y-10798548D02*
X12570833Y-10817595D01*
X12570833Y-10817595D02*
X12551786Y-10827119D01*
X12856548Y-10969976D02*
X12742262Y-10969976D01*
X12799405Y-10969976D02*
X12799405Y-10769976D01*
X12799405Y-10769976D02*
X12780357Y-10798548D01*
X12780357Y-10798548D02*
X12761309Y-10817595D01*
X12761309Y-10817595D02*
X12742262Y-10827119D01*
X12970833Y-10855690D02*
X12951786Y-10846167D01*
X12951786Y-10846167D02*
X12942262Y-10836643D01*
X12942262Y-10836643D02*
X12932738Y-10817595D01*
X12932738Y-10817595D02*
X12932738Y-10808071D01*
X12932738Y-10808071D02*
X12942262Y-10789024D01*
X12942262Y-10789024D02*
X12951786Y-10779500D01*
X12951786Y-10779500D02*
X12970833Y-10769976D01*
X12970833Y-10769976D02*
X13008929Y-10769976D01*
X13008929Y-10769976D02*
X13027976Y-10779500D01*
X13027976Y-10779500D02*
X13037500Y-10789024D01*
X13037500Y-10789024D02*
X13047024Y-10808071D01*
X13047024Y-10808071D02*
X13047024Y-10817595D01*
X13047024Y-10817595D02*
X13037500Y-10836643D01*
X13037500Y-10836643D02*
X13027976Y-10846167D01*
X13027976Y-10846167D02*
X13008929Y-10855690D01*
X13008929Y-10855690D02*
X12970833Y-10855690D01*
X12970833Y-10855690D02*
X12951786Y-10865214D01*
X12951786Y-10865214D02*
X12942262Y-10874738D01*
X12942262Y-10874738D02*
X12932738Y-10893786D01*
X12932738Y-10893786D02*
X12932738Y-10931881D01*
X12932738Y-10931881D02*
X12942262Y-10950929D01*
X12942262Y-10950929D02*
X12951786Y-10960452D01*
X12951786Y-10960452D02*
X12970833Y-10969976D01*
X12970833Y-10969976D02*
X13008929Y-10969976D01*
X13008929Y-10969976D02*
X13027976Y-10960452D01*
X13027976Y-10960452D02*
X13037500Y-10950929D01*
X13037500Y-10950929D02*
X13047024Y-10931881D01*
X13047024Y-10931881D02*
X13047024Y-10893786D01*
X13047024Y-10893786D02*
X13037500Y-10874738D01*
X13037500Y-10874738D02*
X13027976Y-10865214D01*
X13027976Y-10865214D02*
X13008929Y-10855690D01*
X13123214Y-10769976D02*
X13123214Y-10808071D01*
X13199405Y-10769976D02*
X13199405Y-10808071D01*
X13462262Y-11046167D02*
X13452738Y-11036643D01*
X13452738Y-11036643D02*
X13433690Y-11008071D01*
X13433690Y-11008071D02*
X13424167Y-10989024D01*
X13424167Y-10989024D02*
X13414643Y-10960452D01*
X13414643Y-10960452D02*
X13405119Y-10912833D01*
X13405119Y-10912833D02*
X13405119Y-10874738D01*
X13405119Y-10874738D02*
X13414643Y-10827119D01*
X13414643Y-10827119D02*
X13424167Y-10798548D01*
X13424167Y-10798548D02*
X13433690Y-10779500D01*
X13433690Y-10779500D02*
X13452738Y-10750929D01*
X13452738Y-10750929D02*
X13462262Y-10741405D01*
X13519405Y-10769976D02*
X13643214Y-10769976D01*
X13643214Y-10769976D02*
X13576548Y-10846167D01*
X13576548Y-10846167D02*
X13605119Y-10846167D01*
X13605119Y-10846167D02*
X13624167Y-10855690D01*
X13624167Y-10855690D02*
X13633690Y-10865214D01*
X13633690Y-10865214D02*
X13643214Y-10884262D01*
X13643214Y-10884262D02*
X13643214Y-10931881D01*
X13643214Y-10931881D02*
X13633690Y-10950929D01*
X13633690Y-10950929D02*
X13624167Y-10960452D01*
X13624167Y-10960452D02*
X13605119Y-10969976D01*
X13605119Y-10969976D02*
X13547976Y-10969976D01*
X13547976Y-10969976D02*
X13528929Y-10960452D01*
X13528929Y-10960452D02*
X13519405Y-10950929D01*
X13848929Y-10969976D02*
X13848929Y-10769976D01*
X13934643Y-10969976D02*
X13934643Y-10865214D01*
X13934643Y-10865214D02*
X13925119Y-10846167D01*
X13925119Y-10846167D02*
X13906071Y-10836643D01*
X13906071Y-10836643D02*
X13877500Y-10836643D01*
X13877500Y-10836643D02*
X13858452Y-10846167D01*
X13858452Y-10846167D02*
X13848929Y-10855690D01*
X14058452Y-10969976D02*
X14039405Y-10960452D01*
X14039405Y-10960452D02*
X14029881Y-10950929D01*
X14029881Y-10950929D02*
X14020357Y-10931881D01*
X14020357Y-10931881D02*
X14020357Y-10874738D01*
X14020357Y-10874738D02*
X14029881Y-10855690D01*
X14029881Y-10855690D02*
X14039405Y-10846167D01*
X14039405Y-10846167D02*
X14058452Y-10836643D01*
X14058452Y-10836643D02*
X14087024Y-10836643D01*
X14087024Y-10836643D02*
X14106071Y-10846167D01*
X14106071Y-10846167D02*
X14115595Y-10855690D01*
X14115595Y-10855690D02*
X14125119Y-10874738D01*
X14125119Y-10874738D02*
X14125119Y-10931881D01*
X14125119Y-10931881D02*
X14115595Y-10950929D01*
X14115595Y-10950929D02*
X14106071Y-10960452D01*
X14106071Y-10960452D02*
X14087024Y-10969976D01*
X14087024Y-10969976D02*
X14058452Y-10969976D01*
X14239405Y-10969976D02*
X14220357Y-10960452D01*
X14220357Y-10960452D02*
X14210833Y-10941405D01*
X14210833Y-10941405D02*
X14210833Y-10769976D01*
X14391786Y-10960452D02*
X14372738Y-10969976D01*
X14372738Y-10969976D02*
X14334643Y-10969976D01*
X14334643Y-10969976D02*
X14315595Y-10960452D01*
X14315595Y-10960452D02*
X14306071Y-10941405D01*
X14306071Y-10941405D02*
X14306071Y-10865214D01*
X14306071Y-10865214D02*
X14315595Y-10846167D01*
X14315595Y-10846167D02*
X14334643Y-10836643D01*
X14334643Y-10836643D02*
X14372738Y-10836643D01*
X14372738Y-10836643D02*
X14391786Y-10846167D01*
X14391786Y-10846167D02*
X14401310Y-10865214D01*
X14401310Y-10865214D02*
X14401310Y-10884262D01*
X14401310Y-10884262D02*
X14306071Y-10903310D01*
X14477500Y-10960452D02*
X14496548Y-10969976D01*
X14496548Y-10969976D02*
X14534643Y-10969976D01*
X14534643Y-10969976D02*
X14553691Y-10960452D01*
X14553691Y-10960452D02*
X14563214Y-10941405D01*
X14563214Y-10941405D02*
X14563214Y-10931881D01*
X14563214Y-10931881D02*
X14553691Y-10912833D01*
X14553691Y-10912833D02*
X14534643Y-10903310D01*
X14534643Y-10903310D02*
X14506071Y-10903310D01*
X14506071Y-10903310D02*
X14487024Y-10893786D01*
X14487024Y-10893786D02*
X14477500Y-10874738D01*
X14477500Y-10874738D02*
X14477500Y-10865214D01*
X14477500Y-10865214D02*
X14487024Y-10846167D01*
X14487024Y-10846167D02*
X14506071Y-10836643D01*
X14506071Y-10836643D02*
X14534643Y-10836643D01*
X14534643Y-10836643D02*
X14553691Y-10846167D01*
X14629881Y-11046167D02*
X14639405Y-11036643D01*
X14639405Y-11036643D02*
X14658452Y-11008071D01*
X14658452Y-11008071D02*
X14667976Y-10989024D01*
X14667976Y-10989024D02*
X14677500Y-10960452D01*
X14677500Y-10960452D02*
X14687024Y-10912833D01*
X14687024Y-10912833D02*
X14687024Y-10874738D01*
X14687024Y-10874738D02*
X14677500Y-10827119D01*
X14677500Y-10827119D02*
X14667976Y-10798548D01*
X14667976Y-10798548D02*
X14658452Y-10779500D01*
X14658452Y-10779500D02*
X14639405Y-10750929D01*
X14639405Y-10750929D02*
X14629881Y-10741405D01*
D13*
X9997500Y-11160500D02*
G75*
G03*
X9997500Y-11160500I-40000J0D01*
G01*
D11*
X10283214Y-11033976D02*
X10302262Y-11033976D01*
X10302262Y-11033976D02*
X10321309Y-11043500D01*
X10321309Y-11043500D02*
X10330833Y-11053024D01*
X10330833Y-11053024D02*
X10340357Y-11072071D01*
X10340357Y-11072071D02*
X10349881Y-11110167D01*
X10349881Y-11110167D02*
X10349881Y-11157786D01*
X10349881Y-11157786D02*
X10340357Y-11195881D01*
X10340357Y-11195881D02*
X10330833Y-11214928D01*
X10330833Y-11214928D02*
X10321309Y-11224452D01*
X10321309Y-11224452D02*
X10302262Y-11233976D01*
X10302262Y-11233976D02*
X10283214Y-11233976D01*
X10283214Y-11233976D02*
X10264167Y-11224452D01*
X10264167Y-11224452D02*
X10254643Y-11214928D01*
X10254643Y-11214928D02*
X10245119Y-11195881D01*
X10245119Y-11195881D02*
X10235595Y-11157786D01*
X10235595Y-11157786D02*
X10235595Y-11110167D01*
X10235595Y-11110167D02*
X10245119Y-11072071D01*
X10245119Y-11072071D02*
X10254643Y-11053024D01*
X10254643Y-11053024D02*
X10264167Y-11043500D01*
X10264167Y-11043500D02*
X10283214Y-11033976D01*
X10435595Y-11214928D02*
X10445119Y-11224452D01*
X10445119Y-11224452D02*
X10435595Y-11233976D01*
X10435595Y-11233976D02*
X10426071Y-11224452D01*
X10426071Y-11224452D02*
X10435595Y-11214928D01*
X10435595Y-11214928D02*
X10435595Y-11233976D01*
X10559405Y-11119690D02*
X10540357Y-11110167D01*
X10540357Y-11110167D02*
X10530833Y-11100643D01*
X10530833Y-11100643D02*
X10521309Y-11081595D01*
X10521309Y-11081595D02*
X10521309Y-11072071D01*
X10521309Y-11072071D02*
X10530833Y-11053024D01*
X10530833Y-11053024D02*
X10540357Y-11043500D01*
X10540357Y-11043500D02*
X10559405Y-11033976D01*
X10559405Y-11033976D02*
X10597500Y-11033976D01*
X10597500Y-11033976D02*
X10616548Y-11043500D01*
X10616548Y-11043500D02*
X10626071Y-11053024D01*
X10626071Y-11053024D02*
X10635595Y-11072071D01*
X10635595Y-11072071D02*
X10635595Y-11081595D01*
X10635595Y-11081595D02*
X10626071Y-11100643D01*
X10626071Y-11100643D02*
X10616548Y-11110167D01*
X10616548Y-11110167D02*
X10597500Y-11119690D01*
X10597500Y-11119690D02*
X10559405Y-11119690D01*
X10559405Y-11119690D02*
X10540357Y-11129214D01*
X10540357Y-11129214D02*
X10530833Y-11138738D01*
X10530833Y-11138738D02*
X10521309Y-11157786D01*
X10521309Y-11157786D02*
X10521309Y-11195881D01*
X10521309Y-11195881D02*
X10530833Y-11214928D01*
X10530833Y-11214928D02*
X10540357Y-11224452D01*
X10540357Y-11224452D02*
X10559405Y-11233976D01*
X10559405Y-11233976D02*
X10597500Y-11233976D01*
X10597500Y-11233976D02*
X10616548Y-11224452D01*
X10616548Y-11224452D02*
X10626071Y-11214928D01*
X10626071Y-11214928D02*
X10635595Y-11195881D01*
X10635595Y-11195881D02*
X10635595Y-11157786D01*
X10635595Y-11157786D02*
X10626071Y-11138738D01*
X10626071Y-11138738D02*
X10616548Y-11129214D01*
X10616548Y-11129214D02*
X10597500Y-11119690D01*
X10759405Y-11033976D02*
X10778452Y-11033976D01*
X10778452Y-11033976D02*
X10797500Y-11043500D01*
X10797500Y-11043500D02*
X10807024Y-11053024D01*
X10807024Y-11053024D02*
X10816548Y-11072071D01*
X10816548Y-11072071D02*
X10826071Y-11110167D01*
X10826071Y-11110167D02*
X10826071Y-11157786D01*
X10826071Y-11157786D02*
X10816548Y-11195881D01*
X10816548Y-11195881D02*
X10807024Y-11214928D01*
X10807024Y-11214928D02*
X10797500Y-11224452D01*
X10797500Y-11224452D02*
X10778452Y-11233976D01*
X10778452Y-11233976D02*
X10759405Y-11233976D01*
X10759405Y-11233976D02*
X10740357Y-11224452D01*
X10740357Y-11224452D02*
X10730833Y-11214928D01*
X10730833Y-11214928D02*
X10721309Y-11195881D01*
X10721309Y-11195881D02*
X10711786Y-11157786D01*
X10711786Y-11157786D02*
X10711786Y-11110167D01*
X10711786Y-11110167D02*
X10721309Y-11072071D01*
X10721309Y-11072071D02*
X10730833Y-11053024D01*
X10730833Y-11053024D02*
X10740357Y-11043500D01*
X10740357Y-11043500D02*
X10759405Y-11033976D01*
X10949881Y-11033976D02*
X10968929Y-11033976D01*
X10968929Y-11033976D02*
X10987976Y-11043500D01*
X10987976Y-11043500D02*
X10997500Y-11053024D01*
X10997500Y-11053024D02*
X11007024Y-11072071D01*
X11007024Y-11072071D02*
X11016548Y-11110167D01*
X11016548Y-11110167D02*
X11016548Y-11157786D01*
X11016548Y-11157786D02*
X11007024Y-11195881D01*
X11007024Y-11195881D02*
X10997500Y-11214928D01*
X10997500Y-11214928D02*
X10987976Y-11224452D01*
X10987976Y-11224452D02*
X10968929Y-11233976D01*
X10968929Y-11233976D02*
X10949881Y-11233976D01*
X10949881Y-11233976D02*
X10930833Y-11224452D01*
X10930833Y-11224452D02*
X10921309Y-11214928D01*
X10921309Y-11214928D02*
X10911786Y-11195881D01*
X10911786Y-11195881D02*
X10902262Y-11157786D01*
X10902262Y-11157786D02*
X10902262Y-11110167D01*
X10902262Y-11110167D02*
X10911786Y-11072071D01*
X10911786Y-11072071D02*
X10921309Y-11053024D01*
X10921309Y-11053024D02*
X10930833Y-11043500D01*
X10930833Y-11043500D02*
X10949881Y-11033976D01*
X11102262Y-11233976D02*
X11102262Y-11100643D01*
X11102262Y-11119690D02*
X11111786Y-11110167D01*
X11111786Y-11110167D02*
X11130833Y-11100643D01*
X11130833Y-11100643D02*
X11159405Y-11100643D01*
X11159405Y-11100643D02*
X11178452Y-11110167D01*
X11178452Y-11110167D02*
X11187976Y-11129214D01*
X11187976Y-11129214D02*
X11187976Y-11233976D01*
X11187976Y-11129214D02*
X11197500Y-11110167D01*
X11197500Y-11110167D02*
X11216547Y-11100643D01*
X11216547Y-11100643D02*
X11245119Y-11100643D01*
X11245119Y-11100643D02*
X11264167Y-11110167D01*
X11264167Y-11110167D02*
X11273690Y-11129214D01*
X11273690Y-11129214D02*
X11273690Y-11233976D01*
X11368928Y-11233976D02*
X11368928Y-11100643D01*
X11368928Y-11119690D02*
X11378452Y-11110167D01*
X11378452Y-11110167D02*
X11397500Y-11100643D01*
X11397500Y-11100643D02*
X11426071Y-11100643D01*
X11426071Y-11100643D02*
X11445119Y-11110167D01*
X11445119Y-11110167D02*
X11454643Y-11129214D01*
X11454643Y-11129214D02*
X11454643Y-11233976D01*
X11454643Y-11129214D02*
X11464167Y-11110167D01*
X11464167Y-11110167D02*
X11483214Y-11100643D01*
X11483214Y-11100643D02*
X11511786Y-11100643D01*
X11511786Y-11100643D02*
X11530833Y-11110167D01*
X11530833Y-11110167D02*
X11540357Y-11129214D01*
X11540357Y-11129214D02*
X11540357Y-11233976D01*
X11898452Y-11024452D02*
X11727024Y-11281595D01*
X12123214Y-11033976D02*
X12142262Y-11033976D01*
X12142262Y-11033976D02*
X12161309Y-11043500D01*
X12161309Y-11043500D02*
X12170833Y-11053024D01*
X12170833Y-11053024D02*
X12180357Y-11072071D01*
X12180357Y-11072071D02*
X12189881Y-11110167D01*
X12189881Y-11110167D02*
X12189881Y-11157786D01*
X12189881Y-11157786D02*
X12180357Y-11195881D01*
X12180357Y-11195881D02*
X12170833Y-11214928D01*
X12170833Y-11214928D02*
X12161309Y-11224452D01*
X12161309Y-11224452D02*
X12142262Y-11233976D01*
X12142262Y-11233976D02*
X12123214Y-11233976D01*
X12123214Y-11233976D02*
X12104167Y-11224452D01*
X12104167Y-11224452D02*
X12094643Y-11214928D01*
X12094643Y-11214928D02*
X12085119Y-11195881D01*
X12085119Y-11195881D02*
X12075595Y-11157786D01*
X12075595Y-11157786D02*
X12075595Y-11110167D01*
X12075595Y-11110167D02*
X12085119Y-11072071D01*
X12085119Y-11072071D02*
X12094643Y-11053024D01*
X12094643Y-11053024D02*
X12104167Y-11043500D01*
X12104167Y-11043500D02*
X12123214Y-11033976D01*
X12275595Y-11214928D02*
X12285119Y-11224452D01*
X12285119Y-11224452D02*
X12275595Y-11233976D01*
X12275595Y-11233976D02*
X12266071Y-11224452D01*
X12266071Y-11224452D02*
X12275595Y-11214928D01*
X12275595Y-11214928D02*
X12275595Y-11233976D01*
X12408928Y-11033976D02*
X12427976Y-11033976D01*
X12427976Y-11033976D02*
X12447024Y-11043500D01*
X12447024Y-11043500D02*
X12456548Y-11053024D01*
X12456548Y-11053024D02*
X12466071Y-11072071D01*
X12466071Y-11072071D02*
X12475595Y-11110167D01*
X12475595Y-11110167D02*
X12475595Y-11157786D01*
X12475595Y-11157786D02*
X12466071Y-11195881D01*
X12466071Y-11195881D02*
X12456548Y-11214928D01*
X12456548Y-11214928D02*
X12447024Y-11224452D01*
X12447024Y-11224452D02*
X12427976Y-11233976D01*
X12427976Y-11233976D02*
X12408928Y-11233976D01*
X12408928Y-11233976D02*
X12389881Y-11224452D01*
X12389881Y-11224452D02*
X12380357Y-11214928D01*
X12380357Y-11214928D02*
X12370833Y-11195881D01*
X12370833Y-11195881D02*
X12361309Y-11157786D01*
X12361309Y-11157786D02*
X12361309Y-11110167D01*
X12361309Y-11110167D02*
X12370833Y-11072071D01*
X12370833Y-11072071D02*
X12380357Y-11053024D01*
X12380357Y-11053024D02*
X12389881Y-11043500D01*
X12389881Y-11043500D02*
X12408928Y-11033976D01*
X12542262Y-11033976D02*
X12666071Y-11033976D01*
X12666071Y-11033976D02*
X12599405Y-11110167D01*
X12599405Y-11110167D02*
X12627976Y-11110167D01*
X12627976Y-11110167D02*
X12647024Y-11119690D01*
X12647024Y-11119690D02*
X12656548Y-11129214D01*
X12656548Y-11129214D02*
X12666071Y-11148262D01*
X12666071Y-11148262D02*
X12666071Y-11195881D01*
X12666071Y-11195881D02*
X12656548Y-11214928D01*
X12656548Y-11214928D02*
X12647024Y-11224452D01*
X12647024Y-11224452D02*
X12627976Y-11233976D01*
X12627976Y-11233976D02*
X12570833Y-11233976D01*
X12570833Y-11233976D02*
X12551786Y-11224452D01*
X12551786Y-11224452D02*
X12542262Y-11214928D01*
X12856548Y-11233976D02*
X12742262Y-11233976D01*
X12799405Y-11233976D02*
X12799405Y-11033976D01*
X12799405Y-11033976D02*
X12780357Y-11062548D01*
X12780357Y-11062548D02*
X12761309Y-11081595D01*
X12761309Y-11081595D02*
X12742262Y-11091119D01*
X13037500Y-11033976D02*
X12942262Y-11033976D01*
X12942262Y-11033976D02*
X12932738Y-11129214D01*
X12932738Y-11129214D02*
X12942262Y-11119690D01*
X12942262Y-11119690D02*
X12961309Y-11110167D01*
X12961309Y-11110167D02*
X13008929Y-11110167D01*
X13008929Y-11110167D02*
X13027976Y-11119690D01*
X13027976Y-11119690D02*
X13037500Y-11129214D01*
X13037500Y-11129214D02*
X13047024Y-11148262D01*
X13047024Y-11148262D02*
X13047024Y-11195881D01*
X13047024Y-11195881D02*
X13037500Y-11214928D01*
X13037500Y-11214928D02*
X13027976Y-11224452D01*
X13027976Y-11224452D02*
X13008929Y-11233976D01*
X13008929Y-11233976D02*
X12961309Y-11233976D01*
X12961309Y-11233976D02*
X12942262Y-11224452D01*
X12942262Y-11224452D02*
X12932738Y-11214928D01*
X13123214Y-11033976D02*
X13123214Y-11072071D01*
X13199405Y-11033976D02*
X13199405Y-11072071D01*
X13462262Y-11310167D02*
X13452738Y-11300643D01*
X13452738Y-11300643D02*
X13433690Y-11272071D01*
X13433690Y-11272071D02*
X13424167Y-11253024D01*
X13424167Y-11253024D02*
X13414643Y-11224452D01*
X13414643Y-11224452D02*
X13405119Y-11176833D01*
X13405119Y-11176833D02*
X13405119Y-11138738D01*
X13405119Y-11138738D02*
X13414643Y-11091119D01*
X13414643Y-11091119D02*
X13424167Y-11062548D01*
X13424167Y-11062548D02*
X13433690Y-11043500D01*
X13433690Y-11043500D02*
X13452738Y-11014929D01*
X13452738Y-11014929D02*
X13462262Y-11005405D01*
X13624167Y-11100643D02*
X13624167Y-11233976D01*
X13576548Y-11024452D02*
X13528929Y-11167310D01*
X13528929Y-11167310D02*
X13652738Y-11167310D01*
X13767024Y-11033976D02*
X13786071Y-11033976D01*
X13786071Y-11033976D02*
X13805119Y-11043500D01*
X13805119Y-11043500D02*
X13814643Y-11053024D01*
X13814643Y-11053024D02*
X13824167Y-11072071D01*
X13824167Y-11072071D02*
X13833690Y-11110167D01*
X13833690Y-11110167D02*
X13833690Y-11157786D01*
X13833690Y-11157786D02*
X13824167Y-11195881D01*
X13824167Y-11195881D02*
X13814643Y-11214928D01*
X13814643Y-11214928D02*
X13805119Y-11224452D01*
X13805119Y-11224452D02*
X13786071Y-11233976D01*
X13786071Y-11233976D02*
X13767024Y-11233976D01*
X13767024Y-11233976D02*
X13747976Y-11224452D01*
X13747976Y-11224452D02*
X13738452Y-11214928D01*
X13738452Y-11214928D02*
X13728929Y-11195881D01*
X13728929Y-11195881D02*
X13719405Y-11157786D01*
X13719405Y-11157786D02*
X13719405Y-11110167D01*
X13719405Y-11110167D02*
X13728929Y-11072071D01*
X13728929Y-11072071D02*
X13738452Y-11053024D01*
X13738452Y-11053024D02*
X13747976Y-11043500D01*
X13747976Y-11043500D02*
X13767024Y-11033976D01*
X14039405Y-11233976D02*
X14039405Y-11033976D01*
X14125119Y-11233976D02*
X14125119Y-11129214D01*
X14125119Y-11129214D02*
X14115595Y-11110167D01*
X14115595Y-11110167D02*
X14096548Y-11100643D01*
X14096548Y-11100643D02*
X14067976Y-11100643D01*
X14067976Y-11100643D02*
X14048929Y-11110167D01*
X14048929Y-11110167D02*
X14039405Y-11119690D01*
X14248929Y-11233976D02*
X14229881Y-11224452D01*
X14229881Y-11224452D02*
X14220357Y-11214928D01*
X14220357Y-11214928D02*
X14210833Y-11195881D01*
X14210833Y-11195881D02*
X14210833Y-11138738D01*
X14210833Y-11138738D02*
X14220357Y-11119690D01*
X14220357Y-11119690D02*
X14229881Y-11110167D01*
X14229881Y-11110167D02*
X14248929Y-11100643D01*
X14248929Y-11100643D02*
X14277500Y-11100643D01*
X14277500Y-11100643D02*
X14296548Y-11110167D01*
X14296548Y-11110167D02*
X14306071Y-11119690D01*
X14306071Y-11119690D02*
X14315595Y-11138738D01*
X14315595Y-11138738D02*
X14315595Y-11195881D01*
X14315595Y-11195881D02*
X14306071Y-11214928D01*
X14306071Y-11214928D02*
X14296548Y-11224452D01*
X14296548Y-11224452D02*
X14277500Y-11233976D01*
X14277500Y-11233976D02*
X14248929Y-11233976D01*
X14429881Y-11233976D02*
X14410833Y-11224452D01*
X14410833Y-11224452D02*
X14401310Y-11205405D01*
X14401310Y-11205405D02*
X14401310Y-11033976D01*
X14582262Y-11224452D02*
X14563214Y-11233976D01*
X14563214Y-11233976D02*
X14525119Y-11233976D01*
X14525119Y-11233976D02*
X14506071Y-11224452D01*
X14506071Y-11224452D02*
X14496548Y-11205405D01*
X14496548Y-11205405D02*
X14496548Y-11129214D01*
X14496548Y-11129214D02*
X14506071Y-11110167D01*
X14506071Y-11110167D02*
X14525119Y-11100643D01*
X14525119Y-11100643D02*
X14563214Y-11100643D01*
X14563214Y-11100643D02*
X14582262Y-11110167D01*
X14582262Y-11110167D02*
X14591786Y-11129214D01*
X14591786Y-11129214D02*
X14591786Y-11148262D01*
X14591786Y-11148262D02*
X14496548Y-11167310D01*
X14667976Y-11224452D02*
X14687024Y-11233976D01*
X14687024Y-11233976D02*
X14725119Y-11233976D01*
X14725119Y-11233976D02*
X14744167Y-11224452D01*
X14744167Y-11224452D02*
X14753691Y-11205405D01*
X14753691Y-11205405D02*
X14753691Y-11195881D01*
X14753691Y-11195881D02*
X14744167Y-11176833D01*
X14744167Y-11176833D02*
X14725119Y-11167310D01*
X14725119Y-11167310D02*
X14696548Y-11167310D01*
X14696548Y-11167310D02*
X14677500Y-11157786D01*
X14677500Y-11157786D02*
X14667976Y-11138738D01*
X14667976Y-11138738D02*
X14667976Y-11129214D01*
X14667976Y-11129214D02*
X14677500Y-11110167D01*
X14677500Y-11110167D02*
X14696548Y-11100643D01*
X14696548Y-11100643D02*
X14725119Y-11100643D01*
X14725119Y-11100643D02*
X14744167Y-11110167D01*
X14820357Y-11310167D02*
X14829881Y-11300643D01*
X14829881Y-11300643D02*
X14848929Y-11272071D01*
X14848929Y-11272071D02*
X14858452Y-11253024D01*
X14858452Y-11253024D02*
X14867976Y-11224452D01*
X14867976Y-11224452D02*
X14877500Y-11176833D01*
X14877500Y-11176833D02*
X14877500Y-11138738D01*
X14877500Y-11138738D02*
X14867976Y-11091119D01*
X14867976Y-11091119D02*
X14858452Y-11062548D01*
X14858452Y-11062548D02*
X14848929Y-11043500D01*
X14848929Y-11043500D02*
X14829881Y-11014929D01*
X14829881Y-11014929D02*
X14820357Y-11005405D01*
D14*
X9952500Y-11379500D02*
X9952500Y-11469500D01*
X9907500Y-11424500D02*
X9997500Y-11424500D01*
D11*
X10283214Y-11297976D02*
X10302262Y-11297976D01*
X10302262Y-11297976D02*
X10321309Y-11307500D01*
X10321309Y-11307500D02*
X10330833Y-11317024D01*
X10330833Y-11317024D02*
X10340357Y-11336071D01*
X10340357Y-11336071D02*
X10349881Y-11374167D01*
X10349881Y-11374167D02*
X10349881Y-11421786D01*
X10349881Y-11421786D02*
X10340357Y-11459881D01*
X10340357Y-11459881D02*
X10330833Y-11478928D01*
X10330833Y-11478928D02*
X10321309Y-11488452D01*
X10321309Y-11488452D02*
X10302262Y-11497976D01*
X10302262Y-11497976D02*
X10283214Y-11497976D01*
X10283214Y-11497976D02*
X10264167Y-11488452D01*
X10264167Y-11488452D02*
X10254643Y-11478928D01*
X10254643Y-11478928D02*
X10245119Y-11459881D01*
X10245119Y-11459881D02*
X10235595Y-11421786D01*
X10235595Y-11421786D02*
X10235595Y-11374167D01*
X10235595Y-11374167D02*
X10245119Y-11336071D01*
X10245119Y-11336071D02*
X10254643Y-11317024D01*
X10254643Y-11317024D02*
X10264167Y-11307500D01*
X10264167Y-11307500D02*
X10283214Y-11297976D01*
X10435595Y-11478928D02*
X10445119Y-11488452D01*
X10445119Y-11488452D02*
X10435595Y-11497976D01*
X10435595Y-11497976D02*
X10426071Y-11488452D01*
X10426071Y-11488452D02*
X10435595Y-11478928D01*
X10435595Y-11478928D02*
X10435595Y-11497976D01*
X10540357Y-11497976D02*
X10578452Y-11497976D01*
X10578452Y-11497976D02*
X10597500Y-11488452D01*
X10597500Y-11488452D02*
X10607024Y-11478928D01*
X10607024Y-11478928D02*
X10626071Y-11450357D01*
X10626071Y-11450357D02*
X10635595Y-11412262D01*
X10635595Y-11412262D02*
X10635595Y-11336071D01*
X10635595Y-11336071D02*
X10626071Y-11317024D01*
X10626071Y-11317024D02*
X10616548Y-11307500D01*
X10616548Y-11307500D02*
X10597500Y-11297976D01*
X10597500Y-11297976D02*
X10559405Y-11297976D01*
X10559405Y-11297976D02*
X10540357Y-11307500D01*
X10540357Y-11307500D02*
X10530833Y-11317024D01*
X10530833Y-11317024D02*
X10521309Y-11336071D01*
X10521309Y-11336071D02*
X10521309Y-11383690D01*
X10521309Y-11383690D02*
X10530833Y-11402738D01*
X10530833Y-11402738D02*
X10540357Y-11412262D01*
X10540357Y-11412262D02*
X10559405Y-11421786D01*
X10559405Y-11421786D02*
X10597500Y-11421786D01*
X10597500Y-11421786D02*
X10616548Y-11412262D01*
X10616548Y-11412262D02*
X10626071Y-11402738D01*
X10626071Y-11402738D02*
X10635595Y-11383690D01*
X10759405Y-11297976D02*
X10778452Y-11297976D01*
X10778452Y-11297976D02*
X10797500Y-11307500D01*
X10797500Y-11307500D02*
X10807024Y-11317024D01*
X10807024Y-11317024D02*
X10816548Y-11336071D01*
X10816548Y-11336071D02*
X10826071Y-11374167D01*
X10826071Y-11374167D02*
X10826071Y-11421786D01*
X10826071Y-11421786D02*
X10816548Y-11459881D01*
X10816548Y-11459881D02*
X10807024Y-11478928D01*
X10807024Y-11478928D02*
X10797500Y-11488452D01*
X10797500Y-11488452D02*
X10778452Y-11497976D01*
X10778452Y-11497976D02*
X10759405Y-11497976D01*
X10759405Y-11497976D02*
X10740357Y-11488452D01*
X10740357Y-11488452D02*
X10730833Y-11478928D01*
X10730833Y-11478928D02*
X10721309Y-11459881D01*
X10721309Y-11459881D02*
X10711786Y-11421786D01*
X10711786Y-11421786D02*
X10711786Y-11374167D01*
X10711786Y-11374167D02*
X10721309Y-11336071D01*
X10721309Y-11336071D02*
X10730833Y-11317024D01*
X10730833Y-11317024D02*
X10740357Y-11307500D01*
X10740357Y-11307500D02*
X10759405Y-11297976D01*
X10949881Y-11297976D02*
X10968929Y-11297976D01*
X10968929Y-11297976D02*
X10987976Y-11307500D01*
X10987976Y-11307500D02*
X10997500Y-11317024D01*
X10997500Y-11317024D02*
X11007024Y-11336071D01*
X11007024Y-11336071D02*
X11016548Y-11374167D01*
X11016548Y-11374167D02*
X11016548Y-11421786D01*
X11016548Y-11421786D02*
X11007024Y-11459881D01*
X11007024Y-11459881D02*
X10997500Y-11478928D01*
X10997500Y-11478928D02*
X10987976Y-11488452D01*
X10987976Y-11488452D02*
X10968929Y-11497976D01*
X10968929Y-11497976D02*
X10949881Y-11497976D01*
X10949881Y-11497976D02*
X10930833Y-11488452D01*
X10930833Y-11488452D02*
X10921309Y-11478928D01*
X10921309Y-11478928D02*
X10911786Y-11459881D01*
X10911786Y-11459881D02*
X10902262Y-11421786D01*
X10902262Y-11421786D02*
X10902262Y-11374167D01*
X10902262Y-11374167D02*
X10911786Y-11336071D01*
X10911786Y-11336071D02*
X10921309Y-11317024D01*
X10921309Y-11317024D02*
X10930833Y-11307500D01*
X10930833Y-11307500D02*
X10949881Y-11297976D01*
X11102262Y-11497976D02*
X11102262Y-11364643D01*
X11102262Y-11383690D02*
X11111786Y-11374167D01*
X11111786Y-11374167D02*
X11130833Y-11364643D01*
X11130833Y-11364643D02*
X11159405Y-11364643D01*
X11159405Y-11364643D02*
X11178452Y-11374167D01*
X11178452Y-11374167D02*
X11187976Y-11393214D01*
X11187976Y-11393214D02*
X11187976Y-11497976D01*
X11187976Y-11393214D02*
X11197500Y-11374167D01*
X11197500Y-11374167D02*
X11216547Y-11364643D01*
X11216547Y-11364643D02*
X11245119Y-11364643D01*
X11245119Y-11364643D02*
X11264167Y-11374167D01*
X11264167Y-11374167D02*
X11273690Y-11393214D01*
X11273690Y-11393214D02*
X11273690Y-11497976D01*
X11368928Y-11497976D02*
X11368928Y-11364643D01*
X11368928Y-11383690D02*
X11378452Y-11374167D01*
X11378452Y-11374167D02*
X11397500Y-11364643D01*
X11397500Y-11364643D02*
X11426071Y-11364643D01*
X11426071Y-11364643D02*
X11445119Y-11374167D01*
X11445119Y-11374167D02*
X11454643Y-11393214D01*
X11454643Y-11393214D02*
X11454643Y-11497976D01*
X11454643Y-11393214D02*
X11464167Y-11374167D01*
X11464167Y-11374167D02*
X11483214Y-11364643D01*
X11483214Y-11364643D02*
X11511786Y-11364643D01*
X11511786Y-11364643D02*
X11530833Y-11374167D01*
X11530833Y-11374167D02*
X11540357Y-11393214D01*
X11540357Y-11393214D02*
X11540357Y-11497976D01*
X11898452Y-11288452D02*
X11727024Y-11545595D01*
X12123214Y-11297976D02*
X12142262Y-11297976D01*
X12142262Y-11297976D02*
X12161309Y-11307500D01*
X12161309Y-11307500D02*
X12170833Y-11317024D01*
X12170833Y-11317024D02*
X12180357Y-11336071D01*
X12180357Y-11336071D02*
X12189881Y-11374167D01*
X12189881Y-11374167D02*
X12189881Y-11421786D01*
X12189881Y-11421786D02*
X12180357Y-11459881D01*
X12180357Y-11459881D02*
X12170833Y-11478928D01*
X12170833Y-11478928D02*
X12161309Y-11488452D01*
X12161309Y-11488452D02*
X12142262Y-11497976D01*
X12142262Y-11497976D02*
X12123214Y-11497976D01*
X12123214Y-11497976D02*
X12104167Y-11488452D01*
X12104167Y-11488452D02*
X12094643Y-11478928D01*
X12094643Y-11478928D02*
X12085119Y-11459881D01*
X12085119Y-11459881D02*
X12075595Y-11421786D01*
X12075595Y-11421786D02*
X12075595Y-11374167D01*
X12075595Y-11374167D02*
X12085119Y-11336071D01*
X12085119Y-11336071D02*
X12094643Y-11317024D01*
X12094643Y-11317024D02*
X12104167Y-11307500D01*
X12104167Y-11307500D02*
X12123214Y-11297976D01*
X12275595Y-11478928D02*
X12285119Y-11488452D01*
X12285119Y-11488452D02*
X12275595Y-11497976D01*
X12275595Y-11497976D02*
X12266071Y-11488452D01*
X12266071Y-11488452D02*
X12275595Y-11478928D01*
X12275595Y-11478928D02*
X12275595Y-11497976D01*
X12408928Y-11297976D02*
X12427976Y-11297976D01*
X12427976Y-11297976D02*
X12447024Y-11307500D01*
X12447024Y-11307500D02*
X12456548Y-11317024D01*
X12456548Y-11317024D02*
X12466071Y-11336071D01*
X12466071Y-11336071D02*
X12475595Y-11374167D01*
X12475595Y-11374167D02*
X12475595Y-11421786D01*
X12475595Y-11421786D02*
X12466071Y-11459881D01*
X12466071Y-11459881D02*
X12456548Y-11478928D01*
X12456548Y-11478928D02*
X12447024Y-11488452D01*
X12447024Y-11488452D02*
X12427976Y-11497976D01*
X12427976Y-11497976D02*
X12408928Y-11497976D01*
X12408928Y-11497976D02*
X12389881Y-11488452D01*
X12389881Y-11488452D02*
X12380357Y-11478928D01*
X12380357Y-11478928D02*
X12370833Y-11459881D01*
X12370833Y-11459881D02*
X12361309Y-11421786D01*
X12361309Y-11421786D02*
X12361309Y-11374167D01*
X12361309Y-11374167D02*
X12370833Y-11336071D01*
X12370833Y-11336071D02*
X12380357Y-11317024D01*
X12380357Y-11317024D02*
X12389881Y-11307500D01*
X12389881Y-11307500D02*
X12408928Y-11297976D01*
X12542262Y-11297976D02*
X12666071Y-11297976D01*
X12666071Y-11297976D02*
X12599405Y-11374167D01*
X12599405Y-11374167D02*
X12627976Y-11374167D01*
X12627976Y-11374167D02*
X12647024Y-11383690D01*
X12647024Y-11383690D02*
X12656548Y-11393214D01*
X12656548Y-11393214D02*
X12666071Y-11412262D01*
X12666071Y-11412262D02*
X12666071Y-11459881D01*
X12666071Y-11459881D02*
X12656548Y-11478928D01*
X12656548Y-11478928D02*
X12647024Y-11488452D01*
X12647024Y-11488452D02*
X12627976Y-11497976D01*
X12627976Y-11497976D02*
X12570833Y-11497976D01*
X12570833Y-11497976D02*
X12551786Y-11488452D01*
X12551786Y-11488452D02*
X12542262Y-11478928D01*
X12847024Y-11297976D02*
X12751786Y-11297976D01*
X12751786Y-11297976D02*
X12742262Y-11393214D01*
X12742262Y-11393214D02*
X12751786Y-11383690D01*
X12751786Y-11383690D02*
X12770833Y-11374167D01*
X12770833Y-11374167D02*
X12818452Y-11374167D01*
X12818452Y-11374167D02*
X12837500Y-11383690D01*
X12837500Y-11383690D02*
X12847024Y-11393214D01*
X12847024Y-11393214D02*
X12856548Y-11412262D01*
X12856548Y-11412262D02*
X12856548Y-11459881D01*
X12856548Y-11459881D02*
X12847024Y-11478928D01*
X12847024Y-11478928D02*
X12837500Y-11488452D01*
X12837500Y-11488452D02*
X12818452Y-11497976D01*
X12818452Y-11497976D02*
X12770833Y-11497976D01*
X12770833Y-11497976D02*
X12751786Y-11488452D01*
X12751786Y-11488452D02*
X12742262Y-11478928D01*
X13027976Y-11364643D02*
X13027976Y-11497976D01*
X12980357Y-11288452D02*
X12932738Y-11431309D01*
X12932738Y-11431309D02*
X13056548Y-11431309D01*
X13123214Y-11297976D02*
X13123214Y-11336071D01*
X13199405Y-11297976D02*
X13199405Y-11336071D01*
X13462262Y-11574167D02*
X13452738Y-11564643D01*
X13452738Y-11564643D02*
X13433690Y-11536071D01*
X13433690Y-11536071D02*
X13424167Y-11517024D01*
X13424167Y-11517024D02*
X13414643Y-11488452D01*
X13414643Y-11488452D02*
X13405119Y-11440833D01*
X13405119Y-11440833D02*
X13405119Y-11402738D01*
X13405119Y-11402738D02*
X13414643Y-11355119D01*
X13414643Y-11355119D02*
X13424167Y-11326548D01*
X13424167Y-11326548D02*
X13433690Y-11307500D01*
X13433690Y-11307500D02*
X13452738Y-11278928D01*
X13452738Y-11278928D02*
X13462262Y-11269405D01*
X13624167Y-11364643D02*
X13624167Y-11497976D01*
X13576548Y-11288452D02*
X13528929Y-11431309D01*
X13528929Y-11431309D02*
X13652738Y-11431309D01*
X13848929Y-11497976D02*
X13848929Y-11297976D01*
X13934643Y-11497976D02*
X13934643Y-11393214D01*
X13934643Y-11393214D02*
X13925119Y-11374167D01*
X13925119Y-11374167D02*
X13906071Y-11364643D01*
X13906071Y-11364643D02*
X13877500Y-11364643D01*
X13877500Y-11364643D02*
X13858452Y-11374167D01*
X13858452Y-11374167D02*
X13848929Y-11383690D01*
X14058452Y-11497976D02*
X14039405Y-11488452D01*
X14039405Y-11488452D02*
X14029881Y-11478928D01*
X14029881Y-11478928D02*
X14020357Y-11459881D01*
X14020357Y-11459881D02*
X14020357Y-11402738D01*
X14020357Y-11402738D02*
X14029881Y-11383690D01*
X14029881Y-11383690D02*
X14039405Y-11374167D01*
X14039405Y-11374167D02*
X14058452Y-11364643D01*
X14058452Y-11364643D02*
X14087024Y-11364643D01*
X14087024Y-11364643D02*
X14106071Y-11374167D01*
X14106071Y-11374167D02*
X14115595Y-11383690D01*
X14115595Y-11383690D02*
X14125119Y-11402738D01*
X14125119Y-11402738D02*
X14125119Y-11459881D01*
X14125119Y-11459881D02*
X14115595Y-11478928D01*
X14115595Y-11478928D02*
X14106071Y-11488452D01*
X14106071Y-11488452D02*
X14087024Y-11497976D01*
X14087024Y-11497976D02*
X14058452Y-11497976D01*
X14239405Y-11497976D02*
X14220357Y-11488452D01*
X14220357Y-11488452D02*
X14210833Y-11469405D01*
X14210833Y-11469405D02*
X14210833Y-11297976D01*
X14391786Y-11488452D02*
X14372738Y-11497976D01*
X14372738Y-11497976D02*
X14334643Y-11497976D01*
X14334643Y-11497976D02*
X14315595Y-11488452D01*
X14315595Y-11488452D02*
X14306071Y-11469405D01*
X14306071Y-11469405D02*
X14306071Y-11393214D01*
X14306071Y-11393214D02*
X14315595Y-11374167D01*
X14315595Y-11374167D02*
X14334643Y-11364643D01*
X14334643Y-11364643D02*
X14372738Y-11364643D01*
X14372738Y-11364643D02*
X14391786Y-11374167D01*
X14391786Y-11374167D02*
X14401310Y-11393214D01*
X14401310Y-11393214D02*
X14401310Y-11412262D01*
X14401310Y-11412262D02*
X14306071Y-11431309D01*
X14477500Y-11488452D02*
X14496548Y-11497976D01*
X14496548Y-11497976D02*
X14534643Y-11497976D01*
X14534643Y-11497976D02*
X14553691Y-11488452D01*
X14553691Y-11488452D02*
X14563214Y-11469405D01*
X14563214Y-11469405D02*
X14563214Y-11459881D01*
X14563214Y-11459881D02*
X14553691Y-11440833D01*
X14553691Y-11440833D02*
X14534643Y-11431309D01*
X14534643Y-11431309D02*
X14506071Y-11431309D01*
X14506071Y-11431309D02*
X14487024Y-11421786D01*
X14487024Y-11421786D02*
X14477500Y-11402738D01*
X14477500Y-11402738D02*
X14477500Y-11393214D01*
X14477500Y-11393214D02*
X14487024Y-11374167D01*
X14487024Y-11374167D02*
X14506071Y-11364643D01*
X14506071Y-11364643D02*
X14534643Y-11364643D01*
X14534643Y-11364643D02*
X14553691Y-11374167D01*
X14629881Y-11574167D02*
X14639405Y-11564643D01*
X14639405Y-11564643D02*
X14658452Y-11536071D01*
X14658452Y-11536071D02*
X14667976Y-11517024D01*
X14667976Y-11517024D02*
X14677500Y-11488452D01*
X14677500Y-11488452D02*
X14687024Y-11440833D01*
X14687024Y-11440833D02*
X14687024Y-11402738D01*
X14687024Y-11402738D02*
X14677500Y-11355119D01*
X14677500Y-11355119D02*
X14667976Y-11326548D01*
X14667976Y-11326548D02*
X14658452Y-11307500D01*
X14658452Y-11307500D02*
X14639405Y-11278928D01*
X14639405Y-11278928D02*
X14629881Y-11269405D01*
D15*
X9982856Y-11723856D02*
X9982856Y-11653144D01*
X9912144Y-11653144D01*
X9912144Y-11723856D01*
X9982856Y-11723856D01*
D11*
X10349881Y-11761976D02*
X10235595Y-11761976D01*
X10292738Y-11761976D02*
X10292738Y-11561976D01*
X10292738Y-11561976D02*
X10273690Y-11590548D01*
X10273690Y-11590548D02*
X10254643Y-11609595D01*
X10254643Y-11609595D02*
X10235595Y-11619119D01*
X10435595Y-11742928D02*
X10445119Y-11752452D01*
X10445119Y-11752452D02*
X10435595Y-11761976D01*
X10435595Y-11761976D02*
X10426071Y-11752452D01*
X10426071Y-11752452D02*
X10435595Y-11742928D01*
X10435595Y-11742928D02*
X10435595Y-11761976D01*
X10568928Y-11561976D02*
X10587976Y-11561976D01*
X10587976Y-11561976D02*
X10607024Y-11571500D01*
X10607024Y-11571500D02*
X10616548Y-11581024D01*
X10616548Y-11581024D02*
X10626071Y-11600071D01*
X10626071Y-11600071D02*
X10635595Y-11638167D01*
X10635595Y-11638167D02*
X10635595Y-11685786D01*
X10635595Y-11685786D02*
X10626071Y-11723881D01*
X10626071Y-11723881D02*
X10616548Y-11742928D01*
X10616548Y-11742928D02*
X10607024Y-11752452D01*
X10607024Y-11752452D02*
X10587976Y-11761976D01*
X10587976Y-11761976D02*
X10568928Y-11761976D01*
X10568928Y-11761976D02*
X10549881Y-11752452D01*
X10549881Y-11752452D02*
X10540357Y-11742928D01*
X10540357Y-11742928D02*
X10530833Y-11723881D01*
X10530833Y-11723881D02*
X10521309Y-11685786D01*
X10521309Y-11685786D02*
X10521309Y-11638167D01*
X10521309Y-11638167D02*
X10530833Y-11600071D01*
X10530833Y-11600071D02*
X10540357Y-11581024D01*
X10540357Y-11581024D02*
X10549881Y-11571500D01*
X10549881Y-11571500D02*
X10568928Y-11561976D01*
X10759405Y-11561976D02*
X10778452Y-11561976D01*
X10778452Y-11561976D02*
X10797500Y-11571500D01*
X10797500Y-11571500D02*
X10807024Y-11581024D01*
X10807024Y-11581024D02*
X10816548Y-11600071D01*
X10816548Y-11600071D02*
X10826071Y-11638167D01*
X10826071Y-11638167D02*
X10826071Y-11685786D01*
X10826071Y-11685786D02*
X10816548Y-11723881D01*
X10816548Y-11723881D02*
X10807024Y-11742928D01*
X10807024Y-11742928D02*
X10797500Y-11752452D01*
X10797500Y-11752452D02*
X10778452Y-11761976D01*
X10778452Y-11761976D02*
X10759405Y-11761976D01*
X10759405Y-11761976D02*
X10740357Y-11752452D01*
X10740357Y-11752452D02*
X10730833Y-11742928D01*
X10730833Y-11742928D02*
X10721309Y-11723881D01*
X10721309Y-11723881D02*
X10711786Y-11685786D01*
X10711786Y-11685786D02*
X10711786Y-11638167D01*
X10711786Y-11638167D02*
X10721309Y-11600071D01*
X10721309Y-11600071D02*
X10730833Y-11581024D01*
X10730833Y-11581024D02*
X10740357Y-11571500D01*
X10740357Y-11571500D02*
X10759405Y-11561976D01*
X10949881Y-11561976D02*
X10968929Y-11561976D01*
X10968929Y-11561976D02*
X10987976Y-11571500D01*
X10987976Y-11571500D02*
X10997500Y-11581024D01*
X10997500Y-11581024D02*
X11007024Y-11600071D01*
X11007024Y-11600071D02*
X11016548Y-11638167D01*
X11016548Y-11638167D02*
X11016548Y-11685786D01*
X11016548Y-11685786D02*
X11007024Y-11723881D01*
X11007024Y-11723881D02*
X10997500Y-11742928D01*
X10997500Y-11742928D02*
X10987976Y-11752452D01*
X10987976Y-11752452D02*
X10968929Y-11761976D01*
X10968929Y-11761976D02*
X10949881Y-11761976D01*
X10949881Y-11761976D02*
X10930833Y-11752452D01*
X10930833Y-11752452D02*
X10921309Y-11742928D01*
X10921309Y-11742928D02*
X10911786Y-11723881D01*
X10911786Y-11723881D02*
X10902262Y-11685786D01*
X10902262Y-11685786D02*
X10902262Y-11638167D01*
X10902262Y-11638167D02*
X10911786Y-11600071D01*
X10911786Y-11600071D02*
X10921309Y-11581024D01*
X10921309Y-11581024D02*
X10930833Y-11571500D01*
X10930833Y-11571500D02*
X10949881Y-11561976D01*
X11102262Y-11761976D02*
X11102262Y-11628643D01*
X11102262Y-11647690D02*
X11111786Y-11638167D01*
X11111786Y-11638167D02*
X11130833Y-11628643D01*
X11130833Y-11628643D02*
X11159405Y-11628643D01*
X11159405Y-11628643D02*
X11178452Y-11638167D01*
X11178452Y-11638167D02*
X11187976Y-11657214D01*
X11187976Y-11657214D02*
X11187976Y-11761976D01*
X11187976Y-11657214D02*
X11197500Y-11638167D01*
X11197500Y-11638167D02*
X11216547Y-11628643D01*
X11216547Y-11628643D02*
X11245119Y-11628643D01*
X11245119Y-11628643D02*
X11264167Y-11638167D01*
X11264167Y-11638167D02*
X11273690Y-11657214D01*
X11273690Y-11657214D02*
X11273690Y-11761976D01*
X11368928Y-11761976D02*
X11368928Y-11628643D01*
X11368928Y-11647690D02*
X11378452Y-11638167D01*
X11378452Y-11638167D02*
X11397500Y-11628643D01*
X11397500Y-11628643D02*
X11426071Y-11628643D01*
X11426071Y-11628643D02*
X11445119Y-11638167D01*
X11445119Y-11638167D02*
X11454643Y-11657214D01*
X11454643Y-11657214D02*
X11454643Y-11761976D01*
X11454643Y-11657214D02*
X11464167Y-11638167D01*
X11464167Y-11638167D02*
X11483214Y-11628643D01*
X11483214Y-11628643D02*
X11511786Y-11628643D01*
X11511786Y-11628643D02*
X11530833Y-11638167D01*
X11530833Y-11638167D02*
X11540357Y-11657214D01*
X11540357Y-11657214D02*
X11540357Y-11761976D01*
X11898452Y-11552452D02*
X11727024Y-11809595D01*
X12123214Y-11561976D02*
X12142262Y-11561976D01*
X12142262Y-11561976D02*
X12161309Y-11571500D01*
X12161309Y-11571500D02*
X12170833Y-11581024D01*
X12170833Y-11581024D02*
X12180357Y-11600071D01*
X12180357Y-11600071D02*
X12189881Y-11638167D01*
X12189881Y-11638167D02*
X12189881Y-11685786D01*
X12189881Y-11685786D02*
X12180357Y-11723881D01*
X12180357Y-11723881D02*
X12170833Y-11742928D01*
X12170833Y-11742928D02*
X12161309Y-11752452D01*
X12161309Y-11752452D02*
X12142262Y-11761976D01*
X12142262Y-11761976D02*
X12123214Y-11761976D01*
X12123214Y-11761976D02*
X12104167Y-11752452D01*
X12104167Y-11752452D02*
X12094643Y-11742928D01*
X12094643Y-11742928D02*
X12085119Y-11723881D01*
X12085119Y-11723881D02*
X12075595Y-11685786D01*
X12075595Y-11685786D02*
X12075595Y-11638167D01*
X12075595Y-11638167D02*
X12085119Y-11600071D01*
X12085119Y-11600071D02*
X12094643Y-11581024D01*
X12094643Y-11581024D02*
X12104167Y-11571500D01*
X12104167Y-11571500D02*
X12123214Y-11561976D01*
X12275595Y-11742928D02*
X12285119Y-11752452D01*
X12285119Y-11752452D02*
X12275595Y-11761976D01*
X12275595Y-11761976D02*
X12266071Y-11752452D01*
X12266071Y-11752452D02*
X12275595Y-11742928D01*
X12275595Y-11742928D02*
X12275595Y-11761976D01*
X12408928Y-11561976D02*
X12427976Y-11561976D01*
X12427976Y-11561976D02*
X12447024Y-11571500D01*
X12447024Y-11571500D02*
X12456548Y-11581024D01*
X12456548Y-11581024D02*
X12466071Y-11600071D01*
X12466071Y-11600071D02*
X12475595Y-11638167D01*
X12475595Y-11638167D02*
X12475595Y-11685786D01*
X12475595Y-11685786D02*
X12466071Y-11723881D01*
X12466071Y-11723881D02*
X12456548Y-11742928D01*
X12456548Y-11742928D02*
X12447024Y-11752452D01*
X12447024Y-11752452D02*
X12427976Y-11761976D01*
X12427976Y-11761976D02*
X12408928Y-11761976D01*
X12408928Y-11761976D02*
X12389881Y-11752452D01*
X12389881Y-11752452D02*
X12380357Y-11742928D01*
X12380357Y-11742928D02*
X12370833Y-11723881D01*
X12370833Y-11723881D02*
X12361309Y-11685786D01*
X12361309Y-11685786D02*
X12361309Y-11638167D01*
X12361309Y-11638167D02*
X12370833Y-11600071D01*
X12370833Y-11600071D02*
X12380357Y-11581024D01*
X12380357Y-11581024D02*
X12389881Y-11571500D01*
X12389881Y-11571500D02*
X12408928Y-11561976D01*
X12542262Y-11561976D02*
X12666071Y-11561976D01*
X12666071Y-11561976D02*
X12599405Y-11638167D01*
X12599405Y-11638167D02*
X12627976Y-11638167D01*
X12627976Y-11638167D02*
X12647024Y-11647690D01*
X12647024Y-11647690D02*
X12656548Y-11657214D01*
X12656548Y-11657214D02*
X12666071Y-11676262D01*
X12666071Y-11676262D02*
X12666071Y-11723881D01*
X12666071Y-11723881D02*
X12656548Y-11742928D01*
X12656548Y-11742928D02*
X12647024Y-11752452D01*
X12647024Y-11752452D02*
X12627976Y-11761976D01*
X12627976Y-11761976D02*
X12570833Y-11761976D01*
X12570833Y-11761976D02*
X12551786Y-11752452D01*
X12551786Y-11752452D02*
X12542262Y-11742928D01*
X12761309Y-11761976D02*
X12799405Y-11761976D01*
X12799405Y-11761976D02*
X12818452Y-11752452D01*
X12818452Y-11752452D02*
X12827976Y-11742928D01*
X12827976Y-11742928D02*
X12847024Y-11714357D01*
X12847024Y-11714357D02*
X12856548Y-11676262D01*
X12856548Y-11676262D02*
X12856548Y-11600071D01*
X12856548Y-11600071D02*
X12847024Y-11581024D01*
X12847024Y-11581024D02*
X12837500Y-11571500D01*
X12837500Y-11571500D02*
X12818452Y-11561976D01*
X12818452Y-11561976D02*
X12780357Y-11561976D01*
X12780357Y-11561976D02*
X12761309Y-11571500D01*
X12761309Y-11571500D02*
X12751786Y-11581024D01*
X12751786Y-11581024D02*
X12742262Y-11600071D01*
X12742262Y-11600071D02*
X12742262Y-11647690D01*
X12742262Y-11647690D02*
X12751786Y-11666738D01*
X12751786Y-11666738D02*
X12761309Y-11676262D01*
X12761309Y-11676262D02*
X12780357Y-11685786D01*
X12780357Y-11685786D02*
X12818452Y-11685786D01*
X12818452Y-11685786D02*
X12837500Y-11676262D01*
X12837500Y-11676262D02*
X12847024Y-11666738D01*
X12847024Y-11666738D02*
X12856548Y-11647690D01*
X13027976Y-11628643D02*
X13027976Y-11761976D01*
X12980357Y-11552452D02*
X12932738Y-11695309D01*
X12932738Y-11695309D02*
X13056548Y-11695309D01*
X13123214Y-11561976D02*
X13123214Y-11600071D01*
X13199405Y-11561976D02*
X13199405Y-11600071D01*
X13462262Y-11838167D02*
X13452738Y-11828643D01*
X13452738Y-11828643D02*
X13433690Y-11800071D01*
X13433690Y-11800071D02*
X13424167Y-11781024D01*
X13424167Y-11781024D02*
X13414643Y-11752452D01*
X13414643Y-11752452D02*
X13405119Y-11704833D01*
X13405119Y-11704833D02*
X13405119Y-11666738D01*
X13405119Y-11666738D02*
X13414643Y-11619119D01*
X13414643Y-11619119D02*
X13424167Y-11590548D01*
X13424167Y-11590548D02*
X13433690Y-11571500D01*
X13433690Y-11571500D02*
X13452738Y-11542928D01*
X13452738Y-11542928D02*
X13462262Y-11533405D01*
X13624167Y-11628643D02*
X13624167Y-11761976D01*
X13576548Y-11552452D02*
X13528929Y-11695309D01*
X13528929Y-11695309D02*
X13652738Y-11695309D01*
X13814643Y-11561976D02*
X13776548Y-11561976D01*
X13776548Y-11561976D02*
X13757500Y-11571500D01*
X13757500Y-11571500D02*
X13747976Y-11581024D01*
X13747976Y-11581024D02*
X13728929Y-11609595D01*
X13728929Y-11609595D02*
X13719405Y-11647690D01*
X13719405Y-11647690D02*
X13719405Y-11723881D01*
X13719405Y-11723881D02*
X13728929Y-11742928D01*
X13728929Y-11742928D02*
X13738452Y-11752452D01*
X13738452Y-11752452D02*
X13757500Y-11761976D01*
X13757500Y-11761976D02*
X13795595Y-11761976D01*
X13795595Y-11761976D02*
X13814643Y-11752452D01*
X13814643Y-11752452D02*
X13824167Y-11742928D01*
X13824167Y-11742928D02*
X13833690Y-11723881D01*
X13833690Y-11723881D02*
X13833690Y-11676262D01*
X13833690Y-11676262D02*
X13824167Y-11657214D01*
X13824167Y-11657214D02*
X13814643Y-11647690D01*
X13814643Y-11647690D02*
X13795595Y-11638167D01*
X13795595Y-11638167D02*
X13757500Y-11638167D01*
X13757500Y-11638167D02*
X13738452Y-11647690D01*
X13738452Y-11647690D02*
X13728929Y-11657214D01*
X13728929Y-11657214D02*
X13719405Y-11676262D01*
X14039405Y-11761976D02*
X14039405Y-11561976D01*
X14125119Y-11761976D02*
X14125119Y-11657214D01*
X14125119Y-11657214D02*
X14115595Y-11638167D01*
X14115595Y-11638167D02*
X14096548Y-11628643D01*
X14096548Y-11628643D02*
X14067976Y-11628643D01*
X14067976Y-11628643D02*
X14048929Y-11638167D01*
X14048929Y-11638167D02*
X14039405Y-11647690D01*
X14248929Y-11761976D02*
X14229881Y-11752452D01*
X14229881Y-11752452D02*
X14220357Y-11742928D01*
X14220357Y-11742928D02*
X14210833Y-11723881D01*
X14210833Y-11723881D02*
X14210833Y-11666738D01*
X14210833Y-11666738D02*
X14220357Y-11647690D01*
X14220357Y-11647690D02*
X14229881Y-11638167D01*
X14229881Y-11638167D02*
X14248929Y-11628643D01*
X14248929Y-11628643D02*
X14277500Y-11628643D01*
X14277500Y-11628643D02*
X14296548Y-11638167D01*
X14296548Y-11638167D02*
X14306071Y-11647690D01*
X14306071Y-11647690D02*
X14315595Y-11666738D01*
X14315595Y-11666738D02*
X14315595Y-11723881D01*
X14315595Y-11723881D02*
X14306071Y-11742928D01*
X14306071Y-11742928D02*
X14296548Y-11752452D01*
X14296548Y-11752452D02*
X14277500Y-11761976D01*
X14277500Y-11761976D02*
X14248929Y-11761976D01*
X14429881Y-11761976D02*
X14410833Y-11752452D01*
X14410833Y-11752452D02*
X14401310Y-11733405D01*
X14401310Y-11733405D02*
X14401310Y-11561976D01*
X14582262Y-11752452D02*
X14563214Y-11761976D01*
X14563214Y-11761976D02*
X14525119Y-11761976D01*
X14525119Y-11761976D02*
X14506071Y-11752452D01*
X14506071Y-11752452D02*
X14496548Y-11733405D01*
X14496548Y-11733405D02*
X14496548Y-11657214D01*
X14496548Y-11657214D02*
X14506071Y-11638167D01*
X14506071Y-11638167D02*
X14525119Y-11628643D01*
X14525119Y-11628643D02*
X14563214Y-11628643D01*
X14563214Y-11628643D02*
X14582262Y-11638167D01*
X14582262Y-11638167D02*
X14591786Y-11657214D01*
X14591786Y-11657214D02*
X14591786Y-11676262D01*
X14591786Y-11676262D02*
X14496548Y-11695309D01*
X14667976Y-11752452D02*
X14687024Y-11761976D01*
X14687024Y-11761976D02*
X14725119Y-11761976D01*
X14725119Y-11761976D02*
X14744167Y-11752452D01*
X14744167Y-11752452D02*
X14753691Y-11733405D01*
X14753691Y-11733405D02*
X14753691Y-11723881D01*
X14753691Y-11723881D02*
X14744167Y-11704833D01*
X14744167Y-11704833D02*
X14725119Y-11695309D01*
X14725119Y-11695309D02*
X14696548Y-11695309D01*
X14696548Y-11695309D02*
X14677500Y-11685786D01*
X14677500Y-11685786D02*
X14667976Y-11666738D01*
X14667976Y-11666738D02*
X14667976Y-11657214D01*
X14667976Y-11657214D02*
X14677500Y-11638167D01*
X14677500Y-11638167D02*
X14696548Y-11628643D01*
X14696548Y-11628643D02*
X14725119Y-11628643D01*
X14725119Y-11628643D02*
X14744167Y-11638167D01*
X14820357Y-11838167D02*
X14829881Y-11828643D01*
X14829881Y-11828643D02*
X14848929Y-11800071D01*
X14848929Y-11800071D02*
X14858452Y-11781024D01*
X14858452Y-11781024D02*
X14867976Y-11752452D01*
X14867976Y-11752452D02*
X14877500Y-11704833D01*
X14877500Y-11704833D02*
X14877500Y-11666738D01*
X14877500Y-11666738D02*
X14867976Y-11619119D01*
X14867976Y-11619119D02*
X14858452Y-11590548D01*
X14858452Y-11590548D02*
X14848929Y-11571500D01*
X14848929Y-11571500D02*
X14829881Y-11542928D01*
X14829881Y-11542928D02*
X14820357Y-11533405D01*
D16*
X9932500Y-12017500D02*
X9997500Y-11952500D01*
X9932500Y-11887500D01*
X9867500Y-11952500D01*
X9932500Y-12017500D01*
D11*
X10349881Y-12025976D02*
X10235595Y-12025976D01*
X10292738Y-12025976D02*
X10292738Y-11825976D01*
X10292738Y-11825976D02*
X10273690Y-11854548D01*
X10273690Y-11854548D02*
X10254643Y-11873595D01*
X10254643Y-11873595D02*
X10235595Y-11883119D01*
X10435595Y-12006928D02*
X10445119Y-12016452D01*
X10445119Y-12016452D02*
X10435595Y-12025976D01*
X10435595Y-12025976D02*
X10426071Y-12016452D01*
X10426071Y-12016452D02*
X10435595Y-12006928D01*
X10435595Y-12006928D02*
X10435595Y-12025976D01*
X10511786Y-11825976D02*
X10635595Y-11825976D01*
X10635595Y-11825976D02*
X10568928Y-11902167D01*
X10568928Y-11902167D02*
X10597500Y-11902167D01*
X10597500Y-11902167D02*
X10616548Y-11911690D01*
X10616548Y-11911690D02*
X10626071Y-11921214D01*
X10626071Y-11921214D02*
X10635595Y-11940262D01*
X10635595Y-11940262D02*
X10635595Y-11987881D01*
X10635595Y-11987881D02*
X10626071Y-12006928D01*
X10626071Y-12006928D02*
X10616548Y-12016452D01*
X10616548Y-12016452D02*
X10597500Y-12025976D01*
X10597500Y-12025976D02*
X10540357Y-12025976D01*
X10540357Y-12025976D02*
X10521309Y-12016452D01*
X10521309Y-12016452D02*
X10511786Y-12006928D01*
X10759405Y-11825976D02*
X10778452Y-11825976D01*
X10778452Y-11825976D02*
X10797500Y-11835500D01*
X10797500Y-11835500D02*
X10807024Y-11845024D01*
X10807024Y-11845024D02*
X10816548Y-11864071D01*
X10816548Y-11864071D02*
X10826071Y-11902167D01*
X10826071Y-11902167D02*
X10826071Y-11949786D01*
X10826071Y-11949786D02*
X10816548Y-11987881D01*
X10816548Y-11987881D02*
X10807024Y-12006928D01*
X10807024Y-12006928D02*
X10797500Y-12016452D01*
X10797500Y-12016452D02*
X10778452Y-12025976D01*
X10778452Y-12025976D02*
X10759405Y-12025976D01*
X10759405Y-12025976D02*
X10740357Y-12016452D01*
X10740357Y-12016452D02*
X10730833Y-12006928D01*
X10730833Y-12006928D02*
X10721309Y-11987881D01*
X10721309Y-11987881D02*
X10711786Y-11949786D01*
X10711786Y-11949786D02*
X10711786Y-11902167D01*
X10711786Y-11902167D02*
X10721309Y-11864071D01*
X10721309Y-11864071D02*
X10730833Y-11845024D01*
X10730833Y-11845024D02*
X10740357Y-11835500D01*
X10740357Y-11835500D02*
X10759405Y-11825976D01*
X10949881Y-11825976D02*
X10968929Y-11825976D01*
X10968929Y-11825976D02*
X10987976Y-11835500D01*
X10987976Y-11835500D02*
X10997500Y-11845024D01*
X10997500Y-11845024D02*
X11007024Y-11864071D01*
X11007024Y-11864071D02*
X11016548Y-11902167D01*
X11016548Y-11902167D02*
X11016548Y-11949786D01*
X11016548Y-11949786D02*
X11007024Y-11987881D01*
X11007024Y-11987881D02*
X10997500Y-12006928D01*
X10997500Y-12006928D02*
X10987976Y-12016452D01*
X10987976Y-12016452D02*
X10968929Y-12025976D01*
X10968929Y-12025976D02*
X10949881Y-12025976D01*
X10949881Y-12025976D02*
X10930833Y-12016452D01*
X10930833Y-12016452D02*
X10921309Y-12006928D01*
X10921309Y-12006928D02*
X10911786Y-11987881D01*
X10911786Y-11987881D02*
X10902262Y-11949786D01*
X10902262Y-11949786D02*
X10902262Y-11902167D01*
X10902262Y-11902167D02*
X10911786Y-11864071D01*
X10911786Y-11864071D02*
X10921309Y-11845024D01*
X10921309Y-11845024D02*
X10930833Y-11835500D01*
X10930833Y-11835500D02*
X10949881Y-11825976D01*
X11102262Y-12025976D02*
X11102262Y-11892643D01*
X11102262Y-11911690D02*
X11111786Y-11902167D01*
X11111786Y-11902167D02*
X11130833Y-11892643D01*
X11130833Y-11892643D02*
X11159405Y-11892643D01*
X11159405Y-11892643D02*
X11178452Y-11902167D01*
X11178452Y-11902167D02*
X11187976Y-11921214D01*
X11187976Y-11921214D02*
X11187976Y-12025976D01*
X11187976Y-11921214D02*
X11197500Y-11902167D01*
X11197500Y-11902167D02*
X11216547Y-11892643D01*
X11216547Y-11892643D02*
X11245119Y-11892643D01*
X11245119Y-11892643D02*
X11264167Y-11902167D01*
X11264167Y-11902167D02*
X11273690Y-11921214D01*
X11273690Y-11921214D02*
X11273690Y-12025976D01*
X11368928Y-12025976D02*
X11368928Y-11892643D01*
X11368928Y-11911690D02*
X11378452Y-11902167D01*
X11378452Y-11902167D02*
X11397500Y-11892643D01*
X11397500Y-11892643D02*
X11426071Y-11892643D01*
X11426071Y-11892643D02*
X11445119Y-11902167D01*
X11445119Y-11902167D02*
X11454643Y-11921214D01*
X11454643Y-11921214D02*
X11454643Y-12025976D01*
X11454643Y-11921214D02*
X11464167Y-11902167D01*
X11464167Y-11902167D02*
X11483214Y-11892643D01*
X11483214Y-11892643D02*
X11511786Y-11892643D01*
X11511786Y-11892643D02*
X11530833Y-11902167D01*
X11530833Y-11902167D02*
X11540357Y-11921214D01*
X11540357Y-11921214D02*
X11540357Y-12025976D01*
X11898452Y-11816452D02*
X11727024Y-12073595D01*
X12123214Y-11825976D02*
X12142262Y-11825976D01*
X12142262Y-11825976D02*
X12161309Y-11835500D01*
X12161309Y-11835500D02*
X12170833Y-11845024D01*
X12170833Y-11845024D02*
X12180357Y-11864071D01*
X12180357Y-11864071D02*
X12189881Y-11902167D01*
X12189881Y-11902167D02*
X12189881Y-11949786D01*
X12189881Y-11949786D02*
X12180357Y-11987881D01*
X12180357Y-11987881D02*
X12170833Y-12006928D01*
X12170833Y-12006928D02*
X12161309Y-12016452D01*
X12161309Y-12016452D02*
X12142262Y-12025976D01*
X12142262Y-12025976D02*
X12123214Y-12025976D01*
X12123214Y-12025976D02*
X12104167Y-12016452D01*
X12104167Y-12016452D02*
X12094643Y-12006928D01*
X12094643Y-12006928D02*
X12085119Y-11987881D01*
X12085119Y-11987881D02*
X12075595Y-11949786D01*
X12075595Y-11949786D02*
X12075595Y-11902167D01*
X12075595Y-11902167D02*
X12085119Y-11864071D01*
X12085119Y-11864071D02*
X12094643Y-11845024D01*
X12094643Y-11845024D02*
X12104167Y-11835500D01*
X12104167Y-11835500D02*
X12123214Y-11825976D01*
X12275595Y-12006928D02*
X12285119Y-12016452D01*
X12285119Y-12016452D02*
X12275595Y-12025976D01*
X12275595Y-12025976D02*
X12266071Y-12016452D01*
X12266071Y-12016452D02*
X12275595Y-12006928D01*
X12275595Y-12006928D02*
X12275595Y-12025976D01*
X12408928Y-11825976D02*
X12427976Y-11825976D01*
X12427976Y-11825976D02*
X12447024Y-11835500D01*
X12447024Y-11835500D02*
X12456548Y-11845024D01*
X12456548Y-11845024D02*
X12466071Y-11864071D01*
X12466071Y-11864071D02*
X12475595Y-11902167D01*
X12475595Y-11902167D02*
X12475595Y-11949786D01*
X12475595Y-11949786D02*
X12466071Y-11987881D01*
X12466071Y-11987881D02*
X12456548Y-12006928D01*
X12456548Y-12006928D02*
X12447024Y-12016452D01*
X12447024Y-12016452D02*
X12427976Y-12025976D01*
X12427976Y-12025976D02*
X12408928Y-12025976D01*
X12408928Y-12025976D02*
X12389881Y-12016452D01*
X12389881Y-12016452D02*
X12380357Y-12006928D01*
X12380357Y-12006928D02*
X12370833Y-11987881D01*
X12370833Y-11987881D02*
X12361309Y-11949786D01*
X12361309Y-11949786D02*
X12361309Y-11902167D01*
X12361309Y-11902167D02*
X12370833Y-11864071D01*
X12370833Y-11864071D02*
X12380357Y-11845024D01*
X12380357Y-11845024D02*
X12389881Y-11835500D01*
X12389881Y-11835500D02*
X12408928Y-11825976D01*
X12656548Y-11825976D02*
X12561309Y-11825976D01*
X12561309Y-11825976D02*
X12551786Y-11921214D01*
X12551786Y-11921214D02*
X12561309Y-11911690D01*
X12561309Y-11911690D02*
X12580357Y-11902167D01*
X12580357Y-11902167D02*
X12627976Y-11902167D01*
X12627976Y-11902167D02*
X12647024Y-11911690D01*
X12647024Y-11911690D02*
X12656548Y-11921214D01*
X12656548Y-11921214D02*
X12666071Y-11940262D01*
X12666071Y-11940262D02*
X12666071Y-11987881D01*
X12666071Y-11987881D02*
X12656548Y-12006928D01*
X12656548Y-12006928D02*
X12647024Y-12016452D01*
X12647024Y-12016452D02*
X12627976Y-12025976D01*
X12627976Y-12025976D02*
X12580357Y-12025976D01*
X12580357Y-12025976D02*
X12561309Y-12016452D01*
X12561309Y-12016452D02*
X12551786Y-12006928D01*
X12856548Y-12025976D02*
X12742262Y-12025976D01*
X12799405Y-12025976D02*
X12799405Y-11825976D01*
X12799405Y-11825976D02*
X12780357Y-11854548D01*
X12780357Y-11854548D02*
X12761309Y-11873595D01*
X12761309Y-11873595D02*
X12742262Y-11883119D01*
X12932738Y-11845024D02*
X12942262Y-11835500D01*
X12942262Y-11835500D02*
X12961309Y-11825976D01*
X12961309Y-11825976D02*
X13008929Y-11825976D01*
X13008929Y-11825976D02*
X13027976Y-11835500D01*
X13027976Y-11835500D02*
X13037500Y-11845024D01*
X13037500Y-11845024D02*
X13047024Y-11864071D01*
X13047024Y-11864071D02*
X13047024Y-11883119D01*
X13047024Y-11883119D02*
X13037500Y-11911690D01*
X13037500Y-11911690D02*
X12923214Y-12025976D01*
X12923214Y-12025976D02*
X13047024Y-12025976D01*
X13123214Y-11825976D02*
X13123214Y-11864071D01*
X13199405Y-11825976D02*
X13199405Y-11864071D01*
X13462262Y-12102167D02*
X13452738Y-12092643D01*
X13452738Y-12092643D02*
X13433690Y-12064071D01*
X13433690Y-12064071D02*
X13424167Y-12045024D01*
X13424167Y-12045024D02*
X13414643Y-12016452D01*
X13414643Y-12016452D02*
X13405119Y-11968833D01*
X13405119Y-11968833D02*
X13405119Y-11930738D01*
X13405119Y-11930738D02*
X13414643Y-11883119D01*
X13414643Y-11883119D02*
X13424167Y-11854548D01*
X13424167Y-11854548D02*
X13433690Y-11835500D01*
X13433690Y-11835500D02*
X13452738Y-11806928D01*
X13452738Y-11806928D02*
X13462262Y-11797405D01*
X13567024Y-11911690D02*
X13547976Y-11902167D01*
X13547976Y-11902167D02*
X13538452Y-11892643D01*
X13538452Y-11892643D02*
X13528929Y-11873595D01*
X13528929Y-11873595D02*
X13528929Y-11864071D01*
X13528929Y-11864071D02*
X13538452Y-11845024D01*
X13538452Y-11845024D02*
X13547976Y-11835500D01*
X13547976Y-11835500D02*
X13567024Y-11825976D01*
X13567024Y-11825976D02*
X13605119Y-11825976D01*
X13605119Y-11825976D02*
X13624167Y-11835500D01*
X13624167Y-11835500D02*
X13633690Y-11845024D01*
X13633690Y-11845024D02*
X13643214Y-11864071D01*
X13643214Y-11864071D02*
X13643214Y-11873595D01*
X13643214Y-11873595D02*
X13633690Y-11892643D01*
X13633690Y-11892643D02*
X13624167Y-11902167D01*
X13624167Y-11902167D02*
X13605119Y-11911690D01*
X13605119Y-11911690D02*
X13567024Y-11911690D01*
X13567024Y-11911690D02*
X13547976Y-11921214D01*
X13547976Y-11921214D02*
X13538452Y-11930738D01*
X13538452Y-11930738D02*
X13528929Y-11949786D01*
X13528929Y-11949786D02*
X13528929Y-11987881D01*
X13528929Y-11987881D02*
X13538452Y-12006928D01*
X13538452Y-12006928D02*
X13547976Y-12016452D01*
X13547976Y-12016452D02*
X13567024Y-12025976D01*
X13567024Y-12025976D02*
X13605119Y-12025976D01*
X13605119Y-12025976D02*
X13624167Y-12016452D01*
X13624167Y-12016452D02*
X13633690Y-12006928D01*
X13633690Y-12006928D02*
X13643214Y-11987881D01*
X13643214Y-11987881D02*
X13643214Y-11949786D01*
X13643214Y-11949786D02*
X13633690Y-11930738D01*
X13633690Y-11930738D02*
X13624167Y-11921214D01*
X13624167Y-11921214D02*
X13605119Y-11911690D01*
X13848929Y-12025976D02*
X13848929Y-11825976D01*
X13934643Y-12025976D02*
X13934643Y-11921214D01*
X13934643Y-11921214D02*
X13925119Y-11902167D01*
X13925119Y-11902167D02*
X13906071Y-11892643D01*
X13906071Y-11892643D02*
X13877500Y-11892643D01*
X13877500Y-11892643D02*
X13858452Y-11902167D01*
X13858452Y-11902167D02*
X13848929Y-11911690D01*
X14058452Y-12025976D02*
X14039405Y-12016452D01*
X14039405Y-12016452D02*
X14029881Y-12006928D01*
X14029881Y-12006928D02*
X14020357Y-11987881D01*
X14020357Y-11987881D02*
X14020357Y-11930738D01*
X14020357Y-11930738D02*
X14029881Y-11911690D01*
X14029881Y-11911690D02*
X14039405Y-11902167D01*
X14039405Y-11902167D02*
X14058452Y-11892643D01*
X14058452Y-11892643D02*
X14087024Y-11892643D01*
X14087024Y-11892643D02*
X14106071Y-11902167D01*
X14106071Y-11902167D02*
X14115595Y-11911690D01*
X14115595Y-11911690D02*
X14125119Y-11930738D01*
X14125119Y-11930738D02*
X14125119Y-11987881D01*
X14125119Y-11987881D02*
X14115595Y-12006928D01*
X14115595Y-12006928D02*
X14106071Y-12016452D01*
X14106071Y-12016452D02*
X14087024Y-12025976D01*
X14087024Y-12025976D02*
X14058452Y-12025976D01*
X14239405Y-12025976D02*
X14220357Y-12016452D01*
X14220357Y-12016452D02*
X14210833Y-11997405D01*
X14210833Y-11997405D02*
X14210833Y-11825976D01*
X14391786Y-12016452D02*
X14372738Y-12025976D01*
X14372738Y-12025976D02*
X14334643Y-12025976D01*
X14334643Y-12025976D02*
X14315595Y-12016452D01*
X14315595Y-12016452D02*
X14306071Y-11997405D01*
X14306071Y-11997405D02*
X14306071Y-11921214D01*
X14306071Y-11921214D02*
X14315595Y-11902167D01*
X14315595Y-11902167D02*
X14334643Y-11892643D01*
X14334643Y-11892643D02*
X14372738Y-11892643D01*
X14372738Y-11892643D02*
X14391786Y-11902167D01*
X14391786Y-11902167D02*
X14401310Y-11921214D01*
X14401310Y-11921214D02*
X14401310Y-11940262D01*
X14401310Y-11940262D02*
X14306071Y-11959309D01*
X14477500Y-12016452D02*
X14496548Y-12025976D01*
X14496548Y-12025976D02*
X14534643Y-12025976D01*
X14534643Y-12025976D02*
X14553691Y-12016452D01*
X14553691Y-12016452D02*
X14563214Y-11997405D01*
X14563214Y-11997405D02*
X14563214Y-11987881D01*
X14563214Y-11987881D02*
X14553691Y-11968833D01*
X14553691Y-11968833D02*
X14534643Y-11959309D01*
X14534643Y-11959309D02*
X14506071Y-11959309D01*
X14506071Y-11959309D02*
X14487024Y-11949786D01*
X14487024Y-11949786D02*
X14477500Y-11930738D01*
X14477500Y-11930738D02*
X14477500Y-11921214D01*
X14477500Y-11921214D02*
X14487024Y-11902167D01*
X14487024Y-11902167D02*
X14506071Y-11892643D01*
X14506071Y-11892643D02*
X14534643Y-11892643D01*
X14534643Y-11892643D02*
X14553691Y-11902167D01*
X14629881Y-12102167D02*
X14639405Y-12092643D01*
X14639405Y-12092643D02*
X14658452Y-12064071D01*
X14658452Y-12064071D02*
X14667976Y-12045024D01*
X14667976Y-12045024D02*
X14677500Y-12016452D01*
X14677500Y-12016452D02*
X14687024Y-11968833D01*
X14687024Y-11968833D02*
X14687024Y-11930738D01*
X14687024Y-11930738D02*
X14677500Y-11883119D01*
X14677500Y-11883119D02*
X14667976Y-11854548D01*
X14667976Y-11854548D02*
X14658452Y-11835500D01*
X14658452Y-11835500D02*
X14639405Y-11806928D01*
X14639405Y-11806928D02*
X14629881Y-11797405D01*
M02*
