M48
; DRILL file {KiCad (7.0.0)} date Thu Apr 20 13:17:39 2023
; FORMAT={-:-/ absolute / inch / decimal}
; #@! TF.CreationDate,2023-04-20T13:17:39-06:00
; #@! TF.GenerationSoftware,Kicad,Pcbnew,(7.0.0)
; #@! TF.FileFunction,Plated,1,2,PTH
FMAT,2
INCH
; #@! TA.AperFunction,Plated,PTH,ViaDrill
T1C0.0118
; #@! TA.AperFunction,Plated,PTH,ComponentDrill
T2C0.0394
%
G90
G05
T1
X4.7479Y-3.2763
X4.949Y-3.248
X5.2469Y-3.932
X5.2857Y-3.8274
X5.3752Y-3.2544
X5.4998Y-3.2556
X5.5Y-2.4682
X5.5019Y-3.9307
X5.5709Y-3.6873
X5.7154Y-3.7128
X5.8029Y-3.6616
X5.8104Y-4.1661
X5.8146Y-3.9744
X5.8242Y-3.7155
X5.8846Y-3.1769
X5.932Y-3.7276
X5.9396Y-3.4725
X5.9407Y-3.3169
X6.037Y-3.3228
X6.0716Y-3.7655
X6.0771Y-3.4256
X6.0777Y-3.3262
X6.0862Y-3.8946
X6.0863Y-3.2943
X6.1417Y-4.3018
X6.142Y-4.1067
X6.1444Y-4.0069
X6.1977Y-3.9068
X6.2327Y-3.2785
X6.2592Y-3.7505
X6.2601Y-4.1098
X6.2648Y-3.6636
X6.2721Y-4.3115
X6.275Y-3.6235
X6.2768Y-4.5031
X6.2796Y-3.8991
X6.2956Y-3.9395
X6.3103Y-3.3695
X6.3248Y-3.0199
X6.3683Y-3.2405
X6.3763Y-3.4619
X6.3857Y-3.5112
X6.4007Y-4.1623
X6.4644Y-3.1188
X6.5576Y-3.1196
X6.569Y-4.5232
X6.5767Y-3.416
X6.5767Y-3.5005
X6.5791Y-3.5898
X6.6235Y-3.6677
X6.6608Y-3.6674
X6.701Y-3.6554
X6.7397Y-3.6714
X6.8147Y-3.6692
X6.8959Y-3.6723
X6.9868Y-3.6675
X7.0462Y-3.8989
X7.0688Y-4.2388
X7.1806Y-4.309
X7.3149Y-4.7829
T2
X4.0Y-3.2
X4.0Y-3.3
X4.0Y-3.4
X4.0Y-3.5
X4.0Y-3.6
X4.0Y-3.7
X4.6Y-3.2
X4.6Y-3.3
X4.6Y-3.4
X4.6Y-3.5
X4.6Y-3.6
X4.6Y-3.7
X5.5Y-2.3762
X5.5Y-2.6754
X6.5702Y-4.2258
X6.5702Y-4.3258
X6.5702Y-4.4258
X6.6702Y-4.2258
X6.6702Y-4.3258
X6.6702Y-4.4258
X6.9702Y-4.3258
X6.9702Y-4.4258
X6.9702Y-4.5258
X6.9702Y-4.6258
X7.0702Y-4.3258
X7.0702Y-4.4258
X7.0702Y-4.5258
X7.0702Y-4.6258
T0
M30
